mtllib new-1.mtl
v -0.652657 0.517683 0.066117
v -0.652657 0.453408 0.066117
v -0.647296 0.517683 -0.098347
v -0.711311 0.503711 0.064204
v -0.711311 0.453408 0.064204
v -0.705950 0.503711 -0.100260
v -0.644277 0.453408 0.055905
v -0.705950 0.453408 -0.100260
v -0.654280 0.453408 0.061284
v -0.706192 0.453408 0.059409
v -0.647296 0.453408 -0.098347
v -0.649243 0.453408 -0.093268
v -0.701155 0.453408 -0.095141
v -0.654280 0.503711 0.061284
v -0.639600 0.453408 -0.087611
v -0.701155 0.503711 -0.095141
v -0.706192 0.503711 0.059409
v -0.649243 0.503711 -0.093268
vn -0.032583 0.000000 0.999469
vn -0.231498 0.972806 -0.007547
vn 0.999469 0.000000 0.032583
vn 0.000000 -1.000000 0.000000
vn -0.999469 0.000000 -0.032583
vn 0.032583 0.000000 -0.999469
vn 0.036087 0.000000 -0.999349
vn -0.036087 0.000000 0.999349
vn 0.000000 1.000000 0.000000
vn 0.231498 -0.972806 0.007547
usemtl material-0
f 4//1 2//1 1//1
f 3//2 4//2 1//2
f 2//1 4//1 5//1
f 4//2 3//2 6//2
f 4//5 8//5 5//5
f 9//4 2//4 5//4
f 3//6 8//6 6//6
f 8//5 4//5 6//5
f 7//4 2//4 9//4
f 10//4 5//4 8//4
f 5//4 10//4 9//4
f 8//6 3//6 11//6
f 7//4 9//4 12//4
f 10//4 8//4 13//4
f 13//4 8//4 11//4
f 14//5 12//5 9//5
f 7//4 12//4 15//4
f 16//3 10//3 13//3
f 11//4 12//4 13//4
f 12//5 14//5 18//5
f 10//3 16//3 17//3
f 12//8 16//8 13//8
f 17//4 18//4 14//4
f 16//8 12//8 18//8
f 18//4 17//4 16//4
usemtl material-1
f 1//6 2//6 4//6
f 1//10 4//10 3//10
f 5//6 4//6 2//6
f 6//10 3//10 4//10
f 5//3 8//3 4//3
f 5//9 2//9 9//9
f 6//1 8//1 3//1
f 6//3 4//3 8//3
f 9//9 2//9 7//9
f 8//9 5//9 10//9
f 9//9 10//9 5//9
f 11//1 3//1 8//1
f 12//9 9//9 7//9
f 13//9 8//9 10//9
f 10//7 14//7 9//7
f 9//8 14//8 10//8
f 11//9 8//9 13//9
f 9//3 12//3 14//3
f 15//9 12//9 7//9
f 13//5 10//5 16//5
f 14//7 10//7 17//7
f 17//8 10//8 14//8
f 13//9 12//9 11//9
f 18//3 14//3 12//3
f 17//5 16//5 10//5
f 13//7 16//7 12//7
f 14//9 18//9 17//9
f 18//7 12//7 16//7
f 16//9 17//9 18//9