mtllib new-3.mtl
v 0.144015 -0.865619 0.454079
v -0.223672 -0.865619 0.442092
v 0.254670 -0.865619 0.394914
v -0.330237 -0.865619 0.375845
v 0.346239 -0.865619 0.309126
v -0.416027 -0.865619 0.284276
v 0.412486 -0.865619 0.202561
v -0.475192 -0.865619 0.173622
v 0.448893 -0.865619 0.082480
v -0.503702 -0.865619 0.051426
v 0.452983 -0.865619 -0.042931
v -0.499612 -0.865619 -0.073986
v 0.424473 -0.865619 -0.165127
v -0.463205 -0.865619 -0.194066
v 0.365308 -0.865619 -0.275781
v -0.396958 -0.865619 -0.300631
v 0.279519 -0.865619 -0.367352
v -0.305389 -0.865619 -0.386420
v 0.297474 -0.836667 -0.389235
v 0.184632 -0.836667 -0.459384
v 0.185658 -0.832217 -0.461649
vn 0.000000 -1.000000 0.000000
vn 0.454080 -0.510161 -0.730443
vn 0.469076 -0.458910 -0.754565
vn 0.000000 1.000000 0.000000
vn -0.454080 0.510161 0.730443
vn -0.469076 0.458910 0.754565
usemtl material-0
f 1//1 2//1 3//1
f 3//1 2//1 4//1
f 3//1 4//1 5//1
f 5//1 4//1 6//1
f 5//1 6//1 7//1
f 7//1 8//1 9//1
f 9//1 8//1 10//1
f 9//1 10//1 11//1
f 13//1 12//1 14//1
f 13//1 14//1 15//1
f 15//1 14//1 16//1
f 17//1 16//1 18//1
f 20//2 21//3 19//2
usemtl material-1
f 3//4 2//4 1//4
f 4//4 2//4 3//4
f 5//4 4//4 3//4
f 6//4 4//4 5//4
f 7//4 6//4 5//4
f 9//4 8//4 7//4
f 10//4 8//4 9//4
f 11//4 10//4 9//4
f 14//4 12//4 13//4
f 15//4 14//4 13//4
f 16//4 14//4 15//4
f 18//4 16//4 17//4
f 19//5 21//6 20//5