mtllib new-0.mtl
v 0.596577 0.517683 0.106842
v 0.601938 0.517683 -0.057623
v 0.660592 0.503711 -0.055711
v 0.596577 0.453408 0.106842
v 0.655231 0.503711 0.108753
v 0.601938 0.453408 -0.057623
v 0.655231 0.453408 0.108753
v 0.660592 0.453408 -0.055711
v 0.650436 0.453408 0.103636
v 0.603561 0.453408 -0.052789
v 0.598524 0.453408 0.101761
v 0.655473 0.453408 -0.050916
v 0.650436 0.503711 0.103636
v 0.603561 0.503711 -0.052789
v 0.598524 0.503711 0.101761
v 0.655473 0.503711 -0.050916
vn -0.032583 0.000000 0.999469
vn 0.999469 0.000000 0.032583
vn 0.231498 0.972806 0.007547
vn 0.000000 -1.000000 0.000000
vn -0.999469 0.000000 -0.032583
vn 0.032583 0.000000 -0.999469
vn 0.036087 0.000000 -0.999349
vn -0.036087 0.000000 0.999349
vn 0.000000 1.000000 0.000000
vn -0.231498 -0.972806 -0.007547
usemtl material-0
f 1//3 3//3 2//3
f 3//3 1//3 5//3
f 3//6 6//6 2//6
f 7//1 1//1 4//1
f 1//1 7//1 5//1
f 7//2 3//2 5//2
f 6//6 3//6 8//6
f 9//4 7//4 4//4
f 3//2 7//2 8//2
f 10//4 6//4 8//4
f 7//4 9//4 8//4
f 4//4 11//4 9//4
f 8//4 12//4 10//4
f 8//4 9//4 12//4
f 11//7 13//7 9//7
f 12//8 14//8 10//8
f 14//2 11//2 10//2
f 13//5 12//5 9//5
f 13//7 11//7 15//7
f 14//8 12//8 16//8
f 11//2 14//2 15//2
f 12//5 13//5 16//5
f 15//4 16//4 13//4
f 16//4 15//4 14//4
usemtl material-1
f 2//10 3//10 1//10
f 5//10 1//10 3//10
f 2//1 6//1 3//1
f 4//6 1//6 7//6
f 5//6 7//6 1//6
f 5//5 3//5 7//5
f 8//1 3//1 6//1
f 4//9 7//9 9//9
f 8//5 7//5 3//5
f 8//9 6//9 10//9
f 8//9 9//9 7//9
f 9//9 11//9 4//9
f 10//9 12//9 8//9
f 12//9 9//9 8//9
f 9//8 13//8 11//8
f 10//7 14//7 12//7
f 10//5 11//5 14//5
f 9//2 12//2 13//2
f 15//8 11//8 13//8
f 16//7 12//7 14//7
f 15//5 14//5 11//5
f 16//2 13//2 12//2
f 13//9 16//9 15//9
f 14//9 15//9 16//9