# SSTK version 0.8.0
# 3
mtllib original-3.mtl
o mesh3/mesh3-geometry#mesh3-geometry
v -0.671020 0.410883 -0.084871
v -0.668141 0.363465 -0.085354
v -0.668325 0.363453 -0.085157
v -0.670834 0.410895 -0.085067
v -0.670626 0.410908 -0.085239
v -0.667933 0.363478 -0.085526
v -0.670399 0.410922 -0.085384
v -0.667705 0.363492 -0.085672
v -0.670155 0.410936 -0.085501
v -0.667461 0.363506 -0.085788
v -0.669899 0.410952 -0.085586
v -0.667204 0.363522 -0.085874
v -0.668720 0.363426 -0.084454
v -0.671485 0.410852 -0.083906
v -0.671414 0.410856 -0.084166
v -0.668618 0.363434 -0.084704
v -0.671312 0.410864 -0.084416
v -0.668485 0.363442 -0.084940
v -0.671180 0.410873 -0.084652
v -0.607545 0.366898 -0.083972
v -0.668837 0.363417 -0.083862
v -0.668790 0.363420 -0.084192
v -0.680008 0.410370 -0.084321
v -0.679822 0.410387 -0.085628
v -0.669634 0.410967 -0.085639
v -0.671531 0.410847 -0.083575
v -0.666608 0.363556 -0.085952
v -0.654654 0.364143 -0.070917
v -0.679478 0.410415 -0.086901
v -0.669301 0.410986 -0.085664
v -0.609956 0.414395 -0.092189
v -0.675909 0.409796 0.048731
v -0.610238 0.414328 -0.083684
v -0.666940 0.363536 -0.085927
v -0.608028 0.366782 -0.069353
v -0.658207 0.363290 0.036475
v -0.676839 0.357884 -0.085946
v -0.678979 0.410451 -0.088123
v -0.676495 0.357912 -0.087219
v -0.678336 0.410495 -0.089272
v -0.673214 0.362366 0.048443
v -0.684415 0.409311 0.048906
v -0.654366 0.359069 -0.070946
v -0.677025 0.357865 -0.084640
v -0.675354 0.357990 -0.089591
v -0.677556 0.410545 -0.090335
v -0.676650 0.410603 -0.091294
v -0.675996 0.357946 -0.088440
v -0.673136 0.362366 0.049041
v -0.675884 0.409794 0.049063
v -0.673189 0.362364 0.048775
v -0.675831 0.409796 0.049328
v -0.672789 0.362382 0.049769
v -0.675629 0.409805 0.049829
v -0.672934 0.362375 0.049541
v -0.675483 0.409812 0.050057
v -0.675745 0.409799 0.049585
v -0.607740 0.361709 -0.069384
v -0.611579 0.365930 0.038039
v -0.657918 0.358217 0.036445
v -0.681432 0.356808 0.048589
v -0.606974 0.361892 -0.092506
v -0.674573 0.358042 -0.090653
v -0.673668 0.358098 -0.091612
v -0.675635 0.410665 -0.092134
v -0.674525 0.410733 -0.092842
v -0.672617 0.362390 0.049977
v -0.675311 0.409821 0.050265
v -0.673050 0.362369 0.049297
v -0.674412 0.409868 0.050845
v -0.671968 0.362424 0.050456
v -0.671718 0.362438 0.050559
v -0.674662 0.409854 0.050744
v -0.674151 0.409882 0.050917
v -0.671458 0.362452 0.050630
v -0.684316 0.409310 0.050223
v -0.681334 0.356805 0.049904
v -0.672653 0.358161 -0.092453
v -0.669481 0.411027 -0.094184
v -0.673823 0.409901 0.050964
v -0.671128 0.362471 0.050677
v -0.612064 0.365813 0.052656
v -0.672204 0.362411 0.050325
v -0.672421 0.362400 0.050164
v -0.684057 0.409316 0.051516
v -0.674897 0.409841 0.050611
v -0.675114 0.409830 0.050451
v -0.683641 0.409331 0.052767
v -0.611292 0.360855 0.038007
v -0.681074 0.356813 0.051197
v -0.673336 0.410803 -0.093410
v -0.671542 0.358230 -0.093161
v -0.670354 0.358300 -0.093728
v -0.672087 0.410877 -0.093826
v -0.669104 0.358373 -0.094145
v -0.670795 0.410952 -0.094086
v -0.666499 0.358524 -0.094503
v -0.614757 0.413243 0.052944
v -0.680658 0.356828 0.052450
v -0.667812 0.358448 -0.094405
v -0.680091 0.356853 0.053640
v -0.683073 0.409356 0.053959
v -0.682366 0.409391 0.055071
v -0.679384 0.356886 0.054754
v -0.681526 0.409432 0.056089
v -0.678544 0.356928 0.055770
v -0.680569 0.409482 0.056995
v -0.677587 0.356977 0.056677
v -0.676525 0.357033 0.057459
v -0.679507 0.409536 0.057777
v -0.675375 0.357094 0.058103
v -0.678358 0.409597 0.058423
v -0.672886 0.357230 0.058948
v -0.674157 0.357160 0.058602
v -0.677140 0.409665 0.058921
v -0.675868 0.409733 0.059267
v -0.671581 0.357304 0.059136
v -0.612056 0.360672 0.061131
v -0.674564 0.409807 0.059453
v -0.615039 0.413176 0.061449
vn -0.7665491494671336 -0.03965500773221175 -0.640960124978904
vn -0.6822039138100219 -0.03432299566361584 -0.7303559077264753
vn -0.5875331058764128 -0.028470005130437733 -0.8086991457316426
vn -0.4839701179246573 -0.022187005406108583 -0.8748032131554517
vn -0.37308312117704434 -0.015568005056473296 -0.9276673013054607
vn -0.256548985984601 -0.008713999523949861 -0.966491947200063
vn -0.9457680283257529 -0.05177600155069127 -0.3206900096046659
vn -0.9778858333487106 -0.05431999074278797 -0.20196196558164478
vn -0.8993365123821234 -0.04844897373109468 -0.4345647643801349
vn -0.8392939061044192 -0.04438799503411553 -0.541862939379358
vn 0.05670802624584161 -0.9983724620708434 -0.0060520028010127925
vn -0.9884165773264747 -0.05528597635822884 -0.14133693956052146
vn -0.9978432414591346 -0.05647501366588193 -0.03345800809620324
vn 0.03306199322189535 0.00793599837302527 -0.99942179510656
vn -0.13613300878473142 -0.0017270001114441844 -0.9906890639296627
vn -0.07503701182080652 0.0017820002807238725 -0.9971791570886366
vn 0.9884165773264747 0.05528597635822884 0.14133693956052146
vn 0.9778858333487106 0.05431999074278797 0.20196196558164478
vn 0.9457680283257529 0.05177600155069127 0.3206900096046659
vn 0.9978432414591346 0.05647501366588193 0.03345800809620324
vn 0.8993365123821234 0.04844897373109468 0.4345647643801349
vn 0.8392939061044192 0.04438799503411553 0.541862939379358
vn -0.9648660655370823 -0.05636100382823677 0.2566260174309379
vn -0.9890662688020381 -0.057004015492182904 0.13600903696365702
vn -0.9955669929867283 -0.05700199959844941 0.07481399947297279
vn -0.8072109623730727 -0.049414997696594055 0.5881909725823607
vn -0.873244978660076 -0.052536998716127103 0.48444098816147346
vn 0.6822039138100219 0.03432299566361584 0.7303559077264753
vn 0.7665491494671336 0.03965500773221175 0.640960124978904
vn -0.7289597225157027 -0.04554598266256063 0.683039739995508
vn -0.9260631475468748 -0.054864008741318616 0.3733590594861836
vn -0.3198549362639525 -0.023908995235762582 0.947164811262749
vn -0.4335641530715855 -0.030086010621988273 0.9006203179676618
vn -0.20130395544318613 -0.017370996155086766 0.97937478322423
vn -0.05670802624584161 0.9983724620708434 0.0060520028010127925
vn -0.03306199322189535 -0.00793599837302527 0.99942179510656
vn 0.9955669929867283 0.05700199959844941 -0.07481399947297279
vn 0.9890662688020381 0.057004015492182904 -0.13600903696365702
vn 0.5875331058764128 0.028470005130437733 0.8086991457316426
vn 0.4839701179246573 0.022187005406108583 0.8748032131554517
vn -0.14077201497469427 -0.013996001488831733 0.9899431053056983
vn -0.6396766366321096 -0.04098697671737498 0.7675505639934097
vn -0.5407121605325979 -0.03580701063078077 0.8404452495206676
vn 0.9648660655370823 0.05636100382823677 -0.2566260174309379
vn 0.37308312117704434 0.015568005056473296 0.9276673013054607
vn 0.256548985984601 0.008713999523949861 0.966491947200063
vn 0.9260631475468748 0.054864008741318616 -0.3733590594861836
vn 0.13613300878473142 0.0017270001114441844 0.9906890639296627
vn 0.07503701182080652 -0.0017820002807238725 0.9971791570886366
vn 0.873244978660076 0.052536998716127103 -0.48444098816147346
vn 0.8072109623730727 0.049414997696594055 -0.5881909725823607
vn 0.7289597225157027 0.04554598266256063 -0.683039739995508
vn 0.6396766366321096 0.04098697671737498 -0.7675505639934097
vn 0.5407121605325979 0.03580701063078077 -0.8404452495206676
vn 0.4335641530715855 0.030086010621988273 -0.9006203179676618
vn 0.3198549362639525 0.023908995235762582 -0.947164811262749
vn 0.20130395544318613 0.017370996155086766 -0.97937478322423
vn 0.14077201497469427 0.013996001488831733 -0.9899431053056983
usemtl material_0_0
f 1//1 2//2 3//1
f 2//2 1//1 4//2
f 2//2 5//3 6//3
f 5//3 2//2 4//2
f 6//3 7//4 8//4
f 7//4 6//3 5//3
f 8//4 9//5 10//5
f 9//5 8//4 7//4
f 10//5 11//6 12//6
f 11//6 10//5 9//5
f 13//7 14//8 15//7
f 15//7 16//9 13//7
f 16//9 15//7 17//9
f 17//9 18//10 16//9
f 18//10 17//9 19//10
f 19//10 3//1 18//10
f 3//1 19//10 1//1
f 20//11 21//11 22//11
f 14//11 23//11 15//11
f 15//11 23//11 17//11
f 17//11 24//11 19//11
f 19//11 24//11 1//11
f 1//11 24//11 4//11
f 4//11 24//11 5//11
f 5//11 24//11 7//11
f 7//11 24//11 9//11
f 9//11 24//11 11//11
f 11//11 24//11 25//11
f 22//8 26//12 14//8
f 14//8 13//7 22//8
f 26//11 23//11 14//11
f 20//11 22//11 27//11
f 27//11 22//11 13//11
f 27//11 13//11 16//11
f 27//11 16//11 18//11
f 27//11 18//11 3//11
f 27//11 3//11 2//11
f 27//11 2//11 6//11
f 27//11 6//11 8//11
f 27//11 8//11 10//11
f 20//11 28//11 21//11
f 17//11 23//11 24//11
f 25//11 24//11 29//11
f 25//11 29//11 30//11
f 31//11 30//11 29//11
f 21//13 32//13 26//13
f 26//12 22//8 21//12
f 32//11 23//11 26//11
f 27//14 33//14 20//14
f 27//11 10//11 12//11
f 27//11 12//11 34//11
f 34//15 30//16 27//16
f 12//6 25//15 34//15
f 28//11 20//11 35//11
f 36//11 21//11 28//11
f 23//17 37//18 24//18
f 30//16 34//15 25//15
f 25//15 12//6 11//6
f 31//11 29//11 38//11
f 24//18 39//19 29//19
f 30//11 31//11 33//11
f 31//11 38//11 40//11
f 32//13 21//13 41//13
f 32//11 42//11 23//11
f 33//14 27//14 30//14
f 35//14 43//14 28//14
f 36//11 41//11 21//11
f 43//13 36//13 28//13
f 28//20 36//20 43//20
f 42//20 44//20 23//20
f 37//18 23//17 44//17
f 39//19 24//18 37//18
f 38//21 45//22 40//22
f 31//11 40//11 46//11
f 31//11 46//11 47//11
f 29//19 48//21 38//21
f 49//23 50//24 51//24
f 50//24 49//23 52//23
f 50//24 41//25 51//24
f 41//25 50//24 32//25
f 53//26 54//27 55//27
f 54//27 53//26 56//26
f 57//11 42//11 52//11
f 52//11 42//11 50//11
f 50//11 42//11 32//11
f 43//14 35//14 58//14
f 59//11 41//11 36//11
f 36//13 43//13 60//13
f 60//20 43//20 36//20
f 44//20 42//20 61//20
f 45//22 38//21 48//21
f 64//28 46//29 63//29
f 31//11 47//11 65//11
f 31//11 65//11 66//11
f 48//21 29//19 39//19
f 67//30 56//26 53//26
f 56//26 67//30 68//30
f 55//27 57//31 69//31
f 57//31 55//27 54//27
f 70//32 71//33 72//32
f 71//33 70//32 73//33
f 74//34 72//32 75//34
f 72//32 74//34 70//32
f 69//31 52//23 49//23
f 52//23 69//31 57//31
f 59//11 51//11 41//11
f 54//11 42//11 57//11
f 56//11 76//11 42//11
f 56//11 42//11 54//11
f 62//35 43//35 58//35
f 60//36 59//36 36//36
f 44//35 60//35 43//35
f 61//37 76//38 77//38
f 76//38 61//37 42//37
f 61//35 60//35 44//35
f 37//35 62//35 39//35
f 39//35 62//35 48//35
f 48//35 62//35 45//35
f 63//29 40//22 45//22
f 45//35 62//35 63//35
f 63//35 62//35 64//35
f 40//22 63//29 46//29
f 46//29 64//28 47//28
f 78//39 66//40 65//39
f 31//11 66//11 79//11
f 80//41 75//34 81//41
f 59//11 53//11 55//11
f 59//11 55//11 69//11
f 59//11 69//11 49//11
f 59//11 49//11 51//11
f 68//11 76//11 56//11
f 81//11 59//11 82//11
f 59//11 81//11 75//11
f 59//11 75//11 72//11
f 59//11 72//11 71//11
f 59//11 71//11 83//11
f 59//11 83//11 84//11
f 59//11 84//11 67//11
f 59//11 67//11 53//11
f 80//11 85//11 76//11
f 80//11 76//11 74//11
f 74//11 76//11 70//11
f 70//11 76//11 73//11
f 73//11 76//11 86//11
f 86//11 76//11 87//11
f 87//11 76//11 68//11
f 75//34 80//41 74//34
f 67//30 87//42 68//30
f 84//42 86//43 87//42
f 83//43 73//33 86//43
f 43//35 62//35 44//35
f 59//36 60//36 89//36
f 90//35 89//35 77//35
f 77//35 89//35 61//35
f 76//38 90//44 77//38
f 61//35 89//35 60//35
f 44//35 62//35 37//35
f 64//35 62//35 78//35
f 64//28 65//39 47//28
f 91//45 92//40 93//45
f 92//40 91//45 66//40
f 66//40 78//39 92//40
f 65//39 64//28 78//39
f 94//46 93//45 95//46
f 93//45 94//46 91//45
f 79//11 66//11 91//11
f 79//11 91//11 94//11
f 97//36 31//36 79//36
f 87//42 67//30 84//42
f 86//43 84//42 83//43
f 73//33 83//43 71//33
f 81//36 98//36 80//36
f 98//36 81//36 82//36
f 80//11 88//11 85//11
f 90//44 76//38 85//44
f 99//47 85//44 88//47
f 98//11 88//11 80//11
f 99//35 89//35 90//35
f 85//44 99//47 90//44
f 78//35 62//35 92//35
f 95//46 96//48 94//46
f 93//35 97//35 95//35
f 79//11 94//11 96//11
f 79//49 100//48 97//49
f 100//48 79//49 96//48
f 96//48 95//46 100//48
f 31//36 97//36 62//36
f 88//47 101//50 99//47
f 98//11 102//11 88//11
f 92//35 62//35 97//35
f 92//35 97//35 93//35
f 95//35 97//35 100//35
f 101//50 88//47 102//50
f 101//35 89//35 99//35
f 102//50 104//51 101//50
f 98//11 103//11 102//11
f 104//51 102//50 103//51
f 106//52 103//51 105//52
f 104//35 89//35 101//35
f 103//51 106//52 104//51
f 98//11 105//11 103//11
f 106//52 107//53 108//53
f 107//53 106//52 105//52
f 108//35 89//35 106//35
f 106//35 89//35 104//35
f 108//53 110//54 109//54
f 98//11 107//11 105//11
f 110//54 108//53 107//53
f 111//35 89//35 109//35
f 109//35 89//35 108//35
f 98//11 110//11 107//11
f 98//11 112//11 110//11
f 113//35 89//35 114//35
f 114//35 89//35 111//35
f 109//54 112//55 111//55
f 112//55 109//54 110//54
f 98//11 116//11 115//11
f 98//11 115//11 112//11
f 89//35 117//35 118//35
f 117//35 89//35 113//35
f 114//56 116//57 113//57
f 115//56 111//55 112//55
f 111//55 115//56 114//56
f 119//11 98//11 120//11
f 98//11 119//11 116//11
f 119//58 113//57 116//57
f 116//57 114//56 115//56
f 117//14 120//14 118//14
f 113//57 119//58 117//58
f 120//14 117//14 119//14
usemtl material_1_0
f 3//29 2//28 1//29
f 4//28 1//29 2//28
f 6//39 5//39 2//28
f 4//28 2//28 5//39
f 8//40 7//40 6//39
f 5//39 6//39 7//40
f 10//45 9//45 8//40
f 7//40 8//40 9//45
f 12//46 11//46 10//45
f 9//45 10//45 11//46
f 13//19 16//21 15//19
f 17//21 15//19 16//21
f 16//21 18//22 17//21
f 19//22 17//21 18//22
f 18//22 3//29 19//22
f 1//29 19//22 3//29
f 17//35 23//35 15//35
f 19//35 24//35 17//35
f 1//35 24//35 19//35
f 4//35 24//35 1//35
f 15//19 14//18 13//19
f 21//17 22//18 26//17
f 14//18 26//17 22//18
f 22//18 13//19 14//18
f 14//35 23//35 26//35
f 15//35 23//35 14//35
f 13//35 22//35 27//35
f 16//35 13//35 27//35
f 18//35 16//35 27//35
f 3//35 18//35 27//35
f 2//35 3//35 27//35
f 21//35 28//35 20//35
f 22//35 21//35 20//35
f 27//35 22//35 20//35
f 24//35 23//35 17//35
f 5//35 24//35 4//35
f 7//35 24//35 5//35
f 9//35 24//35 7//35
f 11//35 24//35 9//35
f 25//35 24//35 11//35
f 29//35 24//35 25//35
f 30//35 29//35 25//35
f 29//35 30//35 31//35
f 26//20 32//20 21//20
f 6//35 2//35 27//35
f 8//35 6//35 27//35
f 26//35 23//35 32//35
f 20//36 33//36 27//36
f 10//35 8//35 27//35
f 12//35 10//35 27//35
f 34//35 12//35 27//35
f 27//49 30//49 34//48
f 34//48 25//48 12//46
f 35//35 20//35 28//35
f 28//35 21//35 36//35
f 24//8 37//8 23//12
f 25//48 34//48 30//49
f 11//46 12//46 25//48
f 29//7 39//7 24//8
f 33//35 31//35 30//35
f 38//35 29//35 31//35
f 40//35 38//35 31//35
f 41//20 21//20 32//20
f 23//35 42//35 32//35
f 30//36 27//36 33//36
f 28//36 43//36 35//36
f 21//35 41//35 36//35
f 23//13 44//13 42//13
f 44//12 23//12 37//8
f 37//8 24//8 39//7
f 40//10 45//10 38//9
f 46//35 40//35 31//35
f 47//35 46//35 31//35
f 38//9 48//9 29//7
f 51//38 50//38 49//44
f 52//44 49//44 50//38
f 51//38 41//37 50//38
f 32//37 50//38 41//37
f 55//50 54//50 53//51
f 56//51 53//51 54//50
f 54//35 42//35 56//35
f 57//35 42//35 54//35
f 52//35 42//35 57//35
f 50//35 42//35 52//35
f 32//35 42//35 50//35
f 58//36 35//36 43//36
f 36//35 41//35 59//35
f 61//13 42//13 44//13
f 39//11 62//11 37//11
f 48//9 38//9 45//10
f 45//10 40//10 63//1
f 46//1 63//1 40//10
f 47//2 64//2 46//1
f 65//35 47//35 31//35
f 39//7 29//7 48//9
f 53//51 56//51 67//52
f 68//52 67//52 56//51
f 69//47 57//47 55//50
f 54//50 55//50 57//47
f 72//56 71//55 70//56
f 73//55 70//56 71//55
f 75//57 72//56 74//57
f 70//56 74//57 72//56
f 49//44 52//44 69//47
f 57//47 69//47 52//44
f 53//35 67//35 59//35
f 55//35 53//35 59//35
f 69//35 55//35 59//35
f 49//35 69//35 59//35
f 51//35 49//35 59//35
f 41//35 51//35 59//35
f 56//35 76//35 68//35
f 42//35 76//35 56//35
f 58//11 43//11 62//11
f 36//14 59//14 60//14
f 43//11 60//11 44//11
f 42//25 61//25 76//24
f 44//11 60//11 61//11
f 48//11 62//11 39//11
f 45//11 62//11 48//11
f 37//11 62//11 44//11
f 63//11 62//11 45//11
f 63//1 46//1 64//2
f 64//11 62//11 63//11
f 66//35 65//35 31//35
f 65//3 66//4 78//3
f 82//35 59//35 81//35
f 75//35 81//35 59//35
f 72//35 75//35 59//35
f 71//35 72//35 59//35
f 83//35 71//35 59//35
f 84//35 83//35 59//35
f 67//35 84//35 59//35
f 85//35 88//35 80//35
f 76//35 85//35 80//35
f 74//35 76//35 80//35
f 70//35 76//35 74//35
f 73//35 76//35 70//35
f 86//35 76//35 73//35
f 87//35 76//35 86//35
f 68//35 76//35 87//35
f 74//57 80//58 75//57
f 68//52 87//53 67//52
f 87//53 86//54 84//53
f 86//54 73//55 83//54
f 44//11 62//11 43//11
f 89//14 60//14 59//14
f 77//24 90//23 76//24
f 77//24 76//24 61//25
f 77//11 89//11 90//11
f 61//11 89//11 77//11
f 60//11 89//11 61//11
f 47//2 65//3 64//2
f 93//5 92//4 91//5
f 66//4 91//5 92//4
f 92//4 78//3 66//4
f 78//3 64//2 65//3
f 94//6 96//15 95//6
f 79//35 66//35 31//35
f 91//35 66//35 79//35
f 79//14 31//14 97//14
f 81//58 75//57 80//58
f 84//53 67//52 87//53
f 83//54 84//53 86//54
f 71//55 83//54 73//55
f 80//14 98//14 81//14
f 82//14 81//14 98//14
f 85//23 76//24 90//23
f 88//31 85//23 99//31
f 80//35 88//35 98//35
f 90//11 89//11 99//11
f 90//23 99//31 85//23
f 78//11 62//11 64//11
f 92//11 62//11 78//11
f 95//6 93//5 94//6
f 91//5 94//6 93//5
f 95//11 97//11 93//11
f 94//35 91//35 79//35
f 96//35 94//35 79//35
f 97//16 100//15 79//16
f 96//15 79//16 100//15
f 100//15 95//6 96//15
f 62//14 97//14 31//14
f 99//31 101//27 88//31
f 102//35 103//35 98//35
f 88//35 102//35 98//35
f 99//11 89//11 101//11
f 97//11 62//11 92//11
f 93//11 97//11 92//11
f 100//11 97//11 95//11
f 102//27 88//31 101//27
f 101//27 104//26 102//27
f 103//35 105//35 98//35
f 103//26 102//27 104//26
f 101//11 89//11 104//11
f 104//26 106//30 103//26
f 105//30 103//26 106//30
f 104//11 89//11 106//11
f 105//35 107//35 98//35
f 108//42 107//42 106//30
f 105//30 106//30 107//42
f 106//11 89//11 108//11
f 108//11 89//11 109//11
f 107//35 110//35 98//35
f 107//42 108//42 110//43
f 109//11 89//11 111//11
f 110//43 109//43 112//33
f 110//35 112//35 98//35
f 109//43 110//43 108//42
f 114//11 89//11 113//11
f 111//11 89//11 114//11
f 111//33 112//33 109//43
f 112//33 111//33 115//32
f 115//35 116//35 98//35
f 112//35 115//35 98//35
f 118//11 117//11 89//11
f 113//11 89//11 117//11
f 113//34 116//34 114//32
f 114//32 115//32 111//33
f 115//32 114//32 116//34
f 120//35 98//35 119//35
f 116//35 119//35 98//35
f 116//34 113//34 119//41
f 118//36 120//36 117//36
f 117//41 119//41 113//34
f 119//36 117//36 120//36
