# SSTK version 0.8.0
# 64
mtllib original-64.mtl
o mesh79/mesh79-geometry#mesh79-geometry
v -0.210303 -0.074885 -0.054505
v -0.221634 -0.073641 -0.048084
v -0.214079 -0.076136 -0.060927
v -0.217857 -0.073450 -0.047091
v -0.225410 -0.074885 -0.054506
v -0.211315 -0.074168 -0.050798
v -0.224398 -0.075609 -0.058214
v -0.217856 -0.076327 -0.061921
vn 0.000051999989278097315 -0.9817257975774879 0.1903009607617536
vn -0.00008299998996111032 -0.9817038812624319 0.19041397696933546
vn 0.00001699999538417888 -0.9816497334634823 0.1906929482232482
vn -0.00001699999538417888 0.9816497334634823 -0.1906929482232482
vn 0.00008299998996111032 0.9817038812624319 -0.19041397696933546
vn -0.000051999989278097315 0.9817257975774879 -0.1903009607617536
vn -0.0001059999920308679 -0.9817829261890715 0.19000598571525532
vn 0.0001059999920308679 0.9817829261890715 -0.19000598571525532
vn -0.00004599998104120373 -0.9815775954448407 0.19106392125340302
vn 0.00004599998104120373 0.9815775954448407 -0.19106392125340302
vn 0 -0.981762803515412 0.19010996195244143
vn 0 0.981762803515412 -0.19010996195244143
vn 0.000053000003102540774 -0.9816450574640309 0.19071701116428785
vn -0.000053000003102540774 0.9816450574640309 -0.19071701116428785
vn -0.00020899992680604396 -0.981831656152305 0.1897539335461915
vn 0.00020899992680604396 0.981831656152305 -0.1897539335461915
usemtl material_0_0
f 1//1 2//2 3//3
f 3//4 2//5 1//6
f 1//1 4//7 2//2
f 2//5 4//8 1//6
f 3//3 2//2 5//9
f 5//10 2//5 3//4
f 1//1 6//11 4//7
f 4//8 6//12 1//6
f 3//3 5//9 7//13
f 7//14 5//10 3//4
f 3//3 7//13 8//15
f 8//16 7//14 3//4
