# SSTK version 0.8.0
# 37
mtllib original-37.mtl
o mesh54/mesh54-geometry#mesh54-geometry
v -0.092291 -0.013682 -0.037587
v -0.139101 0.008926 -0.054996
v -0.131886 0.008926 -0.070463
v -0.095358 -0.012462 -0.037364
v -0.140157 0.011704 -0.067205
v -0.088466 -0.013682 -0.045786
v -0.141920 0.011704 -0.063426
v -0.134958 0.010300 -0.071040
v -0.090177 -0.014195 -0.039448
v -0.090267 -0.012462 -0.048280
v -0.141517 0.010300 -0.056978
vn -0.3747531649315274 -0.9105094007216489 -0.1747360769025877
vn -0.3747049399102597 -0.9105248539832381 -0.17475897197469248
vn -0.3747129400363792 -0.9105288542921764 -0.1747209720401915
vn -0.3748321108106963 -0.9105152691733926 -0.17453605159766444
vn -0.37467590606108125 -0.9105517717060331 -0.174680956203909
vn -0.37473107280369666 -0.9105071768956277 -0.17479503395961965
vn -0.37461288585659486 -0.9105487225585781 -0.1748319467292386
vn -0.3746320606025475 -0.91061714730645 -0.17443402821741028
vn -0.37472684845543425 -0.9105066317789006 -0.17480692930573236
vn -0.3747429596141408 -0.9105069018751317 -0.17477098116501996
vn -0.37456512942538434 -0.9105643146318949 -0.1748530604178629
vn 0.3747129400363792 0.9105288542921764 0.1747209720401915
vn 0.3747049399102597 0.9105248539832381 0.17475897197469248
vn 0.3747531649315274 0.9105094007216489 0.1747360769025877
vn 0.3748321108106963 0.9105152691733926 0.17453605159766444
vn 0.37467590606108125 0.9105517717060331 0.174680956203909
vn 0.37473107280369666 0.9105071768956277 0.17479503395961965
vn 0.37461288585659486 0.9105487225585781 0.1748319467292386
vn 0.3746320606025475 0.91061714730645 0.17443402821741028
vn 0.37472684845543425 0.9105066317789006 0.17480692930573236
vn 0.3747429596141408 0.9105069018751317 0.17477098116501996
vn 0.37456512942538434 0.9105643146318949 0.1748530604178629
usemtl material_0_0
f 1//1 2//2 3//3
f 1//1 4//4 2//2
f 3//3 2//2 5//5
f 6//6 1//1 3//3
f 2//2 7//7 5//5
f 3//3 5//5 8//8
f 6//6 9//9 1//1
f 6//6 3//3 10//10
f 2//2 11//11 7//7
usemtl material_1_0
f 3//12 2//13 1//14
f 2//13 4//15 1//14
f 5//16 2//13 3//12
f 3//12 1//14 6//17
f 5//16 7//18 2//13
f 8//19 5//16 3//12
f 1//14 9//20 6//17
f 10//21 3//12 6//17
f 7//18 11//22 2//13
