# SSTK version 0.8.0
# 60
mtllib original-60.mtl
o mesh75/mesh75-geometry#mesh75-geometry
v 0.231852 -0.076136 -0.072933
v 0.225022 -0.074885 -0.075909
v 0.230415 -0.073641 -0.087763
v 0.226775 -0.073450 -0.086348
v 0.237245 -0.074885 -0.084788
v 0.223662 -0.074168 -0.079503
v 0.238605 -0.075609 -0.081194
v 0.235491 -0.076327 -0.074349
vn -0.11212997140680485 -0.9816447496801298 -0.1542739606600681
vn -0.11187399193623483 -0.9817309292378189 -0.15391098890625043
vn -0.11185004665232862 -0.9817054094664664 -0.15409106427093422
vn 0.11185004665232862 0.9817054094664664 0.15409106427093422
vn 0.11187399193623483 0.9817309292378189 0.15391098890625043
vn 0.11212997140680485 0.9816447496801298 0.1542739606600681
vn -0.11155403429389071 -0.9817913018218375 -0.1537580472682295
vn 0.11155403429389071 0.9817913018218375 0.1537580472682295
vn -0.11229705177249016 -0.9815724525359246 -0.1546120712810518
vn 0.11229705177249016 0.9815724525359246 0.1546120712810518
vn -0.11169796179768397 -0.9817716642199125 -0.1537789474053794
vn 0.11169796179768397 0.9817716642199125 0.1537789474053794
vn -0.11219098100326376 -0.9816368337843572 -0.15427997387654588
vn 0.11219098100326376 0.9816368337843572 0.15427997387654588
vn -0.11141098163874756 -0.9818238381890629 -0.15365397467682854
vn 0.11141098163874756 0.9818238381890629 0.15365397467682854
usemtl material_0_0
f 1//1 2//2 3//3
f 3//4 2//5 1//6
f 3//3 2//2 4//7
f 4//8 2//5 3//4
f 5//9 1//1 3//3
f 3//4 1//6 5//10
f 4//7 2//2 6//11
f 6//12 2//5 4//8
f 7//13 1//1 5//9
f 5//10 1//6 7//14
f 7//13 8//15 1//1
f 1//6 8//16 7//14
