# SSTK version 0.8.0
# 46
mtllib original-46.mtl
o mesh62/mesh62-geometry#mesh62-geometry
v 0.054449 -0.041355 -0.048075
v 0.040647 -0.041355 -0.041931
v 0.041437 -0.041355 -0.049443
v 0.053659 -0.041355 -0.040563
v 0.051988 -0.041355 -0.051114
v 0.050620 -0.041355 -0.038102
v 0.044476 -0.041355 -0.051904
v 0.043108 -0.041350 -0.038892
vn 0 -1 0
vn -0.0002459999421757524 -0.9999997649420829 0.000639999849562711
vn 0 1 0
vn 0.0002459999421757524 0.9999997649420829 -0.000639999849562711
vn -0.0004910000302154064 -0.9999990615384443 0.001279000078707527
vn 0.0004910000302154064 0.9999990615384443 -0.001279000078707527
vn -0.0009820002417174252 -0.9999962461471062 0.0025580006296465944
vn 0.0009820002417174252 0.9999962461471062 -0.0025580006296465944
usemtl material_0_0
f 1//1 2//2 3//1
f 3//3 2//4 1//3
f 1//1 4//1 2//2
f 2//4 4//3 1//3
f 1//1 3//1 5//1
f 5//3 3//3 1//3
f 4//1 6//5 2//2
f 2//4 6//6 4//3
f 5//1 3//1 7//1
f 7//3 3//3 5//3
f 6//5 8//7 2//2
f 2//4 8//8 6//6
