# SSTK version 0.8.0
# 21
mtllib original-21.mtl
o mesh38/mesh38-geometry#mesh38-geometry
v -0.210259 -0.049946 0.073817
v -0.221591 -0.048701 0.080237
v -0.214036 -0.051197 0.067395
v -0.217814 -0.048505 0.081231
v -0.225367 -0.049946 0.073816
v -0.211272 -0.049229 0.077525
v -0.224354 -0.050670 0.070107
v -0.217812 -0.051387 0.066400
vn -0.000034000010568972936 -0.9816363051436563 0.19076205929877668
vn 0.0002269999770328245 -0.9815869006859872 0.1910159806735769
vn -0.00005099998090749773 -0.9816666325004033 0.1906059286442059
vn 0.00005099998090749773 0.9816666325004033 -0.1906059286442059
vn -0.0002269999770328245 0.9815869006859872 -0.1910159806735769
vn 0.000034000010568972936 0.9816363051436563 -0.19076205929877668
vn -0.00021100005279781132 -0.9816512456351861 0.19068504771445782
vn 0.00021100005279781132 0.9816512456351861 -0.19068504771445782
vn -0.00008899998111126902 -0.9815917916738515 0.1909909594654198
vn 0.00008899998111126902 0.9815917916738515 -0.1909909594654198
vn -0.0011400005873780442 -0.981827505880371 0.18977209777886486
vn 0.0011400005873780442 0.981827505880371 -0.18977209777886486
vn -0.0000829999925638235 -0.9816899120479505 0.19048598293388513
vn 0.0000829999925638235 0.9816899120479505 -0.19048598293388513
vn -0.0003450000748770994 -0.9818762131015272 0.1895230411331375
vn 0.0003450000748770994 0.9818762131015272 -0.1895230411331375
usemtl material_0_0
f 1//1 2//2 3//3
f 3//4 2//5 1//6
f 1//1 4//7 2//2
f 2//5 4//8 1//6
f 3//3 2//2 5//9
f 5//10 2//5 3//4
f 1//1 6//11 4//7
f 4//8 6//12 1//6
f 3//3 5//9 7//13
f 7//14 5//10 3//4
f 3//3 7//13 8//15
f 8//16 7//14 3//4
