# SSTK version 0.8.0
# 39
mtllib original-39.mtl
o mesh56/mesh56-geometry#mesh56-geometry
v -0.095873 -0.013682 0.038785
v -0.142922 0.008926 0.055538
v -0.147338 0.008926 0.039053
v -0.098080 -0.012462 0.040928
v -0.151580 0.011704 0.046865
v -0.098214 -0.013682 0.030046
v -0.150501 0.011704 0.050892
v -0.150061 0.010300 0.040584
v -0.101196 -0.012462 0.029293
v -0.095450 -0.014195 0.036002
v -0.146047 0.010300 0.055573
vn -0.39942308264344034 -0.9104991883886752 0.10701602214236619
vn -0.3993741533443284 -0.9105253496067461 0.10697604107468887
vn -0.39939382964778447 -0.9105166116401642 0.10697695437145013
vn -0.3993560335840467 -0.9105130765700556 0.10714800901066555
vn -0.3993589366940257 -0.9105308556635706 0.10698598304069008
vn -0.3994490166704059 -0.9104960379981872 0.10694600446323096
vn -0.3993429780684836 -0.9105499499935087 0.1068829941300928
vn -0.3993020459171425 -0.9105471047070047 0.10706001231120604
vn -0.3994230543397128 -0.9105121238710855 0.10690601454408298
vn -0.3995101472662591 -0.9104653356130625 0.10697903943429965
vn -0.3993269380743799 -0.9105608587947858 0.10684998343023991
vn 0.39939382964778447 0.9105166116401642 -0.10697695437145013
vn 0.3993741533443284 0.9105253496067461 -0.10697604107468887
vn 0.39942308264344034 0.9104991883886752 -0.10701602214236619
vn 0.3993560335840467 0.9105130765700556 -0.10714800901066555
vn 0.3993589366940257 0.9105308556635706 -0.10698598304069008
vn 0.3994490166704059 0.9104960379981872 -0.10694600446323096
vn 0.3993429780684836 0.9105499499935087 -0.1068829941300928
vn 0.3993020459171425 0.9105471047070047 -0.10706001231120604
vn 0.3994230543397128 0.9105121238710855 -0.10690601454408298
vn 0.3995101472662591 0.9104653356130625 -0.10697903943429965
vn 0.3993269380743799 0.9105608587947858 -0.10684998343023991
usemtl material_0_0
f 1//1 2//2 3//3
f 1//1 4//4 2//2
f 2//2 5//5 3//3
f 1//1 3//3 6//6
f 2//2 7//7 5//5
f 3//3 5//5 8//8
f 6//6 3//3 9//9
f 10//10 1//1 6//6
f 2//2 11//11 7//7
usemtl material_1_0
f 3//12 2//13 1//14
f 2//13 4//15 1//14
f 3//12 5//16 2//13
f 6//17 3//12 1//14
f 5//16 7//18 2//13
f 8//19 5//16 3//12
f 9//20 3//12 6//17
f 6//17 1//14 10//21
f 7//18 11//22 2//13
