# SSTK version 0.8.0
# 9
mtllib original-9.mtl
o mesh26/mesh26-geometry#mesh26-geometry
v 0.242796 -0.048701 0.081678
v 0.229136 -0.051197 0.087627
v 0.229855 -0.049946 0.080212
v 0.242077 -0.049946 0.089092
v 0.240325 -0.048505 0.078653
v 0.239079 -0.050670 0.091497
v 0.232854 -0.049229 0.077807
v 0.231608 -0.051387 0.090651
vn 0.11208396980430241 -0.9815897355573069 -0.15465695833503462
vn 0.11207498487581803 -0.9816618675276849 -0.1542049791905023
vn 0.11213801701100205 -0.9816411489120286 -0.1542910234054874
vn -0.11213801701100205 0.9816411489120286 0.1542910234054874
vn -0.11207498487581803 0.9816618675276849 0.1542049791905023
vn -0.11208396980430241 0.9815897355573069 0.15465695833503462
vn 0.11232899576418595 -0.9815889629852623 -0.15448399417456338
vn -0.11232899576418595 0.9815889629852623 0.15448399417456338
vn 0.11223100630906618 -0.9816600551840214 -0.15410300866290108
vn -0.11223100630906618 0.9816600551840214 0.15410300866290108
vn 0.11203499082915214 -0.9816829196423846 -0.15409998738583808
vn -0.11203499082915214 0.9816829196423846 0.15409998738583808
vn 0.1124399511205086 -0.9818315731817077 -0.15285293355232235
vn -0.1124399511205086 0.9818315731817077 0.15285293355232235
vn 0.11168805371275248 -0.9818654721964017 -0.1531860736698815
vn -0.11168805371275248 0.9818654721964017 0.1531860736698815
usemtl material_0_0
f 1//1 2//2 3//3
f 3//4 2//5 1//6
f 1//1 4//7 2//2
f 2//5 4//8 1//6
f 1//1 3//3 5//9
f 5//10 3//4 1//6
f 4//7 6//11 2//2
f 2//5 6//12 4//8
f 5//9 3//3 7//13
f 7//14 3//4 5//10
f 6//11 8//15 2//2
f 2//5 8//16 6//12
