# SSTK version 0.8.0
# 58
mtllib original-58.mtl
o mesh73/mesh73-geometry#mesh73-geometry
v -0.111966 -0.073641 0.210060
v -0.121846 -0.076136 0.198906
v -0.114571 -0.074885 0.197299
v -0.119239 -0.074885 0.211667
v -0.109854 -0.073450 0.206775
v -0.122454 -0.075609 0.209559
v -0.111359 -0.074168 0.199408
v -0.123958 -0.076327 0.202192
vn 0.18107105726436465 -0.9817043104674732 0.058906018629237285
vn 0.1813780013795611 -0.9816480074664147 0.05890000044799319
vn 0.18100900023694078 -0.9817260012850794 0.058735000076883905
vn -0.18100900023694078 0.9817260012850794 -0.058735000076883905
vn -0.1813780013795611 0.9816480074664147 -0.05890000044799319
vn -0.18107105726436465 0.9817043104674732 -0.058906018629237285
vn 0.18169403068757928 -0.9815791657857903 0.059073009977254794
vn -0.18169403068757928 0.9815791657857903 -0.059073009977254794
vn 0.18067404211684054 -0.9817842288632574 0.058793013705211415
vn -0.18067404211684054 0.9817842288632574 -0.058793013705211415
vn 0.1814060273509516 -0.9816441480044624 0.0588780088771556
vn -0.1814060273509516 0.9816441480044624 -0.0588780088771556
vn 0.18083591086961823 -0.981759516110489 0.058707971064022146
vn -0.18083591086961823 0.981759516110489 -0.058707971064022146
vn 0.18044306789631837 -0.9818243694365251 0.0588320221370525
vn -0.18044306789631837 0.9818243694365251 -0.0588320221370525
usemtl material_0_0
f 1//1 2//2 3//3
f 3//4 2//5 1//6
f 1//1 4//7 2//2
f 2//5 4//8 1//6
f 5//9 1//1 3//3
f 3//4 1//6 5//10
f 4//7 6//11 2//2
f 2//5 6//12 4//8
f 5//9 3//3 7//13
f 7//14 3//4 5//10
f 2//2 6//11 8//15
f 8//16 6//12 2//5
