# SSTK version 0.8.0
# 56
mtllib original-56.mtl
o mesh71/mesh71-geometry#mesh71-geometry
v 0.167412 -0.073641 0.185522
v 0.153753 -0.076136 0.191472
v 0.154472 -0.074885 0.184056
v 0.166694 -0.074885 0.192937
v 0.164941 -0.073450 0.182499
v 0.163695 -0.075609 0.195342
v 0.157470 -0.074168 0.181653
v 0.156224 -0.076327 0.194496
vn 0.11199297512221924 -0.9817027819275134 -0.15400396579002507
vn 0.11206994560103746 -0.9816475235064444 -0.15429992510252613
vn 0.1118190409125259 -0.9817263591955785 -0.1539800563384645
vn -0.1118190409125259 0.9817263591955785 0.1539800563384645
vn -0.11206994560103746 0.9816475235064444 0.15429992510252613
vn -0.11199297512221924 0.9817027819275134 0.15400396579002507
vn 0.11233797387041498 -0.9815737716879304 -0.1545739640464095
vn -0.11233797387041498 0.9815737716879304 0.1545739640464095
vn 0.11177304484145445 -0.9817843938752876 -0.153643061638997
vn -0.11177304484145445 0.9817843938752876 0.153643061638997
vn 0.11204996234242305 -0.9816436700907232 -0.15433894813000676
vn -0.11204996234242305 0.9816436700907232 0.15433894813000676
vn 0.11174696993219098 -0.9817637358363763 -0.15379395861858844
vn -0.11174696993219098 0.9817637358363763 0.15379395861858844
vn 0.11169298051644572 -0.9818318287307435 -0.1533979732414902
vn -0.11169298051644572 0.9818318287307435 0.1533979732414902
usemtl material_0_0
f 1//1 2//2 3//3
f 3//4 2//5 1//6
f 1//1 4//7 2//2
f 2//5 4//8 1//6
f 1//1 3//3 5//9
f 5//10 3//4 1//6
f 4//7 6//11 2//2
f 2//5 6//12 4//8
f 5//9 3//3 7//13
f 7//14 3//4 5//10
f 6//11 8//15 2//2
f 2//5 8//16 6//12
