# SSTK version 0.8.0
# 30
mtllib original-30.mtl
o mesh47/mesh47-geometry#mesh47-geometry
v 0.169009 0.008926 -0.028019
v 0.117545 -0.013682 -0.027749
v 0.164593 0.008926 -0.044504
v 0.119886 -0.013682 -0.019010
v 0.119751 -0.012462 -0.029891
v 0.173251 0.011704 -0.035831
v 0.122868 -0.012462 -0.018258
v 0.117122 -0.014195 -0.024966
v 0.171733 0.010300 -0.029551
v 0.172172 0.011704 -0.039859
v 0.167717 0.010300 -0.044539
vn 0.3993781798614016 -0.9105204100561458 -0.10700304818920832
vn 0.3994030863896987 -0.9105061969397801 -0.10703102315049191
vn 0.3993809795223398 -0.9105189533145076 -0.10700499451347976
vn 0.39942006777340316 -0.9105041544939029 -0.10698501815316615
vn 0.3993551502783697 -0.9105133426285115 -0.10714904032045952
vn 0.39935516987574154 -0.9105283873160952 -0.10702104552408714
vn 0.3994108770204114 -0.9105097196518243 -0.10697196706306919
vn 0.39943888221128276 -0.9104947315083453 -0.10699496844874007
vn 0.39927208120675906 -0.9105591851959198 -0.10706902177644956
vn 0.39937393759263523 -0.9105288577180402 -0.10694698328814506
vn 0.39934708955379455 -0.9105472041906887 -0.10689102397036847
vn -0.3993809795223398 0.9105189533145076 0.10700499451347976
vn -0.3994030863896987 0.9105061969397801 0.10703102315049191
vn -0.3993781798614016 0.9105204100561458 0.10700304818920832
vn -0.39942006777340316 0.9105041544939029 0.10698501815316615
vn -0.3993551502783697 0.9105133426285115 0.10714904032045952
vn -0.39935516987574154 0.9105283873160952 0.10702104552408714
vn -0.3994108770204114 0.9105097196518243 0.10697196706306919
vn -0.39943888221128276 0.9104947315083453 0.10699496844874007
vn -0.39927208120675906 0.9105591851959198 0.10706902177644956
vn -0.39937393759263523 0.9105288577180402 0.10694698328814506
vn -0.39934708955379455 0.9105472041906887 0.10689102397036847
usemtl material_0_0
f 1//1 2//2 3//3
f 1//1 4//4 2//2
f 3//3 2//2 5//5
f 6//6 1//1 3//3
f 1//1 7//7 4//4
f 4//4 8//8 2//2
f 6//6 9//9 1//1
f 6//6 3//3 10//10
f 10//10 3//3 11//11
usemtl material_1_0
f 3//12 2//13 1//14
f 2//13 4//15 1//14
f 5//16 2//13 3//12
f 3//12 1//14 6//17
f 4//15 7//18 1//14
f 2//13 8//19 4//15
f 1//14 9//20 6//17
f 10//21 3//12 6//17
f 11//22 3//12 10//21
