# SSTK version 0.8.0
# 35
mtllib original-35.mtl
o mesh52/mesh52-geometry#mesh52-geometry
v -0.040454 -0.013682 -0.093789
v -0.065124 0.008926 -0.137215
v -0.049656 0.008926 -0.144426
v -0.042948 -0.012462 -0.095591
v -0.058086 0.011704 -0.147247
v -0.032255 -0.013682 -0.097613
v -0.061865 0.011704 -0.145485
v -0.051637 0.010300 -0.146842
v -0.037640 -0.014195 -0.093857
v -0.032031 -0.012462 -0.100680
v -0.065701 0.010300 -0.140286
vn -0.1747249652471205 -0.9104758189059223 -0.37483992544415906
vn -0.17465500434463063 -0.9105180226495914 -0.37477000932259175
vn -0.17474299303937513 -0.9105229637306841 -0.37471698507371154
vn -0.17459905765838016 -0.9105073006796071 -0.3748221237786551
vn -0.17474606906822274 -0.9105313598866805 -0.3746951480979121
vn -0.17477999839683045 -0.9104639916487689 -0.3748429965617528
vn -0.1746270438546189 -0.9105332286649699 -0.3747460941111229
vn -0.17481392132562426 -0.9105805901964846 -0.37454383143789777
vn -0.17485795348945174 -0.910375757848729 -0.3750209002480167
vn -0.1747470310985087 -0.9105081620367784 -0.3747510666918303
vn -0.17454304113857788 -0.9105592146124583 -0.37472208831938386
vn 0.17474299303937513 0.9105229637306841 0.37471698507371154
vn 0.17465500434463063 0.9105180226495914 0.37477000932259175
vn 0.1747249652471205 0.9104758189059223 0.37483992544415906
vn 0.17459905765838016 0.9105073006796071 0.3748221237786551
vn 0.17474606906822274 0.9105313598866805 0.3746951480979121
vn 0.17477999839683045 0.9104639916487689 0.3748429965617528
vn 0.1746270438546189 0.9105332286649699 0.3747460941111229
vn 0.17481392132562426 0.9105805901964846 0.37454383143789777
vn 0.17485795348945174 0.910375757848729 0.3750209002480167
vn 0.1747470310985087 0.9105081620367784 0.3747510666918303
vn 0.17454304113857788 0.9105592146124583 0.37472208831938386
usemtl material_0_0
f 1//1 2//2 3//3
f 1//1 4//4 2//2
f 3//3 2//2 5//5
f 6//6 1//1 3//3
f 5//5 2//2 7//7
f 3//3 5//5 8//8
f 6//6 9//9 1//1
f 10//10 6//6 3//3
f 7//7 2//2 11//11
usemtl material_1_0
f 3//12 2//13 1//14
f 2//13 4//15 1//14
f 5//16 2//13 3//12
f 3//12 1//14 6//17
f 7//18 2//13 5//16
f 8//19 5//16 3//12
f 1//14 9//20 6//17
f 3//12 6//17 10//21
f 11//22 2//13 7//18
