# SSTK version 0.8.0
# 63
mtllib original-63.mtl
o mesh78/mesh78-geometry#mesh78-geometry
v -0.033202 -0.063678 -0.137537
v -0.038143 -0.062427 -0.131961
v -0.047751 -0.061177 -0.140754
v -0.047528 -0.060986 -0.136854
v -0.042810 -0.062427 -0.146330
v -0.041982 -0.061710 -0.131778
v -0.038971 -0.063145 -0.146513
v -0.033424 -0.063869 -0.141436
vn -0.1815010139412749 -0.9816410754008356 0.0586360045038901
vn -0.1812519482916359 -0.981703719935185 0.058356983351659335
vn -0.1815620405010489 -0.9816202189700467 0.0587960131156279
vn 0.1815620405010489 0.9816202189700467 -0.0587960131156279
vn 0.1812519482916359 0.981703719935185 -0.058356983351659335
vn 0.1815010139412749 0.9816410754008356 -0.0586360045038901
vn -0.18099000357600054 -0.9817720193978517 0.05802000114635898
vn 0.18099000357600054 0.9817720193978517 -0.05802000114635898
vn -0.18129209152914263 -0.9816874956256726 0.0585050295375
vn 0.18129209152914263 0.9816874956256726 -0.0585050295375
vn -0.18085006825129143 -0.9818143705284679 0.05773902179021994
vn 0.18085006825129143 0.9818143705284679 -0.05773902179021994
vn -0.18122294017297125 -0.9817166759064181 0.05822898077689865
vn 0.18122294017297125 0.9817166759064181 -0.05822898077689865
vn -0.18164407913825553 -0.9816224276708984 0.05850502548932858
vn 0.18164407913825553 0.9816224276708984 -0.05850502548932858
usemtl material_0_0
f 1//1 2//2 3//3
f 3//4 2//5 1//6
f 2//2 4//7 3//3
f 3//4 4//8 2//5
f 1//1 3//3 5//9
f 5//10 3//4 1//6
f 2//2 6//11 4//7
f 4//8 6//12 2//5
f 1//1 5//9 7//13
f 7//14 5//10 1//6
f 1//1 7//13 8//15
f 8//16 7//14 1//6
