# SSTK version 0.8.0
# 1
mtllib original-1.mtl
o Group1/mesh1/mesh1-geometry#mesh1-geometry
v 0.015319 0.124141 -0.011207
v 0.010836 0.124141 0.022840
v 0.002177 0.124141 -0.009477
v 0.027565 0.124141 0.010003
v -0.004162 0.124141 0.014181
v 0.010836 0.124141 -0.011798
v 0.019496 0.124141 0.020520
v 0.028155 0.124141 0.005521
v 0.006354 0.124141 0.022250
v -0.006482 0.124141 0.005521
v 0.015319 0.483856 -0.011207
v 0.023083 0.124141 0.017767
v 0.027565 0.483856 0.010003
v 0.023083 0.124141 -0.006725
v 0.006354 0.483856 0.022250
v -0.001410 0.124141 0.017767
v -0.001410 0.124141 -0.006725
v 0.019496 0.483856 -0.009477
v 0.010836 0.483856 -0.011797
v 0.019496 0.483856 0.020520
v 0.028155 0.483856 0.005521
v 0.025835 0.483856 0.014181
v 0.025835 0.124141 -0.003138
v 0.002177 0.483856 0.020520
v 0.010836 0.483856 0.022840
v -0.004162 0.483856 0.014181
v -0.005892 0.124141 0.001039
v 0.002177 0.483856 -0.009477
v 0.019496 0.124141 -0.009477
v 0.006354 0.124141 -0.011207
v 0.015319 0.483856 0.022250
v 0.023083 0.483856 0.017767
v 0.027565 0.124141 0.001039
v 0.025835 0.124141 0.014181
v 0.025835 0.483856 -0.003138
v 0.002177 0.124141 0.020520
v 0.015319 0.124141 0.022250
v -0.001410 0.483856 0.017767
v -0.005892 0.483856 0.010003
v -0.005892 0.483856 0.001039
v 0.006354 0.483856 -0.011207
v -0.001410 0.483856 -0.006725
v 0.023083 0.483856 -0.006725
v 0.027565 0.483856 0.001039
v -0.005892 0.124141 0.010003
v -0.006482 0.483856 0.005521
v -0.004162 0.483856 -0.003138
v -0.004162 0.124141 -0.003138
vn 0 -1 0
vn 0 1 0
vn 0.21626398378863615 9.999999252557982e-7 -0.9763349268129603
vn 0.3009819486488722 0 -0.95362983729932
vn 0.043823013610312656 0.000001000000310796476 -0.9990393102761824
vn -0.043823013610312656 -0.000001000000310796476 0.9990393102761824
vn -0.3009819486488722 0 0.95362983729932
vn -0.21626398378863615 -9.999999252557982e-7 0.9763349268129603
vn 0.9990383887359031 0 0.0438440170601488
vn 0.9763484595863955 0 0.21620288033065785
vn 0.953657537441009 0 0.30089416957121373
vn -0.953657537441009 0 -0.30089416957121373
vn -0.9763484595863955 0 -0.21620288033065785
vn -0.9990383887359031 0 -0.0438440170601488
vn -0.21620288033065785 0 0.9763484595863955
vn -0.30089416957121373 0 0.953657537441009
vn -0.0438440170601488 0 0.9990383887359031
vn 0.0438440170601488 0 -0.9990383887359031
vn 0.30089416957121373 0 -0.953657537441009
vn 0.21620288033065785 0 -0.9763484595863955
vn 0.4615230997090765 0 -0.8871281916583001
vn -0.4615230997090765 0 0.8871281916583001
vn -0.04389999694243117 9.999999305733377e-7 -0.9990359304186485
vn 0.04389999694243117 -9.999999305733377e-7 0.9990359304186485
vn 0.5374797718052179 0 0.8432766419747503
vn 0.46156276768790166 0 0.8871075535042433
vn 0.7071177810975824 0 0.7070957811043929
vn -0.7071177810975824 0 -0.7070957811043929
vn -0.46156276768790166 0 -0.8871075535042433
vn -0.5374797718052179 0 -0.8432766419747503
vn 0.9990393540571123 0 -0.04382201553041551
vn -0.9990393540571123 0 0.04382201553041551
vn 0.8660483724424506 0 0.4999602150069368
vn -0.8660483724424506 0 -0.4999602150069368
vn -0.46155404720313487 0 0.8871120907249582
vn 0.46155404720313487 0 -0.8871120907249582
vn 0.04382201553041551 0 0.9990393540571123
vn -0.04382201553041551 0 -0.9990393540571123
vn -0.8871120907249582 0 0.46155404720313487
vn -0.7374111548353426 0 0.6754441418240346
vn -0.8432510002525536 0 0.5375200001609872
vn 0.8432510002525536 0 -0.5375200001609872
vn 0.7374111548353426 0 -0.6754441418240346
vn 0.8871120907249582 0 -0.46155404720313487
vn -0.5374441997849757 0 -0.843299313480977
vn -0.461515165995728 0 -0.8871323190798179
vn -0.6754029189482775 0 -0.7374489115024487
vn 0.6754029189482775 0 0.7374489115024487
vn 0.461515165995728 0 0.8871323190798179
vn 0.5374441997849757 0 0.843299313480977
vn 0.5374039691419963 0 -0.8433249515758611
vn -0.5374039691419963 0 0.8433249515758611
vn -0.2162580532577692 0.000001000000246486381 -0.9763362404418673
vn 0.2162580532577692 -0.000001000000246486381 0.9763362404418673
vn 0.3009288700514188 0 0.953646588191651
vn -0.3009288700514188 0 -0.953646588191651
vn 0.9659260992006155 0 -0.2588180265806127
vn -0.9659260992006155 0 0.2588180265806127
vn 0.7374656314955219 0 -0.6753846625167846
vn 0.8660577997241569 0 -0.49994388438799003
vn -0.8660577997241569 0 0.49994388438799003
vn -0.7374656314955219 0 0.6753846625167846
vn -0.5375200001609872 0 0.8432510002525536
vn 0.5375200001609872 0 -0.8432510002525536
vn 0.21620902204359196 0 0.9763470995434735
vn -0.21620902204359196 0 -0.9763470995434735
vn -0.6754441418240346 0 0.7374111548353426
vn 0.6754441418240346 0 -0.7374111548353426
vn -0.953657537441009 0 0.30089416957121373
vn 0.953657537441009 0 -0.30089416957121373
vn -0.953646588191651 0 -0.3009288700514188
vn -0.9990393540571123 0 -0.04382201553041551
vn -0.9763470995434735 0 -0.21620902204359196
vn 0.9763470995434735 0 0.21620902204359196
vn 0.9990393540571123 0 0.04382201553041551
vn 0.953646588191651 0 0.3009288700514188
vn -0.30089416957121373 0 -0.953657537441009
vn 0.30089416957121373 0 0.953657537441009
vn -0.7374278758687761 0 -0.6754258863055701
vn 0.7374278758687761 0 0.6754258863055701
vn 0.6753846625167846 0 -0.7374656314955219
vn -0.6753846625167846 0 0.7374656314955219
vn -0.9763484595863955 0 0.21620288033065785
vn 0.9763484595863955 0 -0.21620288033065785
vn -0.9990383887359031 0 0.0438440170601488
vn 0.9990383887359031 0 -0.0438440170601488
vn -0.8871075535042433 0 -0.46156276768790166
vn 0.8871075535042433 0 0.46156276768790166
vn -0.8432766419747503 0 -0.5374797718052179
vn 0.8432766419747503 0 0.5374797718052179
usemtl material_0_0
f 1//1 2//1 3//1
f 3//2 2//2 1//2
f 4//1 2//1 1//1
f 1//2 2//2 4//2
f 2//1 5//1 3//1
f 3//2 5//2 2//2
f 1//1 3//1 6//1
f 6//2 3//2 1//2
f 4//1 7//1 2//1
f 2//2 7//2 4//2
f 8//1 4//1 1//1
f 1//2 4//2 8//2
f 2//1 9//1 5//1
f 5//2 9//2 2//2
f 3//1 5//1 10//1
f 10//2 5//2 3//2
f 11//3 1//4 6//5
f 6//6 1//7 11//8
f 4//1 12//1 7//1
f 7//2 12//2 4//2
f 8//9 13//10 4//11
f 4//12 13//13 8//14
f 8//1 1//1 14//1
f 14//2 1//2 8//2
f 15//15 9//16 2//17
f 2//18 9//19 15//20
f 9//1 16//1 5//1
f 5//2 16//2 9//2
f 3//1 10//1 17//1
f 17//2 10//2 3//2
f 18//21 1//4 11//3
f 11//8 1//7 18//22
f 11//3 6//5 19//23
f 19//24 6//6 11//8
f 20//25 7//26 12//27
f 12//28 7//29 20//30
f 21//31 13//10 8//9
f 8//14 13//13 21//32
f 13//10 22//33 4//11
f 4//12 22//34 13//13
f 8//1 14//1 23//1
f 23//2 14//2 8//2
f 24//35 9//16 15//15
f 15//20 9//19 24//36
f 15//15 2//17 25//37
f 25//38 2//18 15//20
f 5//39 16//40 26//41
f 26//42 16//43 5//44
f 17//1 10//1 27//1
f 27//2 10//2 17//2
f 28//45 3//46 17//47
f 17//48 3//49 28//50
f 18//21 29//51 1//4
f 1//7 29//52 18//22
f 19//23 6//5 30//53
f 30//54 6//6 19//24
f 31//55 7//26 20//25
f 20//30 7//29 31//56
f 20//25 12//27 32//27
f 32//28 12//28 20//30
f 33//57 21//31 8//9
f 8//14 21//32 33//58
f 4//11 22//33 34//33
f 34//34 22//34 4//12
f 14//59 35//60 23//60
f 23//61 35//61 14//62
f 24//35 36//63 9//16
f 9//19 36//64 24//36
f 25//37 2//17 37//65
f 37//66 2//18 25//38
f 26//41 16//40 38//67
f 38//68 16//43 26//42
f 39//69 5//39 26//41
f 26//42 5//44 39//70
f 27//71 10//72 40//73
f 40//74 10//75 27//76
f 41//77 3//46 28//45
f 28//50 3//49 41//78
f 28//45 17//47 42//79
f 42//80 17//48 28//50
f 43//81 29//51 18//21
f 18//22 29//52 43//82
f 19//23 30//53 41//77
f 41//78 30//54 19//24
f 31//55 37//65 7//26
f 7//29 37//66 31//56
f 22//33 32//27 12//27
f 12//28 32//28 22//34
f 44//57 21//31 33//57
f 33//58 21//32 44//58
f 22//33 12//27 34//33
f 34//34 12//28 22//34
f 43//81 35//60 14//59
f 14//62 35//61 43//82
f 35//60 33//57 23//60
f 23//61 33//58 35//61
f 38//67 36//63 24//35
f 24//36 36//64 38//68
f 25//37 37//65 31//55
f 31//56 37//66 25//38
f 38//67 16//40 36//63
f 36//64 16//43 38//68
f 45//83 5//39 39//69
f 39//70 5//44 45//84
f 40//73 10//72 46//85
f 46//86 10//75 40//74
f 47//87 27//71 40//73
f 40//74 27//76 47//88
f 41//77 30//53 3//46
f 3//49 30//54 41//78
f 17//47 48//89 42//79
f 42//80 48//90 17//48
f 43//81 14//59 29//51
f 29//52 14//62 43//82
f 35//60 44//57 33//57
f 33//58 44//58 35//61
f 46//85 45//83 39//69
f 39//70 45//84 46//86
f 10//72 45//83 46//85
f 46//86 45//84 10//75
f 48//89 27//71 47//87
f 47//88 27//76 48//90
f 42//79 48//89 47//87
f 47//88 48//90 42//80
