# SSTK version 0.8.0
# 3
mtllib original-3.mtl
o Group3/mesh13/mesh13-geometry#mesh13-geometry
v 0.851815 -0.022900 0.476981
v 0.749846 -0.063545 0.661388
v 0.720258 -0.066399 0.658042
v 0.864140 -0.025753 0.504089
v 0.734865 -0.065293 0.661649
v 0.217918 -0.034229 0.088449
v 0.854258 -0.033552 0.546498
v 0.859757 -0.024000 0.489760
v 0.735524 -0.071082 0.660739
v 0.153786 -0.055435 0.176712
v 0.840300 -0.022630 0.466902
v 0.864666 -0.028037 0.518996
v 0.786925 -0.055764 0.638851
v 0.852475 -0.028687 0.476071
v 0.860424 -0.029789 0.488851
v 0.750507 -0.069334 0.660479
v 0.720918 -0.072188 0.657128
v 0.707019 -0.066775 0.650811
v 0.208503 -0.034472 0.083162
v 0.233175 -0.029168 0.067343
v 0.840966 -0.028418 0.465991
v 0.861291 -0.030696 0.533458
v 0.865327 -0.033824 0.518086
v 0.854918 -0.039341 0.545588
v 0.764186 -0.061258 0.657284
v 0.864800 -0.031542 0.503179
v 0.764846 -0.067047 0.656375
v 0.138254 -0.060552 0.197980
v 0.145773 -0.055162 0.169159
v 0.233836 -0.034958 0.066433
v 0.861952 -0.036487 0.532548
v 0.787585 -0.061553 0.637942
v 0.776899 -0.058601 0.649601
v 0.707679 -0.072558 0.649902
v 0.132778 -0.052343 0.141805
v 0.214549 -0.029675 0.057035
v 0.215210 -0.035462 0.056125
v 0.777559 -0.064390 0.648692
v 0.138915 -0.066341 0.197070
v 0.122603 -0.059990 0.183032
v 0.137483 -0.054068 0.156189
v 0.193856 -0.035520 0.079180
v 0.194588 -0.036996 0.050906
v 0.153010 -0.042687 0.056856
v 0.123264 -0.065779 0.182122
v 0.111323 -0.058392 0.164661
v 0.141927 -0.044736 0.100067
v 0.193927 -0.031210 0.051816
v 0.110132 -0.054571 0.101323
v 0.105168 -0.055862 0.144126
v 0.131967 -0.050109 0.126991
v 0.151996 -0.041969 0.089783
v 0.178882 -0.037199 0.078982
v 0.173373 -0.039462 0.051151
v 0.134893 -0.046449 0.067652
v 0.105202 -0.058375 0.121924
v 0.111985 -0.064176 0.163751
v 0.105829 -0.061651 0.143216
v 0.135092 -0.047514 0.112755
v 0.134231 -0.040660 0.068562
v 0.172711 -0.033673 0.052061
v 0.152348 -0.036898 0.057766
v 0.120263 -0.050508 0.082815
v 0.109471 -0.048789 0.102233
v 0.104542 -0.052586 0.122834
v 0.119602 -0.044719 0.083725
v 0.164603 -0.039398 0.082594
vn 0.11230095779444431 -0.9815986310902729 -0.15444294195641523
vn 0.11217896817112934 -0.981694721460851 -0.15391995632783545
vn 0.11214704285823424 -0.9816873751627007 -0.15399005884900635
vn -0.11214704285823424 0.9816873751627007 0.15399005884900635
vn -0.11217896817112934 0.981694721460851 0.15391995632783545
vn -0.11230095779444431 0.9815986310902729 0.15444294195641523
vn 0.11232800374900336 -0.9816010327614257 -0.1544080051534447
vn -0.11232800374900336 0.9816010327614257 0.1544080051534447
vn 0.1119619780323343 -0.9819628073325333 -0.15235997010598668
vn -0.1119619780323343 0.9819628073325333 0.15235997010598668
vn 0.11212994158771622 -0.9816214886401247 -0.15442191955639295
vn -0.11212994158771622 0.9816214886401247 0.15442191955639295
vn 0.11232197353447508 -0.9816177687092854 -0.15430596364212476
vn -0.11232197353447508 0.9816177687092854 0.15430596364212476
vn 0.1127229584556795 -0.9815296382548646 -0.15457394303139754
vn -0.1127229584556795 0.9815296382548646 0.15457394303139754
vn -0.16400096575750395 0.13476197186244462 -0.977211795963573
vn 0.09517399984248703 0.16522499972655288 -0.9816529983753643
vn 0.09511402998869747 0.16500205202383542 -0.9816963095210416
vn -0.09511402998869747 -0.16500205202383542 0.9816963095210416
vn -0.09517399984248703 -0.16522499972655288 0.9816529983753643
vn 0.16400096575750395 -0.13476197186244462 0.977211795963573
vn 0.3068328517677044 0.18222791196489718 -0.9341555487053599
vn -0.3068328517677044 -0.18222791196489718 0.9341555487053599
vn 0.11213304113382708 -0.9816253600901876 -0.15439505663682643
vn -0.11213304113382708 0.9816253600901876 0.15439505663682643
vn 0.11222698762647025 -0.98160189177398 -0.15447598296832887
vn -0.11222698762647025 0.98160189177398 0.15447598296832887
vn 0.1125070366870318 -0.9816033200876432 -0.15426305030310658
vn -0.1125070366870318 0.9816033200876432 0.15426305030310658
vn 0.11203603830932941 -0.9816353356579901 -0.1544020527958612
vn -0.11203603830932941 0.9816353356579901 0.1544020527958612
vn -0.7860698608400998 -0.18281296763616633 0.590485895464815
vn -0.8852288251943238 -0.16970696648805356 0.4330929144773671
vn -0.7209629844812719 -0.18737999596664576 0.6671589856394029
vn 0.7209629844812719 0.18737999596664576 -0.6671589856394029
vn 0.8852288251943238 0.16970696648805356 -0.4330929144773671
vn 0.7860698608400998 0.18281296763616633 -0.590485895464815
vn -0.9213972823742186 -0.16132304943955336 0.35355610835188217
vn -0.9800524583697484 -0.1349999253917044 0.14584991939540798
vn 0.9800524583697484 0.1349999253917044 -0.14584991939540798
vn 0.9213972823742186 0.16132304943955336 -0.35355610835188217
vn -0.16400299480282718 0.13475099572980861 -0.9772129690326101
vn 0.16400299480282718 -0.13475099572980861 0.9772129690326101
vn 0.3884240406474127 0.18660301952744737 -0.9023890944323165
vn -0.3884240406474127 -0.18660301952744737 0.9023890944323165
vn 0.11221598404816235 -0.9816108604610814 -0.15442697804774358
vn -0.11221598404816235 0.9816108604610814 0.15442697804774358
vn 0.1121079990586852 -0.981634991757702 -0.15435199870398367
vn -0.1121079990586852 0.981634991757702 0.15435199870398367
vn 0.11209001624358193 -0.9816381422545926 -0.15434502236698797
vn -0.11209001624358193 0.9816381422545926 0.15434502236698797
vn -0.5764240093507504 -0.1910880030998298 0.794494012888282
vn -0.6135468927774748 -0.19089196664000938 0.7662378660934317
vn 0.6135468927774748 0.19089196664000938 -0.7662378660934317
vn 0.5764240093507504 0.1910880030998298 -0.794494012888282
vn 0.11268795225249077 -0.9815935840846534 -0.15419293466623185
vn -0.11268795225249077 0.9815935840846534 0.15419293466623185
vn -0.9891349567164442 -0.09525799583160541 -0.11197299510017383
vn -0.9891330123176735 -0.09527700118648447 -0.11197400139441227
vn 0.9891330123176735 0.09527700118648447 0.11197400139441227
vn 0.9891349567164442 0.09525799583160541 0.11197299510017383
vn -0.8328859646498218 -0.007988999660922771 -0.5533869765125969
vn -0.7846512168858651 0.00789700218281476 -0.6198871713433466
vn -0.8561011345337355 -0.016399002577054143 -0.5165480811739876
vn 0.8561011345337355 0.016399002577054143 0.5165480811739876
vn 0.7846512168858651 -0.00789700218281476 0.6198871713433466
vn 0.8328859646498218 0.007988999660922771 0.5533869765125969
vn 0.11196304844815698 -0.9816364247693883 -0.15444806683208717
vn -0.11196304844815698 0.9816364247693883 0.15444806683208717
vn -0.980095679166712 -0.13474095589269008 0.14579895227286657
vn 0.980095679166712 0.13474095589269008 -0.14579895227286657
vn -0.37208707950794767 0.10246202189418983 -0.9225251971261277
vn 0.37208707950794767 -0.10246202189418983 0.9225251971261277
vn -0.11213896468755771 0.9816606908760788 0.15416595145330392
vn -0.11212403389980978 0.9817222968159275 0.15378404649538344
vn -0.11196397430488664 0.9819977746369376 0.15213296508632546
vn 0.11196397430488664 -0.9819977746369376 -0.15213296508632546
vn 0.11212403389980978 -0.9817222968159275 -0.15378404649538344
vn 0.11213896468755771 -0.9816606908760788 -0.15416595145330392
vn 0.5169539528359667 0.19036798263187327 -0.834576923857795
vn -0.5169539528359667 -0.19036798263187327 0.834576923857795
vn 0.11211300884431535 -0.9816400774391347 -0.15431601217360513
vn -0.11211300884431535 0.9816400774391347 0.15431601217360513
vn 0.11205197941896662 -0.9816398196983043 -0.15436197164772206
vn -0.11205197941896662 0.9816398196983043 0.15436197164772206
vn -0.4941167671411048 -0.18977391056659884 0.8484306001661444
vn -0.5163489330383255 -0.19035697531393814 0.8349538917206814
vn 0.5163489330383255 0.19035697531393814 -0.8349538917206814
vn 0.4941167671411048 0.18977391056659884 -0.8484306001661444
vn -0.9451500534170469 -0.05727900323723743 -0.3215750181744558
vn 0.9451500534170469 0.05727900323723743 0.3215750181744558
vn -0.9147133182772986 -0.04111701430679088 -0.4020061398792667
vn 0.9147133182772986 0.04111701430679088 0.4020061398792667
vn -0.7599451487569977 0.015384003011372879 -0.6498051271974168
vn 0.7599451487569977 -0.015384003011372879 0.6498051271974168
vn 0.11141400540352368 -0.9815940476068217 -0.15511300752290372
vn -0.11141400540352368 0.9815940476068217 0.15511300752290372
vn -0.4515348858802162 0.08798497776289968 -0.8879047755931951
vn 0.4515348858802162 -0.08798497776289968 0.8879047755931951
vn -0.11187100515932308 0.9816810452736584 0.1542310071129031
vn -0.1118800431484489 0.9816793786014139 0.15423505948338437
vn -0.11207902425782622 0.9816452124624043 0.15430803339766302
vn 0.11207902425782622 -0.9816452124624043 -0.15430803339766302
vn 0.1118800431484489 -0.9816793786014139 -0.15423505948338437
vn 0.11187100515932308 -0.9816810452736584 -0.1542310071129031
vn -0.11195403501810808 0.981700307066087 0.15404804818469672
vn -0.11197803022209057 0.9816112649300448 0.15459704172466524
vn 0.11197803022209057 -0.9816112649300448 -0.15459704172466524
vn 0.11195403501810808 -0.981700307066087 -0.15404804818469672
vn -0.11213998540475757 0.9815998722428217 0.15455197988475222
vn 0.11213998540475757 -0.9815998722428217 -0.15455197988475222
vn 0.5658781262570439 0.19066904254150968 -0.8021391789709071
vn -0.5658781262570439 -0.19066904254150968 0.8021391789709071
vn 0.6363458213519809 0.19015794661497062 -0.7475987901187713
vn -0.6363458213519809 -0.19015794661497062 0.7475987901187713
vn 0.11217200425956367 -0.9816300372759289 -0.1543370058607166
vn -0.11217200425956367 0.9816300372759289 0.1543370058607166
vn 0.11214595576173747 -0.981642612771024 -0.15427593914270535
vn -0.11214595576173747 0.981642612771024 0.15427593914270535
vn -0.3937258457941529 -0.18647192696679252 0.9001156474625748
vn 0.3937258457941529 0.18647192696679252 -0.9001156474625748
vn -0.11099405783457884 0.9820385117011202 0.15258007950339716
vn -0.11152899960172995 0.9818499964938137 0.15340099945220528
vn 0.11152899960172995 -0.9818499964938137 -0.15340099945220528
vn 0.11099405783457884 -0.9820385117011202 -0.15258007950339716
vn -0.11190305445304666 0.9816424776761805 0.15445307515827494
vn 0.11190305445304666 -0.9816424776761805 -0.15445307515827494
vn -0.11195802182263583 0.9816281913370224 0.1545040301156197
vn -0.11166804819476747 0.9816144236545695 0.15480106681052963
vn 0.11166804819476747 -0.9816144236545695 -0.15480106681052963
vn 0.11195802182263583 -0.9816281913370224 -0.1545040301156197
vn -0.6705578867816748 0.03989199326455681 -0.7407838749245795
vn 0.6705578867816748 -0.03989199326455681 0.7407838749245795
vn -0.11144703076373116 0.9816472709729684 0.15475204271760523
vn 0.11144703076373116 -0.9816472709729684 -0.15475204271760523
vn -0.6009270198014469 0.05673200186940476 -0.7972880262718367
vn 0.6009270198014469 -0.05673200186940476 0.7972880262718367
vn 0.6593839776778746 0.18964899357981294 -0.7274929753721807
vn -0.6593839776778746 -0.18964899357981294 0.7274929753721807
vn 0.11217102444425621 -0.9816262139155169 -0.15436203363850104
vn -0.11217102444425621 0.9816262139155169 0.15436203363850104
vn 0.11210395793832262 -0.9816326316890516 -0.15436994208002291
vn -0.11210395793832262 0.9816326316890516 0.15436994208002291
vn 0.11213993662009568 -0.981635445193546 -0.1543259127771795
vn -0.11213993662009568 0.981635445193546 0.1543259127771795
vn -0.3122809536685959 -0.18228197295582843 0.9323378616741697
vn 0.3122809536685959 0.18228197295582843 -0.9323378616741697
vn -0.11220200145363303 0.9816420127176632 0.1542390019982436
vn 0.11220200145363303 -0.9816420127176632 -0.1542390019982436
vn -0.11142496117587326 0.9815956579797397 0.15509494595981232
vn 0.11142496117587326 -0.9815956579797397 -0.15509494595981232
vn -0.11210095345687086 0.9816365924348787 0.15434693591678642
vn 0.11210095345687086 -0.9816365924348787 -0.15434693591678642
vn -0.11201695104832306 0.9816535710150291 0.15429993257055866
vn -0.11199105500313226 0.981681482141689 0.15414107570463553
vn 0.11199105500313226 -0.981681482141689 -0.15414107570463553
vn 0.11201695104832306 -0.9816535710150291 -0.15429993257055866
vn 0.7703101232218983 0.18400602943434297 -0.6105440976650838
vn -0.7703101232218983 -0.18400602943434297 0.6105440976650838
vn 0.11222403429466012 -0.9816092999710134 -0.1544310471927456
vn -0.11222403429466012 0.9816092999710134 0.1544310471927456
vn 0.11235300751607938 -0.9816110656668375 -0.15432601032394766
vn -0.11235300751607938 0.9816110656668375 0.15432601032394766
vn 0.11212704046973972 -0.981640354301063 -0.15430405569258734
vn -0.11212704046973972 0.981640354301063 0.15430405569258734
vn -0.10088401907585834 -0.16576703134439386 0.9809911854926979
vn 0.10088401907585834 0.16576703134439386 -0.9809911854926979
vn -0.11226694917216068 0.9816325555747958 0.15425193016384292
vn 0.11226694917216068 -0.9816325555747958 -0.15425193016384292
vn 0.7703296316974027 0.18393891205689594 -0.6105397080946247
vn -0.7703296316974027 -0.18393891205689594 0.6105397080946247
vn 0.11211701464528598 -0.9816311282255744 -0.1543700201645854
vn -0.11211701464528598 0.9816311282255744 0.1543700201645854
vn 0.11238199929794963 -0.9816229938678012 -0.15422899903653167
vn -0.11238199929794963 0.9816229938678012 0.15422899903653167
vn 0.11210802603092611 -0.9816392279317468 -0.15432503583350604
vn -0.11210802603092611 0.9816392279317468 0.15432503583350604
vn 0.11214000584361586 -0.981636051153056 -0.15432200804172025
vn -0.11214000584361586 0.981636051153056 0.15432200804172025
vn -0.10088496992402593 -0.1657929505735645 0.980986707546815
vn 0.10088496992402593 0.1657929505735645 -0.980986707546815
vn -0.11230902875813435 0.9816652513676906 0.15401303943696917
vn 0.11230902875813435 -0.9816652513676906 -0.15401303943696917
vn -0.1124529550686436 0.9816356077806997 0.1540969384295021
vn 0.1124529550686436 -0.9816356077806997 -0.1540969384295021
vn -0.11208599106865233 0.9816389217800688 0.1543429877014884
vn 0.11208599106865233 -0.9816389217800688 -0.1543429877014884
vn 0.8878033569440749 0.16886606789312292 -0.42812317212824025
vn -0.8878033569440749 -0.16886606789312292 0.42812317212824025
vn 0.9234889044955528 0.16042298340953726 -0.3484719639620767
vn -0.9234889044955528 -0.16042298340953726 0.3484719639620767
vn 0.9730797587360941 0.13999896528887087 -0.1830739546089239
vn 0.9869907691932226 0.12797597007295092 -0.09732097724158943
vn -0.9869907691932226 -0.12797597007295092 0.09732097724158943
vn -0.9730797587360941 -0.13999896528887087 0.1830739546089239
vn 0.11236494768036433 -0.9816235429340983 -0.15423792818336718
vn -0.11236494768036433 0.9816235429340983 0.15423792818336718
vn 0.11211797719156193 -0.9816348003035988 -0.15434596860101718
vn -0.11211797719156193 0.9816348003035988 0.15434596860101718
vn 0.11218697314569527 -0.9816377650244148 -0.15427696307057373
vn -0.11218697314569527 0.9816377650244148 0.15427696307057373
vn 0.11527497270225569 -0.14139496651689845 0.9832187671684158
vn -0.11527497270225569 0.14139496651689845 -0.9832187671684158
vn 0.2012750486325863 -0.12960103131452919 0.9709232345969275
vn -0.2012750486325863 0.12960103131452919 -0.9709232345969275
vn 0.4068980084463889 -0.09625600199808232 0.9083880188563187
vn 0.40689919536170926 -0.09624704621043187 0.9083884361382858
vn -0.40689919536170926 0.09624704621043187 -0.9083884361382858
vn -0.4068980084463889 0.09625600199808232 -0.9083880188563187
vn 0.6276830304708735 -0.0503500024442411 0.776839037711652
vn -0.6276830304708735 0.0503500024442411 -0.776839037711652
vn -0.11317397655822006 0.9816357966733076 0.15356696819160062
vn 0.11317397655822006 -0.9816357966733076 -0.15356696819160062
vn 0.9123859014655213 0.040213995657029364 0.40735095600752486
vn 0.9433685273078654 0.056349971764811164 0.32692583618780263
vn 0.9885686560345158 0.09437796716185265 0.11757895908923137
vn -0.9885686560345158 -0.09437796716185265 -0.11757895908923137
vn -0.9433685273078654 -0.056349971764811164 -0.32692583618780263
vn -0.9123859014655213 -0.040213995657029364 -0.40735095600752486
vn -0.11206003806310343 0.9816453334325821 0.15432105241777805
vn 0.11206003806310343 -0.9816453334325821 -0.15432105241777805
vn 0.11207697564175313 -0.9816537866522974 -0.1542549664750007
vn -0.11207697564175313 0.9816537866522974 0.1542549664750007
vn 0.11221597126929243 -0.9816267486736449 -0.15432596048785244
vn -0.11221597126929243 0.9816267486736449 0.15432596048785244
vn 0.11228200298686974 -0.9816080261122462 -0.15439700410719218
vn -0.11228200298686974 0.9816080261122462 0.15439700410719218
vn 0.11212598554533557 -0.9816478734513633 -0.15425698011404004
vn -0.11212598554533557 0.9816478734513633 0.15425698011404004
vn 0.11219095113170786 -0.9816385724164913 -0.15426893280332168
vn -0.11219095113170786 0.9816385724164913 0.15426893280332168
vn 0.6276850008090861 -0.05032600006487039 0.7768390010013454
vn -0.6276850008090861 0.05032600006487039 -0.7768390010013454
vn 0.8056905863275402 -0.0010499994608901219 0.5923356958721269
vn 0.805691037824778 -0.001080000050702895 0.5923350278083531
vn -0.805691037824778 0.001080000050702895 -0.5923350278083531
vn -0.8056905863275402 0.0010499994608901219 -0.5923356958721269
vn 0.9885784134191304 0.09429803943502399 0.11756104916351205
vn -0.9885784134191304 -0.09429803943502399 -0.11756104916351205
vn -0.11237896085088538 0.9816016580424347 0.15436694622365965
vn 0.11237896085088538 -0.9816016580424347 -0.15436694622365965
usemtl material_0_0
f 1//1 2//2 3//3
f 3//4 2//5 1//6
f 4//7 2//2 1//1
f 1//6 2//5 4//8
f 2//2 5//9 3//3
f 3//4 5//10 2//5
f 1//1 3//3 6//11
f 6//12 3//4 1//6
f 4//7 7//13 2//2
f 2//5 7//14 4//8
f 4//7 1//1 8//15
f 8//16 1//6 4//8
f 2//17 9//18 5//19
f 5//20 9//21 2//22
f 5//19 9//18 3//23
f 3//24 9//21 5//20
f 3//3 10//25 6//11
f 6//12 10//26 3//4
f 1//1 6//11 11//27
f 11//28 6//12 1//6
f 12//29 7//13 4//7
f 4//8 7//14 12//30
f 7//13 13//31 2//2
f 2//5 13//32 7//14
f 14//33 8//34 1//35
f 1//36 8//37 14//38
f 15//39 4//40 8//34
f 8//37 4//41 15//42
f 2//17 16//43 9//18
f 9//21 16//44 2//22
f 3//23 9//18 17//45
f 17//46 9//21 3//24
f 3//3 18//47 10//25
f 10//26 18//48 3//4
f 6//11 10//25 19//49
f 19//50 10//26 6//12
f 11//27 6//11 20//51
f 20//52 6//12 11//28
f 11//53 21//54 1//35
f 1//36 21//55 11//56
f 12//29 22//57 7//13
f 7//14 22//58 12//30
f 4//40 23//59 12//60
f 12//61 23//62 4//41
f 24//63 13//64 7//65
f 7//66 13//67 24//68
f 13//31 25//69 2//2
f 2//5 25//70 13//32
f 14//33 15//39 8//34
f 8//37 15//42 14//38
f 1//35 21//54 14//33
f 14//38 21//55 1//36
f 15//39 26//71 4//40
f 4//41 26//72 15//42
f 2//17 27//73 16//43
f 16//44 27//74 2//22
f 16//75 17//76 9//77
f 9//78 17//79 16//80
f 3//23 17//45 18//81
f 18//82 17//46 3//24
f 18//47 28//83 10//25
f 10//26 28//84 18//48
f 19//49 10//25 29//85
f 29//86 10//26 19//50
f 20//51 6//11 19//49
f 19//50 6//12 20//52
f 11//53 20//87 30//88
f 30//89 20//90 11//56
f 11//53 30//88 21//54
f 21//55 30//89 11//56
f 23//59 22//91 12//60
f 12//61 22//92 23//62
f 31//93 7//65 22//91
f 22//92 7//66 31//94
f 26//71 23//59 4//40
f 4//41 23//62 26//72
f 24//63 32//95 13//64
f 13//67 32//96 24//68
f 31//93 24//63 7//65
f 7//66 24//68 31//94
f 13//31 33//97 25//69
f 25//70 33//98 13//32
f 25//99 27//73 2//17
f 2//22 27//74 25//100
f 26//101 15//102 14//103
f 14//104 15//105 26//106
f 14//103 21//107 27//108
f 27//109 21//110 14//104
f 27//108 34//111 16//75
f 16//80 34//112 27//109
f 16//75 34//111 17//76
f 17//79 34//112 16//80
f 18//81 17//45 34//113
f 34//114 17//46 18//82
f 28//115 18//81 34//113
f 34//114 18//82 28//116
f 10//25 28//83 29//85
f 29//86 28//84 10//26
f 19//49 29//85 35//117
f 35//118 29//86 19//50
f 20//51 19//49 36//119
f 36//120 19//50 20//52
f 20//87 37//121 30//88
f 30//89 37//122 20//90
f 21//107 30//123 37//124
f 37//125 30//126 21//110
f 23//59 31//93 22//91
f 22//92 31//94 23//62
f 23//127 26//101 14//103
f 14//104 26//106 23//128
f 24//129 27//108 32//130
f 32//131 27//109 24//132
f 32//95 33//133 13//64
f 13//67 33//134 32//96
f 23//127 24//129 31//135
f 31//136 24//132 23//128
f 33//133 38//137 25//99
f 25//100 38//138 33//134
f 25//99 38//137 27//73
f 27//74 38//138 25//100
f 21//107 34//111 27//108
f 27//109 34//112 21//110
f 24//129 14//103 27//108
f 27//109 14//104 24//132
f 28//115 34//113 39//139
f 39//140 34//114 28//116
f 29//85 28//83 40//141
f 40//142 28//84 29//86
f 29//85 41//143 35//117
f 35//118 41//144 29//86
f 19//49 35//117 42//145
f 42//146 35//118 19//50
f 36//119 19//49 42//145
f 42//146 19//50 36//120
f 20//87 36//147 37//121
f 37//122 36//148 20//90
f 21//107 37//124 43//149
f 43//150 37//125 21//110
f 23//127 14//103 24//129
f 24//132 14//104 23//128
f 32//130 27//108 38//151
f 38//152 27//109 32//131
f 32//95 38//137 33//133
f 33//134 38//138 32//96
f 21//107 44//153 34//111
f 34//112 44//154 21//110
f 34//111 45//155 39//156
f 39//157 45//158 34//112
f 40//159 28//115 39//139
f 39//140 28//116 40//160
f 29//85 40//141 41//143
f 41//144 40//142 29//86
f 41//143 46//161 35//117
f 35//118 46//162 41//144
f 42//145 35//117 47//163
f 47//164 35//118 42//146
f 36//119 42//145 48//165
f 48//166 42//146 36//120
f 36//147 43//167 37//121
f 37//122 43//168 36//148
f 21//107 43//149 44//153
f 44//154 43//150 21//110
f 34//111 44//153 49//169
f 49//170 44//154 34//112
f 34//111 49//169 45//155
f 45//158 49//170 34//112
f 40//159 39//139 45//171
f 45//172 39//140 40//160
f 41//143 40//141 46//161
f 46//162 40//142 41//144
f 35//117 46//161 50//173
f 50//174 46//162 35//118
f 47//163 35//117 51//175
f 51//176 35//118 47//164
f 42//145 47//163 52//177
f 52//178 47//164 42//146
f 48//165 42//145 53//179
f 53//180 42//146 48//166
f 36//147 48//181 43//167
f 43//168 48//182 36//148
f 43//149 54//183 44//153
f 44//154 54//184 43//150
f 44//153 55//185 49//169
f 49//170 55//186 44//154
f 45//155 49//169 56//187
f 56//188 49//170 45//158
f 57//189 40//159 45//171
f 45//172 40//160 57//190
f 57//189 46//191 40//159
f 40//160 46//192 57//190
f 58//193 50//194 46//191
f 46//192 50//195 58//196
f 35//117 50//173 51//175
f 51//176 50//174 35//118
f 47//163 51//175 59//197
f 59//198 51//176 47//164
f 52//177 47//163 60//199
f 60//200 47//164 52//178
f 42//145 52//177 53//179
f 53//180 52//178 42//146
f 48//165 53//179 61//201
f 61//202 53//180 48//166
f 48//181 61//203 43//167
f 43//168 61//204 48//182
f 61//203 54//205 43//167
f 43//168 54//206 61//204
f 62//207 44//208 54//205
f 54//206 44//209 62//210
f 62//207 55//211 44//208
f 44//209 55//212 62//210
f 55//185 63//213 49//169
f 49//170 63//214 55//186
f 49//215 64//216 56//217
f 56//218 64//219 49//220
f 45//155 56//187 57//221
f 57//222 56//188 45//158
f 58//193 46//191 57//189
f 57//190 46//192 58//196
f 56//217 50//194 58//193
f 58//196 50//195 56//218
f 51//175 50//173 65//223
f 65//224 50//174 51//176
f 59//197 51//175 65//223
f 65//224 51//176 59//198
f 47//163 59//197 64//225
f 64//226 59//198 47//164
f 47//163 66//227 60//199
f 60//200 66//228 47//164
f 62//229 52//177 60//199
f 60//200 52//178 62//230
f 53//179 52//177 67//231
f 67//232 52//178 53//180
f 53//179 67//231 61//201
f 61//202 67//232 53//180
f 61//203 62//207 54//205
f 54//206 62//210 61//204
f 62//207 60//233 55//211
f 55//212 60//234 62//210
f 55//211 66//235 63//236
f 63//237 66//238 55//212
f 63//236 66//235 49//215
f 49//220 66//238 63//237
f 66//235 64//216 49//215
f 49//220 64//219 66//238
f 64//216 65//239 56//217
f 56//218 65//240 64//219
f 57//221 56//187 58//241
f 58//242 56//188 57//222
f 56//217 65//239 50//194
f 50//195 65//240 56//218
f 59//197 65//223 64//225
f 64//226 65//224 59//198
f 47//163 64//225 66//227
f 66//228 64//226 47//164
f 55//211 60//233 66//235
f 66//238 60//234 55//212
f 67//231 52//177 62//229
f 62//230 52//178 67//232
f 61//201 67//231 62//229
f 62//230 67//232 61//202
