# SSTK version 0.8.0
# 26
mtllib original-26.mtl
o mesh43/mesh43-geometry#mesh43-geometry
v 0.086804 0.008926 0.148253
v 0.071337 0.008926 0.155465
v 0.062133 -0.013682 0.104830
v 0.079767 0.011704 0.158285
v 0.053934 -0.013682 0.108653
v 0.064626 -0.012462 0.106630
v 0.083546 0.011704 0.156524
v 0.073319 0.010300 0.157881
v 0.053710 -0.012462 0.111721
v 0.059319 -0.014195 0.104896
v 0.087382 0.010300 0.151324
vn 0.17471101542252823 -0.910529080376503 0.37471703307796
vn 0.17475203579900672 -0.9105281865271815 0.37470007675956657
vn 0.174765079999258 -0.9105104167889704 0.3747371715371035
vn 0.17474105120935784 -0.9105512668448276 0.37464910979412197
vn 0.17474202466955654 -0.9105091285429564 0.3747510529062329
vn 0.17486898963638964 -0.9105119460385113 0.3746849777942952
vn 0.17462202630742144 -0.9105531371780274 0.37470005644987897
vn 0.17482095646285667 -0.9105997732256268 0.3744939067366106
vn 0.17476205036031348 -0.9105052623757868 0.3747511079901683
vn 0.17472799324492855 -0.9105159647989983 0.37474098551232615
vn 0.17455797514146235 -0.9105728703266928 0.3746819466421096
vn -0.174765079999258 0.9105104167889704 -0.3747371715371035
vn -0.17475203579900672 0.9105281865271815 -0.37470007675956657
vn -0.17471101542252823 0.910529080376503 -0.37471703307796
vn -0.17474105120935784 0.9105512668448276 -0.37464910979412197
vn -0.17474202466955654 0.9105091285429564 -0.3747510529062329
vn -0.17486898963638964 0.9105119460385113 -0.3746849777942952
vn -0.17462202630742144 0.9105531371780274 -0.37470005644987897
vn -0.17482095646285667 0.9105997732256268 -0.3744939067366106
vn -0.17476205036031348 0.9105052623757868 -0.3747511079901683
vn -0.17472799324492855 0.9105159647989983 -0.37474098551232615
vn -0.17455797514146235 0.9105728703266928 -0.3746819466421096
usemtl material_0_0
f 1//1 2//2 3//3
f 1//1 4//4 2//2
f 2//2 5//5 3//3
f 1//1 3//3 6//6
f 1//1 7//7 4//4
f 4//4 8//8 2//2
f 2//2 9//9 5//5
f 3//3 5//5 10//10
f 11//11 7//7 1//1
usemtl material_1_0
f 3//12 2//13 1//14
f 2//13 4//15 1//14
f 3//12 5//16 2//13
f 6//17 3//12 1//14
f 4//15 7//18 1//14
f 2//13 8//19 4//15
f 5//16 9//20 2//13
f 10//21 5//16 3//12
f 1//14 7//18 11//22
