# SSTK version 0.8.0
# 24
mtllib original-24.mtl
o mesh41/mesh41-geometry#mesh41-geometry
v -0.013701 -0.013682 0.114569
v -0.022713 0.008926 0.163692
v -0.039198 0.008926 0.159274
v -0.012948 -0.012462 0.117550
v -0.034553 0.011704 0.166854
v -0.022440 -0.013682 0.112227
v -0.030525 0.011704 0.167933
v -0.039233 0.010300 0.162399
v -0.024583 -0.012462 0.114434
v -0.015900 -0.014195 0.112811
v -0.024244 0.010300 0.166415
vn -0.1069299812029941 -0.9105238399408493 0.39938992979204896
vn -0.10696901006016843 -0.9105200856321417 0.399388037561448
vn -0.10699996292109527 -0.910529684472382 0.39935786160974523
vn -0.10667397479630297 -0.910518784873118 0.3994699056178555
vn -0.10693801618378672 -0.9105421377996366 0.39934606043623844
vn -0.10704900515515907 -0.9105260438482038 0.3993530192316436
vn -0.10705502189799991 -0.91052618624724 0.39935108168687256
vn -0.10678101230272165 -0.9106031049146877 0.3992490459992817
vn -0.1071360115411203 -0.9105100980837951 0.3993660430213097
vn -0.10699004805111369 -0.9105614089491554 0.3992881793273489
vn -0.10710095256146429 -0.910551596686739 0.3992808231453861
vn 0.10699996292109527 0.910529684472382 -0.39935786160974523
vn 0.10696901006016843 0.9105200856321417 -0.399388037561448
vn 0.1069299812029941 0.9105238399408493 -0.39938992979204896
vn 0.10667397479630297 0.910518784873118 -0.3994699056178555
vn 0.10693801618378672 0.9105421377996366 -0.39934606043623844
vn 0.10704900515515907 0.9105260438482038 -0.3993530192316436
vn 0.10705502189799991 0.91052618624724 -0.39935108168687256
vn 0.10678101230272165 0.9106031049146877 -0.3992490459992817
vn 0.1071360115411203 0.9105100980837951 -0.3993660430213097
vn 0.10699004805111369 0.9105614089491554 -0.3992881793273489
vn 0.10710095256146429 0.910551596686739 -0.3992808231453861
usemtl material_0_0
f 1//1 2//2 3//3
f 4//4 2//2 1//1
f 2//2 5//5 3//3
f 1//1 3//3 6//6
f 2//2 7//7 5//5
f 5//5 8//8 3//3
f 6//6 3//3 9//9
f 1//1 6//6 10//10
f 2//2 11//11 7//7
usemtl material_1_0
f 3//12 2//13 1//14
f 1//14 2//13 4//15
f 3//12 5//16 2//13
f 6//17 3//12 1//14
f 5//16 7//18 2//13
f 3//12 8//19 5//16
f 9//20 3//12 6//17
f 10//21 6//17 1//14
f 7//18 11//22 2//13
