# SSTK version 0.8.0
# 40
mtllib original-40.mtl
o mesh57/mesh57-geometry#mesh57-geometry
v -0.078061 -0.013682 0.073276
v -0.116543 0.008926 0.105110
v -0.126331 0.008926 0.091129
v -0.079402 -0.012462 0.076044
v -0.127645 0.011704 0.099921
v -0.083249 -0.013682 0.065865
v -0.125254 0.011704 0.103336
v -0.128366 0.010300 0.093500
v -0.086310 -0.012462 0.066177
v -0.078616 -0.014195 0.070516
v -0.119467 0.010300 0.106211
vn -0.33875301506333066 -0.9104910404868061 0.2371760105465057
vn -0.3387139927941986 -0.9105159806296833 0.23713599495516874
vn -0.3387048045860129 -0.9105204746799164 0.2371318631879965
vn -0.3386721672915611 -0.9105114497590783 0.23721311717453175
vn -0.33868305060958137 -0.9105251360602366 0.23714503543670368
vn -0.3387799593665648 -0.9104838907961136 0.2371649715543163
vn -0.3387250544246525 -0.9105191462976756 0.23710803809733694
vn -0.33860819133044323 -0.9105545145085184 0.23713913399538672
vn -0.3387340850918759 -0.9105082287247037 0.23713705957014092
vn -0.33886815058050146 -0.9104354045638975 0.23722510541408273
vn -0.3387171294025007 -0.9105413478605514 0.23703409055580996
vn 0.3387048045860129 0.9105204746799164 -0.2371318631879965
vn 0.3387139927941986 0.9105159806296833 -0.23713599495516874
vn 0.33875301506333066 0.9104910404868061 -0.2371760105465057
vn 0.3386721672915611 0.9105114497590783 -0.23721311717453175
vn 0.33868305060958137 0.9105251360602366 -0.23714503543670368
vn 0.3387799593665648 0.9104838907961136 -0.2371649715543163
vn 0.3387250544246525 0.9105191462976756 -0.23710803809733694
vn 0.33860819133044323 0.9105545145085184 -0.23713913399538672
vn 0.3387340850918759 0.9105082287247037 -0.23713705957014092
vn 0.33886815058050146 0.9104354045638975 -0.23722510541408273
vn 0.3387171294025007 0.9105413478605514 -0.23703409055580996
usemtl material_0_0
f 1//1 2//2 3//3
f 1//1 4//4 2//2
f 2//2 5//5 3//3
f 1//1 3//3 6//6
f 2//2 7//7 5//5
f 3//3 5//5 8//8
f 6//6 3//3 9//9
f 1//1 6//6 10//10
f 2//2 11//11 7//7
usemtl material_1_0
f 3//12 2//13 1//14
f 2//13 4//15 1//14
f 3//12 5//16 2//13
f 6//17 3//12 1//14
f 5//16 7//18 2//13
f 8//19 5//16 3//12
f 9//20 3//12 6//17
f 10//21 6//17 1//14
f 7//18 11//22 2//13
