# SSTK version 0.8.0
# 4
mtllib original-4.mtl
o Group4/mesh16/mesh16-geometry#mesh16-geometry
v -0.177653 -0.022900 0.951033
v -0.384544 -0.063545 0.911042
v -0.390504 -0.066399 0.881865
v -0.199624 -0.025753 0.971133
v -0.389422 -0.065293 0.896876
v -0.004036 -0.034229 0.228093
v -0.187351 -0.024000 0.962536
v -0.243011 -0.033552 0.974837
v -0.388351 -0.071082 0.897223
v -0.171624 -0.022630 0.936971
v -0.107797 -0.055435 0.194378
v -0.186281 -0.029789 0.962883
v -0.198554 -0.031542 0.971480
v -0.213638 -0.028037 0.976239
v -0.351651 -0.055764 0.939339
v -0.383474 -0.069334 0.911389
v -0.389433 -0.072188 0.882213
v 0.020752 -0.029168 0.236082
v -0.176582 -0.028687 0.951380
v -0.387719 -0.066775 0.867045
v -0.001918 -0.034472 0.217506
v -0.212569 -0.033824 0.976586
v -0.228436 -0.030696 0.977500
v -0.241942 -0.039341 0.975185
v -0.376208 -0.061258 0.923414
v -0.375138 -0.067047 0.923761
v -0.386650 -0.072558 0.867392
v -0.170554 -0.028418 0.937319
v -0.132824 -0.060552 0.186178
v -0.103091 -0.055162 0.184422
v -0.227366 -0.036487 0.977848
v -0.350581 -0.061553 0.939686
v -0.364977 -0.058601 0.933127
v 0.021821 -0.034958 0.236429
v 0.024799 -0.029675 0.215181
v -0.081092 -0.052343 0.163610
v -0.363907 -0.064390 0.933480
v 0.025869 -0.035462 0.215529
v -0.002657 -0.035520 0.202345
v -0.131755 -0.066341 0.186526
v -0.123445 -0.059990 0.166674
v -0.093317 -0.054068 0.172530
v 0.005951 -0.042687 0.156599
v 0.024459 -0.036996 0.194304
v 0.023389 -0.031210 0.193956
v -0.122375 -0.065779 0.167022
v -0.109459 -0.058392 0.150269
v -0.038569 -0.044736 0.159413
v -0.049590 -0.054571 0.129562
v -0.007096 -0.037199 0.188042
v -0.091831 -0.055862 0.138069
v -0.067253 -0.050109 0.158261
v -0.025677 -0.041969 0.165811
v -0.009915 -0.046449 0.142704
v 0.017670 -0.039462 0.174202
v 0.016601 -0.033673 0.173854
v -0.108389 -0.064176 0.150616
v -0.070705 -0.058375 0.131240
v -0.090762 -0.061651 0.138417
v -0.052749 -0.047514 0.156833
v -0.010985 -0.040660 0.142357
v 0.004881 -0.036898 0.156251
v -0.028856 -0.050508 0.133477
v -0.014944 -0.039398 0.175579
v -0.050659 -0.048789 0.129215
v -0.071775 -0.052586 0.130893
v -0.029926 -0.044719 0.133131
vn 0.18154305597681297 -0.9816083026681692 0.059053018208351175
vn 0.18106501893985463 -0.9816931026875582 0.05911100618315913
vn 0.18112600368075216 -0.9816840199492921 0.059075001200492444
vn -0.18112600368075216 0.9816840199492921 -0.059075001200492444
vn -0.18106501893985463 0.9816931026875582 -0.05911100618315913
vn -0.18154305597681297 0.9816083026681692 -0.059053018208351175
vn 0.18154706196801387 -0.981605335054351 0.05909002016937708
vn -0.18154706196801387 0.981605335054351 -0.05909002016937708
vn 0.1795199427309034 -0.9819596867426355 0.05939498105226142
vn -0.1795199427309034 0.9819596867426355 -0.05939498105226142
vn 0.18148702522288704 -0.9816271364255673 0.05891200818753234
vn -0.18148702522288704 0.9816271364255673 -0.05891200818753234
vn 0.18178800531102757 -0.9815440286763001 0.05936700173443646
vn -0.18178800531102757 0.9815440286763001 -0.05936700173443646
vn 0.18146005821366626 -0.9816193149103981 0.059125018967722785
vn -0.18146005821366626 0.9816193149103981 -0.059125018967722785
vn 0.9629883064108904 0.1653090525992826 -0.21290006774215103
vn 0.8786635750164521 0.13492193474225622 -0.4579807784882614
vn 0.9629961689167654 0.16528002899135932 -0.21288703734198627
vn -0.9629961689167654 -0.16528002899135932 0.21288703734198627
vn -0.8786635750164521 -0.13492193474225622 0.4579807784882614
vn -0.9629883064108904 -0.1653090525992826 0.21290006774215103
vn 0.981740507588935 0.18435409531653038 0.04689502424611725
vn -0.981740507588935 -0.18435409531653038 -0.04689502424611725
vn 0.18151099664585832 -0.981618981860663 0.05897399891021926
vn -0.18151099664585832 0.981618981860663 -0.05897399891021926
vn 0.18150205127134192 -0.9816232772924182 0.058930016646759495
vn -0.18150205127134192 0.9816232772924182 -0.058930016646759495
vn -0.8045037120645528 -0.18264793462949386 -0.5651667977242961
vn -0.6854979228893712 -0.16919698096728628 -0.708141920342182
vn -0.6211347606510458 -0.1607869380421319 -0.7670327044305241
vn 0.6211347606510458 0.1607869380421319 0.7670327044305241
vn 0.6854979228893712 0.16919698096728628 0.708141920342182
vn 0.8045037120645528 0.18264793462949386 0.5651667977242961
vn -0.4797632321992236 -0.1405690680336178 -0.8660644191640213
vn -0.40276095365289005 -0.1287489851844043 -0.906204895719837
vn 0.40276095365289005 0.1287489851844043 0.906204895719837
vn 0.4797632321992236 0.1405690680336178 0.8660644191640213
vn 0.18147390816061515 -0.9816065032336145 0.059294969992305435
vn -0.18147390816061515 0.9816065032336145 -0.059294969992305435
vn 0.18142602091760499 -0.9816381131784635 0.05891700679286592
vn -0.18142602091760499 0.9816381131784635 -0.05891700679286592
vn 0.8786745233611082 0.13489308034578248 -0.45796827277766267
vn -0.8786745233611082 -0.13489308034578248 0.45796827277766267
vn 0.9817383585044072 0.1843670673258874 0.04688901712260622
vn -0.9817383585044072 -0.1843670673258874 -0.04688901712260622
vn 0.18143006025792233 -0.9816383260291371 0.058901019562651404
vn -0.18143006025792233 0.9816383260291371 -0.058901019562651404
vn -0.9183693662884804 -0.19066107604451793 -0.34676513830608935
vn -0.8573049482470738 -0.18731498869235635 -0.47952197105269817
vn 0.8573049482470738 0.18731498869235635 0.47952197105269817
vn 0.9183693662884804 0.19066107604451793 0.34676513830608935
vn 0.18157595297891577 -0.9816047458026865 0.05901098471845816
vn -0.18157595297891577 0.9816047458026865 -0.05901098471845816
vn 0.1814430063024229 -0.9816350340970935 0.058916002046447154
vn -0.1814430063024229 0.9816350340970935 -0.058916002046447154
vn -0.19920005300385435 -0.09531702536229088 -0.9753122595145342
vn 0.19920005300385435 0.09531702536229088 0.9753122595145342
vn -0.19918690416951038 -0.0953519541253752 -0.9753115307694453
vn 0.19918690416951038 0.0953519541253752 0.9753115307694453
vn 0.18146304716778672 -0.9815972551470985 0.05948101546093188
vn -0.18146304716778672 0.9815972551470985 -0.05948101546093188
vn 0.22688089797735514 -0.016509992575870543 -0.9737825621144248
vn 0.2690101140461895 -0.00808600342804145 -0.9631034083053688
vn 0.36505218320476956 0.011383005712665505 -0.9309174671894265
vn -0.36505218320476956 -0.011383005712665505 0.9309174671894265
vn -0.2690101140461895 0.00808600342804145 0.9631034083053688
vn -0.22688089797735514 0.016509992575870543 0.9737825621144248
vn 0.18142692386066955 -0.9816405880354717 0.058872975292812865
vn -0.18142692386066955 0.9816405880354717 -0.058872975292812865
vn 0.7344403623872857 0.0952190469829463 -0.6719603315584126
vn -0.7344403623872857 -0.0952190469829463 0.6719603315584126
vn -0.1812849506083781 0.9816597325438974 -0.05899098392773144
vn -0.18095501319714005 0.9817150715969736 -0.059083004308952976
vn -0.17955393655498683 0.981953653028702 -0.05939197901396649
vn 0.17955393655498683 -0.981953653028702 0.05939197901396649
vn 0.18095501319714005 -0.9817150715969736 0.059083004308952976
vn 0.1812849506083781 -0.9816597325438974 0.05899098392773144
vn 0.9459960563279177 0.19063601135113561 0.2622010156123667
vn -0.9459960563279177 -0.19063601135113561 -0.2622010156123667
vn -0.9567153409284427 -0.1900630677295564 -0.22039007853667972
vn -0.9337721980857863 -0.1908110404777043 -0.3027550642249524
vn 0.9337721980857863 0.1908110404777043 0.3027550642249524
vn 0.9567153409284427 0.1900630677295564 0.22039007853667972
vn 0.9459957178033704 0.190630943133559 0.2622059217822809
vn -0.9459957178033704 -0.190630943133559 -0.2622059217822809
vn 0.18140792942271458 -0.9816406180898468 0.05893097707273082
vn -0.18140792942271458 0.9816406180898468 -0.05893097707273082
vn 0.18144904742842838 -0.9816362565869898 0.058877015389688224
vn -0.18144904742842838 0.9816362565869898 -0.058877015389688224
vn -0.18142591034106081 0.9816365148846797 -0.058943970870456545
vn -0.18133699282830343 0.9816599611763309 -0.0588269976734509
vn -0.18143694722054404 0.981634714445448 -0.05893998285453809
vn 0.18143694722054404 -0.981634714445448 0.05893998285453809
vn 0.18133699282830343 -0.9816599611763309 0.0588269976734509
vn 0.18142591034106081 -0.9816365148846797 0.058943970870456545
vn -0.18147203014286967 0.9816441630530723 -0.05867400974587096
vn 0.18147203014286967 -0.9816441630530723 0.05867400974587096
vn 0.013761993549108321 -0.057362973111284514 -0.9982585320694175
vn -0.013761993549108321 0.057362973111284514 0.9982585320694175
vn 0.09978302968994598 -0.04121401226302488 -0.9941552958059815
vn -0.09978302968994598 0.04121401226302488 0.9941552958059815
vn 0.3649409121946797 0.011570997216001255 -0.930958776009949
vn -0.3649409121946797 -0.011570997216001255 0.930958776009949
vn 0.18176809782752573 -0.9816095283018996 0.05833603139643117
vn -0.18176809782752573 0.9816095283018996 -0.05833603139643117
vn 0.734365004675702 0.09537900060727826 -0.6720200042787513
vn -0.734365004675702 -0.09537900060727826 0.6720200042787513
vn -0.18160799879920791 0.9816139935095683 -0.0587579996114919
vn -0.18161106203880345 0.981605335318894 -0.05889302011800614
vn 0.18161106203880345 -0.981605335318894 0.05889302011800614
vn 0.18160799879920791 -0.9816139935095683 0.0587579996114919
vn -0.9567286345742193 -0.18997892743689754 -0.2204049158155871
vn 0.9567286345742193 0.18997892743689754 0.2204049158155871
vn 0.18138500554376072 -0.9816420300024168 0.05897800180257398
vn -0.18138500554376072 0.9816420300024168 -0.05897800180257398
vn -0.1810970294049987 0.9817021594004651 -0.05886200955751334
vn 0.1810970294049987 -0.9817021594004651 0.05886200955751334
vn 0.9076430801566869 0.19024601680119715 0.37415303304257835
vn -0.9076430801566869 -0.19024601680119715 -0.37415303304257835
vn 0.18145995148369437 -0.98162673754593 0.05900198422484788
vn -0.18145995148369437 0.98162673754593 -0.05900198422484788
vn -0.1815359550069545 0.9816287567067784 -0.05873398544298886
vn 0.1815359550069545 -0.9816287567067784 0.05873398544298886
vn -0.1816199879595941 0.9816499349220106 -0.05811699614716271
vn 0.1816199879595941 -0.9816499349220106 0.05811699614716271
vn -0.18168090076946192 0.9816174638598293 -0.0584739680626674
vn 0.18168090076946192 -0.9816174638598293 0.0584739680626674
vn 0.49725896652378165 0.039358997350293544 -0.866708941651856
vn -0.49725896652378165 -0.039358997350293544 0.866708941651856
vn 0.5726830827226456 0.05623000812228487 -0.8178461181358356
vn -0.5726830827226456 -0.05623000812228487 0.8178461181358356
vn -0.9777281221060286 -0.18649602329102355 -0.0962650120222975
vn 0.9777281221060286 0.18649602329102355 0.0962650120222975
vn -0.18032898539317246 0.9818559204686919 -0.05865499524888671
vn -0.17935095904673767 0.9820507757570784 -0.05839098666691583
vn 0.17935095904673767 -0.9820507757570784 0.05839098666691583
vn 0.18032898539317246 -0.9818559204686919 0.05865499524888671
vn -0.983201210780173 -0.18231003908390384 -0.008856001898563214
vn 0.983201210780173 0.18231003908390384 0.008856001898563214
vn 0.18142395104810544 -0.9816357351345909 0.05896298409058009
vn -0.18142395104810544 0.9816357351345909 -0.05896298409058009
vn 0.8956461541236991 0.18970903264532274 0.4022790692245905
vn -0.8956461541236991 -0.18970903264532274 -0.4022790692245905
vn 0.1814650223425193 -0.9816271208608834 0.05898000726179566
vn -0.1814650223425193 0.9816271208608834 -0.05898000726179566
vn 0.18148098758252681 -0.9816269328341426 0.05893399596755911
vn -0.18148098758252681 0.9816269328341426 -0.05893399596755911
vn -0.18185000329575857 0.9816020177900643 -0.05820700105491438
vn 0.18185000329575857 -0.9816020177900643 0.05820700105491438
vn -0.18143804624303006 0.9816362501891723 -0.05891101501462265
vn 0.18143804624303006 -0.9816362501891723 0.05891101501462265
vn -0.18136593489245226 0.9816416476059273 -0.05904297880448937
vn 0.18136593489245226 -0.9816416476059273 0.05904297880448937
vn -0.964151784899207 -0.16576696301764338 0.20720195377356004
vn 0.964151784899207 0.16576696301764338 -0.20720195377356004
vn 0.1814050955905333 -0.9816395172701718 0.05895803106764766
vn -0.1814050955905333 0.9816395172701718 -0.05895803106764766
vn -0.1813679420128695 0.9816526861450718 -0.0588529811834688
vn -0.18121298576164324 0.9816799228669573 -0.05887599537396582
vn 0.18121298576164324 -0.9816799228669573 0.05887599537396582
vn 0.1813679420128695 -0.9816526861450718 0.0588529811834688
vn 0.8187080473192799 0.18403001063647478 0.5439210314372769
vn -0.8187080473192799 -0.18403001063647478 -0.5439210314372769
vn 0.1815559958223058 -0.9816089774126868 0.05900199864233431
vn -0.1815559958223058 0.9816089774126868 -0.05900199864233431
vn 0.1814920538137631 -0.981611291055153 0.05916001754139128
vn -0.1814920538137631 0.981611291055153 -0.05916001754139128
vn -0.18139695614030737 0.9816317626527572 -0.059111985707403156
vn 0.18139695614030737 -0.9816317626527572 0.059111985707403156
vn -0.9641434778730125 -0.1658250821903933 0.20719410269474645
vn 0.9641434778730125 0.1658250821903933 -0.20719410269474645
vn 0.1814290287460712 -0.9816351555327406 0.05895700934129649
vn -0.1814290287460712 0.9816351555327406 -0.05895700934129649
vn 0.8187085676683651 0.18401090283021615 0.5439267127711443
vn -0.8187085676683651 -0.18401090283021615 -0.5439267127711443
vn 0.18146004145545855 -0.9816312242585871 0.05892701346217219
vn -0.18146004145545855 0.9816312242585871 -0.05892701346217219
vn 0.18141194897526605 -0.9816227239044143 0.059215983344648185
vn -0.18141194897526605 0.9816227239044143 -0.059215983344648185
vn 0.18141802062088047 -0.981639111578016 0.05892500669771105
vn -0.18141802062088047 0.981639111578016 -0.05892500669771105
vn -0.18130301087283254 0.9816350588691471 -0.059345003558949436
vn 0.18130301087283254 -0.9816350588691471 0.059345003558949436
vn -0.1811859456655138 0.981664705615978 -0.05921198224336518
vn 0.1811859456655138 -0.981664705615978 0.05921198224336518
vn -0.8994788459062445 -0.14135797578333123 0.41346792916695446
vn 0.8994788459062445 0.14135797578333123 -0.41346792916695446
vn 0.18139497139782454 -0.9816378452163383 0.05901699069426044
vn -0.18139497139782454 0.9816378452163383 -0.05901699069426044
vn 0.681531864985484 0.1688089665581872 0.7120518589393364
vn -0.681531864985484 -0.1688089665581872 -0.7120518589393364
vn -0.18142995338475448 0.9816377477853917 -0.058910984863855105
vn 0.18142995338475448 -0.9816377477853917 0.058910984863855105
vn 0.616807118357279 0.16036903077273504 0.7706041478689324
vn -0.616807118357279 -0.16036903077273504 -0.7706041478689324
vn 0.39756609238204604 0.12807502976066987 0.9085912111284558
vn 0.47482498207013424 0.14001599471285595 0.868870967190564
vn -0.47482498207013424 -0.14001599471285595 -0.868870967190564
vn -0.39756609238204604 -0.12807502976066987 -0.9085912111284558
vn 0.1814169500086614 -0.9816237295033114 0.059183983691233885
vn -0.1814169500086614 0.9816237295033114 -0.059183983691233885
vn 0.18144095454587136 -0.9816347540833463 0.05892698523776061
vn -0.18144095454587136 0.9816347540833463 -0.05892698523776061
vn -0.7381550197135373 -0.09631100257212996 0.6677210178324916
vn -0.5447979548664877 -0.05047399581850741 0.8370469306552684
vn -0.7381550714689157 -0.096338009327543 0.6677170646490371
vn 0.7381550714689157 0.096338009327543 -0.6677170646490371
vn 0.5447979548664877 0.05047399581850741 -0.8370469306552684
vn 0.7381550197135373 0.09631100257212996 -0.6677210178324916
vn -0.18101104101031862 0.9816352224017553 -0.06022701364518411
vn 0.18101104101031862 -0.9816352224017553 0.06022701364518411
vn -0.8612020522073619 -0.12957700785515294 0.49146802979353005
vn 0.8612020522073619 0.12957700785515294 -0.49146802979353005
vn 0.1813980721603489 -0.9816373904964134 0.05901502347623981
vn -0.1813980721603489 0.9816373904964134 -0.05901502347623981
vn -0.18139703862142903 0.9816452090030855 -0.058888012537906764
vn 0.18139703862142903 -0.9816452090030855 0.058888012537906764
vn -0.019373008648238915 0.056273025120649564 0.9982274456153196
vn 0.19368004937970326 0.0944130240710754 0.9765112489664572
vn -0.10541394554902025 0.040052979310858945 0.9936214867504184
vn 0.10541394554902025 -0.040052979310858945 -0.9936214867504184
vn -0.19368004937970326 -0.0944130240710754 -0.9765112489664572
vn 0.019373008648238915 -0.056273025120649564 -0.9982274456153196
vn 0.18134500433795392 -0.9816530234821224 0.058918001409377314
vn -0.18134500433795392 0.9816530234821224 -0.058918001409377314
vn 0.18144803603612786 -0.9816271949541251 0.05903101172373697
vn -0.18144803603612786 0.9816271949541251 -0.05903101172373697
vn 0.18135796451795247 -0.981647807944061 0.0589649884637073
vn -0.18135796451795247 0.981647807944061 -0.0589649884637073
vn 0.18153992967689106 -0.98160761975473 0.059073977116517705
vn -0.18153992967689106 0.98160761975473 -0.059073977116517705
vn -0.544797164325559 -0.050444015215279456 0.8370492524766929
vn 0.544797164325559 0.050444015215279456 -0.8370492524766929
vn -0.3143270022710126 -0.001205000008706336 0.9493140068587937
vn -0.31432698843182405 -0.0012409999543276902 0.9493139650623987
vn 0.31432698843182405 0.0012409999543276902 -0.9493139650623987
vn 0.3143270022710126 0.001205000008706336 -0.9493140068587937
vn -0.18154399970226787 0.9815999983901761 -0.05918799990293147
vn 0.18154399970226787 -0.9815999983901761 0.05918799990293147
vn 0.19367097785353127 0.09439398920595334 0.9765148883345524
vn -0.19367097785353127 -0.09439398920595334 -0.9765148883345524
usemtl material_0_0
f 1//1 2//2 3//3
f 3//4 2//5 1//6
f 1//1 4//7 2//2
f 2//5 4//8 1//6
f 2//2 5//9 3//3
f 3//4 5//10 2//5
f 6//11 1//1 3//3
f 3//4 1//6 6//12
f 1//1 7//13 4//7
f 4//8 7//14 1//6
f 4//7 8//15 2//2
f 2//5 8//16 4//8
f 5//17 2//18 9//19
f 9//20 2//21 5//22
f 3//23 5//17 9//19
f 9//20 5//22 3//24
f 6//11 10//25 1//1
f 1//6 10//26 6//12
f 6//11 3//3 11//27
f 11//28 3//4 6//12
f 1//29 12//30 7//31
f 7//32 12//33 1//34
f 7//31 13//35 4//36
f 4//37 13//38 7//32
f 4//7 14//39 8//15
f 8//16 14//40 4//8
f 8//15 15//41 2//2
f 2//5 15//42 8//16
f 9//19 2//18 16//43
f 16//44 2//21 9//20
f 3//23 9//19 17//45
f 17//46 9//20 3//24
f 18//47 10//25 6//11
f 6//12 10//26 18//48
f 10//49 19//50 1//29
f 1//34 19//51 10//52
f 11//27 3//3 20//53
f 20//54 3//4 11//28
f 21//55 6//11 11//27
f 11//28 6//12 21//56
f 1//29 19//50 12//30
f 12//33 19//51 1//34
f 7//31 12//30 13//35
f 13//38 12//33 7//32
f 4//36 13//35 22//57
f 22//58 13//38 4//37
f 4//36 22//57 14//59
f 14//60 22//58 4//37
f 14//39 23//61 8//15
f 8//16 23//62 14//40
f 8//63 24//64 15//65
f 15//66 24//67 8//68
f 15//41 25//69 2//2
f 2//5 25//70 15//42
f 2//18 26//71 16//43
f 16//44 26//72 2//21
f 16//73 17//74 9//75
f 9//76 17//77 16//78
f 27//79 3//23 17//45
f 17//46 3//24 27//80
f 18//81 28//82 10//49
f 10//52 28//83 18//84
f 18//47 6//11 21//55
f 21//56 6//12 18//48
f 10//49 28//82 19//50
f 19//51 28//83 10//52
f 20//85 3//23 27//79
f 27//80 3//24 20//86
f 11//27 20//53 29//87
f 29//88 20//54 11//28
f 21//55 11//27 30//89
f 30//90 11//28 21//56
f 19//91 13//92 12//93
f 12//94 13//95 19//96
f 19//91 22//97 13//92
f 13//95 22//98 19//96
f 14//59 22//57 23//99
f 23//100 22//58 14//60
f 23//99 31//101 8//63
f 8//68 31//102 23//100
f 8//63 31//101 24//64
f 24//67 31//102 8//68
f 24//64 32//103 15//65
f 15//66 32//104 24//67
f 15//41 33//105 25//69
f 25//70 33//106 15//42
f 2//18 25//107 26//71
f 26//72 25//108 2//21
f 26//109 27//110 16//73
f 16//78 27//111 26//112
f 16//73 27//110 17//74
f 17//77 27//111 16//78
f 18//81 34//113 28//82
f 28//83 34//114 18//84
f 35//115 18//47 21//55
f 21//56 18//48 35//116
f 28//117 26//109 19//91
f 19//96 26//112 28//118
f 29//119 20//85 27//79
f 27//80 20//86 29//120
f 30//89 11//27 29//87
f 29//88 11//28 30//90
f 21//55 30//89 36//121
f 36//122 30//90 21//56
f 19//91 24//123 22//97
f 22//98 24//124 19//96
f 23//99 22//57 31//101
f 31//102 22//58 23//100
f 22//97 24//123 31//125
f 31//126 24//124 22//98
f 24//123 26//109 32//127
f 32//128 26//112 24//124
f 15//65 32//103 37//129
f 37//130 32//104 15//66
f 15//65 37//129 33//131
f 33//132 37//130 15//66
f 33//131 26//71 25//107
f 25//108 26//72 33//132
f 28//117 27//110 26//109
f 26//112 27//111 28//118
f 38//133 34//113 18//81
f 18//84 34//114 38//134
f 38//135 28//117 34//136
f 34//137 28//118 38//138
f 35//139 38//133 18//81
f 18//84 38//134 35//140
f 35//115 21//55 39//141
f 39//142 21//56 35//116
f 19//91 26//109 24//123
f 24//124 26//112 19//96
f 29//119 27//79 40//143
f 40//144 27//80 29//120
f 30//89 29//87 41//145
f 41//146 29//88 30//90
f 36//121 30//89 42//147
f 42//148 30//90 36//122
f 21//55 36//121 39//141
f 39//142 36//122 21//56
f 32//127 26//109 37//149
f 37//150 26//112 32//128
f 33//131 37//129 26//71
f 26//72 37//130 33//132
f 43//151 27//110 28//117
f 28//118 27//111 43//152
f 38//135 44//153 28//117
f 28//118 44//154 38//138
f 44//155 38//133 35//139
f 35//140 38//134 44//156
f 35//115 39//141 45//157
f 45//158 39//142 35//116
f 46//159 40//160 27//110
f 27//111 40//161 46//162
f 41//163 29//119 40//143
f 40//144 29//120 41//164
f 42//147 30//89 41//145
f 41//146 30//90 42//148
f 36//121 42//147 47//165
f 47//166 42//148 36//122
f 39//141 36//121 48//167
f 48//168 36//122 39//142
f 43//151 49//169 27//110
f 27//111 49//170 43//152
f 44//153 43//151 28//117
f 28//118 43//152 44//154
f 45//171 44//155 35//139
f 35//140 44//156 45//172
f 45//157 39//141 50//173
f 50//174 39//142 45//158
f 41//163 40//143 46//175
f 46//176 40//144 41//164
f 49//169 46//159 27//110
f 27//111 46//162 49//170
f 42//147 41//145 47//165
f 47//166 41//146 42//148
f 36//121 47//165 51//177
f 51//178 47//166 36//122
f 48//167 36//121 52//179
f 52//180 36//122 48//168
f 39//141 48//167 53//181
f 53//182 48//168 39//142
f 43//151 54//183 49//169
f 49//170 54//184 43//152
f 44//153 55//185 43//151
f 43//152 55//186 44//154
f 56//187 44//155 45//171
f 45//172 44//156 56//188
f 39//141 53//181 50//173
f 50//174 53//182 39//142
f 45//157 50//173 56//189
f 56//190 50//174 45//158
f 57//191 41//163 46//175
f 46//176 41//164 57//192
f 49//169 58//193 46//159
f 46//162 58//194 49//170
f 47//195 41//163 57//191
f 57//192 41//164 47//196
f 51//197 47//195 59//198
f 59//199 47//196 51//200
f 52//179 36//121 51//177
f 51//178 36//122 52//180
f 48//167 52//179 60//201
f 60//202 52//180 48//168
f 61//203 53//181 48//167
f 48//168 53//182 61//204
f 62//205 54//206 43//207
f 43//208 54//209 62//210
f 54//183 63//211 49//169
f 49//170 63//212 54//184
f 56//187 55//213 44//155
f 44//156 55//214 56//188
f 62//205 43//207 55//213
f 55//214 43//208 62//210
f 50//173 53//181 64//215
f 64//216 53//182 50//174
f 56//189 50//173 64//215
f 64//216 50//174 56//190
f 58//193 57//217 46//159
f 46//162 57//218 58//194
f 65//219 58//220 49//221
f 49//222 58//223 65//224
f 47//195 57//191 59//198
f 59//199 57//192 47//196
f 51//197 59//198 58//220
f 58//223 59//199 51//200
f 52//179 51//177 66//225
f 66//226 51//178 52//180
f 60//201 52//179 66//225
f 66//226 52//180 60//202
f 48//167 60//201 65//227
f 65//228 60//202 48//168
f 62//229 53//181 61//203
f 61//204 53//182 62//230
f 61//203 48//167 67//231
f 67//232 48//168 61//204
f 62//205 61//233 54//206
f 54//209 61//234 62//210
f 67//235 63//236 54//206
f 54//209 63//237 67//238
f 67//235 49//221 63//236
f 63//237 49//222 67//238
f 62//205 55//213 56//187
f 56//188 55//214 62//210
f 62//229 64//215 53//181
f 53//182 64//216 62//230
f 56//189 64//215 62//229
f 62//230 64//216 56//190
f 58//193 59//239 57//217
f 57//218 59//240 58//194
f 65//219 66//241 58//220
f 58//223 66//242 65//224
f 67//235 65//219 49//221
f 49//222 65//224 67//238
f 66//241 51//197 58//220
f 58//223 51//200 66//242
f 65//227 60//201 66//225
f 66//226 60//202 65//228
f 67//231 48//167 65//227
f 65//228 48//168 67//232
f 61//233 67//235 54//206
f 54//209 67//238 61//234
