# SSTK version 0.8.0
# 32
mtllib original-32.mtl
o mesh49/mesh49-geometry#mesh49-geometry
v 0.110446 0.008926 -0.121842
v 0.071195 -0.013682 -0.088554
v 0.096467 0.008926 -0.131633
v 0.078606 -0.013682 -0.083366
v 0.071507 -0.012462 -0.091615
v 0.108673 0.011704 -0.130554
v 0.081374 -0.012462 -0.084705
v 0.072661 -0.014195 -0.086151
v 0.105259 0.011704 -0.132945
v 0.111548 0.010300 -0.124766
v 0.098838 0.010300 -0.133667
vn 0.23721588778208563 -0.9105145692698033 -0.3386618397918215
vn 0.2371701019309883 -0.9104943913123635 -0.33874814558720956
vn 0.237183976204756 -0.9105139086536073 -0.3386859660216711
vn 0.2372629661314258 -0.9104888700304545 -0.3386979516518872
vn 0.23710195391805425 -0.9105148230369087 -0.3387409341640124
vn 0.23717410683178008 -0.910516410129462 -0.33868615255647044
vn 0.2374080831742747 -0.9105153189927242 -0.3385251185999267
vn 0.23722905167003508 -0.9104451983009035 -0.338839073801361
vn 0.23720903538518606 -0.9105181358247318 -0.33865705051849215
vn 0.23711914666463976 -0.9105325631891488 -0.33868120948353747
vn 0.23721602718863513 -0.9105271043605252 -0.3386280388120244
vn -0.237183976204756 0.9105139086536073 0.3386859660216711
vn -0.2371701019309883 0.9104943913123635 0.33874814558720956
vn -0.23721588778208563 0.9105145692698033 0.3386618397918215
vn -0.2372629661314258 0.9104888700304545 0.3386979516518872
vn -0.23710195391805425 0.9105148230369087 0.3387409341640124
vn -0.23717410683178008 0.910516410129462 0.33868615255647044
vn -0.2374080831742747 0.9105153189927242 0.3385251185999267
vn -0.23722905167003508 0.9104451983009035 0.338839073801361
vn -0.23720903538518606 0.9105181358247318 0.33865705051849215
vn -0.23711914666463976 0.9105325631891488 0.33868120948353747
vn -0.23721602718863513 0.9105271043605252 0.3386280388120244
usemtl material_0_0
f 1//1 2//2 3//3
f 1//1 4//4 2//2
f 3//3 2//2 5//5
f 1//1 3//3 6//6
f 1//1 7//7 4//4
f 4//4 8//8 2//2
f 6//6 3//3 9//9
f 10//10 1//1 6//6
f 9//9 3//3 11//11
usemtl material_1_0
f 3//12 2//13 1//14
f 2//13 4//15 1//14
f 5//16 2//13 3//12
f 6//17 3//12 1//14
f 4//15 7//18 1//14
f 2//13 8//19 4//15
f 9//20 3//12 6//17
f 6//17 1//14 10//21
f 11//22 3//12 9//20
