# SSTK version 0.8.0
# 57
mtllib original-57.mtl
o mesh72/mesh72-geometry#mesh72-geometry
v 0.144217 -0.061177 0.089417
v 0.130557 -0.063678 0.095367
v 0.131276 -0.062427 0.087952
v 0.143499 -0.062427 0.096832
v 0.141745 -0.060986 0.086393
v 0.140500 -0.063145 0.099237
v 0.134274 -0.061710 0.085547
v 0.133028 -0.063869 0.098390
vn 0.11231697686107654 -0.9816217977716969 -0.1542839682152689
vn 0.11236596565978628 -0.9816407000003405 -0.15412795289688663
vn 0.11231595474061043 -0.981704604407484 -0.15375693804134818
vn -0.11231595474061043 0.981704604407484 0.15375693804134818
vn -0.11236596565978628 0.9816407000003405 0.15412795289688663
vn -0.11231697686107654 0.9816217977716969 0.1542839682152689
vn 0.11227399193558397 -0.9816879294873218 -0.15389398894610315
vn -0.11227399193558397 0.9816879294873218 0.15389398894610315
vn 0.11229901077497828 -0.981774094200247 -0.1533250147113827
vn -0.11229901077497828 0.981774094200247 0.1533250147113827
vn 0.11238199107052067 -0.9817169219962124 -0.15362998779309955
vn -0.11238199107052067 0.9817169219962124 0.15362998779309955
vn 0.11234495444581538 -0.9818116018902032 -0.1530509379401532
vn -0.11234495444581538 0.9818116018902032 0.1530509379401532
vn 0.11256198279191935 -0.9816218499330988 -0.1541049764409726
vn -0.11256198279191935 0.9816218499330988 0.1541049764409726
usemtl material_0_0
f 1//1 2//2 3//3
f 3//4 2//5 1//6
f 1//1 4//7 2//2
f 2//5 4//8 1//6
f 1//1 3//3 5//9
f 5//10 3//4 1//6
f 4//7 6//11 2//2
f 2//5 6//12 4//8
f 5//9 3//3 7//13
f 7//14 3//4 5//10
f 6//11 8//15 2//2
f 2//5 8//16 6//12
