# SSTK version 0.8.0
# 62
mtllib original-62.mtl
o mesh77/mesh77-geometry#mesh77-geometry
v 0.004525 -0.076136 -0.228921
v -0.000416 -0.074885 -0.223345
v -0.010024 -0.073641 -0.232137
v -0.009801 -0.073450 -0.228238
v -0.005083 -0.074885 -0.237713
v -0.004255 -0.074168 -0.223162
v -0.001244 -0.075609 -0.237896
v 0.004303 -0.076327 -0.232820
vn -0.18136706036595038 -0.9816473267300782 0.05894501961917496
vn -0.1809719885661901 -0.9817259379745571 0.05884999628185713
vn -0.18112498768322957 -0.9817029332427302 0.05876299600402805
vn 0.18112498768322957 0.9817029332427302 -0.05876299600402805
vn 0.1809719885661901 0.9817259379745571 -0.05884999628185713
vn 0.18136706036595038 0.9816473267300782 -0.05894501961917496
vn -0.1807400690874528 -0.9817833752843125 0.058604022401245126
vn 0.1807400690874528 0.9817833752843125 -0.058604022401245126
vn -0.1817340924510641 -0.9815764993437974 0.058994030011214386
vn 0.1817340924510641 0.9815764993437974 -0.058994030011214386
vn -0.1807939883302908 -0.9817669366298916 0.058712996210252145
vn 0.1807939883302908 0.9817669366298916 -0.058712996210252145
vn -0.181389058864659 -0.9816403185634404 0.058994019144830476
vn 0.181389058864659 0.9816403185634404 -0.058994019144830476
vn -0.18056396010168896 -0.9818247830511106 0.05845298708393692
vn 0.18056396010168896 0.9818247830511106 -0.05845298708393692
usemtl material_0_0
f 1//1 2//2 3//3
f 3//4 2//5 1//6
f 2//2 4//7 3//3
f 3//4 4//8 2//5
f 1//1 3//3 5//9
f 5//10 3//4 1//6
f 2//2 6//11 4//7
f 4//8 6//12 2//5
f 1//1 5//9 7//13
f 7//14 5//10 1//6
f 1//1 7//13 8//15
f 8//16 7//14 1//6
