mtllib new-0.mtl
v -0.461265 -0.832568 -0.268542
v 0.500893 -0.832568 -0.268542
v -0.461265 -0.792478 -0.268542
v 0.500893 -0.832568 0.212537
v -0.461265 -0.792478 0.212537
v 0.500893 -0.792478 0.212537
v -0.461265 -0.832568 0.212537
vn 0.000000 -1.000000 0.000000
vn 0.000000 1.000000 0.000000
vt -1.375360 3.104624
vt -1.473688 3.301281
vt -1.473688 3.104624
vt -1.375360 3.301281
usemtl material-0
f 4/1/1 1/2/1 2/3/1
f 2/3/2 1/2/2 4/1/2
f 1/2/1 4/1/1 7/4/1
f 7/4/2 4/1/2 1/2/2
f 3/2/1 6/1/1 5/4/1
f 5/4/2 6/1/2 3/2/2