mtllib new-4.mtl
v -0.180635 -0.741467 0.252627
v -0.148564 -0.741467 0.252627
v -0.148564 -0.741467 0.276681
v -0.148564 -0.733449 0.252627
v -0.180635 -0.741467 0.276681
v -0.180635 0.763012 0.252627
v -0.148564 0.754993 0.252627
v -0.148564 0.763012 0.276681
v -0.180635 -0.733449 0.252627
v -0.148564 -0.733449 0.268663
v -0.180635 0.754993 0.252627
v -0.148564 0.763012 0.252627
v -0.180635 0.763012 0.276681
v -0.180635 -0.733449 0.268663
v -0.148564 0.754993 0.268663
v -0.180635 0.754993 0.268663
vn 0.000000 0.000000 1.000000
vn 0.000000 0.000000 -1.000000
vn -1.000000 0.000000 0.000000
vn 0.000000 -1.000000 0.000000
vn 1.000000 0.000000 0.000000
vn 0.000000 1.000000 0.000000
vt -1.320952 0.317929
vt -1.320952 0.324484
vt -1.316035 0.317929
vt 4.655396 0.331039
vt 4.660312 0.324484
vt 4.660312 0.331039
vt -1.316035 0.324484
vt 4.655396 0.324484
vt -1.320952 0.018620
vt -1.320952 0.020259
vt -1.316035 0.018620
vt -1.548022 0.018620
vt -1.548022 0.326123
vt -1.541466 0.018620
vt 4.660312 0.018620
vt 4.655396 0.018620
vt 4.660312 0.020259
vt -1.317674 0.020259
vt -1.316035 0.326123
vt -1.541466 0.326123
vt 4.657035 0.020259
vt 4.657035 0.317929
vt 4.657035 0.324484
vt 4.660312 0.317929
vt -1.320952 0.331039
vt -1.317674 0.324484
vt -1.317674 0.331039
vt 4.660312 0.326123
vt 4.655396 0.326123
vt -1.320952 0.326123
vt 4.655396 3.211147
vt 4.655396 3.217702
vt 4.660312 3.211147
vt 4.887382 3.515372
vt 4.887382 3.211147
vt 4.880827 3.515372
vt -1.541466 -2.866404
vt -1.548022 -2.562179
vt -1.548022 -2.866404
vt 4.660312 3.217702
vt -1.320952 3.211147
vt -1.320952 3.217702
vt -1.317674 3.211147
vt 4.880827 3.211147
vt -1.541466 -2.562179
vt -1.317674 3.217702
usemtl material-0
f 3//3 4//3 2//3
f 5//2 8//2 3//2
f 9//5 5//5 1//5
f 4//3 3//3 10//3
f 8//3 10//3 3//3
f 8//2 5//2 13//2
f 5//5 9//5 14//5
f 13//5 11//5 6//5
f 7//3 8//3 12//3
f 10//3 8//3 15//3
f 5//5 14//5 13//5
f 6//4 8//4 13//4
f 13//5 16//5 11//5
f 8//4 6//4 12//4
f 15//3 8//3 7//3
f 16//6 7//6 11//6
f 13//5 14//5 16//5
f 7//6 16//6 15//6
usemtl material-1
f 2/1/6 1/2/6 3/3/6
f 3/4/4 1/5/4 2/6/4
f 5/7/6 3/3/6 1/2/6
f 1/5/4 3/4/4 5/8/4
f 2/9/5 4/10/5 3/11/5
f 3/12/1 8/13/1 5/14/1
f 1/15/3 5/16/3 9/17/3
f 10/18/5 3/11/5 4/10/5
f 3/11/5 10/18/5 8/19/5
f 13/20/1 5/14/1 8/13/1
f 14/21/3 9/17/3 5/16/3
f 10/22/4 14/23/4 4/24/4
f 4/25/6 14/26/6 10/27/6
f 6/28/3 11/5/3 13/29/3
f 12/30/5 8/19/5 7/2/5
f 9/5/4 4/24/4 14/23/4
f 14/26/6 4/25/6 9/2/6
f 15/26/5 8/19/5 10/18/5
f 13/29/3 14/21/3 5/16/3
f 13/31/6 8/32/6 6/33/6
f 10/34/1 15/35/1 14/36/1
f 14/37/2 15/38/2 10/39/2
f 11/5/3 16/23/3 13/29/3
f 12/40/6 6/33/6 8/32/6
f 7/2/5 8/19/5 15/26/5
f 11/41/4 7/42/4 16/43/4
f 16/23/3 14/21/3 13/29/3
f 16/44/1 14/36/1 15/35/1
f 15/38/2 14/37/2 16/45/2
f 15/46/4 16/43/4 7/42/4