mtllib new-3.mtl
v 0.500347 0.799234 0.212537
v 0.500893 -0.776442 0.212537
v 0.500893 0.795083 0.212537
v 0.500347 -0.780592 0.212537
v 0.500893 -0.776442 0.232582
v 0.500893 0.795083 0.232582
v 0.498745 0.803101 0.212537
v 0.500347 -0.780592 0.232582
v 0.500347 0.799234 0.232582
v 0.498745 -0.784460 0.212537
v 0.498745 -0.784460 0.232582
v 0.492875 -0.775916 0.252627
v 0.492535 -0.778499 0.252627
v 0.492535 0.797141 0.252627
v 0.498745 0.803101 0.232582
v 0.496196 0.806423 0.212537
v 0.491741 -0.780416 0.252627
v 0.492875 0.794558 0.252627
v 0.491741 0.799058 0.252627
v 0.496196 -0.787781 0.212537
v 0.496196 -0.787781 0.232582
v 0.490478 -0.782062 0.252627
v 0.496196 0.806423 0.232582
v 0.490478 0.800704 0.252627
v 0.492875 -0.790329 0.212537
v 0.492875 0.808971 0.232582
v 0.492875 0.808971 0.212537
v 0.492875 -0.790329 0.232582
v 0.488832 0.801967 0.252627
v 0.489008 0.810573 0.212537
v 0.488832 -0.783325 0.252627
v 0.489008 0.810573 0.232582
v 0.486915 0.802761 0.252627
v 0.489008 -0.791931 0.212537
v 0.489008 -0.791931 0.232582
v 0.484857 0.811119 0.232582
v 0.484857 0.811119 0.212537
v 0.486915 -0.784120 0.252627
v 0.484332 0.803101 0.252627
v 0.484857 -0.792478 0.212537
v 0.484857 -0.792478 0.232582
v -0.084420 0.811119 0.232582
v -0.083894 0.803101 0.252627
v -0.084420 0.811119 0.212537
v 0.484332 -0.784460 0.252627
v -0.020276 0.763012 0.252627
v -0.084420 -0.792478 0.212537
v -0.084420 -0.792478 0.232582
v -0.020276 -0.741467 0.252627
v -0.088570 0.810573 0.232582
v -0.086477 0.802761 0.252627
v -0.052348 0.763012 0.252627
v -0.088570 0.810573 0.212537
v -0.083894 -0.784460 0.252627
v -0.052348 0.754993 0.252627
v -0.088570 -0.791931 0.212537
v -0.088570 -0.791931 0.232582
v -0.092438 0.808971 0.232582
v -0.088394 0.801967 0.252627
v -0.086477 -0.784120 0.252627
v -0.092438 0.808971 0.212537
v -0.092438 -0.790329 0.212537
v -0.092438 -0.790329 0.232582
v -0.095759 0.806423 0.232582
v -0.090040 0.800704 0.252627
v -0.088394 -0.783325 0.252627
v -0.095759 0.806423 0.212537
v -0.095759 -0.787781 0.212537
v -0.095759 -0.787781 0.232582
v -0.098307 0.803101 0.212537
v -0.098307 0.803101 0.232582
v -0.090040 -0.782062 0.252627
v -0.091304 0.799058 0.252627
v -0.098307 -0.784460 0.212537
v -0.098307 -0.784460 0.232582
v -0.099909 0.799234 0.212537
v -0.099909 0.799234 0.232582
v -0.091304 -0.780416 0.252627
v -0.092098 0.797141 0.252627
v -0.092098 -0.778499 0.252627
v -0.099909 -0.780592 0.212537
v -0.099909 -0.780592 0.232582
v -0.100456 0.795083 0.212537
v -0.100456 0.795083 0.232582
v -0.092438 0.794558 0.252627
v -0.100456 -0.776442 0.232582
v -0.100456 -0.776442 0.212537
v -0.092438 -0.775916 0.252627
vn 0.000000 0.000000 1.000000
vn 0.000000 0.000000 -1.000000
vn 0.997859 0.065403 0.000000
vn 0.997859 -0.065403 0.000000
vn -0.997859 0.065403 0.000000
vn -0.997859 -0.065403 0.000000
vn 0.965926 0.258819 0.000000
vn -0.965926 -0.258819 0.000000
vn 0.965926 -0.258819 0.000000
vn -0.965926 0.258819 0.000000
vn 0.866025 0.500000 0.000000
vn -0.866025 -0.500000 0.000000
vn 0.866025 -0.500000 0.000000
vn -0.866025 0.500000 0.000000
vn 0.926214 0.060707 0.372077
vn 0.926214 -0.060707 0.372077
vn -0.926214 0.060707 -0.372077
vn -0.926214 -0.060707 -0.372077
vn 0.895770 -0.240021 0.374148
vn -0.895770 0.240021 -0.374148
vn 0.895770 0.240021 0.374148
vn -0.895770 -0.240021 -0.374148
vn 0.803125 -0.463684 0.374148
vn -0.803125 0.463684 -0.374148
vn 0.803125 0.463684 0.374148
vn -0.803125 -0.463684 -0.374148
vn 0.707107 0.707107 0.000000
vn -0.707107 -0.707107 0.000000
vn 0.707107 -0.707107 0.000000
vn -0.707107 0.707107 0.000000
vn 0.655749 -0.655749 0.374148
vn -0.655749 0.655749 -0.374148
vn 0.655749 0.655749 0.374148
vn -0.655749 -0.655749 -0.374148
vn 0.500000 0.866025 0.000000
vn -0.500000 -0.866025 0.000000
vn 0.500000 -0.866025 0.000000
vn -0.500000 0.866025 0.000000
vn 0.463684 -0.803125 0.374148
vn -0.463684 0.803125 -0.374148
vn 0.463684 0.803125 0.374148
vn -0.463684 -0.803125 -0.374148
vn 0.258819 0.965926 0.000000
vn -0.258819 -0.965926 0.000000
vn 0.240021 0.895770 0.374148
vn -0.240021 -0.895770 -0.374148
vn 0.258819 -0.965926 0.000000
vn -0.258819 0.965926 0.000000
vn 0.240021 -0.895770 0.374148
vn -0.240021 0.895770 -0.374148
vn 0.065403 0.997859 0.000000
vn -0.065403 -0.997859 0.000000
vn 0.060707 0.926214 0.372077
vn -0.060707 -0.926214 -0.372077
vn 0.065403 -0.997859 0.000000
vn -0.065403 0.997859 0.000000
vn 0.060707 -0.926214 0.372077
vn -0.060707 0.926214 -0.372077
vn -0.060707 0.926214 0.372077
vn 0.060707 -0.926214 -0.372077
vn -0.060707 -0.926214 0.372077
vn 0.060707 0.926214 -0.372077
vn -0.240021 0.895770 0.374148
vn 0.240021 -0.895770 -0.374148
vn -0.240021 -0.895770 0.374148
vn 0.240021 0.895770 -0.374148
vn -0.463684 0.803125 0.374148
vn 0.463684 -0.803125 -0.374148
vn -0.463684 -0.803125 0.374148
vn 0.463684 0.803125 -0.374148
vn -0.655749 0.655749 0.374148
vn 0.655749 -0.655749 -0.374148
vn -0.655749 -0.655749 0.374148
vn 0.655749 0.655749 -0.374148
vn -0.803125 0.463684 0.374148
vn 0.803125 -0.463684 -0.374148
vn -0.803125 -0.463684 0.374148
vn 0.803125 0.463684 -0.374148
vn -0.895770 0.240021 0.374148
vn 0.895770 -0.240021 -0.374148
vn -0.895770 -0.240021 0.374148
vn 0.895770 0.240021 -0.374148
vn -0.926214 0.060707 0.372077
vn 0.926214 -0.060707 -0.372077
vn -0.926214 -0.060707 0.372077
vn 0.926214 0.060707 -0.372077
usemtl material-0
f 1//1 2//1 3//1
f 2//1 1//1 4//1
f 3//2 2//2 1//2
f 4//2 1//2 2//2
f 3//3 5//4 2//4
f 2//5 5//5 3//6
f 1//7 6//3 3//3
f 3//6 6//6 1//8
f 4//1 1//1 7//1
f 7//2 1//2 4//2
f 2//4 8//9 4//9
f 4//10 8//10 2//5
f 5//4 3//3 6//3
f 6//6 3//6 5//5
f 8//9 2//4 5//4
f 5//5 2//5 8//10
f 6//3 1//7 9//7
f 9//8 1//8 6//6
f 7//11 9//7 1//7
f 1//8 9//8 7//12
f 4//1 7//1 10//1
f 10//2 7//2 4//2
f 11//13 4//9 8//9
f 8//10 4//10 11//14
f 6//15 12//16 5//16
f 5//17 12//17 6//18
f 5//16 13//19 8//19
f 8//20 13//20 5//17
f 14//21 6//15 9//21
f 9//22 6//18 14//22
f 9//7 7//11 15//11
f 15//12 7//12 9//8
f 10//1 7//1 16//1
f 16//2 7//2 10//2
f 4//9 11//13 10//13
f 10//14 11//14 4//10
f 8//19 17//23 11//23
f 11//24 17//24 8//20
f 12//16 6//15 18//15
f 18//18 6//18 12//17
f 13//19 5//16 12//16
f 12//17 5//17 13//20
f 17//23 8//19 13//19
f 13//20 8//20 17//24
f 6//15 14//21 18//15
f 18//18 14//22 6//18
f 9//21 19//25 14//21
f 14//22 19//26 9//22
f 16//27 15//11 7//11
f 7//12 15//12 16//28
f 19//25 9//21 15//25
f 15//26 9//22 19//26
f 10//1 16//1 20//1
f 20//2 16//2 10//2
f 21//29 10//13 11//13
f 11//14 10//14 21//30
f 22//31 11//23 17//23
f 17//24 11//24 22//32
f 14//1 12//1 18//1
f 18//2 12//2 14//2
f 12//1 14//1 13//1
f 13//2 14//2 12//2
f 13//1 19//1 17//1
f 17//2 19//2 13//2
f 13//1 14//1 19//1
f 19//2 14//2 13//2
f 15//11 16//27 23//27
f 23//28 16//28 15//12
f 15//25 24//33 19//25
f 19//26 24//34 15//26
f 20//1 16//1 25//1
f 25//2 16//2 20//2
f 10//13 21//29 20//29
f 20//30 21//30 10//14
f 11//23 22//31 21//31
f 21//32 22//32 11//24
f 17//1 24//1 22//1
f 22//2 24//2 17//2
f 17//1 19//1 24//1
f 24//2 19//2 17//2
f 16//27 26//35 23//27
f 23//28 26//36 16//28
f 24//33 15//25 23//33
f 23//34 15//26 24//34
f 25//1 16//1 27//1
f 27//2 16//2 25//2
f 21//29 25//37 20//29
f 20//30 25//38 21//30
f 22//31 28//39 21//31
f 21//32 28//40 22//32
f 22//1 24//1 29//1
f 29//2 24//2 22//2
f 26//35 16//27 27//35
f 27//36 16//28 26//36
f 29//41 23//33 26//41
f 26//42 23//34 29//42
f 23//33 29//41 24//33
f 24//34 29//42 23//34
f 25//1 27//1 30//1
f 30//2 27//2 25//2
f 25//37 21//29 28//37
f 28//38 21//30 25//38
f 28//39 22//31 31//39
f 31//40 22//32 28//40
f 22//1 29//1 31//1
f 31//2 29//2 22//2
f 27//35 32//43 26//35
f 26//36 32//44 27//36
f 26//41 33//45 29//41
f 29//42 33//46 26//42
f 32//43 27//35 30//43
f 30//44 27//36 32//44
f 25//1 30//1 34//1
f 34//2 30//2 25//2
f 28//37 34//47 25//37
f 25//38 34//48 28//38
f 31//39 35//49 28//39
f 28//40 35//50 31//40
f 31//1 29//1 33//1
f 33//2 29//2 31//2
f 33//45 26//41 32//45
f 32//46 26//42 33//46
f 30//43 36//51 32//43
f 32//44 36//52 30//44
f 34//1 30//1 37//1
f 37//2 30//2 34//2
f 34//47 28//37 35//47
f 35//48 28//38 34//48
f 35//49 31//39 38//49
f 38//50 31//40 35//50
f 31//1 33//1 38//1
f 38//2 33//2 31//2
f 32//45 39//53 33//45
f 33//46 39//54 32//46
f 36//51 30//43 37//51
f 37//52 30//44 36//52
f 39//53 32//45 36//53
f 36//54 32//46 39//54
f 34//1 37//1 40//1
f 40//2 37//2 34//2
f 35//47 40//55 34//47
f 34//48 40//56 35//48
f 38//49 41//57 35//49
f 35//50 41//58 38//50
f 38//1 33//1 39//1
f 39//2 33//2 38//2
f 37//51 42//56 36//51
f 36//52 42//55 37//52
f 36//53 43//59 39//53
f 39//54 43//60 36//54
f 40//1 37//1 44//1
f 44//2 37//2 40//2
f 40//55 35//47 41//55
f 41//56 35//48 40//56
f 41//57 38//49 45//57
f 45//58 38//50 41//58
f 38//1 39//1 45//1
f 45//2 39//2 38//2
f 42//56 37//51 44//56
f 44//55 37//52 42//55
f 43//59 36//53 42//59
f 42//60 36//54 43//60
f 43//1 46//1 39//1
f 39//2 46//2 43//2
f 40//1 44//1 47//1
f 47//2 44//2 40//2
f 41//55 47//52 40//55
f 40//56 47//51 41//56
f 45//57 48//61 41//57
f 41//58 48//62 45//58
f 45//1 39//1 49//1
f 49//2 39//2 45//2
f 44//56 50//48 42//56
f 42//55 50//47 44//55
f 42//59 51//63 43//59
f 43//60 51//64 42//60
f 46//1 43//1 52//1
f 52//2 43//2 46//2
f 49//1 39//1 46//1
f 46//2 39//2 49//2
f 47//1 44//1 53//1
f 53//2 44//2 47//2
f 47//52 41//55 48//52
f 48//51 41//56 47//51
f 48//61 45//57 54//61
f 54//62 45//58 48//62
f 45//1 49//1 54//1
f 54//2 49//2 45//2
f 50//48 44//56 53//48
f 53//47 44//55 50//47
f 51//63 42//59 50//63
f 50//64 42//60 51//64
f 54//1 43//1 51//1
f 51//2 43//2 54//2
f 52//1 43//1 55//1
f 55//2 43//2 52//2
f 47//1 53//1 56//1
f 56//2 53//2 47//2
f 48//52 56//44 47//52
f 47//51 56//43 48//51
f 54//61 57//65 48//61
f 48//62 57//66 54//62
f 53//48 58//38 50//48
f 50//47 58//37 53//47
f 50//63 59//67 51//63
f 51//64 59//68 50//64
f 54//1 51//1 60//1
f 60//2 51//2 54//2
f 56//1 53//1 61//1
f 61//2 53//2 56//2
f 56//44 48//52 57//44
f 57//43 48//51 56//43
f 57//65 54//61 60//65
f 60//66 54//62 57//66
f 58//38 53//48 61//38
f 61//37 53//47 58//37
f 59//67 50//63 58//67
f 58//68 50//64 59//68
f 60//1 51//1 59//1
f 59//2 51//2 60//2
f 56//1 61//1 62//1
f 62//2 61//2 56//2
f 57//44 62//36 56//44
f 56//43 62//35 57//43
f 60//65 63//69 57//65
f 57//66 63//70 60//66
f 61//38 64//30 58//38
f 58//37 64//29 61//37
f 58//67 65//71 59//67
f 59//68 65//72 58//68
f 60//1 59//1 66//1
f 66//2 59//2 60//2
f 62//1 61//1 67//1
f 67//2 61//2 62//2
f 62//36 57//44 63//36
f 63//35 57//43 62//35
f 63//69 60//65 66//69
f 66//70 60//66 63//70
f 64//30 61//38 67//30
f 67//29 61//37 64//29
f 65//71 58//67 64//71
f 64//72 58//68 65//72
f 66//1 59//1 65//1
f 65//2 59//2 66//2
f 62//1 67//1 68//1
f 68//2 67//2 62//2
f 63//36 68//28 62//36
f 62//35 68//27 63//35
f 66//69 69//73 63//69
f 63//70 69//74 66//70
f 70//14 64//30 67//30
f 67//29 64//29 70//13
f 71//75 65//71 64//71
f 64//72 65//72 71//76
f 66//1 65//1 72//1
f 72//2 65//2 66//2
f 68//1 67//1 70//1
f 70//2 67//2 68//2
f 68//28 63//36 69//28
f 69//27 63//35 68//27
f 69//73 66//69 72//73
f 72//74 66//70 69//74
f 64//30 70//14 71//14
f 71//13 70//13 64//29
f 65//71 71//75 73//75
f 73//76 71//76 65//72
f 72//1 65//1 73//1
f 73//2 65//2 72//2
f 68//1 70//1 74//1
f 74//2 70//2 68//2
f 75//12 68//28 69//28
f 69//27 68//27 75//11
f 72//73 75//77 69//73
f 69//74 75//78 72//74
f 76//10 71//14 70//14
f 70//13 71//13 76//9
f 77//79 73//75 71//75
f 71//76 73//76 77//80
f 72//1 73//1 78//1
f 78//2 73//2 72//2
f 74//1 70//1 76//1
f 76//2 70//2 74//2
f 68//28 75//12 74//12
f 74//11 75//11 68//27
f 75//77 72//73 78//77
f 78//78 72//74 75//78
f 71//14 76//10 77//10
f 77//9 76//9 71//13
f 73//75 77//79 79//79
f 79//80 77//80 73//76
f 78//1 73//1 80//1
f 80//2 73//2 78//2
f 74//1 76//1 81//1
f 81//2 76//2 74//2
f 82//8 74//12 75//12
f 75//11 74//11 82//7
f 78//77 82//81 75//77
f 75//78 82//82 78//78
f 83//5 77//10 76//10
f 76//9 77//9 83//4
f 84//83 79//79 77//79
f 77//80 79//80 84//84
f 80//1 73//1 79//1
f 79//2 73//2 80//2
f 82//81 78//77 80//81
f 80//82 78//78 82//82
f 81//1 76//1 83//1
f 83//2 76//2 81//2
f 74//12 82//8 81//8
f 81//7 82//7 74//11
f 77//10 83//5 84//5
f 84//4 83//4 77//9
f 79//79 84//83 85//83
f 85//84 84//84 79//80
f 80//1 79//1 85//1
f 85//2 79//2 80//2
f 80//81 86//85 82//81
f 82//82 86//86 80//82
f 81//1 83//1 87//1
f 87//2 83//2 81//2
f 86//6 81//8 82//8
f 82//7 81//7 86//3
f 87//6 84//5 83//5
f 83//4 84//4 87//3
f 84//83 88//85 85//83
f 85//84 88//86 84//84
f 80//1 85//1 88//1
f 88//2 85//2 80//2
f 86//85 80//81 88//85
f 88//86 80//82 86//86
f 81//8 86//6 87//6
f 87//3 86//3 81//7
f 84//5 87//6 86//6
f 86//3 87//3 84//4
f 88//85 84//83 86//85
f 86//86 84//84 88//86