mtllib new-5.mtl
v -0.252797 0.017339 0.212537
v -0.252797 0.017339 0.252627
v -0.252797 0.257878 0.212537
v -0.256806 0.057429 0.252627
v -0.409148 0.253869 0.252627
v -0.252797 0.257878 0.252627
v -0.256806 0.057429 0.248618
v -0.256806 0.253869 0.252627
v -0.409148 0.057429 0.244609
v -0.256806 0.053420 0.248618
v -0.256806 0.253869 0.172447
v -0.409148 0.057429 0.240600
v -0.409148 0.053420 0.244609
v -0.256806 0.057429 0.244609
v -0.409148 0.053420 0.248618
v -0.409148 0.057429 0.236591
v -0.409148 0.053420 0.240600
v -0.409148 0.253869 0.172447
v -0.256806 0.053420 0.244609
v -0.256806 0.057429 0.240600
v -0.409148 0.057429 0.232582
v -0.409148 0.053420 0.236591
v -0.256806 0.053420 0.240600
v -0.409148 0.053420 0.172447
v -0.409148 0.057429 0.176456
v -0.256806 0.053420 0.176456
v -0.256806 0.057429 0.236591
v -0.409148 0.057429 0.228573
v -0.409148 0.053420 0.232582
v -0.409148 0.021348 0.172447
v -0.409148 0.057429 0.180465
v -0.256806 0.053420 0.236591
v -0.256806 0.053420 0.228573
v -0.256806 0.057429 0.232582
v -0.409148 0.057429 0.224564
v -0.409148 0.053420 0.228573
v -0.256806 0.053420 0.232582
v -0.409148 0.057429 0.184474
v -0.256806 0.057429 0.180465
v -0.409148 0.053420 0.180465
v -0.256806 0.053420 0.180465
v -0.256806 0.057429 0.228573
v -0.409148 0.057429 0.220555
v -0.409148 0.053420 0.224564
v -0.409148 0.057429 0.188483
v -0.256806 0.053420 0.224564
v -0.256806 0.057429 0.224564
v -0.409148 0.057429 0.216546
v -0.409148 0.053420 0.220555
v -0.409148 0.057429 0.192492
v -0.256806 0.057429 0.188483
v -0.409148 0.053420 0.184474
v -0.256806 0.053420 0.184474
v -0.256806 0.057429 0.220555
v -0.409148 0.057429 0.212537
v -0.409148 0.053420 0.216546
v -0.409148 0.057429 0.196501
v -0.409148 0.053420 0.188483
v -0.256806 0.057429 0.184474
v -0.256806 0.053420 0.188483
v -0.256806 0.057429 0.216546
v -0.409148 0.057429 0.208528
v -0.409148 0.053420 0.212537
v -0.256806 0.053420 0.216546
v -0.256806 0.053420 0.220555
v -0.409148 0.057429 0.200510
v -0.256806 0.057429 0.196501
v -0.409148 0.053420 0.192492
v -0.256806 0.053420 0.192492
v -0.256806 0.057429 0.212537
v -0.409148 0.057429 0.204519
v -0.409148 0.053420 0.208528
v -0.409148 0.053420 0.196501
v -0.256806 0.057429 0.192492
v -0.256806 0.053420 0.196501
v -0.256806 0.057429 0.208528
v -0.409148 0.053420 0.204519
v -0.256806 0.053420 0.208528
v -0.256806 0.053420 0.212537
v -0.256806 0.057429 0.204519
v -0.409148 0.053420 0.200510
v -0.256806 0.053420 0.200510
v -0.256806 0.057429 0.200510
v -0.256806 0.053420 0.204519
vn 0.000000 0.000000 1.000000
vn 0.000000 0.000000 -1.000000
vn -1.000000 0.000000 0.000000
vn 0.000000 -1.000000 0.000000
vn 1.000000 0.000000 0.000000
vn 0.000000 1.000000 0.000000
vt -1.375360 0.173714
vt -1.367166 0.173714
vt -1.375360 0.222878
vt -1.620949 0.222058
vt -1.367166 0.222878
vt 4.706527 3.290629
vt 4.706527 3.259492
vt 4.707346 3.290629
vt 4.707346 3.259492
vt -1.589811 0.222058
vt 4.708165 0.181908
vt -1.367166 0.181908
vt -1.383554 0.222058
vt -1.367985 0.181908
vt -1.367166 0.222058
vt 4.708985 0.181908
vt 4.708165 0.181088
vt -1.367166 3.259492
vt -1.367166 3.290629
vt -1.383554 3.259492
vt -1.368805 0.181908
vt -1.367985 0.181088
vt 4.709804 0.181908
vt 4.708985 0.181088
vt 4.707346 0.181088
vt -1.621768 0.181908
vt -1.621768 0.181088
vt -1.590631 0.181908
vt -1.369624 0.181908
vt 4.710624 0.181908
vt 4.709804 0.181088
vt 4.957851 0.181088
vt 4.957851 0.181908
vt 4.926714 0.181088
vt 4.722915 0.181088
vt -1.369624 3.290629
vt -1.369624 3.259492
vt -1.368805 3.290629
vt -1.590631 0.181088
vt -1.620949 0.181088
vt -1.369624 0.181088
vt -1.382735 0.181088
vt -1.370444 0.181908
vt 4.711443 0.181908
vt 4.710624 0.181088
vt -1.623407 0.181908
vt -1.623407 0.181088
vt -1.592269 0.181908
vt 4.926714 0.181908
vt -1.368805 3.259492
vt -1.620949 0.174533
vt -1.370444 0.181088
vt -1.372082 0.181088
vt -1.371263 0.181908
vt 4.712262 0.181908
vt 4.711443 0.181088
vt 4.956212 0.181088
vt 4.956212 0.181908
vt 4.925075 0.181088
vt -1.592269 0.181088
vt -1.371263 3.290629
vt -1.371263 3.259492
vt -1.370444 3.290629
vt -1.371263 0.181088
vt -1.372082 0.181908
vt 4.713082 0.181908
vt 4.712262 0.181088
vt -1.625046 0.181908
vt -1.625046 0.181088
vt -1.593908 0.181908
vt 4.925075 0.181908
vt -1.370444 3.259492
vt -1.634878 0.181908
vt -1.634878 0.181088
vt -1.603741 0.181908
vt -1.372902 0.181088
vt -1.372902 0.181908
vt 4.713901 0.181908
vt 4.713082 0.181088
vt 4.954573 0.181088
vt 4.954573 0.181908
vt 4.923436 0.181088
vt -1.593908 0.181088
vt -1.372902 3.290629
vt -1.372902 3.259492
vt -1.372082 3.290629
vt -1.603741 0.181088
vt -1.372082 3.259492
vt -1.373721 0.181908
vt 4.714721 0.181908
vt 4.713901 0.181088
vt -1.626684 0.181908
vt -1.626684 0.181088
vt -1.595547 0.181908
vt 4.923436 0.181908
vt -1.633240 0.181908
vt -1.633240 0.181088
vt -1.602102 0.181908
vt 4.946379 0.181088
vt 4.946379 0.181908
vt 4.915242 0.181088
vt -1.374541 0.181908
vt 4.714721 0.181088
vt 4.952935 0.181088
vt 4.952935 0.181908
vt 4.921797 0.181088
vt -1.595547 0.181088
vt -1.374541 3.290629
vt -1.374541 3.259492
vt -1.373721 3.290629
vt -1.602102 0.181088
vt 4.915242 0.181908
vt -1.381096 3.290629
vt -1.381096 3.259492
vt -1.380276 3.290629
vt -1.380276 3.259492
vt -1.375360 0.181908
vt -1.373721 0.181088
vt -1.628323 0.181908
vt -1.628323 0.181088
vt -1.597186 0.181908
vt 4.921797 0.181908
vt -1.373721 3.259492
vt -1.631601 0.181908
vt -1.631601 0.181088
vt -1.600463 0.181908
vt 4.948018 0.181088
vt 4.948018 0.181908
vt 4.916881 0.181088
vt -1.376179 0.181908
vt -1.374541 0.181088
vt 4.951296 0.181088
vt 4.951296 0.181908
vt 4.920158 0.181088
vt -1.597186 0.181088
vt -1.376179 3.290629
vt -1.376179 3.259492
vt -1.375360 3.290629
vt -1.600463 0.181088
vt 4.916881 0.181908
vt -1.379457 3.290629
vt -1.379457 3.259492
vt -1.378638 3.290629
vt -1.378638 3.259492
vt -1.376999 0.181908
vt -1.375360 0.181088
vt -1.629962 0.181908
vt -1.629962 0.181088
vt -1.598825 0.181908
vt 4.920158 0.181908
vt -1.375360 3.259492
vt 4.949657 0.181088
vt 4.949657 0.181908
vt 4.918520 0.181088
vt -1.598825 0.181088
vt -1.377818 3.290629
vt -1.377818 3.259492
vt -1.376999 3.290629
vt 4.918520 0.181908
vt -1.376999 3.259492
usemtl material-0
f 3//5 2//5 1//5
f 2//5 3//5 6//5
f 7//5 11//5 4//5
f 4//5 11//5 8//5
f 11//6 5//6 8//6
f 14//5 11//5 7//5
f 17//3 9//3 12//3
f 12//4 14//4 9//4
f 14//2 13//2 9//2
f 20//5 11//5 14//5
f 22//3 12//3 16//3
f 12//3 22//3 17//3
f 23//1 12//1 17//1
f 14//4 12//4 20//4
f 24//3 15//3 13//3
f 13//6 23//6 17//6
f 24//3 13//3 17//3
f 13//2 14//2 19//2
f 11//2 24//2 18//2
f 27//5 11//5 20//5
f 21//4 27//4 16//4
f 29//3 16//3 21//3
f 27//2 22//2 16//2
f 16//3 29//3 22//3
f 24//3 17//3 22//3
f 12//1 23//1 20//1
f 23//6 13//6 19//6
f 24//2 11//2 30//2
f 10//5 26//5 33//5
f 34//5 11//5 27//5
f 23//5 27//5 20//5
f 36//3 21//3 28//3
f 27//4 21//4 34//4
f 21//3 36//3 29//3
f 37//1 21//1 29//1
f 22//2 27//2 32//2
f 22//6 37//6 29//6
f 25//4 39//4 31//4
f 27//5 23//5 32//5
f 10//5 37//5 32//5
f 10//5 33//5 37//5
f 42//5 11//5 34//5
f 32//5 34//5 27//5
f 35//4 42//4 28//4
f 44//3 28//3 35//3
f 42//2 36//2 28//2
f 28//3 44//3 36//3
f 21//1 37//1 34//1
f 37//6 22//6 32//6
f 39//2 40//2 31//2
f 34//5 32//5 37//5
f 42//5 37//5 33//5
f 47//5 11//5 42//5
f 37//5 42//5 34//5
f 49//3 35//3 43//3
f 42//4 35//4 47//4
f 35//3 49//3 44//3
f 46//1 35//1 44//1
f 36//2 42//2 33//2
f 36//6 46//6 44//6
f 38//4 51//4 45//4
f 40//2 39//2 41//2
f 46//6 36//6 33//6
f 46//5 42//5 33//5
f 54//5 11//5 47//5
f 42//5 46//5 47//5
f 48//4 54//4 43//4
f 56//3 43//3 48//3
f 54//2 49//2 43//2
f 43//3 56//3 49//3
f 35//1 46//1 47//1
f 51//2 58//2 45//2
f 51//4 38//4 59//4
f 53//1 38//1 52//1
f 61//5 11//5 54//5
f 46//5 54//5 47//5
f 63//3 48//3 55//3
f 54//4 48//4 61//4
f 48//3 63//3 56//3
f 64//1 48//1 56//1
f 49//2 54//2 65//2
f 49//6 64//6 56//6
f 50//4 67//4 57//4
f 58//2 51//2 60//2
f 38//1 53//1 59//1
f 58//6 53//6 52//6
f 53//6 58//6 60//6
f 70//5 11//5 61//5
f 65//5 61//5 54//5
f 46//5 65//5 54//5
f 62//4 70//4 55//4
f 70//2 63//2 55//2
f 48//1 64//1 61//1
f 64//6 49//6 65//6
f 67//2 73//2 57//2
f 67//4 50//4 74//4
f 69//1 50//1 68//1
f 61//5 65//5 64//5
f 46//5 64//5 65//5
f 70//4 62//4 76//4
f 78//1 62//1 72//1
f 63//2 70//2 79//2
f 63//6 78//6 72//6
f 66//4 80//4 71//4
f 73//2 67//2 75//2
f 50//1 69//1 74//1
f 73//6 69//6 68//6
f 69//6 73//6 75//6
f 80//5 11//5 76//5
f 46//5 79//5 64//5
f 80//2 77//2 71//2
f 62//1 78//1 76//1
f 78//6 63//6 79//6
f 80//4 66//4 83//4
f 82//1 66//1 81//1
f 77//2 80//2 84//2
f 77//6 82//6 81//6
f 66//1 82//1 83//1
f 82//6 77//6 84//6
usemtl material-1
f 1/1/3 2/2/3 3/3/3
f 6/5/3 3/3/3 2/2/3
f 4/12/3 11/13/3 7/14/3
f 8/15/3 11/13/3 4/12/3
f 8/18/4 5/19/4 11/20/4
f 7/14/3 11/13/3 14/21/3
f 12/16/5 9/11/5 17/24/5
f 9/6/6 14/7/6 12/8/6
f 9/26/1 13/27/1 14/28/1
f 14/21/3 11/13/3 20/29/3
f 16/23/5 12/16/5 22/31/5
f 17/24/5 22/31/5 12/16/5
f 17/32/2 12/33/2 23/34/2
f 20/9/6 12/8/6 14/7/6
f 13/17/5 15/25/5 24/35/5
f 17/36/4 23/37/4 13/38/4
f 17/24/5 13/17/5 24/35/5
f 19/39/1 14/28/1 13/27/1
f 18/4/1 24/40/1 11/10/1
f 20/29/3 11/13/3 27/43/3
f 16/6/6 27/7/6 21/8/6
f 21/30/5 16/23/5 29/45/5
f 16/46/1 22/47/1 27/48/1
f 22/31/5 29/45/5 16/23/5
f 22/31/5 17/24/5 24/35/5
f 20/49/2 23/34/2 12/33/2
f 19/50/4 13/38/4 23/37/4
f 30/51/1 11/10/1 24/40/1
f 33/53/3 26/42/3 10/22/3
f 27/43/3 11/13/3 34/54/3
f 20/29/3 27/43/3 23/41/3
f 28/44/5 21/30/5 36/56/5
f 34/9/6 21/8/6 27/7/6
f 29/45/5 36/56/5 21/30/5
f 29/57/2 21/58/2 37/59/2
f 32/60/1 27/48/1 22/47/1
f 29/61/4 37/62/4 22/63/4
f 31/6/6 39/7/6 25/8/6
f 32/52/3 23/41/3 27/43/3
f 32/52/3 37/64/3 10/22/3
f 37/64/3 33/53/3 10/22/3
f 34/54/3 11/13/3 42/65/3
f 27/43/3 34/54/3 32/52/3
f 28/6/6 42/7/6 35/8/6
f 35/55/5 28/44/5 44/67/5
f 28/68/1 36/69/1 42/70/1
f 36/56/5 44/67/5 28/44/5
f 34/71/2 37/59/2 21/58/2
f 32/72/4 22/63/4 37/62/4
f 31/73/1 40/74/1 39/75/1
f 37/64/3 32/52/3 34/54/3
f 33/53/3 37/64/3 42/65/3
f 42/65/3 11/13/3 47/77/3
f 34/54/3 42/65/3 37/64/3
f 43/66/5 35/55/5 49/79/5
f 47/9/6 35/8/6 42/7/6
f 44/67/5 49/79/5 35/55/5
f 44/80/2 35/81/2 46/82/2
f 33/83/1 42/70/1 36/69/1
f 44/84/4 46/85/4 36/86/4
f 45/6/6 51/7/6 38/8/6
f 41/87/1 39/75/1 40/74/1
f 33/88/4 36/86/4 46/85/4
f 33/53/3 42/65/3 46/76/3
f 47/77/3 11/13/3 54/89/3
f 47/77/3 46/76/3 42/65/3
f 43/6/6 54/7/6 48/8/6
f 48/78/5 43/66/5 56/91/5
f 43/92/1 49/93/1 54/94/1
f 49/79/5 56/91/5 43/66/5
f 47/95/2 46/82/2 35/81/2
f 45/96/1 58/97/1 51/98/1
f 59/9/6 38/8/6 51/7/6
f 52/99/2 38/100/2 53/101/2
f 54/89/3 11/13/3 61/102/3
f 47/77/3 54/89/3 46/76/3
f 55/90/5 48/78/5 63/103/5
f 61/9/6 48/8/6 54/7/6
f 56/91/5 63/103/5 48/78/5
f 56/104/2 48/105/2 64/106/2
f 65/107/1 54/94/1 49/93/1
f 56/108/4 64/109/4 49/110/4
f 57/6/6 67/7/6 50/8/6
f 60/111/1 51/98/1 58/97/1
f 59/112/2 53/101/2 38/100/2
f 52/113/4 53/114/4 58/115/4
f 60/116/4 58/115/4 53/114/4
f 61/102/3 11/13/3 70/117/3
f 54/89/3 61/102/3 65/118/3
f 54/89/3 65/118/3 46/76/3
f 55/6/6 70/7/6 62/8/6
f 55/119/1 63/120/1 70/121/1
f 61/122/2 64/106/2 48/105/2
f 65/123/4 49/110/4 64/109/4
f 57/124/1 73/125/1 67/126/1
f 74/9/6 50/8/6 67/7/6
f 68/127/2 50/128/2 69/129/2
f 64/131/3 65/118/3 61/102/3
f 65/118/3 64/131/3 46/76/3
f 76/9/6 62/8/6 70/7/6
f 72/132/2 62/133/2 78/134/2
f 79/135/1 70/121/1 63/120/1
f 72/136/4 78/137/4 63/138/4
f 71/6/6 80/7/6 66/8/6
f 75/139/1 67/126/1 73/125/1
f 74/140/2 69/129/2 50/128/2
f 68/141/4 69/142/4 73/143/4
f 75/144/4 73/143/4 69/142/4
f 76/130/3 11/13/3 80/145/3
f 64/131/3 79/146/3 46/76/3
f 71/147/1 77/148/1 80/149/1
f 76/150/2 78/134/2 62/133/2
f 79/151/4 63/138/4 78/137/4
f 83/9/6 66/8/6 80/7/6
f 81/152/2 66/153/2 82/154/2
f 84/155/1 80/149/1 77/148/1
f 81/156/4 82/157/4 77/158/4
f 83/159/2 82/154/2 66/153/2
f 84/160/4 77/158/4 82/157/4