# SSTK version 0.8.0
# 12
mtllib original-12.mtl
o mesh3/mesh3-geometry#mesh3-geometry
v 0.318279 -0.211554 -0.353699
v 0.348088 -0.200687 -0.327909
v 0.343389 -0.209700 -0.320703
v 0.319666 -0.208580 -0.356311
v 0.305476 -0.210752 -0.364575
v 0.339148 -0.116074 -0.406774
v 0.361813 -0.163707 -0.340826
v 0.318897 -0.088710 -0.439600
v 0.371122 -0.124835 -0.360658
v 0.287328 -0.204529 -0.381359
v 0.377328 -0.138695 -0.341945
v 0.296829 -0.097454 -0.448748
v 0.259278 -0.206130 -0.399553
v 0.292126 -0.081909 -0.462716
v 0.258419 -0.105813 -0.469405
v 0.238942 -0.220940 -0.403321
v 0.254275 -0.087704 -0.484759
v 0.227561 -0.222683 -0.409948
v 0.239318 -0.120145 -0.472653
v 0.234702 -0.228766 -0.396904
v 0.219532 -0.223912 -0.414623
v 0.194664 -0.227720 -0.429105
v 0.186035 -0.255086 -0.401884
v 0.224238 -0.126335 -0.478755
v 0.211781 -0.238221 -0.402891
v 0.157194 -0.259239 -0.407415
v 0.224865 -0.105207 -0.492910
v 0.134374 -0.231526 -0.446056
v 0.222792 -0.092525 -0.503092
v 0.146858 -0.254197 -0.416615
v 0.212553 -0.103925 -0.502267
v 0.135803 -0.245615 -0.429981
v 0.187218 -0.139407 -0.487792
v 0.218399 -0.093198 -0.505651
v 0.129077 -0.254482 -0.422540
v 0.133406 -0.178494 -0.480171
v 0.200034 -0.111631 -0.501378
v 0.125662 -0.221252 -0.455405
v 0.122087 -0.201692 -0.469022
vn 0.528192073368789 -0.6858860952733574 -0.5005730695323575
vn 0.6571887862881562 -0.5629348169386936 -0.5012058370123994
vn 0.6132112530867468 -0.6630242736457552 -0.42938417721697725
vn 0.5670159132451543 -0.5869179102000993 -0.5779449115729907
vn -0.6132112530867468 0.6630242736457552 0.42938417721697725
vn -0.6571887862881562 0.5629348169386936 0.5012058370123994
vn -0.528192073368789 0.6858860952733574 0.5005730695323575
vn -0.5670159132451543 0.5869179102000993 0.5779449115729907
vn 0.4685669195130957 -0.6023338965356095 -0.6462498889920505
vn -0.4685669195130957 0.6023338965356095 0.6462498889920505
vn 0.5960748045199822 -0.4776208433664192 -0.6454247883358799
vn -0.5960748045199822 0.4776208433664192 0.6454247883358799
vn 0.6899218448514278 -0.4532128980821746 -0.5644518730669238
vn -0.6899218448514278 0.4532128980821746 0.5644518730669238
vn 0.49271568887453004 -0.4944056878073796 -0.7160965478206196
vn -0.49271568887453004 0.4944056878073796 0.7160965478206196
vn 0.4364011737396335 -0.6999562786659491 -0.5653452250747206
vn -0.4364011737396335 0.6999562786659491 0.5653452250747206
vn 0.36066094244897734 -0.6185149013029664 -0.6981138886012777
vn -0.36066094244897734 0.6185149013029664 0.6981138886012777
vn 0.3349320933516162 -0.7154781994166804 -0.6131161708865369
vn -0.3349320933516162 0.7154781994166804 0.6131161708865369
vn 0.22916997056655675 -0.7218289072919102 -0.6530269161284936
vn -0.22916997056655675 0.7218289072919102 0.6530269161284936
vn 0.24749193802691274 -0.625667843329976 -0.739788814753575
vn -0.24749193802691274 0.625667843329976 0.739788814753575
vn 0.38018102438747303 -0.5106790327585289 -0.7711480494668357
vn -0.38018102438747303 0.5106790327585289 0.7711480494668357
vn 0.26157901748773504 -0.5188010346841847 -0.8138930544124152
vn -0.26157901748773504 0.5188010346841847 0.8138930544124152
usemtl material_0_0
f 1//1 2//2 3//3
f 2//2 1//1 4//4
f 3//5 2//6 1//7
f 4//8 1//7 2//6
f 5//9 4//4 1//1
f 1//7 4//8 5//10
f 6//11 2//2 4//4
f 4//8 2//6 6//12
f 5//9 6//11 4//4
f 4//8 6//12 5//10
f 6//11 7//13 2//2
f 2//6 7//14 6//12
f 6//11 5//9 8//15
f 8//16 5//10 6//12
f 9//13 7//13 6//11
f 6//12 7//14 9//14
f 8//15 5//9 10//15
f 10//16 5//10 8//16
f 7//13 9//13 11//13
f 11//14 9//14 7//14
f 8//15 10//15 12//15
f 12//16 10//16 8//16
f 12//15 10//15 13//15
f 13//16 10//16 12//16
f 12//15 13//15 14//15
f 14//16 13//16 12//16
f 14//15 13//15 15//15
f 15//16 13//16 14//16
f 15//15 13//15 16//9
f 16//10 13//16 15//16
f 14//15 15//15 17//15
f 17//16 15//16 14//16
f 18//9 15//15 16//9
f 16//10 15//16 18//10
f 15//15 18//9 19//15
f 19//16 18//10 15//16
f 18//9 16//9 20//17
f 20//18 16//10 18//10
f 19//15 18//9 21//9
f 21//10 18//10 19//16
f 19//15 21//9 22//19
f 22//20 21//10 19//16
f 21//9 23//21 22//19
f 22//20 23//22 21//10
f 19//15 22//19 24//15
f 24//16 22//20 19//16
f 23//21 21//9 25//17
f 25//18 21//10 23//22
f 26//23 22//19 23//21
f 23//22 22//20 26//24
f 24//15 22//19 27//15
f 27//16 22//20 24//16
f 22//19 26//23 28//25
f 28//26 26//24 22//20
f 27//15 22//19 29//15
f 29//16 22//20 27//16
f 28//25 26//23 30//23
f 30//24 26//24 28//26
f 28//25 31//27 22//19
f 22//20 31//28 28//26
f 29//15 22//19 31//27
f 31//28 22//20 29//16
f 28//25 30//23 32//23
f 32//24 30//24 28//26
f 31//27 28//25 33//29
f 33//30 28//26 31//28
f 29//15 31//27 34//15
f 34//16 31//28 29//16
f 35//23 32//23 30//23
f 30//24 32//24 35//24
f 33//29 28//25 36//29
f 36//30 28//26 33//30
f 31//27 33//29 37//29
f 37//30 33//30 31//28
f 36//29 28//25 38//29
f 38//30 28//26 36//30
f 36//29 38//29 39//29
f 39//30 38//30 36//30
