# SSTK version 0.8.0
# 17
mtllib original-17.mtl
o mesh8/mesh8-geometry#mesh8-geometry
v 0.402448 -0.002982 -0.393598
v 0.389365 0.036968 -0.420684
v 0.411340 0.033381 -0.395609
v 0.371038 -0.008086 -0.426150
v 0.371018 0.061622 -0.448582
v 0.362153 0.018542 -0.444383
vn 0.7196148948200154 -0.2125169689382032 -0.6610529033795233
vn -0.7196148948200154 0.2125169689382032 0.6610529033795233
usemtl material_0_0
f 1//1 2//1 3//1
f 2//1 1//1 4//1
f 3//2 2//2 1//2
f 4//2 1//2 2//2
f 2//1 4//1 5//1
f 5//2 4//2 2//2
f 5//1 4//1 6//1
f 6//2 4//2 5//2
