# SSTK version 0.8.0
# 20
mtllib original-20.mtl
o mesh11/mesh11-geometry#mesh11-geometry
v -0.086944 -0.266661 -0.437814
v -0.059901 -0.260125 -0.444514
v -0.071164 -0.277856 -0.425825
v -0.069955 -0.255260 -0.449750
v -0.087354 -0.255637 -0.449495
v -0.037540 -0.240456 -0.465167
vn 0.005640001235405746 -0.7271521592779714 -0.6864531503631172
vn -0.005640001235405746 0.7271521592779714 0.6864531503631172
usemtl material_0_0
f 1//1 2//1 3//1
f 2//1 1//1 4//1
f 3//2 2//2 1//2
f 4//2 1//2 2//2
f 4//1 1//1 5//1
f 5//2 1//2 4//2
f 4//1 6//1 2//1
f 2//2 6//2 4//2
