# SSTK version 0.8.0
# 8
mtllib original-8.mtl
o globe_quarter6/globe_quarter12/mesh2/mesh2-geometry#mesh2-geometry
v 0.369798 -0.194084 -0.305322
v 0.310823 -0.307205 -0.214871
v 0.319225 -0.208128 -0.355860
v 0.267395 -0.319265 -0.258270
v 0.347672 -0.073052 -0.429546
v 0.160191 -0.335680 -0.320699
v 0.229038 -0.389636 -0.110123
v 0.194384 -0.227244 -0.428561
v 0.401944 -0.057981 -0.375311
v 0.113454 -0.411486 -0.191327
v 0.195715 -0.398890 -0.143424
v 0.213701 -0.093566 -0.507563
v 0.403507 0.016923 -0.397690
v 0.021187 -0.417311 -0.217268
v 0.039946 -0.343272 -0.354506
v 0.109068 -0.441576 -0.019150
v 0.215264 -0.018662 -0.529942
v 0.054355 -0.236084 -0.467930
v 0.349235 0.001852 -0.451925
v 0.057357 -0.449494 -0.049263
v -0.000645 -0.453156 -0.065571
v 0.130016 -0.435759 0.001784
v 0.063431 -0.103053 -0.549811
v -0.060984 -0.452312 -0.066960
v -0.074800 -0.415969 -0.219479
v -0.091319 -0.234047 -0.471284
v 0.013361 -0.444415 0.106083
v -0.004277 -0.447116 0.095812
v 0.064994 -0.028149 -0.572190
v -0.024060 -0.448365 0.090250
v -0.044641 -0.448077 0.089776
v -0.085147 -0.341523 -0.357386
v 0.020506 -0.442431 0.113223
v -0.091333 -0.025963 -0.575790
v -0.092895 -0.100867 -0.553411
v -0.064617 -0.446272 0.094423
v -0.119550 -0.447020 -0.053337
v -0.167965 -0.407550 -0.197808
v -0.232709 -0.221271 -0.438396
v -0.035762 -0.425814 0.164912
v -0.244626 -0.087157 -0.518118
v -0.206561 -0.330552 -0.329145
v -0.243063 -0.012252 -0.540497
v -0.082626 -0.443073 0.103873
v -0.172351 -0.437641 -0.025631
v -0.251959 -0.392630 -0.153734
v -0.360181 -0.198627 -0.371507
v -0.381421 -0.062857 -0.446336
v -0.379858 0.012048 -0.468715
v -0.090034 -0.440885 0.110678
v -0.316024 -0.311107 -0.271705
v -0.194070 -0.431227 -0.005680
v -0.286508 -0.382427 -0.121996
v -0.412615 -0.183142 -0.323340
v -0.437689 -0.046239 -0.394647
v -0.436126 0.028665 -0.417027
v -0.361050 -0.297810 -0.230344
vn 0.6571890445639348 -0.5629343076314847 -0.5012060703908159
vn 0.558741596075181 -0.7517691016470982 -0.35021571441623534
vn 0.5670154914584206 -0.586917865471436 -0.5779453708064622
vn -0.5670154914584206 0.586917865471436 0.5779453708064622
vn -0.558741596075181 0.7517691016470982 0.35021571441623534
vn -0.6571890445639348 0.5629343076314847 0.5012060703908159
vn 0.48033750923462587 -0.7728404994138822 -0.41472091783267573
vn -0.48033750923462587 0.7728404994138822 0.41472091783267573
vn 0.6148119693901218 -0.35990375605948016 -0.7017660070628372
vn -0.6148119693901218 0.35990375605948016 0.7017660070628372
vn 0.3034787748860826 -0.799921241902273 -0.5177128933561225
vn -0.3034787748860826 0.799921241902273 0.5177128933561225
vn 0.4222168005723463 -0.889371843037108 -0.17535876974713585
vn -0.4222168005723463 0.889371843037108 0.17535876974713585
vn 0.3606609513363252 -0.6185148959489365 -0.6981138887534419
vn -0.3606609513363252 0.6185148959489365 0.6981138887534419
vn 0.7108499069172969 -0.33573711242587784 -0.6180396436925417
vn -0.7108499069172969 0.33573711242587784 0.6180396436925417
vn 0.2258085415335697 -0.9259480887750143 -0.302705532596251
vn -0.2258085415335697 0.9259480887750143 0.302705532596251
vn 0.3612160366422303 -0.9052143795463301 -0.22385241105476544
vn -0.3612160366422303 0.9052143795463301 0.22385241105476544
vn 0.39311739789827377 -0.39384981587109336 -0.8308676392831751
vn -0.39311739789827377 0.39384981587109336 0.8308676392831751
vn 0.7196151775207945 -0.21251671496922084 -0.6610526772810217
vn -0.7196151775207945 0.21251671496922084 0.6610526772810217
vn 0.07393029284372721 -0.9355368010787407 -0.3454058563883903
vn -0.07393029284372721 0.9355368010787407 0.3454058563883903
vn 0.10510589595367469 -0.8124452907283715 -0.573485309497172
vn -0.10510589595367469 0.8124452907283715 0.573485309497172
vn 0.21812628902541262 -0.9757430032568092 -0.018614876614806455
vn -0.21812628902541262 0.9757430032568092 0.018614876614806455
vn 0.39922332086549883 -0.27010097952672113 -0.8761656241463875
vn -0.39922332086549883 0.27010097952672113 0.8761656241463875
vn 0.12920302477803186 -0.6331278136576732 -0.7631878864088857
vn -0.12920302477803186 0.6331278136576732 0.7631878864088857
vn 0.6228626216762425 -0.23585713915271933 -0.7459313402916469
vn -0.6228626216762425 0.23585713915271933 0.7459313402916469
vn 0.13316948002547052 -0.9887516608249346 -0.06808849246149544
vn -0.13316948002547052 0.9887516608249346 0.06808849246149544
vn 0.0378765058953748 -0.9947678768322189 -0.09488014293769327
vn -0.0378765058953748 0.9947678768322189 0.09488014293769327
vn 0.256918435505972 -0.9663652743911548 0.01144875312301397
vn -0.256918435505972 0.9663652743911548 -0.01144875312301397
vn 0.14445487932065387 -0.4095488729843718 -0.9007788343859365
vn -0.14445487932065387 0.4095488729843718 0.9007788343859365
vn -0.06125644054473651 -0.9933815871885011 -0.09716311402298473
vn 0.06125644054473651 0.9933815871885011 0.09716311402298473
vn -0.08407195399259541 -0.9333272770289929 -0.34904455375426297
vn 0.08407195399259541 0.9333272770289929 0.34904455375426297
vn -0.1115841304896766 -0.6297606149811911 -0.7687330808813777
vn 0.1115841304896766 0.6297606149811911 0.7687330808813777
vn 0.08770828737775557 -0.984278783880378 0.15330535518443372
vn -0.08770828737775557 0.984278783880378 -0.15330535518443372
vn 0.04914733162453732 -0.9901832406538448 0.13084987475132603
vn -0.04914733162453732 0.9901832406538448 -0.13084987475132603
vn 0.148376877202256 -0.2859379582447186 -0.9466909666551953
vn -0.148376877202256 0.2859379582447186 0.9466909666551953
vn 0.005896253382712814 -0.9929139396709307 0.11868926911561267
vn -0.005896253382712814 0.9929139396709307 -0.11868926911561267
vn -0.039100413819063956 -0.992284698900025 0.11765302362482997
vn 0.039100413819063956 0.992284698900025 -0.11765302362482997
vn -0.10126468910665366 -0.80955937884011 -0.5782379050807271
vn 0.10126468910665366 0.80955937884011 0.5782379050807271
vn 0.07411201431632686 -0.977502344758009 0.1974755056369552
vn -0.07411201431632686 0.977502344758009 -0.1974755056369552
vn -0.11258107215466263 -0.28228868198894597 -0.9527006886811042
vn 0.11258107215466263 0.28228868198894597 0.9527006886811042
vn -0.11423257441623538 -0.405931350317329 -0.9067362669331083
vn 0.11423257441623538 0.405931350317329 0.9067362669331083
vn -0.08277212543590554 -0.9883384572033129 0.12781185103032408
vn 0.08277212543590554 0.9883384572033129 -0.12781185103032408
vn -0.15747612609551073 -0.9846872293995184 -0.07478188261505153
vn 0.15747612609551073 0.9846872293995184 0.07478188261505153
vn -0.2374271861080961 -0.9194701381068462 -0.31337357327408577
vn 0.2374271861080961 0.9194701381068462 0.31337357327408577
vn -0.34529294320042275 -0.6086427422291508 -0.7143716089737673
vn 0.34529294320042275 0.6086427422291508 0.7143716089737673
vn -0.019987475691254343 -0.9579588338902694 0.28620861864571256
vn 0.019987475691254343 0.9579588338902694 -0.28620861864571256
vn -0.36531330188193245 -0.38324380866499463 -0.8483338815514024
vn 0.36531330188193245 0.38324380866499463 0.8483338815514024
vn -0.301566716915021 -0.7914602077984866 -0.5316467386532826
vn 0.301566716915021 0.7914602077984866 0.5316467386532826
vn -0.36586696856177797 -0.2594018363714649 -0.8937852362858354
vn 0.36586696856177797 0.2594018363714649 0.8937852362858354
vn -0.12214564562831438 -0.9813441514468785 0.1484725485571277
vn 0.12214564562831438 0.9813441514468785 -0.1484725485571277
vn -0.2442231666843594 -0.9692774375382747 -0.029262500472439182
vn 0.2442231666843594 0.9692774375382747 0.029262500472439182
vn -0.37568803225681546 -0.8949094087500409 -0.24082286550420068
vn 0.37568803225681546 0.8949094087500409 0.24082286550420068
vn -0.5559958761125903 -0.5712135147508554 -0.6038076732799672
vn 0.5559958761125903 0.5712135147508554 0.6038076732799672
vn -0.5916795168298135 -0.34303199230300313 -0.729550821821668
vn 0.5916795168298135 0.34303199230300313 0.729550821821668
vn -0.5942189006200016 -0.21883727271941786 -0.7739600417429078
vn 0.5942189006200016 0.21883727271941786 0.7739600417429078
vn -0.11041266369855679 -0.9749219201569265 0.19322601608613937
vn 0.11041266369855679 0.9749219201569265 -0.19322601608613937
vn -0.48215228983531616 -0.7593809098044156 -0.43688648781025363
vn 0.48215228983531616 0.7593809098044156 0.43688648781025363
vn -0.2840806406641011 -0.9587998588088491 -0.0010101227670979431
vn 0.2840806406641011 0.9587998588088491 0.0010101227670979431
vn -0.4383894783075665 -0.8773369992046467 -0.1951780088427105
vn 0.4383894783075665 0.8773369992046467 0.1951780088427105
vn -0.6489002898725658 -0.5446697616617964 -0.5312845419684089
vn 0.6489002898725658 0.5446697616617964 0.5312845419684089
vn -0.6907562752500702 -0.31613682882573485 -0.6503178251152718
vn 0.6907562752500702 0.31613682882573485 0.6503178251152718
vn -0.6940853672365879 -0.19274729160278833 -0.6936093890424497
vn 0.6940853672365879 0.19274729160278833 0.6936093890424497
vn -0.5628226176429956 -0.73608498750775 -0.37604466787231766
vn 0.5628226176429956 0.73608498750775 0.37604466787231766
usemtl material_0_0
f 1//1 2//2 3//3
f 3//4 2//5 1//6
f 4//7 3//3 2//2
f 2//5 3//4 4//8
f 3//3 5//9 1//1
f 1//6 5//10 3//4
f 4//7 6//11 3//3
f 3//4 6//12 4//8
f 2//2 7//13 4//7
f 4//8 7//14 2//5
f 3//3 8//15 5//9
f 5//10 8//16 3//4
f 9//17 1//1 5//9
f 5//10 1//6 9//18
f 6//11 4//7 10//19
f 10//20 4//8 6//12
f 8//15 3//3 6//11
f 6//12 3//4 8//16
f 11//21 4//7 7//13
f 7//14 4//8 11//22
f 12//23 5//9 8//15
f 8//16 5//10 12//24
f 9//17 5//9 13//25
f 13//26 5//10 9//18
f 11//21 10//19 4//7
f 4//8 10//20 11//22
f 10//19 14//27 6//11
f 6//12 14//28 10//20
f 6//11 15//29 8//15
f 8//16 15//30 6//12
f 11//21 7//13 16//31
f 16//32 7//14 11//22
f 12//23 17//33 5//9
f 5//10 17//34 12//24
f 8//15 18//35 12//23
f 12//24 18//36 8//16
f 19//37 13//25 5//9
f 5//10 13//26 19//38
f 10//19 11//21 20//39
f 20//40 11//22 10//20
f 14//27 10//19 21//41
f 21//42 10//20 14//28
f 15//29 6//11 14//27
f 14//28 6//12 15//30
f 18//35 8//15 15//29
f 15//30 8//16 18//36
f 22//43 16//31 7//13
f 7//14 16//32 22//44
f 16//31 20//39 11//21
f 11//22 20//40 16//32
f 12//23 23//45 17//33
f 17//34 23//46 12//24
f 19//37 5//9 17//33
f 17//34 5//10 19//38
f 23//45 12//23 18//35
f 18//36 12//24 23//46
f 20//39 21//41 10//19
f 10//20 21//42 20//40
f 21//41 24//47 14//27
f 14//28 24//48 21//42
f 14//27 25//49 15//29
f 15//30 25//50 14//28
f 18//35 15//29 26//51
f 26//52 15//30 18//36
f 16//31 22//43 27//53
f 27//54 22//44 16//32
f 20//39 16//31 28//55
f 28//56 16//32 20//40
f 29//57 17//33 23//45
f 23//46 17//34 29//58
f 18//35 26//51 23//45
f 23//46 26//52 18//36
f 21//41 20//39 30//59
f 30//60 20//40 21//42
f 24//47 21//41 31//61
f 31//62 21//42 24//48
f 25//49 14//27 24//47
f 24//48 14//28 25//50
f 32//63 15//29 25//49
f 25//50 15//30 32//64
f 32//63 26//51 15//29
f 15//30 26//52 32//64
f 33//65 27//53 22//43
f 22//44 27//54 33//66
f 27//53 28//55 16//31
f 16//32 28//56 27//54
f 28//55 30//59 20//39
f 20//40 30//60 28//56
f 29//57 23//45 34//67
f 34//68 23//46 29//58
f 35//69 23//45 26//51
f 26//52 23//46 35//70
f 30//59 31//61 21//41
f 21//42 31//62 30//60
f 31//61 36//71 24//47
f 24//48 36//72 31//62
f 24//47 37//73 25//49
f 25//50 37//74 24//48
f 25//49 38//75 32//63
f 32//64 38//76 25//50
f 26//51 32//63 39//77
f 39//78 32//64 26//52
f 33//65 40//79 27//53
f 27//54 40//80 33//66
f 27//53 40//79 28//55
f 28//56 40//80 27//54
f 28//55 40//79 30//59
f 30//60 40//80 28//56
f 35//69 34//67 23//45
f 23//46 34//68 35//70
f 35//69 26//51 41//81
f 41//82 26//52 35//70
f 30//59 40//79 31//61
f 31//62 40//80 30//60
f 31//61 40//79 36//71
f 36//72 40//80 31//62
f 37//73 24//47 36//71
f 36//72 24//48 37//74
f 38//75 25//49 37//73
f 37//74 25//50 38//76
f 42//83 32//63 38//75
f 38//76 32//64 42//84
f 42//83 39//77 32//63
f 32//64 39//78 42//84
f 39//77 41//81 26//51
f 26//52 41//82 39//78
f 34//67 35//69 43//85
f 43//86 35//70 34//68
f 41//81 43//85 35//69
f 35//70 43//86 41//82
f 36//71 40//79 44//87
f 44//88 40//80 36//72
f 36//71 44//87 37//73
f 37//74 44//88 36//72
f 37//73 45//89 38//75
f 38//76 45//90 37//74
f 38//75 46//91 42//83
f 42//84 46//92 38//76
f 39//77 42//83 47//93
f 47//94 42//84 39//78
f 41//81 39//77 48//95
f 48//96 39//78 41//82
f 43//85 41//81 49//97
f 49//98 41//82 43//86
f 50//99 44//87 40//79
f 40//80 44//88 50//100
f 45//89 37//73 44//87
f 44//88 37//74 45//90
f 46//91 38//75 45//89
f 45//90 38//76 46//92
f 51//101 42//83 46//91
f 46//92 42//84 51//102
f 51//101 47//93 42//83
f 42//84 47//94 51//102
f 47//93 48//95 39//77
f 39//78 48//96 47//94
f 48//95 49//97 41//81
f 41//82 49//98 48//96
f 44//87 50//99 45//89
f 45//90 50//100 44//88
f 45//89 52//103 46//91
f 46//92 52//104 45//90
f 46//91 53//105 51//101
f 51//102 53//106 46//92
f 47//93 51//101 54//107
f 54//108 51//102 47//94
f 48//95 47//93 55//109
f 55//110 47//94 48//96
f 49//97 48//95 56//111
f 56//112 48//96 49//98
f 52//103 45//89 50//99
f 50//100 45//90 52//104
f 53//105 46//91 52//103
f 52//104 46//92 53//106
f 57//113 51//101 53//105
f 53//106 51//102 57//114
f 57//113 54//107 51//101
f 51//102 54//108 57//114
f 54//107 55//109 47//93
f 47//94 55//110 54//108
f 55//109 56//111 48//95
f 48//96 56//112 55//110
