# SSTK version 0.8.0
# 5
mtllib original-5.mtl
o globe_quarter3/globe_quarter/mesh1/mesh1-geometry#mesh1-geometry
v 0.417267 0.453943 0.265025
v 0.313268 0.584095 0.220195
v 0.364833 0.469427 0.313192
v 0.358294 0.570798 0.178834
v 0.446175 0.315907 0.332810
v 0.422797 0.538867 0.076465
v 0.238727 0.668712 0.111847
v 0.389907 0.332524 0.384499
v 0.492381 0.416759 0.145814
v 0.322771 0.634007 0.001559
v 0.273276 0.658508 0.080109
v 0.388344 0.257620 0.406878
v 0.526783 0.276004 0.204881
v 0.457355 0.503776 -0.038573
v 0.349288 0.607081 -0.086713
v 0.168007 0.711098 -0.024420
v 0.444612 0.241003 0.355189
v 0.525220 0.201100 0.227260
v 0.532626 0.375895 0.011849
v 0.199120 0.695696 -0.073799
v 0.215790 0.678769 -0.129289
v 0.146288 0.717512 -0.004469
v 0.569970 0.232151 0.061118
v 0.535256 0.334135 -0.127741
v 0.351022 0.579565 -0.178691
v 0.216880 0.661472 -0.187109
v 0.049660 0.724982 -0.127632
v 0.060272 0.719729 -0.144474
v 0.568408 0.157247 0.083498
v 0.459614 0.467916 -0.158442
v 0.065958 0.713956 -0.163400
v 0.066330 0.708056 -0.183122
v 0.042252 0.727170 -0.120827
v 0.571231 0.112433 -0.066301
v 0.572794 0.187337 -0.088680
v 0.500094 0.294325 -0.263442
v 0.327853 0.553333 -0.268108
v 0.202315 0.644982 -0.243319
v 0.061362 0.702431 -0.202294
v -0.012020 0.712099 -0.175061
v 0.535060 0.144616 -0.234306
v 0.429420 0.433730 -0.274972
v 0.533497 0.069712 -0.211927
v 0.429536 0.259178 -0.386008
v 0.459342 0.106899 -0.365835
v 0.281361 0.530174 -0.348869
v 0.173089 0.630424 -0.294087
v 0.051393 0.697466 -0.219610
v 0.457779 0.031995 -0.343456
v 0.368830 0.403549 -0.380221
v 0.044248 0.695482 -0.226750
v 0.378963 0.245134 -0.436547
v 0.405070 0.091828 -0.420070
v 0.403507 0.016923 -0.397690
v 0.248037 0.520920 -0.382169
v 0.152141 0.624607 -0.315021
v 0.325402 0.391489 -0.423620
vn 0.7293339948460723 0.5200232430488789 0.44457592225715026
vn 0.5628227101280433 0.7360849261968966 0.37604464946311084
vn 0.6489003404545416 0.5446696981586799 0.53128454529161
vn 0.6307126396076806 0.7155080249263451 0.3004160989446344
vn -0.6489003404545416 -0.5446696981586799 -0.53128454529161
vn -0.5628227101280433 -0.7360849261968966 -0.37604464946311084
vn -0.7293339948460723 -0.5200232430488789 -0.44457592225715026
vn -0.6307126396076806 -0.7155080249263451 -0.3004160989446344
vn 0.7779015339563088 0.28803683488504606 0.5584836481203604
vn -0.7779015339563088 -0.28803683488504606 -0.5584836481203604
vn 0.7371254693554302 0.6628309400145945 0.131533978069949
vn -0.7371254693554302 -0.6628309400145945 -0.131533978069949
vn 0.4383896065727344 0.8773369436784642 0.19517797033972534
vn -0.4383896065727344 -0.8773369436784642 -0.19517797033972534
vn 0.6907562802776104 0.31613676676427793 0.6503178499448312
vn -0.6907562802776104 -0.31613676676427793 -0.6503178499448312
vn 0.8534938440047943 0.45856077668433604 0.24752832632363123
vn -0.8534938440047943 -0.45856077668433604 -0.24752832632363123
vn 0.5709013196281676 0.820988521933893 0.007037762401394747
vn -0.5709013196281676 -0.820988521933893 -0.007037762401394747
vn 0.48942909497015225 0.8613193741379671 0.13633817048529856
vn -0.48942909497015225 -0.8613193741379671 -0.13633817048529856
vn 0.6940853489905914 0.19274723168503044 0.693609423951525
vn -0.6940853489905914 -0.19274723168503044 -0.693609423951525
vn 0.9112912542197033 0.22200551038776506 0.3467878362055802
vn -0.9112912542197033 -0.22200551038776506 -0.3467878362055802
vn 0.7941376422325498 0.6049400712530411 -0.058248737168219225
vn -0.7941376422325498 -0.6049400712530411 0.058248737168219225
vn 0.6145508541916463 0.7766662056256444 -0.13826370692044215
vn -0.6145508541916463 -0.7766662056256444 0.13826370692044215
vn 0.3155875805946353 0.9482020948167811 -0.03629416426221761
vn -0.3155875805946353 -0.9482020948167811 0.03629416426221761
vn 0.7820758611129376 0.163359278980536 0.6013909655418981
vn -0.7820758611129376 -0.163359278980536 -0.6013909655418981
vn 0.9166358415489675 0.09674867858219376 0.38783814559738145
vn -0.9166358415489675 -0.09674867858219376 -0.38783814559738145
vn 0.920014397596958 0.39101490133266303 0.02609320122396849
vn -0.920014397596958 -0.39101490133266303 -0.02609320122396849
vn 0.3667044679677073 0.9228979046452224 -0.11741929472611612
vn -0.3667044679677073 -0.9228979046452224 0.11741929472611612
vn 0.39409166683735414 0.895088672813022 -0.20858577595602884
vn -0.39409166683735414 -0.895088672813022 0.20858577595602884
vn 0.28408079642701317 0.9587998127165903 0.001010067336892817
vn -0.28408079642701317 -0.9587998127165903 -0.001010067336892817
vn 0.9827564997730484 0.14943876321019428 0.10889315039998507
vn -0.9827564997730484 -0.14943876321019428 -0.10889315039998507
vn 0.9243627346649556 0.3219886814874714 -0.20463827539510893
vn -0.9243627346649556 -0.3219886814874714 0.20463827539510893
vn 0.6174041989920724 0.7313718531394396 -0.28966751198976265
vn -0.6174041989920724 -0.7313718531394396 0.28966751198976265
vn 0.3958818996928281 0.8666703273473144 -0.3035787627474897
vn -0.3958818996928281 -0.8666703273473144 0.3035787627474897
vn 0.1545371342521738 0.9717783102360533 -0.17822791557970497
vn -0.1545371342521738 -0.9717783102360533 0.17822791557970497
vn 0.1777384710301166 0.960293006192744 -0.21504971093488867
vn -0.1777384710301166 -0.960293006192744 0.21504971093488867
vn 0.9887288888158492 0.023544602684651 0.1478541041209141
vn -0.9887288888158492 -0.023544602684651 -0.1478541041209141
vn 0.7978644603138358 0.5457800136729771 -0.25600093680148167
vn -0.7978644603138358 -0.5457800136729771 0.25600093680148167
vn 0.19016938304345218 0.94767101913025 -0.25642785584547284
vn -0.19016938304345218 -0.94767101913025 0.25642785584547284
vn 0.19098197426830796 0.9347718689945371 -0.2995453862790063
vn -0.19098197426830796 -0.9347718689945371 0.2995453862790063
vn 0.11041283681304055 0.9749218870348951 -0.19322608428267654
vn -0.11041283681304055 -0.9749218870348951 0.19322608428267654
vn 0.9934414835376608 -0.05126395054710894 -0.10220580297025945
vn -0.9934414835376608 0.05126395054710894 0.10220580297025945
vn 0.9874280923667005 0.07528108757518744 -0.13899107978052294
vn -0.9874280923667005 -0.07528108757518744 0.13899107978052294
vn 0.8662425610643965 0.256185661162676 -0.4289437403847245
vn -0.8662425610643965 -0.256185661162676 0.4289437403847245
vn 0.5792668436829368 0.688193181774784 -0.43685245606303674
vn -0.5792668436829368 -0.688193181774784 0.43685245606303674
vn 0.37195321105109397 0.8395788116836782 -0.395927048533696
vn -0.37195321105109397 -0.8395788116836782 0.395927048533696
vn 0.18012079403786038 0.9224757858966519 -0.3414599888559787
vn -0.18012079403786038 -0.9224757858966519 0.3414599888559787
vn 0.019987653201899793 0.9579588084205247 -0.2862086914980206
vn -0.019987653201899793 -0.9579588084205247 0.2862086914980206
vn 0.9249876342109772 0.004586934899812161 -0.37996952060001393
vn -0.9249876342109772 -0.004586934899812161 0.37996952060001393
vn 0.7480519076714883 0.4893831312869181 -0.448243788848053
vn -0.7480519076714883 -0.4893831312869181 0.448243788848053
vn 0.9304524850993545 -0.12257898630716997 -0.3453006879349387
vn -0.9304524850993545 0.12257898630716997 0.3453006879349387
vn 0.7496143120883143 0.19809067247863094 -0.6315365932306118
vn -0.7496143120883143 -0.19809067247863094 0.6315365932306118
vn 0.799689398625787 -0.05782687960529831 -0.5976227218911956
vn -0.799689398625787 0.05782687960529831 0.5976227218911956
vn 0.5027367720596421 0.6500717982440448 -0.5697915365700033
vn -0.5027367720596421 -0.6500717982440448 0.5697915365700033
vn 0.32393710968018513 0.8156608283978652 -0.479335124927598
vn -0.32393710968018513 -0.8156608283978652 0.479335124927598
vn 0.1583268699221493 0.9116196912219192 -0.3793179943492104
vn -0.1583268699221493 -0.9116196912219192 0.3793179943492104
vn 0.8040549687548367 -0.18554025894357462 -0.5648631865609672
vn -0.8040549687548367 0.18554025894357462 0.5648631865609672
vn 0.648094131675958 0.43959200621205236 -0.6218784966226514
vn -0.648094131675958 -0.43959200621205236 0.6218784966226514
vn 0.11374515365778305 0.9220243811849052 -0.3700447007051445
vn -0.11374515365778305 -0.9220243811849052 0.3700447007051445
vn 0.672486852970272 0.17025434962117603 -0.7202602925451399
vn -0.672486852970272 -0.17025434962117603 0.7202602925451399
vn 0.7160677118606766 -0.08566028217018587 -0.6927548975569492
vn -0.7160677118606766 0.08566028217018587 0.6927548975569492
vn 0.7196151902483091 -0.21251688414587885 -0.6610526090386581
vn -0.7196151902483091 0.21251688414587885 0.6610526090386581
vn 0.4539312134011638 0.6306277782437346 -0.6294879338061362
vn -0.4539312134011638 -0.6306277782437346 0.6294879338061362
vn 0.2938506532046625 0.8037121379310709 -0.5173959730742601
vn -0.2938506532046625 -0.8037121379310709 0.5173959730742601
vn 0.5830769173568492 0.4145672034010808 -0.6986811449508573
vn -0.5830769173568492 -0.4145672034010808 0.6986811449508573
usemtl material_0_0
f 1//1 2//2 3//3
f 2//2 1//1 4//4
f 3//5 2//6 1//7
f 4//8 1//7 2//6
f 3//3 5//9 1//1
f 1//7 5//10 3//5
f 1//1 6//11 4//4
f 4//8 6//12 1//7
f 4//4 7//13 2//2
f 2//6 7//14 4//8
f 5//9 3//3 8//15
f 8//16 3//5 5//10
f 5//9 9//17 1//1
f 1//7 9//18 5//10
f 6//11 1//1 9//17
f 9//18 1//7 6//12
f 10//19 4//4 6//11
f 6//12 4//8 10//20
f 7//13 4//4 11//21
f 11//22 4//8 7//14
f 12//23 5//9 8//15
f 8//16 5//10 12//24
f 9//17 5//9 13//25
f 13//26 5//10 9//18
f 9//17 14//27 6//11
f 6//12 14//28 9//18
f 4//4 10//19 11//21
f 11//22 10//20 4//8
f 6//11 15//29 10//19
f 10//20 15//30 6//12
f 16//31 7//13 11//21
f 11//22 7//14 16//32
f 5//9 12//23 17//33
f 17//34 12//24 5//10
f 5//9 18//35 13//25
f 13//26 18//36 5//10
f 13//25 19//37 9//17
f 9//18 19//38 13//26
f 14//27 9//17 19//37
f 19//38 9//18 14//28
f 15//29 6//11 14//27
f 14//28 6//12 15//30
f 20//39 11//21 10//19
f 10//20 11//22 20//40
f 21//41 10//19 15//29
f 15//30 10//20 21//42
f 7//13 16//31 22//43
f 22//44 16//32 7//14
f 11//21 20//39 16//31
f 16//32 20//40 11//22
f 18//35 5//9 17//33
f 17//34 5//10 18//36
f 18//35 23//45 13//25
f 13//26 23//46 18//36
f 19//37 13//25 23//45
f 23//46 13//26 19//38
f 24//47 14//27 19//37
f 19//38 14//28 24//48
f 14//27 25//49 15//29
f 15//30 25//50 14//28
f 10//19 21//41 20//39
f 20//40 21//42 10//20
f 15//29 26//51 21//41
f 21//42 26//52 15//30
f 27//53 22//43 16//31
f 16//32 22//44 27//54
f 28//55 16//31 20//39
f 20//40 16//32 28//56
f 23//45 18//35 29//57
f 29//58 18//36 23//46
f 23//45 24//47 19//37
f 19//38 24//48 23//46
f 14//27 24//47 30//59
f 30//60 24//48 14//28
f 25//49 14//27 30//59
f 30//60 14//28 25//50
f 26//51 15//29 25//49
f 25//50 15//30 26//52
f 31//61 20//39 21//41
f 21//42 20//40 31//62
f 32//63 21//41 26//51
f 26//52 21//42 32//64
f 22//43 27//53 33//65
f 33//66 27//54 22//44
f 16//31 28//55 27//53
f 27//54 28//56 16//32
f 20//39 31//61 28//55
f 28//56 31//62 20//40
f 34//67 23//45 29//57
f 29//58 23//46 34//68
f 24//47 23//45 35//69
f 35//70 23//46 24//48
f 36//71 30//59 24//47
f 24//48 30//60 36//72
f 30//59 37//73 25//49
f 25//50 37//74 30//60
f 25//49 38//75 26//51
f 26//52 38//76 25//50
f 21//41 32//63 31//61
f 31//62 32//64 21//42
f 26//51 39//77 32//63
f 32//64 39//78 26//52
f 27//53 40//79 33//65
f 33//66 40//80 27//54
f 28//55 40//79 27//53
f 27//54 40//80 28//56
f 31//61 40//79 28//55
f 28//56 40//80 31//62
f 23//45 34//67 35//69
f 35//70 34//68 23//46
f 41//81 24//47 35//69
f 35//70 24//48 41//82
f 30//59 36//71 42//83
f 42//84 36//72 30//60
f 24//47 41//81 36//71
f 36//72 41//82 24//48
f 37//73 30//59 42//83
f 42//84 30//60 37//74
f 38//75 25//49 37//73
f 37//74 25//50 38//76
f 39//77 26//51 38//75
f 38//76 26//52 39//78
f 32//63 40//79 31//61
f 31//62 40//80 32//64
f 39//77 40//79 32//63
f 32//64 40//80 39//78
f 43//85 35//69 34//67
f 34//68 35//70 43//86
f 35//69 43//85 41//81
f 41//82 43//86 35//70
f 44//87 42//83 36//71
f 36//72 42//84 44//88
f 45//89 36//71 41//81
f 41//82 36//72 45//90
f 42//83 46//91 37//73
f 37//74 46//92 42//84
f 37//73 47//93 38//75
f 38//76 47//94 37//74
f 38//75 48//95 39//77
f 39//78 48//96 38//76
f 48//95 40//79 39//77
f 39//78 40//80 48//96
f 49//97 41//81 43//85
f 43//86 41//82 49//98
f 42//83 44//87 50//99
f 50//100 44//88 42//84
f 36//71 45//89 44//87
f 44//88 45//90 36//72
f 41//81 49//97 45//89
f 45//90 49//98 41//82
f 46//91 42//83 50//99
f 50//100 42//84 46//92
f 47//93 37//73 46//91
f 46//92 37//74 47//94
f 48//95 38//75 47//93
f 47//94 38//76 48//96
f 40//79 48//95 51//101
f 51//102 48//96 40//80
f 52//103 50//99 44//87
f 44//88 50//100 52//104
f 53//105 44//87 45//89
f 45//90 44//88 53//106
f 54//107 45//89 49//97
f 49//98 45//90 54//108
f 50//99 55//109 46//91
f 46//92 55//110 50//100
f 46//91 56//111 47//93
f 47//94 56//112 46//92
f 47//93 51//101 48//95
f 48//96 51//102 47//94
f 50//99 52//103 57//113
f 57//114 52//104 50//100
f 44//87 53//105 52//103
f 52//104 53//106 44//88
f 45//89 54//107 53//105
f 53//106 54//108 45//90
f 55//109 50//99 57//113
f 57//114 50//100 55//110
f 56//111 46//91 55//109
f 55//110 46//92 56//112
f 51//101 47//93 56//111
f 56//112 47//94 51//102
