# SSTK version 0.8.0
# 21
mtllib original-21.mtl
o mesh12/mesh12-geometry#mesh12-geometry
v -0.209435 -0.417528 -0.085025
v -0.216035 -0.425543 0.014296
v -0.264821 -0.401171 -0.034147
v -0.172542 -0.438388 -0.025657
v -0.247189 -0.410121 0.063739
v -0.119673 -0.447779 -0.053400
v -0.097536 -0.439445 0.117640
v -0.284111 -0.391701 0.041236
v -0.108162 -0.434185 0.134504
v -0.134130 -0.435993 -0.096539
v -0.064669 -0.447030 0.094550
v -0.082701 -0.443826 0.104013
v -0.263880 -0.393173 0.119300
v -0.113855 -0.428404 0.153455
v -0.061032 -0.453078 -0.067040
v -0.044668 -0.448837 0.089898
v 0.025982 -0.413645 0.212621
v -0.006886 -0.406061 0.235711
v -0.330715 -0.357283 0.097985
v -0.026887 -0.404253 0.240364
v -0.067503 -0.436055 -0.138476
v 0.042301 -0.424686 0.176806
v 0.011147 -0.409264 0.226249
v -0.264971 -0.375853 0.177194
v -0.114227 -0.422497 0.173202
v -0.047494 -0.403965 0.239889
v -0.000615 -0.453923 -0.065648
v -0.024060 -0.449125 0.090373
v 0.036608 -0.418905 0.195757
v 0.042673 -0.430593 0.157060
v 0.146101 -0.349901 0.292767
v 0.049739 -0.327665 0.360463
v 0.102608 -0.337056 0.332720
v -0.377635 -0.307061 0.170124
v -0.008902 -0.322366 0.374103
v 0.011089 -0.434706 -0.146976
v 0.177254 -0.365323 0.243325
v 0.193945 -0.382271 0.187763
v -0.250388 -0.359342 0.233476
v -0.109253 -0.416865 0.192398
v -0.067303 -0.405216 0.234320
v -0.069320 -0.321521 0.372711
v 0.057462 -0.450256 -0.049320
v -0.004251 -0.447874 0.095942
v 0.037699 -0.436225 0.137863
v 0.195036 -0.399591 0.129869
v 0.187950 -0.312366 0.315843
v 0.081993 -0.258615 0.422862
v 0.139906 -0.289811 0.370294
v -0.376087 -0.267576 0.258297
v 0.002877 -0.243475 0.449027
v 0.092314 -0.426642 -0.137582
v 0.190671 -0.355996 0.246563
v 0.226910 -0.363422 0.187236
v -0.221124 -0.344765 0.284310
v -0.099272 -0.411893 0.209737
v -0.127396 -0.325188 0.356383
v -0.083915 -0.232596 0.456155
v 0.109239 -0.442328 -0.019168
v 0.013409 -0.445170 0.106226
v 0.027717 -0.441197 0.120525
v 0.180453 -0.416102 0.073587
v 0.216376 -0.389035 0.124219
v -0.329535 -0.244387 0.339162
v -0.084963 -0.407920 0.224035
v 0.169344 -0.412717 -0.105375
v -0.262802 -0.225855 0.405849
v -0.179174 -0.333116 0.326231
v -0.128829 -0.209985 0.468323
v 0.202815 -0.407711 -0.023378
v 0.151189 -0.430679 0.022753
v 0.211497 -0.402069 0.056806
v -0.274597 -0.202664 0.414889
v -0.180435 -0.213243 0.453814
v -0.222904 -0.194749 0.444992
v -0.201621 -0.145128 0.486893
v 0.194782 -0.410395 0.027771
v -0.203277 -0.165077 0.473394
v -0.232081 -0.127699 0.483216
vn -0.31254407442284754 -0.9401032238569362 -0.13609603240712326
vn -0.3155870880789484 -0.948202264639022 0.03629401012949611
vn -0.40586794029094525 -0.9125428657517224 -0.05036599259043293
vn -0.2442231170925573 -0.9692774647192225 -0.029262014029646937
vn 0.40586794029094525 0.9125428657517224 0.05036599259043293
vn 0.3155870880789484 0.948202264639022 -0.03629401012949611
vn 0.31254407442284754 0.9401032238569362 0.13609603240712326
vn 0.2442231170925573 0.9692774647192225 0.029262014029646937
vn -0.36670404334790413 -0.9228981090953303 0.11741901388004351
vn 0.36670404334790413 0.9228981090953303 -0.11741901388004351
vn -0.15747603731639231 -0.98468723333693 -0.07478201772076053
vn 0.15747603731639231 0.98468723333693 0.07478201772076053
vn -0.15453707501370528 -0.9717784717101309 0.17822708651305263
vn 0.15453707501370528 0.9717784717101309 -0.17822708651305263
vn -0.4727149186320607 -0.8794518486208457 0.05572299040845801
vn 0.4727149186320607 0.8794518486208457 -0.05572299040845801
vn -0.17773901152006558 -0.9602930622409168 0.21504901393829456
vn 0.17773901152006558 0.9602930622409168 -0.21504901393829456
vn -0.1991020368778818 -0.9602551778594409 -0.195623036233498
vn 0.1991020368778818 0.9602551778594409 0.195623036233498
vn -0.08277304041419516 -0.9883384825593469 0.12781106240414966
vn 0.08277304041419516 0.9883384825593469 -0.12781106240414966
vn -0.1221460228146806 -0.9813441832974465 0.14847202773190468
vn 0.1221460228146806 0.9813441832974465 -0.14847202773190468
vn -0.3940910519358839 -0.8950891179606699 0.20858502748869234
vn 0.3940910519358839 0.8950891179606699 -0.20858502748869234
vn -0.19016901027045802 -0.947671051180872 0.2564280138489079
vn 0.19016901027045802 0.947671051180872 -0.2564280138489079
vn -0.06125697345913561 -0.9933815695966673 -0.09716295790211742
vn 0.06125697345913561 0.9933815695966673 0.09716295790211742
vn -0.0390999890591599 -0.9922847223419048 0.1176529670787041
vn 0.0390999890591599 0.9922847223419048 -0.1176529670787041
vn 0.11516103037297722 -0.9154442414425003 0.3856161017037535
vn -0.11516103037297722 0.9154442414425003 -0.3856161017037535
vn 0.04339600947560649 -0.8988841962731836 0.43603209520849023
vn -0.04339600947560649 0.8988841962731836 -0.43603209520849023
vn -0.5085288854282008 -0.8430858100523669 0.17494196058549305
vn 0.5085288854282008 0.8430858100523669 -0.17494196058549305
vn -0.0002759999298268888 -0.894937772461653 0.4461908865557582
vn 0.0002759999298268888 0.894937772461653 -0.4461908865557582
vn -0.07327498797810345 -0.9716248405898977 -0.22489096310315493
vn 0.07327498797810345 0.9716248405898977 0.22489096310315493
vn 0.1507929180735513 -0.9395514895375866 0.30741583297963976
vn -0.1507929180735513 0.9395514895375866 -0.30741583297963976
vn 0.0827700114980797 -0.9058781258409745 0.41537205770182856
vn -0.0827700114980797 0.9058781258409745 -0.41537205770182856
vn -0.39588122480082144 -0.8666704921381122 0.30357917238717824
vn 0.39588122480082144 0.8666704921381122 -0.30357917238717824
vn -0.19098199777190852 -0.9347719890944828 0.2995449965053581
vn 0.19098199777190852 0.9347719890944828 -0.2995449965053581
vn -0.04527197474978948 -0.8943085012040441 0.445154751717232
vn 0.04527197474978948 0.8943085012040441 -0.445154751717232
vn 0.03787699516399814 -0.9947678729915278 -0.09487998788605623
vn -0.03787699516399814 0.9947678729915278 0.09487998788605623
vn 0.005895999843953522 -0.9929139737210426 0.11868899685871748
vn -0.005895999843953522 0.9929139737210426 -0.11868899685871748
vn 0.13836204385316495 -0.9269292937856516 0.34879511054888357
vn -0.13836204385316495 0.9269292937856516 -0.34879511054888357
vn 0.15160507277606178 -0.95245045721157 0.2642991268733902
vn -0.15160507277606178 0.95245045721157 -0.2642991268733902
vn 0.278609076760851 -0.8240872270480116 0.493211135886838
vn -0.278609076760851 0.8240872270480116 -0.493211135886838
vn 0.12049803272865586 -0.787602213921848 0.6042871641313652
vn -0.12049803272865586 0.787602213921848 -0.6042871641313652
vn 0.20724495440684043 -0.803011823340229 0.5587678770730361
vn -0.20724495440684043 0.803011823340229 -0.5587678770730361
vn -0.5108701734728937 -0.8059222736618346 0.2991671015862452
vn 0.5108701734728937 0.8059222736618346 -0.2991671015862452
vn 0.024278001505576033 -0.7789080483032054 0.6266680388621927
vn -0.024278001505576033 0.7789080483032054 -0.6266680388621927
vn 0.0563639924087571 -0.973437868894963 -0.22190497011328608
vn -0.0563639924087571 0.973437868894963 0.22190497011328608
vn 0.3297258555576855 -0.84939162790879 0.4120858194784286
vn -0.3297258555576855 0.84939162790879 -0.4120858194784286
vn 0.35711283294801255 -0.8772005896588183 0.3209198498785429
vn -0.35711283294801255 0.8772005896588183 -0.3209198498785429
vn -0.37195297753794637 -0.8395789492982487 0.39592697609016847
vn 0.37195297753794637 0.8395789492982487 -0.39592697609016847
vn -0.18012095705763792 -0.9224757800739593 0.34145991859306246
vn 0.18012095705763792 0.9224757800739593 -0.34145991859306246
vn -0.08852403230539084 -0.8970393273597612 0.4329941580141021
vn 0.08852403230539084 0.8970393273597612 -0.4329941580141021
vn -0.07485498653605935 -0.7775218601494883 0.6243848876937733
vn 0.07485498653605935 0.7775218601494883 -0.6243848876937733
vn 0.13316896831850697 -0.9887517647715338 -0.0680879838015644
vn -0.13316896831850697 0.9887517647715338 0.0680879838015644
vn 0.049148015722600184 -0.9901833167626642 0.1308490418590075
vn -0.049148015722600184 0.9901833167626642 -0.1308490418590075
vn 0.1407449597124648 -0.9647467238461137 0.22238393634371906
vn -0.1407449597124648 0.9647467238461137 -0.22238393634371906
vn 0.35890305490391683 -0.9056191385389094 0.2259260345614894
vn -0.35890305490391683 0.9056191385389094 -0.2259260345614894
vn 0.3711741672307029 -0.7502353380148568 0.5471532465172149
vn -0.3711741672307029 0.7502353380148568 -0.5471532465172149
vn 0.1644090733189824 -0.7025233132935028 0.6924093087831158
vn -0.1644090733189824 0.7025233132935028 -0.6924093087831158
vn 0.27784990694613676 -0.7226747579712054 0.6328827880431594
vn -0.27784990694613676 0.7226747579712054 -0.6328827880431594
vn -0.4795782525594025 -0.7704944057640348 0.41993222114812384
vn 0.4795782525594025 0.7704944057640348 -0.41993222114812384
vn 0.03858099809691515 -0.6911529659074985 0.7216779644017918
vn -0.03858099809691515 0.6911529659074985 -0.7216779644017918
vn 0.18098003780673386 -0.9655702017076363 -0.18687003903715546
vn -0.18098003780673386 0.9655702017076363 0.18687003903715546
vn 0.43802111589755544 -0.7833262072630504 0.44106411670271367
vn -0.43802111589755544 0.7833262072630504 -0.44106411670271367
vn 0.47383567467164495 -0.8196924372116613 0.32184477902627806
vn -0.47383567467164495 0.8196924372116613 -0.32184477902627806
vn -0.32393698556617806 -0.8156609636561875 0.479334978642032
vn 0.32393698556617806 0.8156609636561875 -0.479334978642032
vn -0.15832695183275292 -0.9116197226611646 0.37931788460146487
vn 0.15832695183275292 0.9116197226611646 -0.37931788460146487
vn -0.1701469670009348 -0.7835378480371589 0.5975938840999641
vn 0.1701469670009348 0.7835378480371589 -0.5975938840999641
vn -0.09105796519268969 -0.6893407364964519 0.7186917252769063
vn 0.09105796519268969 0.6893407364964519 -0.7186917252769063
vn 0.21812601394370584 -0.9757430623743771 -0.0186150011899642
vn -0.21812601394370584 0.9757430623743771 0.0186150011899642
vn 0.08770898063618349 -0.984278782697352 0.15330496615432956
vn -0.08770898063618349 0.984278782697352 -0.15330496615432956
vn 0.1189509762879579 -0.9756028055204293 0.18452596321604436
vn -0.1189509762879579 0.9756028055204293 -0.18452596321604436
vn 0.33497507638002066 -0.9327102126738087 0.13357903045829306
vn -0.33497507638002066 0.9327102126738087 -0.13357903045829306
vn 0.4761769978033955 -0.8568559960473232 0.19761899908838335
vn -0.4761769978033955 0.8568559960473232 -0.19761899908838335
vn -0.45610984608644256 -0.6741407725122459 0.5809458039607428
vn 0.45610984608644256 0.6741407725122459 -0.5809458039607428
vn -0.12708495330378627 -0.9029436682215367 0.41053884915122224
vn 0.12708495330378627 0.9029436682215367 -0.41053884915122224
vn 0.29207986849618023 -0.9485585729281985 -0.12217194499423237
vn -0.29207986849618023 0.9485585729281985 0.12217194499423237
vn -0.3930309104883995 -0.619606858886413 0.6794218452637305
vn 0.3930309104883995 0.619606858886413 -0.6794218452637305
vn -0.25510411284124757 -0.7965463523396121 0.5481202424522728
vn 0.25510411284124757 0.7965463523396121 -0.5481202424522728
vn -0.18397395244595896 -0.5892918476783898 0.7866947966531883
vn 0.18397395244595896 0.5892918476783898 -0.7866947966531883
vn 0.3820930082354418 -0.9235620199059943 -0.032220000694454
vn -0.3820930082354418 0.9235620199059943 0.032220000694454
vn 0.28695813586782254 -0.9566284529407207 0.05017002375430758
vn -0.28695813586782254 0.9566284529407207 -0.05017002375430758
vn 0.4448849797786435 -0.8922839594430182 0.07685499650670974
vn -0.4448849797786435 0.8922839594430182 -0.07685499650670974
vn -0.45272794170924396 -0.5142249337912301 0.7284299062113776
vn 0.45272794170924396 0.5142249337912301 -0.7284299062113776
vn -0.25762400371880256 -0.5988730086447321 0.7582750109456998
vn 0.25762400371880256 0.5988730086447321 -0.7582750109456998
vn -0.37861301930888586 -0.49695202534405714 0.7808270398213991
vn 0.37861301930888586 0.49695202534405714 -0.7808270398213991
vn -0.29527199965482703 -0.4901149994270558 0.8201229990412762
vn 0.29527199965482703 0.4901149994270558 -0.8201229990412762
vn 0.4200590202044193 -0.9073110436407549 0.018360000883097503
vn -0.4200590202044193 0.9073110436407549 -0.018360000883097503
usemtl material_0_0
f 1//1 2//2 3//3
f 2//2 1//1 4//4
f 3//5 2//6 1//7
f 4//8 1//7 2//6
f 5//9 3//3 2//2
f 2//6 3//5 5//10
f 1//1 6//11 4//4
f 4//8 6//12 1//7
f 4//4 7//13 2//2
f 2//6 7//14 4//8
f 3//3 5//9 8//15
f 8//16 5//10 3//5
f 2//2 9//17 5//9
f 5//10 9//18 2//6
f 6//11 1//1 10//19
f 10//20 1//7 6//12
f 11//21 4//4 6//11
f 6//12 4//8 11//22
f 7//13 4//4 12//23
f 12//24 4//8 7//14
f 9//17 2//2 7//13
f 7//14 2//6 9//18
f 13//25 8//15 5//9
f 5//10 8//16 13//26
f 14//27 5//9 9//17
f 9//18 5//10 14//28
f 10//19 15//29 6//11
f 6//12 15//30 10//20
f 4//4 11//21 12//23
f 12//24 11//22 4//8
f 6//11 16//31 11//21
f 11//22 16//32 6//12
f 17//33 7//13 12//23
f 12//24 7//14 17//34
f 18//35 9//17 7//13
f 7//14 9//18 18//36
f 8//15 13//25 19//37
f 19//38 13//26 8//16
f 5//9 14//27 13//25
f 13//26 14//28 5//10
f 20//39 14//27 9//17
f 9//18 14//28 20//40
f 15//29 10//19 21//41
f 21//42 10//20 15//30
f 16//31 6//11 15//29
f 15//30 6//12 16//32
f 17//33 12//23 11//21
f 11//22 12//24 17//34
f 22//43 11//21 16//31
f 16//32 11//22 22//44
f 23//45 7//13 17//33
f 17//34 7//14 23//46
f 20//39 9//17 18//35
f 18//36 9//18 20//40
f 18//35 7//13 23//45
f 23//46 7//14 18//36
f 24//47 19//37 13//25
f 13//26 19//38 24//48
f 25//49 13//25 14//27
f 14//28 13//26 25//50
f 26//51 14//27 20//39
f 20//40 14//28 26//52
f 21//41 27//53 15//29
f 15//30 27//54 21//42
f 15//29 28//55 16//31
f 16//32 28//56 15//30
f 17//33 11//21 29//57
f 29//58 11//22 17//34
f 29//57 11//21 22//43
f 22//44 11//22 29//58
f 22//43 16//31 30//59
f 30//60 16//32 22//44
f 31//61 23//45 17//33
f 17//34 23//46 31//62
f 32//63 20//39 18//35
f 18//36 20//40 32//64
f 33//65 18//35 23//45
f 23//46 18//36 33//66
f 19//37 24//47 34//67
f 34//68 24//48 19//38
f 13//25 25//49 24//47
f 24//48 25//50 13//26
f 26//51 25//49 14//27
f 14//28 25//50 26//52
f 35//69 26//51 20//39
f 20//40 26//52 35//70
f 27//53 21//41 36//71
f 36//72 21//42 27//54
f 28//55 15//29 27//53
f 27//54 15//30 28//56
f 30//59 16//31 28//55
f 28//56 16//32 30//60
f 29//57 31//61 17//33
f 17//34 31//62 29//58
f 22//43 37//73 29//57
f 29//58 37//74 22//44
f 30//59 38//75 22//43
f 22//44 38//76 30//60
f 23//45 31//61 33//65
f 33//66 31//62 23//46
f 20//39 32//63 35//69
f 35//70 32//64 20//40
f 18//35 33//65 32//63
f 32//64 33//66 18//36
f 39//77 34//67 24//47
f 24//48 34//68 39//78
f 40//79 24//47 25//49
f 25//50 24//48 40//80
f 41//81 25//49 26//51
f 26//52 25//50 41//82
f 26//51 35//69 42//83
f 42//84 35//70 26//52
f 36//71 43//85 27//53
f 27//54 43//86 36//72
f 27//53 44//87 28//55
f 28//56 44//88 27//54
f 30//59 28//55 45//89
f 45//90 28//56 30//60
f 31//61 29//57 37//73
f 37//74 29//58 31//62
f 37//73 22//43 38//75
f 38//76 22//44 37//74
f 38//75 30//59 46//91
f 46//92 30//60 38//76
f 47//93 33//65 31//61
f 31//62 33//66 47//94
f 48//95 35//69 32//63
f 32//64 35//70 48//96
f 49//97 32//63 33//65
f 33//66 32//64 49//98
f 34//67 39//77 50//99
f 50//100 39//78 34//68
f 24//47 40//79 39//77
f 39//78 40//80 24//48
f 41//81 40//79 25//49
f 25//50 40//80 41//82
f 42//83 41//81 26//51
f 26//52 41//82 42//84
f 51//101 42//83 35//69
f 35//70 42//84 51//102
f 43//85 36//71 52//103
f 52//104 36//72 43//86
f 44//87 27//53 43//85
f 43//86 27//54 44//88
f 45//89 28//55 44//87
f 44//88 28//56 45//90
f 45//89 46//91 30//59
f 30//60 46//92 45//90
f 37//73 47//93 31//61
f 31//62 47//94 37//74
f 38//75 53//105 37//73
f 37//74 53//106 38//76
f 46//91 54//107 38//75
f 38//76 54//108 46//92
f 33//65 47//93 49//97
f 49//98 47//94 33//66
f 35//69 48//95 51//101
f 51//102 48//96 35//70
f 32//63 49//97 48//95
f 48//96 49//98 32//64
f 55//109 50//99 39//77
f 39//78 50//100 55//110
f 56//111 39//77 40//79
f 40//80 39//78 56//112
f 41//81 56//111 40//79
f 40//80 56//112 41//82
f 41//81 42//83 57//113
f 57//114 42//84 41//82
f 42//83 51//101 58//115
f 58//116 51//102 42//84
f 52//103 59//117 43//85
f 43//86 59//118 52//104
f 43//85 60//119 44//87
f 44//88 60//120 43//86
f 45//89 44//87 61//121
f 61//122 44//88 45//90
f 46//91 45//89 62//123
f 62//124 45//90 46//92
f 47//93 37//73 53//105
f 53//106 37//74 47//94
f 53//105 38//75 54//107
f 54//108 38//76 53//106
f 54//107 46//91 63//125
f 63//126 46//92 54//108
f 50//99 55//109 64//127
f 64//128 55//110 50//100
f 39//77 56//111 55//109
f 55//110 56//112 39//78
f 56//111 41//81 65//129
f 65//130 41//82 56//112
f 58//115 57//113 42//83
f 42//84 57//114 58//116
f 57//113 65//129 41//81
f 41//82 65//130 57//114
f 59//117 52//103 66//131
f 66//132 52//104 59//118
f 60//119 43//85 59//117
f 59//118 43//86 60//120
f 61//121 44//87 60//119
f 60//120 44//88 61//122
f 61//121 62//123 45//89
f 45//90 62//124 61//122
f 62//123 63//125 46//91
f 46//92 63//126 62//124
f 55//109 67//133 64//127
f 64//128 67//134 55//110
f 56//111 68//135 55//109
f 55//110 68//136 56//112
f 68//135 56//111 65//129
f 65//130 56//112 68//136
f 69//137 57//113 58//115
f 58//116 57//114 69//138
f 65//129 57//113 68//135
f 68//136 57//114 65//130
f 70//139 59//117 66//131
f 66//132 59//118 70//140
f 59//117 61//121 60//119
f 60//120 61//122 59//118
f 62//123 61//121 71//141
f 71//142 61//122 62//124
f 63//125 62//123 72//143
f 72//144 62//124 63//126
f 67//133 55//109 68//135
f 68//136 55//110 67//134
f 67//133 73//145 64//127
f 64//128 73//146 67//134
f 57//113 69//137 74//147
f 74//148 69//138 57//114
f 74//147 68//135 57//113
f 57//114 68//136 74//148
f 59//117 70//139 71//141
f 71//142 70//140 59//118
f 61//121 59//117 71//141
f 71//142 59//118 61//122
f 71//141 72//143 62//123
f 62//124 72//144 71//142
f 68//135 74//147 67//133
f 67//134 74//148 68//136
f 67//133 75//149 73//145
f 73//146 75//150 67//134
f 69//137 76//151 74//147
f 74//148 76//152 69//138
f 77//153 71//141 70//139
f 70//140 71//142 77//154
f 72//143 71//141 77//153
f 77//154 71//142 72//144
f 74//147 75//149 67//133
f 67//134 75//150 74//148
f 76//151 78//149 74//147
f 74//148 78//150 76//152
f 74//147 78//149 75//149
f 75//150 78//150 74//148
f 78//149 76//151 79//149
f 79//150 76//152 78//150
