# SSTK version 0.8.0
# 24
mtllib original-24.mtl
o mesh15/mesh15-geometry#mesh15-geometry
v 0.231573 -0.072957 -0.503663
v 0.245328 -0.059230 -0.499278
v 0.256466 -0.063847 -0.490820
v 0.245489 -0.051535 -0.501577
v 0.215118 -0.040590 -0.524127
v 0.251585 -0.018628 -0.508000
v 0.214388 -0.075589 -0.513671
v 0.263488 -0.028510 -0.497417
v 0.202593 -0.066305 -0.520046
v 0.277253 -0.031076 -0.487944
v 0.188316 -0.058108 -0.526835
v 0.271278 -0.011466 -0.497825
v 0.192260 -0.064383 -0.523736
v 0.289349 -0.007187 -0.487773
v 0.192696 -0.077206 -0.519694
v 0.171171 -0.087524 -0.523013
v 0.160553 -0.081179 -0.528138
vn 0.5154521791822908 -0.25516208869984325 -0.8180472843708735
vn -0.5154521791822908 0.25516208869984325 0.8180472843708735
vn 0.39922291746346483 -0.270100944158526 -0.8761658188588689
vn -0.39922291746346483 0.270100944158526 0.8761658188588689
vn 0.276162093229991 -0.2804180946667809 -0.91929331034566
vn -0.276162093229991 0.2804180946667809 0.91929331034566
usemtl material_0_0
f 1//1 2//1 3//1
f 2//1 1//1 4//1
f 3//2 2//2 1//2
f 4//2 1//2 2//2
f 5//3 4//1 1//1
f 1//2 4//2 5//4
f 6//1 4//1 5//3
f 5//4 4//2 6//2
f 5//3 1//1 7//3
f 7//4 1//2 5//4
f 8//1 4//1 6//1
f 6//2 4//2 8//2
f 9//5 5//3 7//3
f 7//4 5//4 9//6
f 8//1 10//1 4//1
f 4//2 10//2 8//2
f 5//3 9//5 11//5
f 11//6 9//6 5//4
f 12//1 10//1 8//1
f 8//2 10//2 12//2
f 11//5 9//5 13//5
f 13//6 9//6 11//6
f 10//1 12//1 14//1
f 14//2 12//2 10//2
f 13//5 9//5 15//5
f 15//6 9//6 13//6
f 16//5 13//5 15//5
f 15//6 13//6 16//6
f 13//5 16//5 17//5
f 17//6 16//6 13//6
