# SSTK version 0.8.0
# 7
mtllib original-7.mtl
o globe_quarter5/globe_quarter12/mesh2/mesh2-geometry#mesh2-geometry
v -0.426744 0.041151 0.426398
v -0.373183 -0.105204 0.413471
v -0.376171 0.055195 0.476936
v -0.329755 -0.093144 0.456869
v -0.398580 0.209528 0.464155
v -0.222551 -0.076729 0.519298
v -0.295818 -0.234635 0.372021
v -0.251329 0.074311 0.549637
v -0.452851 0.194457 0.409921
v -0.180234 -0.212786 0.453225
v -0.262495 -0.225382 0.405322
v -0.264608 0.230042 0.542172
v -0.451289 0.269361 0.387542
v -0.087967 -0.206961 0.479166
v -0.102306 -0.069138 0.553105
v -0.178974 -0.332504 0.325806
v -0.263045 0.304947 0.519793
v -0.111301 0.083152 0.589006
v -0.397017 0.284433 0.441776
v -0.127263 -0.324586 0.355919
v -0.069261 -0.320924 0.372226
v -0.199922 -0.338322 0.304872
v -0.114339 0.239529 0.584420
v -0.008921 -0.321768 0.373616
v 0.008020 -0.208303 0.481377
v 0.034373 0.081114 0.592360
v -0.084885 -0.407213 0.223741
v -0.067247 -0.404512 0.234012
v -0.112776 0.314434 0.562041
v -0.047464 -0.403263 0.239575
v -0.026883 -0.403551 0.240048
v 0.022787 -0.070887 0.555986
v -0.092030 -0.409197 0.216601
v 0.043551 0.312248 0.565641
v 0.041988 0.237343 0.588021
v -0.006907 -0.405356 0.235402
v 0.049644 -0.327060 0.359993
v 0.101185 -0.216721 0.459706
v 0.175763 0.068338 0.559472
v -0.035762 -0.425814 0.164912
v 0.193719 0.223633 0.552727
v 0.144202 -0.081858 0.527745
v 0.195282 0.298537 0.530348
v 0.011102 -0.408555 0.225952
v 0.102445 -0.336440 0.332287
v 0.185179 -0.231642 0.415631
v 0.303236 0.045694 0.492583
v 0.330513 0.199333 0.480946
v 0.332076 0.274237 0.458567
v 0.018510 -0.410743 0.219147
v 0.253665 -0.101303 0.470305
v 0.124164 -0.342854 0.312336
v 0.219728 -0.241845 0.383893
v 0.355669 0.030210 0.444417
v 0.386781 0.182715 0.429257
v 0.388344 0.257620 0.406878
v 0.298690 -0.114600 0.428944
vn -0.6724867743514523 -0.17025451209092754 0.7202603275448807
vn -0.5830768012818468 -0.414567349243538 0.698681155283378
vn -0.5824257189704262 -0.15166264156396297 0.7986104964471874
vn 0.5824257189704262 0.15166264156396297 -0.7986104964471874
vn 0.5830768012818468 0.414567349243538 -0.698681155283378
vn 0.6724867743514523 0.17025451209092754 -0.7202603275448807
vn -0.5048042609981414 -0.39980063598151167 0.7650700030369114
vn 0.5048042609981414 0.39980063598151167 -0.7650700030369114
vn -0.62007399334594 0.10770583784555278 0.7771149820136056
vn 0.62007399334594 -0.10770583784555278 -0.7771149820136056
vn -0.32794552998511844 -0.37271990501783336 0.8680619803713772
vn 0.32794552998511844 0.37271990501783336 -0.8680619803713772
vn -0.4539310676005565 -0.6306278981959386 0.6294879187752471
vn 0.4539310676005565 0.6306278981959386 -0.6294879187752471
vn -0.37607117909343385 -0.12006541207716495 0.9187789533277386
vn 0.37607117909343385 0.12006541207716495 -0.9187789533277386
vn -0.716067676261152 0.08566011358295732 0.6927549552005449
vn 0.716067676261152 -0.08566011358295732 -0.6927549552005449
vn -0.2576234083576529 -0.598873064828355 0.7582751688465601
vn 0.2576234083576529 0.598873064828355 -0.7582751688465601
vn -0.39303089962228455 -0.619606675054177 0.679422019197498
vn 0.39303089962228455 0.619606675054177 -0.679422019197498
vn -0.39837942880365945 0.1416518144701974 0.9062166375450028
vn 0.39837942880365945 -0.1416518144701974 -0.9062166375450028
vn -0.7196151774312879 0.21251671673314415 0.6610526768113874
vn 0.7196151774312879 -0.21251671673314415 -0.6610526768113874
vn -0.10574516298265713 -0.5892844574887667 0.8009755231390913
vn 0.10574516298265713 0.5892844574887667 -0.8009755231390913
vn -0.12957265116146519 -0.36019576288388294 0.923834368526895
vn 0.12957265116146519 0.36019576288388294 -0.923834368526895
vn -0.2551044868328642 -0.7965461645804022 0.5481203412481532
vn 0.2551044868328642 0.7965461645804022 -0.5481203412481532
vn -0.39922332853704395 0.27010098010334227 0.8761656204731029
vn 0.39922332853704395 -0.27010098010334227 -0.8761656204731029
vn -0.14461325933605904 -0.1054526767810667 0.9838530063906444
vn 0.14461325933605904 0.1054526767810667 -0.9838530063906444
vn -0.6228626240113816 0.23585714031466531 0.7459313379743772
vn 0.6228626240113816 -0.23585714031466531 -0.7459313379743772
vn -0.17014768085802567 -0.7835376138085847 0.597593987959873
vn 0.17014768085802567 0.7835376138085847 -0.597593987959873
vn -0.0748547052950873 -0.7775213069194781 0.6243856103253922
vn 0.0748547052950873 0.7775213069194781 -0.6243856103253922
vn -0.293850487154785 -0.8037122242121418 0.5173959333536237
vn 0.293850487154785 0.8037122242121418 -0.5173959333536237
vn -0.14971691382182492 0.15735087123850056 0.976127834372196
vn 0.14971691382182492 -0.15735087123850056 -0.976127834372196
vn 0.02427824099807729 -0.7789076034125196 0.6266685825539718
vn -0.02427824099807729 0.7789076034125196 -0.6266685825539718
vn 0.05225708353804746 -0.5914939960282594 0.804614224260682
vn -0.05225708353804746 0.5914939960282594 -0.804614224260682
vn 0.09617389556453697 -0.10881989113617724 0.98939820755096
vn -0.09617389556453697 0.10881989113617724 -0.98939820755096
vn -0.12708452929686762 -0.9029438057797511 0.4105386778579729
vn 0.12708452929686762 0.9029438057797511 -0.4105386778579729
vn -0.08852357426207347 -0.8970393696871323 0.43299416396896107
vn 0.08852357426207347 0.8970393696871323 -0.43299416396896107
vn -0.1483768885387129 0.28593795900142616 0.946690964649853
vn 0.1483768885387129 -0.28593795900142616 -0.946690964649853
vn -0.04527249246268056 -0.894308492808473 0.44515471593239814
vn 0.04527249246268056 0.894308492808473 -0.44515471593239814
vn -0.00027582529565720607 -0.8949377352131138 0.4461909613741953
vn 0.00027582529565720607 0.8949377352131138 -0.4461909613741953
vn 0.07679793348296872 -0.3630816934190131 0.9285869702492746
vn -0.07679793348296872 0.3630816934190131 -0.9285869702492746
vn -0.11374497820431646 -0.9220244277958501 0.3700446384978906
vn 0.11374497820431646 0.9220244277958501 -0.3700446384978906
vn 0.11258106077977756 0.28228868317151007 0.9527006896748815
vn -0.11258106077977756 -0.28228868317151007 -0.9527006896748815
vn 0.10897053974591109 0.15373334272445574 0.9820852716552925
vn -0.10897053974591109 -0.15373334272445574 -0.9820852716552925
vn 0.043395882702587825 -0.89888415764866 0.4360321874503324
vn -0.043395882702587825 0.89888415764866 -0.4360321874503324
vn 0.12049792486101599 -0.7876020640662824 0.6042873809560485
vn -0.12049792486101599 0.7876020640662824 -0.6042873809560485
vn 0.20561231842522823 -0.6053510553176836 0.7689432191895376
vn -0.20561231842522823 0.6053510553176836 -0.7689432191895376
vn 0.32988271445977224 -0.12993760913701563 0.9350366904204392
vn -0.32988271445977224 0.12993760913701563 -0.9350366904204392
vn -0.019987477420293095 -0.9579588336301941 0.28620861939545306
vn 0.019987477420293095 0.9579588336301941 -0.28620861939545306
vn 0.3600512705393916 0.13104579070423658 0.9236828911058552
vn -0.3600512705393916 -0.13104579070423658 -0.9236828911058552
vn 0.27709996069076215 -0.38118099043965137 0.8819958414372624
vn -0.27709996069076215 0.38118099043965137 -0.8819958414372624
vn 0.3658669608109892 0.25940183751508655 0.8937852391266745
vn -0.3658669608109892 -0.25940183751508655 -0.8937852391266745
vn 0.08276940357554875 -0.9058784445315817 0.41537148381273103
vn -0.08276940357554875 0.9058784445315817 -0.41537148381273103
vn 0.20724496832571457 -0.8030117564062726 0.5587679681021335
vn -0.20724496832571457 0.8030117564062726 -0.5587679681021335
vn 0.3438731681128013 -0.6299117009733008 0.6963924850463192
vn -0.3438731681128013 0.6299117009733008 -0.6963924850463192
vn 0.5405856473127741 -0.16736705298400734 0.8244728179235976
vn -0.5405856473127741 0.16736705298400734 -0.8244728179235976
vn 0.5864174923488576 0.09083404974760556 0.8048998074752702
vn -0.5864174923488576 -0.09083404974760556 -0.8048998074752702
vn 0.5942188982508918 0.21883727290547217 0.773960043509219
vn -0.5942188982508918 -0.21883727290547217 -0.773960043509219
vn 0.07077969972427166 -0.924604856478185 0.37429412696954856
vn -0.07077969972427166 0.924604856478185 -0.37429412696954856
vn 0.45768553656579575 -0.41326029681916837 0.7872355916061041
vn -0.45768553656579575 0.41326029681916837 -0.7872355916061041
vn 0.247148588434958 -0.8112776675049563 0.5298548116628979
vn -0.247148588434958 0.8112776675049563 -0.5298548116628979
vn 0.40667521007186347 -0.6426628001297593 0.6493071683281977
vn -0.40667521007186347 0.6426628001297593 -0.6493071683281977
vn 0.6336025588011143 -0.18851912179694844 0.7503388156010509
vn -0.6336025588011143 0.18851912179694844 -0.7503388156010509
vn 0.685538505422408 0.06605980361907797 0.7250331440210304
vn -0.685538505422408 -0.06605980361907797 -0.7250331440210304
vn 0.6940853673483912 0.1927472909738349 0.6936093891053499
vn -0.6940853673483912 -0.1927472909738349 -0.6936093891053499
vn 0.5384874108995031 -0.4302515381079421 0.7245101257115045
vn -0.5384874108995031 0.4302515381079421 -0.7245101257115045
usemtl material_0_0
f 1//1 2//2 3//3
f 3//4 2//5 1//6
f 4//7 3//3 2//2
f 2//5 3//4 4//8
f 3//3 5//9 1//1
f 1//6 5//10 3//4
f 4//7 6//11 3//3
f 3//4 6//12 4//8
f 2//2 7//13 4//7
f 4//8 7//14 2//5
f 3//3 8//15 5//9
f 5//10 8//16 3//4
f 9//17 1//1 5//9
f 5//10 1//6 9//18
f 6//11 4//7 10//19
f 10//20 4//8 6//12
f 8//15 3//3 6//11
f 6//12 3//4 8//16
f 11//21 4//7 7//13
f 7//14 4//8 11//22
f 12//23 5//9 8//15
f 8//16 5//10 12//24
f 9//17 5//9 13//25
f 13//26 5//10 9//18
f 11//21 10//19 4//7
f 4//8 10//20 11//22
f 10//19 14//27 6//11
f 6//12 14//28 10//20
f 6//11 15//29 8//15
f 8//16 15//30 6//12
f 11//21 7//13 16//31
f 16//32 7//14 11//22
f 12//23 17//33 5//9
f 5//10 17//34 12//24
f 8//15 18//35 12//23
f 12//24 18//36 8//16
f 19//37 13//25 5//9
f 5//10 13//26 19//38
f 10//19 11//21 20//39
f 20//40 11//22 10//20
f 14//27 10//19 21//41
f 21//42 10//20 14//28
f 15//29 6//11 14//27
f 14//28 6//12 15//30
f 18//35 8//15 15//29
f 15//30 8//16 18//36
f 22//43 16//31 7//13
f 7//14 16//32 22//44
f 16//31 20//39 11//21
f 11//22 20//40 16//32
f 12//23 23//45 17//33
f 17//34 23//46 12//24
f 19//37 5//9 17//33
f 17//34 5//10 19//38
f 23//45 12//23 18//35
f 18//36 12//24 23//46
f 20//39 21//41 10//19
f 10//20 21//42 20//40
f 21//41 24//47 14//27
f 14//28 24//48 21//42
f 14//27 25//49 15//29
f 15//30 25//50 14//28
f 18//35 15//29 26//51
f 26//52 15//30 18//36
f 16//31 22//43 27//53
f 27//54 22//44 16//32
f 20//39 16//31 28//55
f 28//56 16//32 20//40
f 29//57 17//33 23//45
f 23//46 17//34 29//58
f 18//35 26//51 23//45
f 23//46 26//52 18//36
f 21//41 20//39 30//59
f 30//60 20//40 21//42
f 24//47 21//41 31//61
f 31//62 21//42 24//48
f 25//49 14//27 24//47
f 24//48 14//28 25//50
f 32//63 15//29 25//49
f 25//50 15//30 32//64
f 32//63 26//51 15//29
f 15//30 26//52 32//64
f 33//65 27//53 22//43
f 22//44 27//54 33//66
f 27//53 28//55 16//31
f 16//32 28//56 27//54
f 28//55 30//59 20//39
f 20//40 30//60 28//56
f 29//57 23//45 34//67
f 34//68 23//46 29//58
f 35//69 23//45 26//51
f 26//52 23//46 35//70
f 30//59 31//61 21//41
f 21//42 31//62 30//60
f 31//61 36//71 24//47
f 24//48 36//72 31//62
f 24//47 37//73 25//49
f 25//50 37//74 24//48
f 25//49 38//75 32//63
f 32//64 38//76 25//50
f 26//51 32//63 39//77
f 39//78 32//64 26//52
f 33//65 40//79 27//53
f 27//54 40//80 33//66
f 27//53 40//79 28//55
f 28//56 40//80 27//54
f 28//55 40//79 30//59
f 30//60 40//80 28//56
f 35//69 34//67 23//45
f 23//46 34//68 35//70
f 35//69 26//51 41//81
f 41//82 26//52 35//70
f 30//59 40//79 31//61
f 31//62 40//80 30//60
f 31//61 40//79 36//71
f 36//72 40//80 31//62
f 37//73 24//47 36//71
f 36//72 24//48 37//74
f 38//75 25//49 37//73
f 37//74 25//50 38//76
f 42//83 32//63 38//75
f 38//76 32//64 42//84
f 42//83 39//77 32//63
f 32//64 39//78 42//84
f 39//77 41//81 26//51
f 26//52 41//82 39//78
f 34//67 35//69 43//85
f 43//86 35//70 34//68
f 41//81 43//85 35//69
f 35//70 43//86 41//82
f 36//71 40//79 44//87
f 44//88 40//80 36//72
f 36//71 44//87 37//73
f 37//74 44//88 36//72
f 37//73 45//89 38//75
f 38//76 45//90 37//74
f 38//75 46//91 42//83
f 42//84 46//92 38//76
f 39//77 42//83 47//93
f 47//94 42//84 39//78
f 41//81 39//77 48//95
f 48//96 39//78 41//82
f 43//85 41//81 49//97
f 49//98 41//82 43//86
f 50//99 44//87 40//79
f 40//80 44//88 50//100
f 45//89 37//73 44//87
f 44//88 37//74 45//90
f 46//91 38//75 45//89
f 45//90 38//76 46//92
f 51//101 42//83 46//91
f 46//92 42//84 51//102
f 51//101 47//93 42//83
f 42//84 47//94 51//102
f 47//93 48//95 39//77
f 39//78 48//96 47//94
f 48//95 49//97 41//81
f 41//82 49//98 48//96
f 44//87 50//99 45//89
f 45//90 50//100 44//88
f 45//89 52//103 46//91
f 46//92 52//104 45//90
f 46//91 53//105 51//101
f 51//102 53//106 46//92
f 47//93 51//101 54//107
f 54//108 51//102 47//94
f 48//95 47//93 55//109
f 55//110 47//94 48//96
f 49//97 48//95 56//111
f 56//112 48//96 49//98
f 52//103 45//89 50//99
f 50//100 45//90 52//104
f 53//105 46//91 52//103
f 52//104 46//92 53//106
f 57//113 51//101 53//105
f 53//106 51//102 57//114
f 57//113 54//107 51//101
f 51//102 54//108 57//114
f 54//107 55//109 47//93
f 47//94 55//110 54//108
f 55//109 56//111 48//95
f 48//96 56//112 55//110
