# SSTK version 0.8.0
# 10
mtllib original-10.mtl
o globe_quarter8/globe_quarter12/mesh2/mesh2-geometry#mesh2-geometry
v 0.355669 0.030210 0.444416
v 0.298690 -0.114600 0.428944
v 0.408102 0.014725 0.396250
v 0.343716 -0.127897 0.387582
v 0.443049 0.166098 0.377568
v 0.408218 -0.159827 0.285214
v 0.219728 -0.241845 0.383893
v 0.483217 -0.022459 0.277039
v 0.386781 0.182716 0.429257
v 0.303772 -0.276549 0.273605
v 0.254277 -0.252048 0.352156
v 0.523658 0.126195 0.249639
v 0.388344 0.257620 0.406878
v 0.330290 -0.303475 0.185333
v 0.442777 -0.194918 0.170175
v 0.145882 -0.349268 0.292384
v 0.525220 0.201100 0.227260
v 0.523461 -0.063323 0.143074
v 0.444612 0.241003 0.355189
v 0.176996 -0.364670 0.243006
v 0.193666 -0.381596 0.187515
v 0.124164 -0.342854 0.312336
v 0.566845 0.082342 0.105877
v 0.194755 -0.398894 0.129695
v 0.332023 -0.330992 0.093355
v 0.526092 -0.105083 0.003484
v 0.025918 -0.412930 0.212342
v 0.036530 -0.418183 0.195500
v 0.568408 0.157247 0.083498
v 0.042216 -0.423957 0.176573
v 0.042587 -0.429857 0.156852
v 0.445036 -0.230779 0.050307
v 0.018510 -0.410742 0.219147
v 0.571231 0.112433 -0.066301
v 0.569668 0.037528 -0.043922
v 0.037620 -0.435481 0.137680
v 0.180191 -0.415384 0.073486
v 0.308854 -0.357223 0.003939
v 0.490930 -0.144893 -0.132218
v -0.035762 -0.425814 0.164912
v 0.531934 -0.005193 -0.189547
v 0.414842 -0.264964 -0.066223
v 0.533497 0.069712 -0.211927
v 0.027651 -0.440447 0.120363
v 0.150965 -0.429942 0.022718
v 0.262362 -0.380382 -0.076822
v 0.420372 -0.180040 -0.254783
v 0.456216 -0.042910 -0.321077
v 0.457779 0.031995 -0.343456
v 0.020506 -0.442431 0.113223
v 0.354252 -0.295145 -0.171473
v 0.130016 -0.435759 0.001784
v 0.229038 -0.389636 -0.110123
v 0.369798 -0.194084 -0.305322
v 0.401944 -0.057981 -0.375311
v 0.403507 0.016923 -0.397690
v 0.310823 -0.307205 -0.214871
vn 0.6336024780186837 -0.18851916325375248 0.7503388733996716
vn 0.5384872940812595 -0.4302515645964134 0.7245101968056635
vn 0.7139236361473468 -0.2185573034407984 0.6652411193415795
vn -0.7139236361473468 0.2185573034407984 -0.6652411193415795
vn -0.5384872940812595 0.4302515645964134 -0.7245101968056635
vn -0.6336024780186837 0.18851916325375248 -0.7503388733996716
vn 0.6062456778845112 -0.4571331475218738 0.6507652906256558
vn -0.6062456778845112 0.4571331475218738 -0.6507652906256558
vn 0.7726394680200667 0.03583889812435973 0.6338326481326916
vn -0.7726394680200667 -0.03583889812435973 -0.6338326481326916
vn 0.7126585081690825 -0.5098102251177 0.4818831654038745
vn -0.7126585081690825 0.5098102251177 -0.4818831654038745
vn 0.4066750645923981 -0.6426628118237805 0.6493072478707755
vn -0.4066750645923981 0.6426628118237805 -0.6493072478707755
vn 0.8380834898109983 -0.2800195546035616 0.46819345696607223
vn -0.8380834898109983 0.2800195546035616 -0.46819345696607223
vn 0.6855384666909391 0.06605974834461417 0.725033185678892
vn -0.6855384666909391 -0.06605974834461417 -0.725033185678892
vn 0.539086181131592 -0.7038326291312902 0.4626075220779405
vn -0.539086181131592 0.7038326291312902 -0.4626075220779405
vn 0.45761395761996143 -0.6635016922741861 0.5919079068070364
vn -0.45761395761996143 0.6635016922741861 -0.5919079068070364
vn 0.9060291864279715 -0.03019250310076663 0.42213685707028525
vn -0.9060291864279715 0.03019250310076663 -0.42213685707028525
vn 0.694085351291661 0.19274722990499915 0.6936094221435295
vn -0.694085351291661 -0.19274722990499915 -0.6936094221435295
vn 0.5827357141198589 -0.7481550255727902 0.3173060749487719
vn -0.5827357141198589 0.7481550255727902 -0.3173060749487719
vn 0.769670683330249 -0.5677009681387352 0.2921004108115737
vn -0.769670683330249 0.5677009681387352 -0.2921004108115737
vn 0.2786090613185085 -0.8240870506269716 0.4932114393849342
vn -0.2786090613185085 0.8240870506269716 -0.4932114393849342
vn 0.9166358437912423 0.09674867606915473 0.38783814092477165
vn -0.9166358437912423 -0.09674867606915473 -0.38783814092477165
vn 0.9046040393030201 -0.34756558473010285 0.24675837653032462
vn -0.9046040393030201 0.34756558473010285 -0.24675837653032462
vn 0.7820758636577179 0.16335927693371108 0.6013909627885421
vn -0.7820758636577179 -0.16335927693371108 -0.6013909627885421
vn 0.32972594716479997 -0.8493913410276984 0.4120863374991262
vn -0.32972594716479997 0.8493913410276984 -0.4120863374991262
vn 0.35711314842208247 -0.8772004705490432 0.32091982439949895
vn -0.35711314842208247 0.8772004705490432 -0.32091982439949895
vn 0.24714842286906186 -0.8112776647317579 0.5298548931365273
vn -0.24714842286906186 0.8112776647317579 -0.5298548931365273
vn 0.9774944309643588 -0.10275923998652027 0.18424216681057834
vn -0.9774944309643588 0.10275923998652027 -0.18424216681057834
vn 0.3589033813617055 -0.9056188095828075 0.22592683456586715
vn -0.3589033813617055 0.9056188095828075 -0.22592683456586715
vn 0.5855890588905825 -0.7934493637382132 0.16590226427347712
vn -0.5855890588905825 0.7934493637382132 -0.16590226427347712
vn 0.9089523753869838 -0.41659178812255643 0.016026894496780974
vn -0.9089523753869838 0.41659178812255643 -0.016026894496780974
vn 0.11516054673340162 -0.9154442354521661 0.3856162603592631
vn -0.11516054673340162 0.9154442354521661 -0.3856162603592631
vn 0.1383618834072744 -0.9269295587319596 0.34879447009516457
vn -0.1383618834072744 0.9269295587319596 -0.34879447009516457
vn 0.9887288897723261 0.023544599985728668 0.14785409815455067
vn -0.9887288897723261 -0.023544599985728668 -0.14785409815455067
vn 0.1507927993444907 -0.9395513653908052 0.30741627064637567
vn -0.1507927993444907 0.9395513653908052 -0.30741627064637567
vn 0.15160539061108708 -0.9524505141872245 0.26429873923677993
vn -0.15160539061108708 0.9524505141872245 -0.26429873923677993
vn 0.773397501000406 -0.6268610067310135 0.09434820446890947
vn -0.773397501000406 0.6268610067310135 -0.09434820446890947
vn 0.0707795240472589 -0.9246048390375948 0.37429420327318297
vn -0.0707795240472589 0.9246048390375948 -0.37429420327318297
vn 0.9934414827859976 -0.05126395300712748 -0.10220580904254764
vn -0.9934414827859976 0.05126395300712748 0.10220580904254764
vn 0.9821660220306946 -0.17691690895154125 -0.06364206545542732
vn -0.9821660220306946 0.17691690895154125 0.06364206545542732
vn 0.1407442065348033 -0.9647467753933711 0.222384189399744
vn -0.1407442065348033 0.9647467753933711 -0.222384189399744
vn 0.33497469050457296 -0.9327104164620336 0.13357857517051677
vn -0.33497469050457296 0.9327104164620336 -0.13357857517051677
vn 0.5474517051901312 -0.8366279302129942 0.018717288049798903
vn -0.5474517051901312 0.8366279302129942 -0.018717288049798903
vn 0.8508322044535257 -0.4823946251652199 -0.20827862462686958
vn -0.8508322044535257 0.4823946251652199 0.20827862462686958
vn -0.01998765393738573 -0.9579588086573355 0.2862086906540356
vn 0.01998765393738573 0.9579588086573355 -0.2862086906540356
vn 0.9197255625793854 -0.24761106033110822 -0.3046205054485621
vn -0.9197255625793854 0.24761106033110822 0.3046205054485621
vn 0.7235849455377804 -0.6832579819942014 -0.09789462003756391
vn -0.7235849455377804 0.6832579819942014 0.09789462003756391
vn 0.930452483016159 -0.12257898812908385 -0.34530069290158416
vn -0.930452483016159 0.12257898812908385 0.34530069290158416
vn 0.1189502825848624 -0.9756028495810644 0.18452617744452526
vn -0.1189502825848624 0.9756028495810644 -0.18452617744452526
vn 0.2869585908297369 -0.9566282932526144 0.05017046638812053
vn -0.2869585908297369 0.9566282932526144 -0.05017046638812053
vn 0.4709216349465035 -0.8747492149430168 -0.11422182232782059
vn -0.4709216349465035 0.8747492149430168 0.11422182232782059
vn 0.7342039508123076 -0.5404898125585814 -0.4108714167863081
vn -0.7342039508123076 0.5404898125585814 0.4108714167863081
vn 0.7944273283305177 -0.31002479130752864 -0.5222737297398361
vn -0.7944273283305177 0.31002479130752864 0.5222737297398361
vn 0.804054966299398 -0.18554025991661868 -0.5648631897365484
vn -0.804054966299398 0.18554025991661868 0.5648631897365484
vn 0.07411184103300256 -0.977502342138302 0.19747558363714995
vn -0.07411184103300256 0.977502342138302 -0.19747558363714995
vn 0.6236271691313493 -0.7330490954844973 -0.27152933088449144
vn -0.6236271691313493 0.7330490954844973 0.27152933088449144
vn 0.2569182801475824 -0.9663653146749338 0.011448839208607498
vn -0.2569182801475824 0.9663653146749338 -0.011448839208607498
vn 0.42221667182532735 -0.8893719218551488 -0.17535867999167554
vn -0.42221667182532735 0.8893719218551488 0.17535867999167554
vn 0.6571889883495301 -0.5629344484282509 -0.50120598596276
vn -0.6571889883495301 0.5629344484282509 0.50120598596276
vn 0.7108498943695304 -0.33573727474010345 -0.6180395699507563
vn -0.7108498943695304 0.33573727474010345 0.6180395699507563
vn 0.7196151880025475 -0.21251688469585456 -0.6610526113065641
vn -0.7196151880025475 0.21251688469585456 0.6610526113065641
vn 0.5587415007704113 -0.7517692141241946 -0.3502156250253829
vn -0.5587415007704113 0.7517692141241946 0.3502156250253829
usemtl material_0_0
f 1//1 2//2 3//3
f 3//4 2//5 1//6
f 4//7 3//3 2//2
f 2//5 3//4 4//8
f 3//3 5//9 1//1
f 1//6 5//10 3//4
f 4//7 6//11 3//3
f 3//4 6//12 4//8
f 2//2 7//13 4//7
f 4//8 7//14 2//5
f 3//3 8//15 5//9
f 5//10 8//16 3//4
f 9//17 1//1 5//9
f 5//10 1//6 9//18
f 6//11 4//7 10//19
f 10//20 4//8 6//12
f 8//15 3//3 6//11
f 6//12 3//4 8//16
f 11//21 4//7 7//13
f 7//14 4//8 11//22
f 12//23 5//9 8//15
f 8//16 5//10 12//24
f 9//17 5//9 13//25
f 13//26 5//10 9//18
f 11//21 10//19 4//7
f 4//8 10//20 11//22
f 10//19 14//27 6//11
f 6//12 14//28 10//20
f 6//11 15//29 8//15
f 8//16 15//30 6//12
f 11//21 7//13 16//31
f 16//32 7//14 11//22
f 12//23 17//33 5//9
f 5//10 17//34 12//24
f 8//15 18//35 12//23
f 12//24 18//36 8//16
f 19//37 13//25 5//9
f 5//10 13//26 19//38
f 10//19 11//21 20//39
f 20//40 11//22 10//20
f 14//27 10//19 21//41
f 21//42 10//20 14//28
f 15//29 6//11 14//27
f 14//28 6//12 15//30
f 18//35 8//15 15//29
f 15//30 8//16 18//36
f 22//43 16//31 7//13
f 7//14 16//32 22//44
f 16//31 20//39 11//21
f 11//22 20//40 16//32
f 12//23 23//45 17//33
f 17//34 23//46 12//24
f 19//37 5//9 17//33
f 17//34 5//10 19//38
f 23//45 12//23 18//35
f 18//36 12//24 23//46
f 20//39 21//41 10//19
f 10//20 21//42 20//40
f 21//41 24//47 14//27
f 14//28 24//48 21//42
f 14//27 25//49 15//29
f 15//30 25//50 14//28
f 18//35 15//29 26//51
f 26//52 15//30 18//36
f 16//31 22//43 27//53
f 27//54 22//44 16//32
f 20//39 16//31 28//55
f 28//56 16//32 20//40
f 29//57 17//33 23//45
f 23//46 17//34 29//58
f 18//35 26//51 23//45
f 23//46 26//52 18//36
f 21//41 20//39 30//59
f 30//60 20//40 21//42
f 24//47 21//41 31//61
f 31//62 21//42 24//48
f 25//49 14//27 24//47
f 24//48 14//28 25//50
f 32//63 15//29 25//49
f 25//50 15//30 32//64
f 32//63 26//51 15//29
f 15//30 26//52 32//64
f 33//65 27//53 22//43
f 22//44 27//54 33//66
f 27//53 28//55 16//31
f 16//32 28//56 27//54
f 28//55 30//59 20//39
f 20//40 30//60 28//56
f 29//57 23//45 34//67
f 34//68 23//46 29//58
f 35//69 23//45 26//51
f 26//52 23//46 35//70
f 30//59 31//61 21//41
f 21//42 31//62 30//60
f 31//61 36//71 24//47
f 24//48 36//72 31//62
f 24//47 37//73 25//49
f 25//50 37//74 24//48
f 25//49 38//75 32//63
f 32//64 38//76 25//50
f 26//51 32//63 39//77
f 39//78 32//64 26//52
f 33//65 40//79 27//53
f 27//54 40//80 33//66
f 27//53 40//79 28//55
f 28//56 40//80 27//54
f 28//55 40//79 30//59
f 30//60 40//80 28//56
f 35//69 34//67 23//45
f 23//46 34//68 35//70
f 35//69 26//51 41//81
f 41//82 26//52 35//70
f 30//59 40//79 31//61
f 31//62 40//80 30//60
f 31//61 40//79 36//71
f 36//72 40//80 31//62
f 37//73 24//47 36//71
f 36//72 24//48 37//74
f 38//75 25//49 37//73
f 37//74 25//50 38//76
f 42//83 32//63 38//75
f 38//76 32//64 42//84
f 42//83 39//77 32//63
f 32//64 39//78 42//84
f 39//77 41//81 26//51
f 26//52 41//82 39//78
f 34//67 35//69 43//85
f 43//86 35//70 34//68
f 41//81 43//85 35//69
f 35//70 43//86 41//82
f 36//71 40//79 44//87
f 44//88 40//80 36//72
f 36//71 44//87 37//73
f 37//74 44//88 36//72
f 37//73 45//89 38//75
f 38//76 45//90 37//74
f 38//75 46//91 42//83
f 42//84 46//92 38//76
f 39//77 42//83 47//93
f 47//94 42//84 39//78
f 41//81 39//77 48//95
f 48//96 39//78 41//82
f 43//85 41//81 49//97
f 49//98 41//82 43//86
f 50//99 44//87 40//79
f 40//80 44//88 50//100
f 45//89 37//73 44//87
f 44//88 37//74 45//90
f 46//91 38//75 45//89
f 45//90 38//76 46//92
f 51//101 42//83 46//91
f 46//92 42//84 51//102
f 51//101 47//93 42//83
f 42//84 47//94 51//102
f 47//93 48//95 39//77
f 39//78 48//96 47//94
f 48//95 49//97 41//81
f 41//82 49//98 48//96
f 44//87 50//99 45//89
f 45//90 50//100 44//88
f 45//89 52//103 46//91
f 46//92 52//104 45//90
f 46//91 53//105 51//101
f 51//102 53//106 46//92
f 47//93 51//101 54//107
f 54//108 51//102 47//94
f 48//95 47//93 55//109
f 55//110 47//94 48//96
f 49//97 48//95 56//111
f 56//112 48//96 49//98
f 52//103 45//89 50//99
f 50//100 45//90 52//104
f 53//105 46//91 52//103
f 52//104 46//92 53//106
f 57//113 51//101 53//105
f 53//106 51//102 57//114
f 57//113 54//107 51//101
f 51//102 54//108 57//114
f 54//107 55//109 47//93
f 47//94 55//110 54//108
f 55//109 56//111 48//95
f 48//96 56//112 55//110
