# SSTK version 0.8.0
# 16
mtllib original-16.mtl
o mesh7/mesh7-geometry#mesh7-geometry
v 0.070417 0.664354 0.265765
v 0.059582 0.700036 0.202047
v 0.046599 0.678112 0.249153
v 0.125183 0.684939 0.204289
v 0.120369 0.694543 0.187908
v 0.144087 0.690330 0.175462
v 0.064831 0.713731 0.137951
v 0.071892 0.734064 0.043251
v 0.013250 0.739363 0.056891
v 0.163267 0.691148 0.142148
v 0.020167 0.721168 0.133249
v 0.144756 0.701520 0.112881
v -0.025800 0.729548 0.099613
v 0.108198 0.727615 0.024200
v 0.162107 0.701045 0.089425
v 0.145229 0.709443 0.068565
v 0.127223 0.721888 0.027130
vn 0.1847500083110717 0.8705480391620396 0.4560850205172134
vn 0.16274396014848452 0.9263027731739519 0.3398199167874579
vn 0.2717870319102455 0.8629181013143572 0.4260330500201175
vn -0.1847500083110717 -0.8705480391620396 -0.4560850205172134
vn -0.16274396014848452 -0.9263027731739519 -0.3398199167874579
vn -0.2717870319102455 -0.8629181013143572 -0.4260330500201175
vn 0.23742795251916282 0.9194698161244446 0.3133739373314865
vn -0.23742795251916282 -0.9194698161244446 -0.3133739373314865
vn 0.31060997228520526 0.9068229190869149 0.2849449745752161
vn -0.31060997228520526 -0.9068229190869149 -0.2849449745752161
vn 0.13795397596421186 0.9662078316571409 0.2177409620628868
vn -0.13795397596421186 -0.9662078316571409 -0.2177409620628868
vn 0.1991020368778818 0.9602551778594409 0.195623036233498
vn -0.1991020368778818 -0.9602551778594409 -0.195623036233498
vn 0.07327498797810345 0.9716248405898977 0.22489096310315493
vn -0.07327498797810345 -0.9716248405898977 -0.22489096310315493
vn 0.25940205580153863 0.9502082044050101 0.1726700371440919
vn -0.25940205580153863 -0.9502082044050101 -0.1726700371440919
vn 0.008284000084575499 0.9728990099328124 0.23108200235923193
vn -0.008284000084575499 -0.9728990099328124 -0.23108200235923193
usemtl material_0_0
f 1//1 2//2 3//1
f 2//2 1//1 4//3
f 3//4 2//5 1//4
f 4//6 1//4 2//5
f 2//2 4//3 5//7
f 5//8 4//6 2//5
f 6//9 5//7 4//3
f 4//6 5//8 6//10
f 5//7 7//11 2//2
f 2//5 7//12 5//8
f 6//9 8//13 5//7
f 5//8 8//14 6//10
f 9//15 7//11 5//7
f 5//8 7//12 9//16
f 8//13 6//9 10//17
f 10//18 6//10 8//14
f 9//15 5//7 8//13
f 8//14 5//8 9//16
f 7//11 9//15 11//15
f 11//16 9//16 7//12
f 8//13 10//17 12//17
f 12//18 10//18 8//14
f 9//15 13//19 11//15
f 11//16 13//20 9//16
f 8//13 12//17 14//17
f 14//18 12//18 8//14
f 14//17 12//17 15//17
f 15//18 12//18 14//18
f 14//17 15//17 16//17
f 16//18 15//18 14//18
f 17//17 14//17 16//17
f 16//18 14//18 17//18
