# SSTK version 0.8.0
# 24
mtllib original-24.mtl
o mesh24/mesh24-geometry#mesh24-geometry
v -0.002285 0.404711 -0.415055
v -0.009798 -0.351923 -0.644276
v -0.009798 0.404122 -0.413129
v -0.002285 -0.351334 -0.646201
v -0.012166 -0.352615 -0.642012
v 0.005228 -0.351923 -0.644276
v -0.012166 0.403430 -0.410866
v 0.005228 0.404122 -0.413129
v -0.013032 -0.353561 -0.638919
v 0.007595 -0.352615 -0.642012
v -0.013032 0.402485 -0.407773
v 0.007595 0.403430 -0.410866
v -0.011019 -0.355758 -0.631735
v 0.008462 -0.353561 -0.638919
v -0.011019 0.400288 -0.400588
v 0.008462 0.402485 -0.407773
v -0.005519 -0.357365 -0.626475
v 0.006449 -0.355758 -0.631735
v -0.005519 0.398680 -0.395328
v 0.006449 0.400288 -0.400588
v -0.002285 -0.357619 -0.625646
v 0.000949 -0.357365 -0.626475
v -0.002285 0.398427 -0.394500
v 0.000949 0.398680 -0.395328
vn 0 0.29237190652740075 -0.9563046942651348
vn -0.42099517572152856 0.26520011069335586 -0.8674283620607705
vn -0.5750542888955587 0.23919412016625266 -0.7823673930454383
vn 0.5750542888955587 -0.23919412016625266 0.7823673930454383
vn 0.42099517572152856 -0.26520011069335586 0.8674283620607705
vn 0 -0.29237190652740075 0.9563046942651348
vn 0 0.2923709920086238 -0.9563049738613166
vn 0 -0.2923709920086238 0.9563049738613166
vn -0.818096100433983 0.16813802064154945 -0.5499530675152675
vn 0.818096100433983 -0.16813802064154945 0.5499530675152675
vn 0.42099682124626114 0.2651998873970799 -0.8674276316933418
vn -0.42099682124626114 -0.2651998873970799 0.8674276316933418
vn -0.9070602124580173 0.12308902883077734 -0.40260509430099445
vn 0.9070602124580173 -0.12308902883077734 0.40260509430099445
vn 0.5750573341880536 0.23919313900438235 -0.7823654546628187
vn -0.5750573341880536 -0.23919313900438235 0.7823654546628187
vn -0.9960359344757781 0.026006998289129668 -0.08506499440399952
vn 0.9960359344757781 -0.026006998289129668 0.08506499440399952
vn 0.818098249162904 0.1681370512084166 -0.5499501674947733
vn -0.818098249162904 -0.1681370512084166 0.5499501674947733
vn -0.9960348061342944 -0.02601099493728547 0.08507698344083027
vn 0.9960348061342944 0.02601099493728547 -0.08507698344083027
vn 0.9070608665346204 0.12308798188877414 -0.4026039407606592
vn -0.9070608665346204 -0.12308798188877414 0.4026039407606592
vn -0.9070713426512533 -0.1230820464949288 0.4025821520776509
vn 0.9070713426512533 0.1230820464949288 -0.4025821520776509
vn 0.9960359344757781 0.026006998289129668 -0.08506499440399952
vn -0.9960359344757781 -0.026006998289129668 0.08506499440399952
vn -0.8660242358786203 -0.1461870398168964 0.47815413023461917
vn 0.8660242358786203 0.1461870398168964 -0.47815413023461917
vn 0.9960348061342944 -0.02601099493728547 0.08507698344083027
vn -0.9960348061342944 0.02601099493728547 -0.08507698344083027
vn -0.7070958245766186 -0.20674194870939633 0.6762198322366426
vn 0.7070958245766186 0.20674194870939633 -0.6762198322366426
vn 0.9070713426512533 -0.1230820464949288 0.4025821520776509
vn -0.9070713426512533 0.1230820464949288 -0.4025821520776509
vn -0.7071096253758945 -0.20673789047101823 0.6762066417481827
vn 0.7071096253758945 0.20673789047101823 -0.6762066417481827
vn 0.8181101039490764 -0.168132021362856 0.5499340698746275
vn -0.8181101039490764 0.168132021362856 -0.5499340698746275
vn 9.999996802951534e-7 -0.2923719065272546 0.9563046942646567
vn -0.2588010053444996 -0.2824110058320698 0.923724019075825
vn 0.2588010053444996 0.2824110058320698 -0.923724019075825
vn -9.999996802951534e-7 0.2923719065272546 -0.9563046942646567
vn 0.575053169678376 -0.23919407057792844 0.7823682308499073
vn -0.575053169678376 0.23919407057792844 -0.7823682308499073
vn 0.42096493344439684 -0.2652039580705945 0.8674418628552837
vn -0.42096493344439684 0.2652039580705945 -0.8674418628552837
usemtl material_0_0
f 1//1 2//2 3//3
f 3//4 2//5 1//6
f 4//7 2//2 1//1
f 1//6 2//5 4//8
f 3//3 2//2 5//9
f 5//10 2//5 3//4
f 6//11 4//7 1//1
f 1//6 4//8 6//12
f 3//3 5//9 7//13
f 7//14 5//10 3//4
f 6//11 1//1 8//15
f 8//16 1//6 6//12
f 7//13 5//9 9//17
f 9//18 5//10 7//14
f 8//15 10//19 6//11
f 6//12 10//20 8//16
f 7//13 9//17 11//21
f 11//22 9//18 7//14
f 8//15 12//23 10//19
f 10//20 12//24 8//16
f 11//21 9//17 13//25
f 13//26 9//18 11//22
f 12//23 14//27 10//19
f 10//20 14//28 12//24
f 11//21 13//25 15//29
f 15//30 13//26 11//22
f 12//23 16//31 14//27
f 14//28 16//32 12//24
f 15//29 13//25 17//33
f 17//34 13//26 15//30
f 16//31 18//35 14//27
f 14//28 18//36 16//32
f 15//37 17//37 19//37
f 19//38 17//38 15//38
f 15//38 19//38 17//38
f 17//37 19//37 15//37
f 16//31 20//39 18//35
f 18//36 20//40 16//32
f 21//41 19//42 17//42
f 17//43 19//43 21//44
f 20//39 22//45 18//35
f 18//36 22//46 20//40
f 23//41 19//42 21//41
f 21//44 19//43 23//44
f 20//39 24//47 22//45
f 22//46 24//48 20//40
f 24//47 23//41 21//41
f 21//44 23//44 24//48
f 24//47 21//41 22//45
f 22//46 21//44 24//48
