# SSTK version 0.8.0
# 25
mtllib original-25.mtl
o mesh25/mesh25-geometry#mesh25-geometry
v -0.002285 0.504325 0.495117
v 0.005228 0.516110 -0.295388
v -0.002285 0.518122 -0.295353
v 0.005228 0.502312 0.495082
v -0.009798 0.516110 -0.295388
v 0.007595 0.499945 0.495040
v -0.009798 0.502312 0.495082
v 0.007595 0.513742 -0.295430
v -0.012166 0.499945 0.495040
v 0.008462 0.496712 0.494985
v -0.012166 0.513742 -0.295430
v 0.008462 0.510509 -0.295486
v -0.013032 0.496712 0.494985
v 0.006449 0.502998 -0.295618
v -0.013032 0.510509 -0.295486
v 0.006449 0.489199 0.494853
v -0.011019 0.502998 -0.295618
v 0.000949 0.497498 -0.295713
v -0.011019 0.489199 0.494853
v 0.000949 0.483701 0.494757
v -0.005519 0.497498 -0.295713
v -0.002285 0.482834 0.494742
v -0.005519 0.483701 0.494757
v -0.002285 0.496632 -0.295728
vn 0 0.9998477023413838 0.017451994804472112
vn 0.5000110675299994 0.8658871169441243 0.015114002041251913
vn 0 -0.9998477023413838 -0.017451994804472112
vn -0.5000110675299994 -0.8658871169441243 -0.015114002041251913
vn -0.5000091345972272 0.865888233088052 0.015114004068531748
vn 0.5000091345972272 -0.865888233088052 -0.015114004068531748
vn 0.8181381666445348 0.5749341171069049 0.010035002044004687
vn -0.8181381666445348 -0.5749341171069049 -0.010035002044004687
vn 0.9070759167331559 0.4209029613623726 0.007346999325567534
vn -0.9070759167331559 -0.4209029613623726 -0.007346999325567534
vn -0.7071649327111383 0.7069409327324526 0.012339998825812146
vn 0.7071649327111383 -0.7069409327324526 -0.012339998825812146
vn 1 0.000017999999997084 0
vn -1 -0.000017999999997084 0
vn 1 0.000011999999999136 0
vn -1 -0.000011999999999136 0
vn 0.9659177048407084 -0.2588099209144293 -0.004517998619417301
vn -0.9659177048407084 0.2588099209144293 0.004517998619417301
vn 0.9070777983139952 -0.4208989064144012 -0.007346998366417135
vn -0.9070777983139952 0.4208989064144012 0.007346998366417135
vn -0.965917959192865 0.2588089890660969 0.004516999809170314
vn -1 0.000011999999999136 0
vn -0.9960362210080114 -0.08893501973357136 -0.0015520003443695142
vn 0.9960362210080114 0.08893501973357136 0.0015520003443695142
vn 1 -0.000011999999999136 0
vn 0.965917959192865 -0.2588089890660969 -0.004516999809170314
vn 0.818110084235891 -0.574974059201632 -0.010036001033346863
vn -0.818110084235891 0.574974059201632 0.010036001033346863
vn -0.9070777983139952 -0.4208989064144012 -0.007346998366417135
vn 0.9070777983139952 0.4208989064144012 0.007346998366417135
vn 0.4999850732915674 -0.8659021269304373 -0.015114002215523965
vn -0.4999850732915674 0.8659021269304373 0.015114002215523965
vn -0.818110084235891 -0.574974059201632 -0.010036001033346863
vn 0.818110084235891 0.574974059201632 0.010036001033346863
vn 0.4999699265501734 -0.8659108727903418 -0.015113997779625419
vn -0.4999699265501734 0.8659108727903418 0.015113997779625419
vn -0.4999838903382953 -0.8659028100811246 -0.015113996685039913
vn 0.4999838903382953 0.8659028100811246 0.015113996685039913
vn 9.999997022956329e-7 -0.9998477023408839 -0.017451994804463387
vn -9.999997022956329e-7 0.9998477023408839 0.017451994804463387
vn -0.49996917651964856 -0.8659113057195654 -0.015114005336166778
vn 0.49996917651964856 0.8659113057195654 0.015114005336166778
usemtl material_0_0
f 1//1 2//2 3//1
f 3//3 2//4 1//3
f 1//1 4//2 2//2
f 2//4 4//4 1//3
f 1//1 3//1 5//5
f 5//6 3//3 1//3
f 2//2 4//2 6//7
f 6//8 4//4 2//4
f 1//1 5//5 7//5
f 7//6 5//6 1//3
f 2//2 6//7 8//9
f 8//10 6//8 2//4
f 5//5 9//11 7//5
f 7//6 9//12 5//6
f 8//9 6//7 10//13
f 10//14 6//8 8//10
f 5//5 11//11 9//11
f 9//12 11//12 5//6
f 8//9 10//13 12//15
f 12//16 10//14 8//10
f 11//17 9//17 13//17
f 13//18 9//18 11//18
f 11//18 13//18 9//18
f 9//17 13//17 11//17
f 12//15 10//13 14//19
f 14//20 10//14 12//16
f 11//21 15//22 13//23
f 13//24 15//25 11//26
f 14//19 10//13 16//27
f 16//28 10//14 14//20
f 15//22 17//29 13//23
f 13//24 17//30 15//25
f 14//19 16//27 18//31
f 18//32 16//28 14//20
f 17//29 19//33 13//23
f 13//24 19//34 17//30
f 18//31 16//27 20//35
f 20//36 16//28 18//32
f 17//29 21//37 19//33
f 19//34 21//38 17//30
f 20//35 22//39 18//31
f 18//32 22//40 20//36
f 21//37 23//41 19//33
f 19//34 23//42 21//38
f 22//39 24//39 18//31
f 18//32 24//40 22//40
f 23//41 21//37 22//39
f 22//40 21//38 23//42
f 22//39 21//37 24//39
f 24//40 21//38 22//40
