# SSTK version 0.8.0
# 26
mtllib original-26.mtl
o mesh26/mesh26-geometry#mesh26-geometry
v 0.005228 0.418231 0.495271
v -0.002285 0.416218 0.495236
v 0.005228 0.432029 -0.295199
v -0.002285 0.430016 -0.295235
v 0.007595 0.434396 -0.295158
v -0.009798 0.432029 -0.295199
v 0.007595 0.420598 0.495312
v -0.009798 0.418231 0.495271
v 0.008462 0.437629 -0.295101
v -0.012166 0.434396 -0.295158
v 0.008462 0.423831 0.495369
v -0.012166 0.420598 0.495312
v 0.006449 0.445141 -0.294970
v -0.013032 0.437629 -0.295101
v 0.006449 0.431344 0.495500
v -0.013032 0.423831 0.495369
v 0.000949 0.450641 -0.294874
v -0.011019 0.445141 -0.294970
v 0.000949 0.436842 0.495596
v -0.011019 0.431344 0.495500
v -0.002285 0.451507 -0.294859
v -0.005519 0.450641 -0.294874
v -0.002285 0.437709 0.495611
v -0.005519 0.436842 0.495596
vn 0.5750480252532345 -0.8179950359222529 -0.014279000627062326
vn 0 -0.9998476848915528 -0.017452994499576206
vn 0.42094379788430486 -0.9069485645296582 -0.015830992398766654
vn -0.42094379788430486 0.9069485645296582 0.015830992398766654
vn 0 0.9998476848915528 0.017452994499576206
vn -0.5750480252532345 0.8179950359222529 0.014279000627062326
vn 0 -0.9998477023413838 -0.017451994804472112
vn 0 0.9998477023413838 0.017451994804472112
vn 0.818118374426686 -0.5749622631418893 -0.010036004593159202
vn -0.818118374426686 0.5749622631418893 0.010036004593159202
vn -0.4209421522703789 -0.9069493280771885 -0.015831005726661556
vn 0.4209421522703789 0.9069493280771885 0.015831005726661556
vn 0.9070842065022784 -0.4208850958166074 -0.007347001672581855
vn -0.9070842065022784 0.4208850958166074 0.007347001672581855
vn -0.5750457458396122 -0.8179966384594716 -0.014278993688928926
vn 0.5750457458396122 0.8179966384594716 0.014278993688928926
vn 0.996035148487437 -0.0889470132600883 -0.0015530002315189623
vn -0.996035148487437 0.0889470132600883 0.0015530002315189623
vn -0.8181163018943794 -0.5749652121688146 -0.010036003703401464
vn 0.8181163018943794 0.5749652121688146 0.010036003703401464
vn 0.9960362210080114 0.08893501973357136 0.0015520003443695142
vn -0.9960362210080114 -0.08893501973357136 -0.0015520003443695142
vn -0.9070832657450486 -0.42088712330584555 -0.007347002152425822
vn 0.9070832657450486 0.42088712330584555 0.007347002152425822
vn 0.9070777983139952 0.4208989064144012 0.007346998366417135
vn -0.9070777983139952 -0.4208989064144012 -0.007346998366417135
vn -0.996035148487437 -0.0889470132600883 -0.0015530002315189623
vn 0.996035148487437 0.0889470132600883 0.0015530002315189623
vn 0.818110084235891 0.574974059201632 0.010036001033346863
vn -0.818110084235891 -0.574974059201632 -0.010036001033346863
vn -1 -0.000011999999999136 0
vn 1 0.000011999999999136 0
vn 0.5750486945724553 0.8179945655357989 0.014278992415950795
vn -0.5750486945724553 -0.8179945655357989 -0.014278992415950795
vn -0.9659238606973686 0.2587869626785233 0.004516999348571952
vn 0.9659238606973686 -0.2587869626785233 -0.004516999348571952
vn 0.4210119642994499 0.9069169230961688 0.015830998657578862
vn -0.4210119642994499 -0.9069169230961688 -0.015830998657578862
vn -0.9659305115409965 0.2587621370361945 0.00451700239213057
vn 0.9659305115409965 -0.2587621370361945 -0.00451700239213057
vn 9.99999684843149e-7 0.9998476848910528 0.017452994499567477
vn -9.99999684843149e-7 -0.9998476848910528 -0.017452994499567477
vn -0.7071239380205895 0.7069819380330359 0.012339998918399143
vn -0.7070999312992345 0.7070059313083675 0.012340998800967127
vn 0.7070999312992345 -0.7070059313083675 -0.012340998800967127
vn 0.7071239380205895 -0.7069819380330359 -0.012339998918399143
vn 9.999997022956329e-7 0.9998477023408839 0.017451994804463387
vn -9.999997022956329e-7 -0.9998477023408839 -0.017451994804463387
vn -0.4210111415500742 0.9069173049187995 0.015831005322614434
vn 0.4210111415500742 -0.9069173049187995 -0.015831005322614434
usemtl material_0_0
f 1//1 2//2 3//3
f 3//4 2//5 1//6
f 2//2 4//7 3//3
f 3//4 4//8 2//5
f 5//9 1//1 3//3
f 3//4 1//6 5//10
f 2//2 6//11 4//7
f 4//8 6//12 2//5
f 5//9 7//13 1//1
f 1//6 7//14 5//10
f 8//15 6//11 2//2
f 2//5 6//12 8//16
f 9//17 7//13 5//9
f 5//10 7//14 9//18
f 8//15 10//19 6//11
f 6//12 10//20 8//16
f 9//17 11//21 7//13
f 7//14 11//22 9//18
f 10//19 8//15 12//23
f 12//24 8//16 10//20
f 13//25 11//21 9//17
f 9//18 11//22 13//26
f 14//27 10//19 12//23
f 12//24 10//20 14//28
f 13//25 15//29 11//21
f 11//22 15//30 13//26
f 14//27 12//23 16//31
f 16//32 12//24 14//28
f 17//33 15//29 13//25
f 13//26 15//30 17//34
f 18//35 14//27 16//31
f 16//32 14//28 18//36
f 17//33 19//37 15//29
f 15//30 19//38 17//34
f 18//39 16//39 20//39
f 20//40 16//40 18//40
f 18//40 20//40 16//40
f 16//39 20//39 18//39
f 19//37 17//33 21//41
f 21//42 17//34 19//38
f 22//6 18//43 20//44
f 20//45 18//46 22//1
f 23//47 19//37 21//41
f 21//42 19//38 23//48
f 22//6 20//44 24//49
f 24//50 20//45 22//1
f 23//47 21//41 24//49
f 24//50 21//42 23//48
f 24//49 21//41 22//6
f 22//1 21//42 24//50
