# SSTK version 0.8.0
# 37
mtllib original-37.mtl
o mesh37/mesh37-geometry#mesh37-geometry
v -0.016603 -0.356185 -0.562674
v -0.015943 -0.356629 -0.561134
v -0.015915 -0.356508 -0.561113
v -0.016577 -0.357919 -0.563100
v -0.013553 -0.357246 -0.558823
v -0.016786 -0.355593 -0.564231
v -0.016818 -0.356912 -0.564632
v -0.015906 -0.359069 -0.561807
v -0.013540 -0.357121 -0.558816
v -0.016700 -0.355507 -0.564205
v -0.016818 -0.355709 -0.564266
v -0.015841 -0.356409 -0.561130
v -0.013553 -0.361307 -0.560056
v -0.016322 -0.354577 -0.567934
v -0.013498 -0.357012 -0.558865
v -0.010025 -0.363120 -0.559063
v -0.016373 -0.355930 -0.562663
v -0.016199 -0.355546 -0.568686
v -0.013438 -0.356948 -0.558957
v -0.006009 -0.357585 -0.556814
v -0.015738 -0.356357 -0.561180
v -0.016580 -0.355472 -0.564194
v -0.014797 -0.353451 -0.571465
v -0.006009 -0.363773 -0.558692
v -0.014484 -0.355602 -0.572658
v -0.001994 -0.363120 -0.559063
v -0.009274 -0.351665 -0.576694
v 0.001535 -0.357246 -0.558823
v -0.009274 -0.358591 -0.578796
v 0.001535 -0.361307 -0.560056
v 0.003887 -0.359069 -0.561807
v 0.003925 -0.356629 -0.561134
v 0.001522 -0.357121 -0.558816
v 0.004558 -0.357919 -0.563100
v 0.003901 -0.356507 -0.561120
v 0.004585 -0.356185 -0.562674
v 0.003826 -0.356407 -0.561136
v 0.004800 -0.356912 -0.564632
v 0.004768 -0.355593 -0.564231
v 0.004681 -0.355507 -0.564205
v 0.001480 -0.357012 -0.558865
v 0.004800 -0.355709 -0.564266
v 0.004354 -0.355930 -0.562663
v 0.003719 -0.356357 -0.561180
v 0.004303 -0.354577 -0.567934
v 0.004561 -0.355472 -0.564194
v 0.001420 -0.356948 -0.558957
v 0.004181 -0.355546 -0.568686
v 0.002778 -0.353451 -0.571465
v 0.002466 -0.355602 -0.572658
v -0.002744 -0.351665 -0.576694
v -0.002744 -0.358591 -0.578796
vn -0.9413293601103222 0.17593206730370486 0.288005110177816
vn -0.8489766155809284 -0.051765976560215816 0.5258887618760449
vn -0.7135728404957944 0.4197479061741808 0.560914874619273
vn 0.7135728404957944 -0.4197479061741808 -0.560914874619273
vn 0.8489766155809284 0.051765976560215816 -0.5258887618760449
vn 0.9413293601103222 -0.17593206730370486 -0.288005110177816
vn -0.9525787792179842 -0.08965697921993536 0.29078393260414337
vn 0.9525787792179842 0.08965697921993536 -0.29078393260414337
vn -0.5902460441439131 -0.13770501029882037 0.7953910594865041
vn 0.5902460441439131 0.13770501029882037 -0.7953910594865041
vn -0.7474401078944822 0.5769360832818835 0.329360047543785
vn 0.7474401078944822 -0.5769360832818835 -0.329360047543785
vn -0.9998907562076654 -0.013113996802558805 -0.006818998337398848
vn 0.9998907562076654 0.013113996802558805 0.006818998337398848
vn -0.789875025093935 -0.17688000561938946 0.587206018655242
vn 0.789875025093935 0.17688000561938946 -0.587206018655242
vn -0.5978649029527833 0.362585941143967 0.7149048839545039
vn 0.5978649029527833 -0.362585941143967 -0.7149048839545039
vn -0.7067233089505225 0.6007122626068294 0.3737471633869719
vn 0.7067233089505225 -0.6007122626068294 -0.3737471633869719
vn -0.9955028262623731 0.06932998790035824 0.06455598873352844
vn 0.9955028262623731 -0.06932998790035824 -0.06455598873352844
vn -0.4297979115370688 0.7348208487558816 0.5247018920035065
vn 0.4297979115370688 -0.7348208487558816 -0.5247018920035065
vn -0.5547691684861958 -0.24167707339854672 0.7961302417887718
vn 0.5547691684861958 0.24167707339854672 -0.7961302417887718
vn -0.9756846243019753 0.06251097592946572 -0.2100759191079721
vn 0.9756846243019753 -0.06251097592946572 0.2100759191079721
vn -0.3881041947916788 0.7082383554688151 0.5897232959854399
vn 0.3881041947916788 -0.7082383554688151 -0.5897232959854399
vn -0.2620718980810449 -0.25195890201395793 0.9315766377127108
vn 0.2620718980810449 0.25195890201395793 -0.9315766377127108
vn -0.26764191599818904 -0.942154704296313 -0.2017729366717578
vn 0.26764191599818904 0.942154704296313 0.2017729366717578
vn -0.950007948550421 0.07919499571103675 -0.302014983643775
vn 0.950007948550421 -0.07919499571103675 0.302014983643775
vn -0.2216230815970904 0.8608263169386614 0.45810616866533116
vn 0.2216230815970904 -0.8608263169386614 -0.45810616866533116
vn 0 -0.24712608474387368 0.9689833322813988
vn 0 0.24712608474387368 -0.9689833322813988
vn -0.24850209451518035 0.8748463327386801 0.4158011581456347
vn -0.27518696875045756 0.8861608993697893 0.37281495766406786
vn 0.27518696875045756 -0.8861608993697893 -0.37281495766406786
vn 0.24850209451518035 -0.8748463327386801 -0.4158011581456347
vn -0.2894141010023553 0.9056993160791538 0.30975510810114426
vn 0.2894141010023553 -0.9056993160791538 -0.30975510810114426
vn -0.8629207942093793 0.17074095928144478 -0.4756208865732311
vn 0.8629207942093793 -0.17074095928144478 0.4756208865732311
vn 0 -0.29047002754295026 0.9568840907336675
vn 0 0.29047002754295026 -0.9568840907336675
vn -0.7842874705455655 0.18918611350517522 -0.5908483544887347
vn 0.7842874705455655 -0.18918611350517522 0.5908483544887347
vn 0.2620719641122608 -0.2519579654972565 0.9315768724312691
vn -0.2620719641122608 0.2519579654972565 -0.9315768724312691
vn -0.7001869146776785 0.23576197127087312 -0.6739099178797011
vn 0.7001869146776785 -0.23576197127087312 0.6739099178797011
vn 0.5663627562111863 -0.17218992588146503 0.8059676530741193
vn -0.5663627562111863 0.17218992588146503 -0.8059676530741193
vn -0.6927972473061454 0.2094340747611714 -0.6900502463255553
vn 0.6927972473061454 -0.2094340747611714 0.6900502463255553
vn 0.5547691684861958 -0.24167707339854672 0.7961302417887718
vn -0.5547691684861958 0.24167707339854672 -0.7961302417887718
vn 0.789875025093935 -0.17688000561938946 0.587206018655242
vn -0.789875025093935 0.17688000561938946 -0.587206018655242
vn 0.8261451343221221 -0.03576600581515959 0.5623210914272313
vn -0.8261451343221221 0.03576600581515959 -0.5623210914272313
vn 0.6279521875665206 0.2840470848435987 0.7245642164241032
vn -0.6279521875665206 -0.2840470848435987 -0.7245642164241032
vn 0.9525787792179842 -0.08965697921993536 0.29078393260414337
vn -0.9525787792179842 0.08965697921993536 -0.29078393260414337
vn 0.7052036609825891 0.4804727690190179 0.5213767493549658
vn -0.7052036609825891 -0.4804727690190179 -0.5213767493549658
vn 0.941634288347296 0.1747100534997208 0.28775208811545794
vn -0.941634288347296 -0.1747100534997208 -0.28775208811545794
vn 0.5149220174089988 0.6419170217025729 0.5681530192086858
vn -0.5149220174089988 -0.6419170217025729 -0.5681530192086858
vn 0.9998907619715329 -0.013111996878630511 -0.0068219983759927804
vn -0.9998907619715329 0.013111996878630511 0.0068219983759927804
vn 0.7476330182882253 0.5767820141089534 0.32919200805253035
vn -0.7476330182882253 -0.5767820141089534 -0.32919200805253035
vn 0.708762817796594 0.5986298461087487 0.3732259040538961
vn -0.708762817796594 -0.5986298461087487 -0.3732259040538961
vn 0.33375798653119676 0.766410969071486 0.5488349778517648
vn -0.33375798653119676 -0.766410969071486 -0.5488349778517648
vn 0.9955029547917231 0.06932999685155158 0.06455399706844167
vn -0.9955029547917231 -0.06932999685155158 -0.06455399706844167
vn 0.268192093345213 -0.9420303278770097 -0.20162307017562744
vn -0.268192093345213 0.9420303278770097 0.20162307017562744
vn 0.22151299384083128 0.8608999760626765 0.4580209872647266
vn -0.22151299384083128 -0.8608999760626765 -0.4580209872647266
vn 0.9756836953915978 0.06251198048376275 -0.2100799344130547
vn -0.9756836953915978 -0.06251198048376275 0.2100799344130547
vn 0.2894141010023553 0.9056993160791538 0.30975510810114426
vn -0.2894141010023553 -0.9056993160791538 -0.30975510810114426
vn -0.26940304765066825 -0.8886711571837247 -0.3710600656312549
vn 0.26940304765066825 0.8886711571837247 0.3710600656312549
vn 0.22214398251104922 0.8604759322564536 0.4585119639022715
vn -0.22214398251104922 -0.8604759322564536 -0.4585119639022715
vn 0.9500077228386123 0.07919797689427081 -0.3020149118882194
vn -0.9500077228386123 -0.07919797689427081 0.3020149118882194
vn 0.8629216914913121 0.17074493895587797 -0.47561782995880847
vn -0.8629216914913121 -0.17074493895587797 0.47561782995880847
vn 0.7842880403355429 0.1891910097299993 -0.5908460303869167
vn -0.7842880403355429 -0.1891910097299993 0.5908460303869167
vn 0.700187363166974 0.23576512228456348 -0.6739083495368082
vn -0.700187363166974 -0.23576512228456348 0.6739083495368082
vn 0.6927972473061454 0.2094340747611714 -0.6900502463255553
vn -0.6927972473061454 -0.2094340747611714 0.6900502463255553
usemtl material_0_0
f 1//1 2//2 3//3
f 3//4 2//5 1//6
f 1//1 4//7 2//2
f 2//5 4//8 1//6
f 5//9 3//3 2//2
f 2//5 3//4 5//10
f 3//3 6//11 1//1
f 1//6 6//12 3//4
f 1//1 7//13 4//7
f 4//8 7//14 1//6
f 2//2 4//7 8//15
f 8//16 4//8 2//5
f 9//17 3//3 5//9
f 5//10 3//4 9//18
f 2//2 8//15 5//9
f 5//10 8//16 2//5
f 10//19 6//11 3//3
f 3//4 6//12 10//20
f 6//11 11//21 1//1
f 1//6 11//22 6//12
f 11//21 7//13 1//1
f 1//6 7//14 11//22
f 9//17 12//23 3//3
f 3//4 12//24 9//18
f 5//9 8//15 13//25
f 13//26 8//16 5//10
f 10//19 3//3 12//23
f 12//24 3//4 10//20
f 14//27 7//13 11//21
f 11//22 7//14 14//28
f 15//29 12//23 9//17
f 9//18 12//24 15//30
f 16//31 5//9 13//25
f 13//26 5//10 16//32
f 12//33 17//33 10//33
f 10//34 17//34 12//34
f 14//27 18//35 7//13
f 7//14 18//36 14//28
f 15//29 19//37 12//23
f 12//24 19//38 15//30
f 20//39 5//9 16//31
f 16//32 5//10 20//40
f 12//23 21//41 17//42
f 17//43 21//44 12//24
f 17//45 22//45 10//45
f 10//46 22//46 17//46
f 23//47 18//35 14//27
f 14//28 18//36 23//48
f 19//37 21//41 12//23
f 12//24 21//44 19//38
f 20//39 16//31 24//49
f 24//50 16//32 20//40
f 23//47 25//51 18//35
f 18//36 25//52 23//48
f 26//53 20//39 24//49
f 24//50 20//40 26//54
f 27//55 25//51 23//47
f 23//48 25//52 27//56
f 28//57 20//39 26//53
f 26//54 20//40 28//58
f 27//55 29//59 25//51
f 25//52 29//60 27//56
f 28//57 26//53 30//61
f 30//62 26//54 28//58
f 28//57 30//61 31//63
f 31//64 30//62 28//58
f 32//65 28//57 31//63
f 31//64 28//58 32//66
f 32//65 33//67 28//57
f 28//58 33//68 32//66
f 32//65 31//63 34//69
f 34//70 31//64 32//66
f 32//65 35//71 33//67
f 33//68 35//72 32//66
f 36//73 32//65 34//69
f 34//70 32//66 36//74
f 36//73 35//71 32//65
f 32//66 35//72 36//74
f 35//71 37//75 33//67
f 33//68 37//76 35//72
f 36//73 34//69 38//77
f 38//78 34//70 36//74
f 35//71 36//73 39//79
f 39//80 36//74 35//72
f 40//81 37//75 35//71
f 35//72 37//76 40//82
f 37//75 41//83 33//67
f 33//68 41//84 37//76
f 42//85 36//73 38//77
f 38//78 36//74 42//86
f 39//79 36//73 42//85
f 42//86 36//74 39//80
f 40//81 35//71 39//79
f 39//80 35//72 40//82
f 37//87 40//87 43//87
f 43//88 40//88 37//88
f 41//83 37//75 44//89
f 44//90 37//76 41//84
f 45//91 42//85 38//77
f 38//78 42//86 45//92
f 43//93 40//93 46//93
f 46//94 40//94 43//94
f 37//95 44//95 43//95
f 43//96 44//96 37//96
f 37//96 43//96 44//96
f 44//95 43//95 37//95
f 41//83 44//89 47//97
f 47//98 44//90 41//84
f 45//91 38//77 48//99
f 48//100 38//78 45//92
f 49//101 45//91 48//99
f 48//100 45//92 49//102
f 49//101 48//99 50//103
f 50//104 48//100 49//102
f 51//105 49//101 50//103
f 50//104 49//102 51//106
f 51//105 50//103 52//107
f 52//108 50//104 51//106
