# SSTK version 0.8.0
# 23
mtllib original-23.mtl
o #ID181
v 0.050483 -0.041055 0.712818
v 0.016416 -0.035702 0.712922
v 0.016405 -0.040986 0.712819
v 0.050494 -0.03577 0.712921
v 0.050494 -0.03577 0.712921
v 0.050483 -0.041055 0.712818
v 0.016416 -0.035702 0.712922
v 0.016405 -0.040986 0.712819
v 0.016416 -0.035702 0.712922
v 0.016405 -0.041226 0.725149
v 0.016405 -0.040986 0.712819
v 0.016416 -0.035942 0.725252
v 0.016416 -0.035942 0.725252
v 0.016416 -0.035702 0.712922
v 0.016405 -0.041226 0.725149
v 0.016405 -0.040986 0.712819
v 0.016405 -0.041226 0.725149
v 0.050483 -0.041055 0.712818
v 0.016405 -0.040986 0.712819
v 0.050483 -0.041295 0.725148
v 0.050483 -0.041295 0.725148
v 0.016405 -0.041226 0.725149
v 0.050483 -0.041055 0.712818
v 0.016405 -0.040986 0.712819
v 0.050494 -0.036011 0.725251
v 0.050483 -0.041055 0.712818
v 0.050483 -0.041295 0.725148
v 0.050494 -0.03577 0.712921
v 0.050494 -0.03577 0.712921
v 0.050494 -0.036011 0.725251
v 0.050483 -0.041055 0.712818
v 0.050483 -0.041295 0.725148
v 0.050494 -0.036011 0.725251
v 0.016405 -0.041226 0.725149
v 0.016416 -0.035942 0.725252
v 0.050483 -0.041295 0.725148
v 0.050483 -0.041295 0.725148
v 0.050494 -0.036011 0.725251
v 0.016405 -0.041226 0.725149
v 0.016416 -0.035942 0.725252
vn -1.9652596789623854e-05 -0.019480800260968646 0.9998102310113492
vn 1.9652596789623854e-05 0.019480800260968646 -0.9998102310113492
vn 0.9999979647647506 -0.0020174439602086637 -1.9652595487726513e-05
vn -0.9999979647647506 0.0020174439602086637 1.9652595487726513e-05
vn 0.002017443960195982 0.9998081957760997 0.019480800260969957
vn -0.002017443960195982 -0.9998081957760997 -0.019480800260969957
usemtl material_0_0
f 1//1 2//1 3//1
f 2//1 1//1 4//1
f 5//2 6//2 7//2
f 8//2 7//2 6//2
f 9//3 10//3 11//3
f 10//3 9//3 12//3
f 13//4 14//4 15//4
f 16//4 15//4 14//4
f 17//5 18//5 19//5
f 18//5 17//5 20//5
f 21//6 22//6 23//6
f 24//6 23//6 22//6
f 25//4 26//4 27//4
f 26//4 25//4 28//4
f 29//3 30//3 31//3
f 32//3 31//3 30//3
f 33//2 34//2 35//2
f 34//2 33//2 36//2
f 37//1 38//1 39//1
f 40//1 39//1 38//1
