# SSTK version 0.8.0
# 11
mtllib original-11.mtl
o #ID79
v -0.122332 0.361247 0.84344
v -0.122333 0.361248 0.843406
v -0.122333 0.361042 0.843397
v -0.122332 0.361247 0.84344
v -0.122334 0.361454 0.843405
v -0.122333 0.361248 0.843406
v -0.12233 0.361458 0.843484
v -0.122329 0.361459 0.843507
vn -0.9999947711742461 -0.0010251848075466445 -0.003067021401593583
vn -0.9950751441270025 0.004907485390665919 0.09900188951613838
usemtl material_0_0
f 1//1 2//1 3//1
f 4//2 5//2 6//2
f 5//2 4//2 7//2
f 7//2 4//2 8//2
