# SSTK version 0.8.0
# 5
mtllib original-5.mtl
o #ID41
v 0.104703 -0.008595 -0.869284
v 0.104661 0.122984 -0.899578
v 0.104788 -0.010481 -0.896164
v 0.104596 -0.006057 -0.835369
v 0.10449 -0.003359 -0.801463
v 0.104383 -0.000502 -0.767566
v 0.104276 0.002513 -0.733678
v 0.104169 0.005687 -0.6998
v 0.104061 0.00902 -0.665934
v 0.103954 0.012511 -0.632078
v 0.103846 0.016161 -0.598235
v 0.103739 0.01997 -0.564404
v 0.103631 0.023936 -0.530587
v 0.103523 0.028061 -0.496784
v 0.103415 0.032345 -0.462994
v 0.103307 0.036786 -0.429221
v 0.103199 0.041386 -0.395462
v 0.10309 0.046143 -0.36172
v 0.102982 0.051059 -0.327995
v 0.102873 0.056132 -0.294288
v 0.102764 0.061364 -0.260598
v 0.102656 0.066752 -0.226928
v 0.102547 0.072299 -0.193276
v 0.102438 0.078003 -0.159644
v 0.102329 0.083864 -0.126034
v 0.104661 0.123335 -0.899558
v 0.10466 0.123692 -0.899479
v 0.104659 0.124041 -0.899347
v 0.104658 0.124369 -0.899164
v 0.104657 0.124663 -0.898939
v 0.104656 0.124911 -0.89868
v 0.104655 0.125105 -0.898397
v 0.104654 0.125237 -0.898101
v 0.104544 0.135918 -0.865807
v 0.10222 0.089882 -0.092444
v 0.10211 0.096058 -0.058876
v 0.104411 0.148514 -0.826682
v 0.102001 0.10239 -0.02533
v 0.104278 0.16079 -0.787477
v 0.101891 0.10888 0.008193
v 0.101782 0.115526 0.041692
v 0.104146 0.172748 -0.748194
v 0.101672 0.122329 0.075167
v 0.101562 0.129289 0.108617
v 0.104013 0.184385 -0.708836
v 0.101528 0.134486 0.118252
v 0.101493 0.140021 0.127734
v 0.103881 0.195701 -0.669405
v 0.101458 0.145889 0.137053
v 0.101424 0.152083 0.1462
v 0.103748 0.206696 -0.629902
v 0.10139 0.158596 0.155165
v 0.101356 0.165423 0.16394
v 0.103616 0.217369 -0.590331
v 0.101322 0.172555 0.172515
v 0.101289 0.179987 0.18088
v 0.103484 0.22772 -0.550692
v 0.101256 0.187709 0.189029
v 0.103352 0.237747 -0.510989
v 0.101223 0.195714 0.196951
v 0.101191 0.203994 0.204639
v 0.10322 0.247451 -0.471224
v 0.10116 0.212539 0.212085
v 0.103088 0.256831 -0.431398
v 0.101129 0.221342 0.219281
v 0.102956 0.265886 -0.391514
v 0.101098 0.230393 0.22622
v 0.102825 0.274616 -0.351574
v 0.101068 0.239683 0.232894
v 0.101039 0.249202 0.239297
v 0.102694 0.28302 -0.31158
v 0.10101 0.25894 0.245422
v 0.102562 0.291098 -0.271535
v 0.100982 0.268887 0.251263
v 0.102432 0.298849 -0.23144
v 0.100954 0.279033 0.256813
v 0.102301 0.306274 -0.191298
v 0.100928 0.289367 0.262067
v 0.10217 0.31337 -0.151111
v 0.100902 0.29988 0.26702
v 0.10204 0.32014 -0.110881
v 0.10191 0.326581 -0.07061
v 0.100877 0.310558 0.271666
v 0.10178 0.332694 -0.030301
v 0.100852 0.321393 0.276
v 0.10165 0.338477 0.010044
v 0.100829 0.332372 0.280018
v 0.101521 0.343932 0.050423
v 0.101392 0.349057 0.090835
v 0.100806 0.343484 0.283716
v 0.101263 0.353853 0.131275
v 0.100784 0.354718 0.28709
v 0.101134 0.358318 0.171743
v 0.101006 0.362453 0.212237
v 0.100763 0.366062 0.290137
v 0.100878 0.366258 0.252753
v 0.100757 0.369533 0.290961
v 0.100757 0.369533 0.290961
v 0.100763 0.366062 0.290137
v 0.100878 0.366258 0.252753
v 0.101006 0.362453 0.212237
v 0.100784 0.354718 0.28709
v 0.101134 0.358318 0.171743
v 0.101263 0.353853 0.131275
v 0.100806 0.343484 0.283716
v 0.101392 0.349057 0.090835
v 0.100829 0.332372 0.280018
v 0.101521 0.343932 0.050423
v 0.10165 0.338477 0.010044
v 0.100852 0.321393 0.276
v 0.10178 0.332694 -0.030301
v 0.100877 0.310558 0.271666
v 0.10191 0.326581 -0.07061
v 0.100902 0.29988 0.26702
v 0.10204 0.32014 -0.110881
v 0.10217 0.31337 -0.151111
v 0.100928 0.289367 0.262067
v 0.102301 0.306274 -0.191298
v 0.100954 0.279033 0.256813
v 0.102432 0.298849 -0.23144
v 0.100982 0.268887 0.251263
v 0.102562 0.291098 -0.271535
v 0.10101 0.25894 0.245422
v 0.102694 0.28302 -0.31158
v 0.101039 0.249202 0.239297
v 0.102825 0.274616 -0.351574
v 0.101068 0.239683 0.232894
v 0.101098 0.230393 0.22622
v 0.102956 0.265886 -0.391514
v 0.101129 0.221342 0.219281
v 0.103088 0.256831 -0.431398
v 0.10116 0.212539 0.212085
v 0.10322 0.247451 -0.471224
v 0.101191 0.203994 0.204639
v 0.103352 0.237747 -0.510989
v 0.101223 0.195714 0.196951
v 0.101256 0.187709 0.189029
v 0.103484 0.22772 -0.550692
v 0.101289 0.179987 0.18088
v 0.103616 0.217369 -0.590331
v 0.101322 0.172555 0.172515
v 0.101356 0.165423 0.16394
v 0.103748 0.206696 -0.629902
v 0.10139 0.158596 0.155165
v 0.101424 0.152083 0.1462
v 0.103881 0.195701 -0.669405
v 0.101458 0.145889 0.137053
v 0.101493 0.140021 0.127734
v 0.104013 0.184385 -0.708836
v 0.101528 0.134486 0.118252
v 0.101562 0.129289 0.108617
v 0.104146 0.172748 -0.748194
v 0.101672 0.122329 0.075167
v 0.101782 0.115526 0.041692
v 0.104278 0.16079 -0.787477
v 0.101891 0.10888 0.008193
v 0.102001 0.10239 -0.02533
v 0.104411 0.148514 -0.826682
v 0.10211 0.096058 -0.058876
v 0.104544 0.135918 -0.865807
v 0.10222 0.089882 -0.092444
v 0.102329 0.083864 -0.126034
v 0.104654 0.125237 -0.898101
v 0.104655 0.125105 -0.898397
v 0.104656 0.124911 -0.89868
v 0.104657 0.124663 -0.898939
v 0.104658 0.124369 -0.899164
v 0.104659 0.124041 -0.899347
v 0.10466 0.123692 -0.899479
v 0.104661 0.123335 -0.899558
v 0.104661 0.122984 -0.899578
v 0.102438 0.078003 -0.159644
v 0.102547 0.072299 -0.193276
v 0.102656 0.066752 -0.226928
v 0.102764 0.061364 -0.260598
v 0.102873 0.056132 -0.294288
v 0.102982 0.051059 -0.327995
v 0.10309 0.046143 -0.36172
v 0.103199 0.041386 -0.395462
v 0.103307 0.036786 -0.429221
v 0.103415 0.032345 -0.462994
v 0.103523 0.028061 -0.496784
v 0.103631 0.023936 -0.530587
v 0.103739 0.01997 -0.564404
v 0.103846 0.016161 -0.598235
v 0.103954 0.012511 -0.632078
v 0.104061 0.00902 -0.665934
v 0.104169 0.005687 -0.6998
v 0.104276 0.002513 -0.733678
v 0.104383 -0.000502 -0.767566
v 0.10449 -0.003359 -0.801463
v 0.104596 -0.006057 -0.835369
v 0.104703 -0.008595 -0.869284
v 0.104788 -0.010481 -0.896164
vn -0.9999947711742461 -0.0010251848075466445 -0.003067021401593583
vn 0.9999947711742461 0.0010251848075466445 0.003067021401593583
usemtl material_0_0
f 98//2 99//2 100//2
f 100//2 99//2 101//2
f 99//2 102//2 101//2
f 101//2 102//2 103//2
f 103//2 102//2 104//2
f 102//2 105//2 104//2
f 104//2 105//2 106//2
f 105//2 107//2 106//2
f 106//2 107//2 108//2
f 108//2 107//2 109//2
f 107//2 110//2 109//2
f 109//2 110//2 111//2
f 110//2 112//2 111//2
f 111//2 112//2 113//2
f 112//2 114//2 113//2
f 113//2 114//2 115//2
f 115//2 114//2 116//2
f 114//2 117//2 116//2
f 116//2 117//2 118//2
f 117//2 119//2 118//2
f 118//2 119//2 120//2
f 119//2 121//2 120//2
f 120//2 121//2 122//2
f 121//2 123//2 122//2
f 122//2 123//2 124//2
f 123//2 125//2 124//2
f 124//2 125//2 126//2
f 125//2 127//2 126//2
f 127//2 128//2 126//2
f 126//2 128//2 129//2
f 128//2 130//2 129//2
f 129//2 130//2 131//2
f 130//2 132//2 131//2
f 131//2 132//2 133//2
f 132//2 134//2 133//2
f 133//2 134//2 135//2
f 134//2 136//2 135//2
f 136//2 137//2 135//2
f 135//2 137//2 138//2
f 137//2 139//2 138//2
f 138//2 139//2 140//2
f 139//2 141//2 140//2
f 141//2 142//2 140//2
f 140//2 142//2 143//2
f 142//2 144//2 143//2
f 144//2 145//2 143//2
f 143//2 145//2 146//2
f 145//2 147//2 146//2
f 147//2 148//2 146//2
f 146//2 148//2 149//2
f 148//2 150//2 149//2
f 150//2 151//2 149//2
f 149//2 151//2 152//2
f 151//2 153//2 152//2
f 153//2 154//2 152//2
f 152//2 154//2 155//2
f 154//2 156//2 155//2
f 156//2 157//2 155//2
f 155//2 157//2 158//2
f 157//2 159//2 158//2
f 158//2 159//2 160//2
f 159//2 161//2 160//2
f 161//2 162//2 160//2
f 160//2 162//2 163//2
f 163//2 162//2 164//2
f 164//2 162//2 165//2
f 165//2 162//2 166//2
f 166//2 162//2 167//2
f 167//2 162//2 168//2
f 168//2 162//2 169//2
f 169//2 162//2 170//2
f 170//2 162//2 171//2
f 162//2 172//2 171//2
f 172//2 173//2 171//2
f 173//2 174//2 171//2
f 174//2 175//2 171//2
f 175//2 176//2 171//2
f 176//2 177//2 171//2
f 177//2 178//2 171//2
f 178//2 179//2 171//2
f 179//2 180//2 171//2
f 180//2 181//2 171//2
f 181//2 182//2 171//2
f 182//2 183//2 171//2
f 183//2 184//2 171//2
f 184//2 185//2 171//2
f 185//2 186//2 171//2
f 186//2 187//2 171//2
f 187//2 188//2 171//2
f 188//2 189//2 171//2
f 189//2 190//2 171//2
f 190//2 191//2 171//2
f 191//2 192//2 171//2
f 192//2 193//2 171//2
f 194//2 171//2 193//2
usemtl material_1_0
f 1//1 2//1 3//1
f 2//1 1//1 4//1
f 2//1 4//1 5//1
f 2//1 5//1 6//1
f 2//1 6//1 7//1
f 2//1 7//1 8//1
f 2//1 8//1 9//1
f 2//1 9//1 10//1
f 2//1 10//1 11//1
f 2//1 11//1 12//1
f 2//1 12//1 13//1
f 2//1 13//1 14//1
f 2//1 14//1 15//1
f 2//1 15//1 16//1
f 2//1 16//1 17//1
f 2//1 17//1 18//1
f 2//1 18//1 19//1
f 2//1 19//1 20//1
f 2//1 20//1 21//1
f 2//1 21//1 22//1
f 2//1 22//1 23//1
f 2//1 23//1 24//1
f 2//1 24//1 25//1
f 2//1 25//1 26//1
f 26//1 25//1 27//1
f 27//1 25//1 28//1
f 28//1 25//1 29//1
f 29//1 25//1 30//1
f 30//1 25//1 31//1
f 31//1 25//1 32//1
f 32//1 25//1 33//1
f 33//1 25//1 34//1
f 34//1 25//1 35//1
f 34//1 35//1 36//1
f 34//1 36//1 37//1
f 37//1 36//1 38//1
f 37//1 38//1 39//1
f 39//1 38//1 40//1
f 39//1 40//1 41//1
f 39//1 41//1 42//1
f 42//1 41//1 43//1
f 42//1 43//1 44//1
f 42//1 44//1 45//1
f 45//1 44//1 46//1
f 45//1 46//1 47//1
f 45//1 47//1 48//1
f 48//1 47//1 49//1
f 48//1 49//1 50//1
f 48//1 50//1 51//1
f 51//1 50//1 52//1
f 51//1 52//1 53//1
f 51//1 53//1 54//1
f 54//1 53//1 55//1
f 54//1 55//1 56//1
f 54//1 56//1 57//1
f 57//1 56//1 58//1
f 57//1 58//1 59//1
f 59//1 58//1 60//1
f 59//1 60//1 61//1
f 59//1 61//1 62//1
f 62//1 61//1 63//1
f 62//1 63//1 64//1
f 64//1 63//1 65//1
f 64//1 65//1 66//1
f 66//1 65//1 67//1
f 66//1 67//1 68//1
f 68//1 67//1 69//1
f 68//1 69//1 70//1
f 68//1 70//1 71//1
f 71//1 70//1 72//1
f 71//1 72//1 73//1
f 73//1 72//1 74//1
f 73//1 74//1 75//1
f 75//1 74//1 76//1
f 75//1 76//1 77//1
f 77//1 76//1 78//1
f 77//1 78//1 79//1
f 79//1 78//1 80//1
f 79//1 80//1 81//1
f 81//1 80//1 82//1
f 82//1 80//1 83//1
f 82//1 83//1 84//1
f 84//1 83//1 85//1
f 84//1 85//1 86//1
f 86//1 85//1 87//1
f 86//1 87//1 88//1
f 88//1 87//1 89//1
f 89//1 87//1 90//1
f 89//1 90//1 91//1
f 91//1 90//1 92//1
f 91//1 92//1 93//1
f 93//1 92//1 94//1
f 94//1 92//1 95//1
f 94//1 95//1 96//1
f 96//1 95//1 97//1
