# SSTK version 0.8.0
# 4
mtllib original-4.mtl
o #ID35
v -0.094138 0.235062 -0.552821
v 0.096566 0.224937 -0.591923
v -0.094005 0.224698 -0.59251
v 0.096434 0.235301 -0.552234
v -0.09427 0.245102 -0.513067
v 0.096301 0.245341 -0.51248
v 0.096698 0.21425 -0.631545
v -0.093873 0.214011 -0.632132
v -0.094402 0.254818 -0.47325
v 0.096169 0.255057 -0.472663
v 0.096831 0.203241 -0.671098
v -0.09374 0.203002 -0.671685
v -0.094534 0.26421 -0.433373
v 0.096037 0.264449 -0.432786
v 0.096964 0.19191 -0.71058
v -0.093608 0.191671 -0.711167
v -0.094666 0.273277 -0.393438
v 0.095906 0.273516 -0.392851
v 0.097097 0.180258 -0.749989
v -0.093475 0.180019 -0.750576
v -0.094797 0.282017 -0.353447
v 0.095774 0.282256 -0.35286
v 0.097229 0.168285 -0.789322
v -0.093342 0.168046 -0.789909
v -0.094929 0.290432 -0.313402
v 0.095642 0.290671 -0.312815
v 0.097362 0.155993 -0.828577
v -0.093209 0.155754 -0.829164
v -0.09506 0.298521 -0.273305
v 0.095511 0.29876 -0.272718
v 0.097495 0.143381 -0.867753
v -0.093076 0.143142 -0.86834
v -0.095191 0.306282 -0.233159
v 0.09538 0.306521 -0.232572
v 0.097606 0.132692 -0.900071
v -0.092966 0.132453 -0.900658
v -0.095322 0.313716 -0.192966
v 0.095249 0.313955 -0.192379
v -0.095453 0.320822 -0.152727
v 0.095119 0.321061 -0.15214
v -0.095583 0.3276 -0.112445
v 0.094988 0.327839 -0.111858
v -0.095713 0.334049 -0.072123
v 0.094858 0.334288 -0.071536
v -0.095844 0.34017 -0.031763
v 0.094728 0.340409 -0.031176
v -0.095973 0.345961 0.008634
v 0.094598 0.3462 0.009221
v -0.096103 0.351423 0.049066
v 0.094468 0.351662 0.049652
v -0.096232 0.356554 0.089528
v 0.094339 0.356793 0.090115
v -0.096361 0.361356 0.130021
v 0.09421 0.361595 0.130608
v -0.09649 0.365827 0.170541
v 0.094081 0.366066 0.171128
v -0.096619 0.369968 0.211087
v 0.093952 0.370207 0.211674
v -0.096747 0.373777 0.251655
v 0.093824 0.374016 0.252242
v -0.096875 0.377256 0.292244
v 0.093696 0.377495 0.292831
vn -0.0004483035086228576 0.9685631827312903 -0.24876728097038248
vn -0.00042182871067470844 0.9665344674659474 -0.25653644041511225
vn -0.00047477231633757125 0.9705311174605661 -0.24097536104754028
vn -0.0003953502068645324 0.9644452978658375 -0.2642822565415429
vn -0.0005012329032377219 0.9724379869712596 -0.2331611251063545
vn -0.00036887009513272715 0.9622960320977691 -0.27200406346917355
vn -0.000527682927430003 0.974283403718014 -0.2253254774551009
vn -0.00034239085626404804 0.9600870400746084 -0.27970119457964204
vn -0.0005541200029919902 0.9760671276119585 -0.21746874567708074
vn -0.0003159146953039248 0.9578186206093261 -0.2873732593891664
vn -0.0005805418353839854 0.9777888009583986 -0.20959180253892182
vn -0.00028944367268928705 0.9554911442622965 -0.2950196424963734
vn -0.0006069461867521741 0.9794481566725215 -0.20169516604799043
vn -0.0002629801058193604 0.9531050410655013 -0.3026395736465952
vn -0.0006333306678243476 0.9810449219929137 -0.1937794104753734
vn -0.0002365261426127927 0.9506605947291712 -0.31023277983566255
vn -0.0006596929245383823 0.9825787760106308 -0.18584540279139497
vn -0.00022330344853587324 0.9494166249969767 -0.3140191432300272
vn -0.0006860305880923577 0.9840494933193976 -0.17789357509440593
vn -0.0007123412415494157 0.9854567951204836 -0.1699246819058992
vn -0.0007386226362751295 0.9868004380843617 -0.16193933997986157
vn -0.0007648724587618938 0.9880801639039456 -0.15393831449536396
vn -0.000791088121731329 0.9892957386717465 -0.1459222931066643
vn -0.0008172673145152073 0.990446955706143 -0.13789184169692714
vn -0.0008434075834496155 0.9915335855486956 -0.1298477469677297
vn -0.0008695068090986081 0.9925554442022368 -0.12179053387849649
vn -0.0008955623013369383 0.9935122968291972 -0.11372121181792669
vn -0.0009215717897463362 0.9944039987519405 -0.10564013428421491
vn -0.0009475328332275224 0.9952303457948734 -0.09754824955142408
vn -0.0009734431683120363 0.9959911727552928 -0.08944627550621954
vn -0.0009863784886077333 0.9963469805374916 -0.08539157705125502
usemtl material_0_0
f 1//1 2//2 3//2
f 2//2 1//1 4//1
f 5//3 4//1 1//1
f 4//1 5//3 6//3
f 3//2 7//4 8//4
f 7//4 3//2 2//2
f 9//5 6//3 5//3
f 6//3 9//5 10//5
f 8//4 11//6 12//6
f 11//6 8//4 7//4
f 13//7 10//5 9//5
f 10//5 13//7 14//7
f 12//6 15//8 16//8
f 15//8 12//6 11//6
f 17//9 14//7 13//7
f 14//7 17//9 18//9
f 16//8 19//10 20//10
f 19//10 16//8 15//8
f 21//11 18//9 17//9
f 18//9 21//11 22//11
f 20//10 23//12 24//12
f 23//12 20//10 19//10
f 25//13 22//11 21//11
f 22//11 25//13 26//13
f 24//12 27//14 28//14
f 27//14 24//12 23//12
f 29//15 26//13 25//13
f 26//13 29//15 30//15
f 28//14 31//16 32//16
f 31//16 28//14 27//14
f 33//17 30//15 29//15
f 30//15 33//17 34//17
f 32//16 35//18 36//18
f 35//18 32//16 31//16
f 37//19 34//17 33//17
f 34//17 37//19 38//19
f 39//20 38//19 37//19
f 38//19 39//20 40//20
f 41//21 40//20 39//20
f 40//20 41//21 42//21
f 43//22 42//21 41//21
f 42//21 43//22 44//22
f 45//23 44//22 43//22
f 44//22 45//23 46//23
f 47//24 46//23 45//23
f 46//23 47//24 48//24
f 49//25 48//24 47//24
f 48//24 49//25 50//25
f 51//26 50//25 49//25
f 50//25 51//26 52//26
f 53//27 52//26 51//26
f 52//26 53//27 54//27
f 55//28 54//27 53//27
f 54//27 55//28 56//28
f 57//29 56//28 55//28
f 56//28 57//29 58//29
f 59//30 58//29 57//29
f 58//29 59//30 60//30
f 61//31 60//30 59//30
f 60//30 61//31 62//31
