# SSTK version 0.8.0
# 22
mtllib original-22.mtl
o #ID175
v -0.041682 -0.041109 0.72515
v -0.007604 -0.040938 0.712819
v -0.041682 -0.040869 0.71282
v -0.007604 -0.041178 0.72515
v -0.007604 -0.041178 0.72515
v -0.041682 -0.041109 0.72515
v -0.007604 -0.040938 0.712819
v -0.041682 -0.040869 0.71282
v -0.007593 -0.035893 0.725252
v -0.041682 -0.041109 0.72515
v -0.041671 -0.035825 0.725253
v -0.007604 -0.041178 0.72515
v -0.007604 -0.041178 0.72515
v -0.007593 -0.035893 0.725252
v -0.041682 -0.041109 0.72515
v -0.041671 -0.035825 0.725253
v -0.007593 -0.035893 0.725252
v -0.007604 -0.040938 0.712819
v -0.007604 -0.041178 0.72515
v -0.007593 -0.035653 0.712922
v -0.007593 -0.035653 0.712922
v -0.007593 -0.035893 0.725252
v -0.007604 -0.040938 0.712819
v -0.007604 -0.041178 0.72515
v -0.007604 -0.040938 0.712819
v -0.041671 -0.035584 0.712923
v -0.041682 -0.040869 0.71282
v -0.007593 -0.035653 0.712922
v -0.007593 -0.035653 0.712922
v -0.007604 -0.040938 0.712819
v -0.041671 -0.035584 0.712923
v -0.041682 -0.040869 0.71282
v -0.041671 -0.035584 0.712923
v -0.041682 -0.041109 0.72515
v -0.041682 -0.040869 0.71282
v -0.041671 -0.035825 0.725253
v -0.041671 -0.035825 0.725253
v -0.041671 -0.035584 0.712923
v -0.041682 -0.041109 0.72515
v -0.041682 -0.040869 0.71282
vn 0.002017443960195982 0.9998081957760997 0.019480800260969957
vn -0.002017443960195982 -0.9998081957760997 -0.019480800260969957
vn 1.9652596789623854e-05 0.019480800260968646 -0.9998102310113492
vn -1.9652596789623854e-05 -0.019480800260968646 0.9998102310113492
vn -0.9999979647647506 0.0020174439602086637 1.9652595487726513e-05
vn 0.9999979647647506 -0.0020174439602086637 -1.9652595487726513e-05
usemtl material_0_0
f 1//1 2//1 3//1
f 2//1 1//1 4//1
f 5//2 6//2 7//2
f 8//2 7//2 6//2
f 9//3 10//3 11//3
f 10//3 9//3 12//3
f 13//4 14//4 15//4
f 16//4 15//4 14//4
f 17//5 18//5 19//5
f 18//5 17//5 20//5
f 21//6 22//6 23//6
f 24//6 23//6 22//6
f 25//4 26//4 27//4
f 26//4 25//4 28//4
f 29//3 30//3 31//3
f 32//3 31//3 30//3
f 33//6 34//6 35//6
f 34//6 33//6 36//6
f 37//5 38//5 39//5
f 40//5 39//5 38//5
