# SSTK version 0.8.0
# 3
mtllib original-3.mtl
o mesh3/mesh3-geometry#mesh3-geometry
v 0.300333 -0.002262 -0.261772
v 0.290987 -0.002262 -0.239210
v 0.355794 -0.002262 -0.224714
v 0.234912 -0.002262 -0.250364
v 0.338525 -0.002262 -0.207446
v -0.204681 -0.002262 -0.250364
v 0.392851 -0.002262 -0.169253
v -0.270102 -0.002262 -0.261772
v -0.204681 0.040476 -0.250364
v 0.370289 -0.002262 -0.159908
v 0.234912 -0.002262 -0.274785
v -0.260756 -0.002262 -0.239210
v 0.234912 0.040476 -0.250364
v -0.262880 -0.002262 -0.238310
v 0.405864 -0.002262 -0.103833
v -0.204681 -0.002262 -0.274785
v -0.325563 -0.002262 -0.224714
v 0.293111 0.040476 -0.238310
v -0.262880 0.040476 -0.238310
v 0.381443 -0.002262 -0.103833
v -0.204681 0.040476 -0.274785
v -0.308294 -0.002262 -0.207446
v 0.293111 -0.002262 -0.238310
v 0.381443 -0.002262 -0.013434
v 0.234912 0.040476 -0.274785
v -0.272580 0.040476 -0.260723
v -0.362621 -0.002262 -0.169253
v 0.338525 0.040476 -0.207446
v -0.308294 0.040476 -0.207446
v 0.381443 0.040476 -0.103833
v 0.405864 -0.002262 -0.013434
v 0.302810 0.040476 -0.260723
v -0.248927 0.040476 -0.268960
v -0.272580 -0.002262 -0.260723
v -0.340058 -0.002262 -0.159908
v -0.339159 0.040476 -0.162031
v 0.381443 -0.002262 0.074408
v 0.369389 0.040476 -0.162031
v 0.405864 -0.013854 -0.005557
v 0.405864 0.040476 0.335760
v 0.302810 -0.002262 -0.260723
v 0.279158 0.040476 -0.268960
v -0.325563 0.040476 -0.224714
v -0.375634 -0.002262 -0.103833
v 0.369389 -0.002262 -0.162031
v -0.339159 -0.002262 -0.162031
v 0.381443 -0.002262 0.335760
v 0.381443 -0.013496 0.066824
v 0.381443 -0.013496 -0.005850
v 0.405864 -0.013496 -0.005850
v 0.405864 -0.002262 0.074408
v 0.405864 0.040476 -0.103833
v -0.290157 0.040476 -0.251882
v -0.351212 -0.002262 -0.103833
v -0.351212 0.040476 -0.103833
v 0.381443 0.040476 0.335760
v 0.381443 -0.013854 -0.005557
v 0.405864 -0.002262 0.335760
v 0.405864 0.040476 0.074408
v 0.391802 -0.002262 -0.171731
v 0.355794 0.040476 -0.224714
v 0.320388 0.040476 -0.251882
v -0.361571 -0.002262 -0.171731
v -0.375634 -0.002262 -0.013434
v 0.381443 0.040476 -0.013434
v 0.369389 -0.002262 0.393959
v 0.381443 -0.022308 0.056395
v 0.381443 -0.013854 0.066532
v 0.381443 -0.022780 0.005364
v 0.405864 -0.013496 0.066824
v 0.391802 0.040476 0.403659
v -0.375634 0.040476 0.335760
v 0.405864 0.040476 -0.013434
v 0.391802 0.040476 -0.171731
v -0.361571 0.040476 -0.171731
v -0.375634 0.040476 -0.103833
v -0.351212 -0.002262 -0.013434
v -0.351212 0.040476 0.335760
v 0.381443 0.040476 0.074408
v 0.369389 0.040476 0.393959
v 0.370289 -0.002262 0.391835
v 0.381443 -0.022308 0.004580
v 0.405864 -0.013854 0.066532
v 0.405864 -0.022780 0.005364
v 0.405864 -0.022308 0.004580
v 0.391802 -0.002262 0.403659
v -0.375634 0.040476 0.074408
v -0.369809 0.040476 0.380006
v 0.405864 0.051711 0.066824
v -0.375634 0.040476 -0.013434
v -0.375634 -0.002262 0.074408
v -0.351212 -0.013854 -0.005557
v -0.351212 0.040476 0.074408
v 0.381443 0.051711 -0.005850
v 0.338525 -0.002262 0.439373
v 0.392851 -0.002262 0.401181
v 0.381443 -0.027841 0.043953
v 0.405864 -0.022780 0.055611
v 0.381443 -0.028090 0.017912
v 0.405864 -0.022308 0.056395
v 0.355794 0.040476 0.456642
v 0.400039 0.040476 0.380006
v 0.405864 0.051711 -0.005850
v 0.405864 0.052069 0.066532
v -0.352730 0.040476 -0.189309
v -0.375634 -0.002262 0.335760
v -0.375634 -0.013496 0.066824
v -0.375634 -0.013496 -0.005850
v -0.351212 -0.013496 -0.005850
v -0.351212 -0.002262 0.074408
v -0.351212 0.040476 -0.013434
v 0.381443 0.051711 0.066824
v 0.338525 0.040476 0.439373
v 0.381443 -0.027841 0.017021
v 0.381443 -0.022780 0.055611
v 0.405864 -0.028090 0.017912
v 0.405864 -0.027841 0.017021
v 0.355794 -0.002262 0.456642
v -0.375634 0.051711 -0.005850
v -0.352730 0.040476 0.421236
v 0.405864 0.060523 0.056395
v 0.405864 0.052069 -0.005557
v 0.400039 0.040476 -0.148078
v 0.382961 0.040476 -0.189309
v -0.375634 -0.013854 -0.005557
v -0.351212 -0.002262 0.335760
v -0.351212 0.051711 0.066824
v 0.381443 0.060523 0.004580
v 0.381443 0.052069 -0.005557
v 0.293111 0.040476 0.470238
v 0.381443 -0.029736 0.030487
v 0.405864 -0.028090 0.043063
v 0.405864 -0.027841 0.043953
v 0.302810 -0.002262 0.492651
v -0.375634 0.051711 0.066824
v 0.382961 0.040476 0.421236
v 0.405864 0.060523 0.004580
v -0.369809 0.040476 -0.148078
v -0.361571 -0.002262 0.403659
v -0.375634 -0.022308 0.056395
v -0.375634 -0.013854 0.066532
v -0.375634 -0.022780 0.005364
v -0.351212 -0.013496 0.066824
v -0.339159 0.040476 0.393959
v -0.351212 0.051711 -0.005850
v -0.351212 0.052069 0.066532
v 0.381443 0.060523 0.056395
v 0.381443 0.052069 0.066532
v 0.293111 -0.002262 0.470238
v 0.290987 -0.002262 0.471137
v 0.381443 -0.028090 0.043063
v 0.405864 -0.029736 0.030487
v 0.302810 0.040476 0.492651
v -0.375634 0.060523 0.004580
v -0.375634 0.052069 -0.005557
v -0.325563 0.040476 0.456642
v 0.405864 0.066055 0.043953
v 0.405864 0.060994 0.005364
v -0.361571 0.040476 0.403659
v -0.362621 -0.002262 0.401181
v -0.375634 -0.022308 0.004580
v -0.351212 -0.013854 0.066532
v -0.351212 -0.022780 0.005364
v -0.351212 -0.022308 0.004580
v -0.339159 -0.002262 0.393959
v -0.351212 0.060523 0.056395
v -0.351212 0.052069 -0.005557
v 0.381443 0.066055 0.017021
v 0.381443 0.060994 0.055611
v 0.234912 0.040476 0.482291
v 0.300333 -0.002262 0.493700
v 0.234912 0.040476 0.506713
v -0.375634 0.060523 0.056395
v -0.375634 0.052069 0.066532
v 0.405864 0.066055 0.017021
v 0.381443 0.060994 0.005364
v -0.325563 -0.002262 0.456642
v -0.340058 -0.002262 0.391835
v -0.375634 -0.027841 0.043953
v -0.351212 -0.022780 0.055611
v -0.375634 -0.028090 0.017912
v -0.351212 -0.022308 0.056395
v -0.308294 0.040476 0.439373
v -0.351212 0.060523 0.004580
v 0.381443 0.066055 0.043953
v 0.405864 0.060994 0.055611
v 0.234912 -0.002262 0.482291
v 0.234912 -0.002262 0.506713
v -0.375634 0.066055 0.017021
v -0.375634 0.060994 0.055611
v -0.351212 0.060994 0.005364
v -0.290157 0.040476 0.483809
v 0.405864 0.067951 0.030487
v 0.405864 0.066304 0.017912
v -0.308294 -0.002262 0.439373
v -0.375634 -0.027841 0.017021
v -0.375634 -0.022780 0.055611
v -0.351212 -0.028090 0.017912
v -0.351212 -0.027841 0.017021
v -0.351212 0.066055 0.043953
v 0.381443 0.067951 0.030487
v 0.381443 0.066304 0.043063
v -0.204681 0.040476 0.482291
v -0.270102 -0.002262 0.493700
v -0.204681 0.040476 0.506713
v -0.375634 0.066055 0.043953
v -0.351212 0.060994 0.055611
v -0.375634 0.060994 0.005364
v 0.320388 0.040476 0.483809
v 0.381443 0.066304 0.017912
v -0.272580 0.040476 0.492651
v -0.375634 -0.029736 0.030487
v -0.351212 -0.028090 0.043063
v -0.351212 -0.027841 0.043953
v -0.262880 -0.002262 0.470238
v -0.351212 0.066055 0.017021
v 0.405864 0.066304 0.043063
v -0.204681 -0.002262 0.482291
v -0.204681 -0.002262 0.506713
v 0.279158 0.040476 0.500888
v -0.375634 0.067951 0.030487
v -0.375634 0.066304 0.043063
v -0.351212 0.066304 0.017912
v -0.248927 0.040476 0.500888
v -0.272580 -0.002262 0.492651
v -0.260756 -0.002262 0.471137
v -0.375634 -0.028090 0.043063
v -0.351212 -0.029736 0.030487
v -0.262880 0.040476 0.470238
v -0.351212 0.067951 0.030487
v -0.351212 0.066304 0.043063
v -0.375634 0.066304 0.017912
vn 0 1 0
vn -0.10193203739351996 0 -0.9947913649367923
vn 0.10193203739351996 0 -0.9947913649367923
vn -0.3899429986020544 0 -0.9208389966987923
vn 0.3899429986020544 0 -0.9208389966987923
vn -0.10193203739351996 0 0.9947913649367923
vn 0.10193203739351996 0 0.9947913649367923
vn -0.7071067811865476 0 -0.7071067811865476
vn 0.3899429986020544 0 0.9208389966987923
vn 0.7071067811865476 0 -0.7071067811865476
vn 0.9947913649367923 0 -0.10193203739351996
vn 1 0 0
vn -0.3899429986020544 0 0.9208389966987923
vn -0.9208389966987923 0 -0.3899429986020544
vn 0.9208389966987923 0 -0.3899429986020544
vn 0 0.5608318269486365 0.8279297445323817
vn 0 0.6746697492590343 0.738119725677855
vn -1 0 0
vn -0.9947913649367923 0 -0.10193203739351996
vn -0.9947913649367923 0 0.10193203739351996
vn 0.7071067811865476 0 0.7071067811865476
vn 0.9947913649367923 0 0.10193203739351996
vn -0.7071067811865476 0 0.7071067811865476
vn 0 0.5608318269486365 -0.8279297445323817
vn -0.9208389966987923 0 0.3899429986020544
vn 0.9208389966987923 0 0.3899429986020544
vn 0.92083935577326 0 0.3899421506571035
vn 0 0.6746697492590343 -0.738119725677855
vn 0 0.8562961734680682 0.5164851046293049
vn 0 0.8562961734680682 -0.5164851046293049
vn 0 0.9650233119800244 0.2621640847543853
vn 0 -0.5608318269486365 -0.8279297445323817
vn 0 -0.6746697492590343 -0.738119725677855
vn 0 -0.5608318269486365 0.8279297445323817
vn 0 -0.6746697492590343 0.738119725677855
vn 0.3899421506571035 0 0.92083935577326
vn 0 0.9650233119800244 -0.2621640847543853
vn -0.92083935577326 0 0.3899421506571035
vn 0 -0.8562961734680682 0.5164851046293049
vn 0 -0.8562961734680682 -0.5164851046293049
vn 0.10193302700359144 0 0.9947912635351626
vn -0.10193302700359144 0 -0.9947912635351626
vn 0 -0.9650233119800244 0.2621640847543853
vn 0 -0.9650233119800244 -0.2621640847543853
vn -0.10193302700359144 0 0.9947912635351626
vn 0.10193302700359144 0 -0.9947912635351626
vn -0.3899421506571035 0 0.92083935577326
vn 0 -1 0
vn -0.92083935577326 0 -0.3899421506571035
vn -0.3899421506571035 0 -0.92083935577326
vn 0.92083935577326 0 -0.3899421506571035
vn 0.3899421506571035 0 -0.92083935577326
usemtl material_0_0
f 1//1 2//1 3//1
f 2//1 1//1 4//1
f 3//1 2//1 5//1
f 4//1 1//1 6//1
f 3//1 5//1 7//1
f 1//1 8//1 6//1
f 9//2 4//3 6//2
f 7//1 5//1 10//1
f 11//1 8//1 1//1
f 6//1 8//1 12//1
f 4//3 9//2 13//3
f 14//4 9//2 6//2
f 7//1 10//1 15//1
f 8//1 11//1 16//1
f 12//1 8//1 17//1
f 18//5 4//3 13//3
f 9//2 14//4 19//4
f 15//1 10//1 20//1
f 11//6 21//7 16//7
f 12//1 17//1 22//1
f 4//3 18//5 23//5
f 22//8 19//4 14//4
f 15//1 20//1 24//1
f 21//7 11//6 25//6
f 26//9 16//7 21//7
f 22//1 17//1 27//1
f 28//10 23//5 18//5
f 19//4 22//8 29//8
f 30//11 24//12 20//11
f 15//1 24//1 31//1
f 11//6 32//13 25//6
f 33//1 25//1 21//1
f 16//7 26//9 34//9
f 22//1 27//1 35//1
f 23//5 28//10 5//10
f 22//8 36//14 29//8
f 24//12 30//11 37//12
f 20//11 38//15 30//11
f 24//16 39//17 31//16
f 31//18 40//19 15//20
f 32//13 11//6 41//13
f 25//1 33//1 42//1
f 43//21 34//9 26//9
f 35//1 27//1 44//1
f 28//10 45//15 5//10
f 36//14 22//8 46//14
f 37//12 30//11 47//22
f 48//12 24//12 37//12
f 38//15 20//11 45//15
f 49//16 39//17 24//16
f 31//16 39//17 50//16
f 51//18 40//19 31//18
f 15//20 40//19 52//20
f 3//23 32//13 41//13
f 42//1 33//1 53//1
f 34//9 43//21 17//21
f 35//1 44//1 54//1
f 45//15 28//10 38//15
f 46//14 55//19 36//14
f 47//22 30//11 56//22
f 47//1 51//1 37//1
f 48//12 49//12 24//12
f 51//24 48//24 37//24
f 39//17 49//16 57//17
f 50//18 51//18 31//18
f 40//19 51//18 58//19
f 52//20 40//19 59//18
f 52//20 60//25 15//20
f 32//13 3//23 61//23
f 42//1 53//1 62//1
f 43//21 63//26 17//21
f 54//1 44//1 64//1
f 55//19 46//14 54//19
f 56//22 30//11 65//12
f 56//22 66//27 47//22
f 51//1 47//1 58//1
f 67//12 49//12 48//12
f 48//24 51//24 68//28
f 69//29 39//17 57//17
f 50//18 70//18 51//18
f 58//19 71//14 40//19
f 59//1 72//1 40//1
f 52//20 59//18 73//18
f 60//25 52//20 74//25
f 3//23 74//25 61//23
f 62//1 53//1 43//1
f 63//26 43//21 75//26
f 76//22 64//12 44//22
f 54//1 64//1 77//1
f 54//19 78//20 55//19
f 56//22 65//12 79//12
f 66//27 56//22 80//27
f 58//1 47//1 81//1
f 67//12 82//12 49//12
f 68//28 51//24 83//28
f 39//17 69//29 84//29
f 85//18 70//18 50//18
f 83//28 51//24 70//24
f 71//14 58//19 86//14
f 59//1 87//1 72//1
f 40//1 72//1 88//1
f 89//18 73//18 59//18
f 73//1 87//1 59//1
f 52//1 90//1 73//1
f 74//25 3//23 60//25
f 62//1 43//1 61//1
f 75//26 44//22 63//26
f 64//12 76//22 91//12
f 44//22 75//26 76//22
f 64//16 92//17 77//16
f 77//18 78//20 54//19
f 55//19 78//20 93//18
f 94//12 79//12 65//12
f 80//27 95//21 66//27
f 58//1 81//1 96//1
f 97//12 82//12 67//12
f 98//30 68//28 83//28
f 99//31 84//29 69//29
f 85//18 100//18 70//18
f 86//14 101//8 71//14
f 72//11 90//12 87//12
f 40//1 88//1 102//1
f 73//18 89//18 103//18
f 59//32 104//33 89//32
f 73//1 90//1 87//1
f 52//1 76//1 90//1
f 61//1 43//1 105//1
f 91//12 76//22 106//11
f 107//12 64//12 91//12
f 108//16 92//17 64//16
f 77//16 92//17 109//16
f 110//18 78//20 77//18
f 55//19 93//18 111//18
f 79//12 94//12 112//12
f 73//34 94//34 65//34
f 95//21 80//27 113//21
f 96//1 81//1 95//1
f 97//12 114//12 82//12
f 68//28 98//30 115//30
f 84//29 99//31 116//31
f 117//18 100//18 85//18
f 101//8 86//14 118//8
f 72//11 76//22 90//12
f 119//12 87//12 90//12
f 102//1 88//1 120//1
f 103//18 89//18 121//18
f 122//35 73//34 103//34
f 79//32 104//33 59//32
f 123//1 76//1 52//1
f 61//1 105//1 124//1
f 106//11 76//22 72//11
f 106//1 110//1 91//1
f 107//12 108//12 64//12
f 110//24 107//24 91//24
f 92//17 108//16 125//17
f 109//18 110//18 77//18
f 78//20 110//18 126//20
f 127//18 111//18 93//18
f 112//12 94//12 128//12
f 112//32 104//33 79//32
f 94//34 73//34 129//35
f 130//36 95//21 113//21
f 96//1 95//1 118//1
f 114//12 97//12 131//12
f 132//37 115//30 98//30
f 131//1 116//31 99//31
f 117//18 133//18 100//18
f 134//4 101//8 118//8
f 87//12 119//12 135//12
f 111//34 119//34 90//34
f 102//1 120//1 136//1
f 103//18 121//18 137//18
f 129//35 73//34 122//35
f 123//1 138//1 76//1
f 124//1 105//1 138//1
f 72//11 139//15 106//11
f 110//1 106//1 126//1
f 140//12 108//12 107//12
f 107//24 110//24 141//28
f 142//29 92//17 125//17
f 109//18 143//18 110//18
f 126//20 144//38 78//20
f 111//18 127//18 145//18
f 93//32 146//33 127//32
f 112//12 128//12 147//12
f 104//33 112//32 148//33
f 95//21 130//36 149//36
f 118//1 95//1 150//1
f 115//30 132//37 151//37
f 116//31 131//1 152//1
f 133//18 117//18 152//18
f 101//8 134//4 153//4
f 135//12 119//12 154//12
f 135//32 146//33 87//32
f 119//34 111//34 155//35
f 136//1 120//1 156//1
f 137//18 121//18 157//18
f 158//39 129//35 122//35
f 124//1 138//1 123//1
f 139//15 72//11 159//15
f 126//1 106//1 160//1
f 140//12 161//12 108//12
f 141//28 110//24 162//28
f 92//17 142//29 163//29
f 164//18 143//18 109//18
f 162//28 110//24 143//24
f 144//38 126//20 165//38
f 145//18 127//18 166//18
f 167//35 111//34 145//34
f 87//32 146//33 93//32
f 147//12 128//12 168//12
f 169//40 104//33 148//33
f 170//41 149//36 130//36
f 118//1 150//1 171//1
f 152//1 151//37 132//37
f 151//37 152//1 131//1
f 134//4 172//42 153//4
f 135//12 154//12 173//12
f 146//33 135//32 174//33
f 155//35 111//34 167//35
f 136//1 156//1 101//1
f 137//18 157//18 175//18
f 129//35 158//39 176//39
f 159//15 177//10 139//15
f 126//1 160//1 178//1
f 179//12 161//12 140//12
f 180//30 141//28 162//28
f 181//31 163//29 142//29
f 164//18 182//18 143//18
f 165//38 183//23 144//38
f 145//18 166//18 184//18
f 147//12 168//12 185//12
f 104//33 169//40 186//40
f 149//36 170//41 187//41
f 171//1 150//1 187//1
f 172//42 134//4 188//42
f 173//12 154//12 189//12
f 190//40 146//33 174//33
f 191//39 155//35 167//35
f 101//1 156//1 192//1
f 175//18 157//18 193//18
f 194//43 176//39 158//39
f 177//10 159//15 156//10
f 178//1 160//1 195//1
f 179//12 196//12 161//12
f 141//28 180//30 197//30
f 163//29 181//31 198//31
f 199//18 182//18 164//18
f 183//23 165//38 195//23
f 184//18 166//18 200//18
f 185//12 168//12 201//12
f 202//44 186//40 169//40
f 203//45 187//41 170//41
f 171//1 187//1 204//1
f 188//42 205//46 172//42
f 173//12 189//12 206//12
f 146//33 190//40 207//40
f 155//35 191//39 208//39
f 101//1 192//1 209//1
f 176//39 194//43 210//43
f 211//5 177//10 156//10
f 195//1 160//1 177//1
f 196//12 179//12 212//12
f 213//37 197//30 180//30
f 212//1 198//31 181//31
f 199//18 214//18 182//18
f 215//47 183//23 195//23
f 184//18 200//18 216//18
f 186//40 202//44 217//44
f 187//41 203//45 218//45
f 218//1 204//1 187//1
f 171//1 204//1 219//1
f 205//46 188//42 219//46
f 220//1 205//1 172//1
f 206//12 189//12 221//12
f 222//44 207//40 190//40
f 223//43 208//39 191//39
f 209//1 192//1 224//1
f 193//48 210//43 194//43
f 177//10 211//5 225//5
f 195//1 177//1 226//1
f 197//30 213//37 227//37
f 198//31 212//1 228//1
f 214//18 199//18 228//18
f 183//23 215//47 229//47
f 216//18 200//18 230//18
f 201//48 217//44 202//44
f 229//47 218//45 203//45
f 226//1 204//1 218//1
f 171//1 219//1 188//1
f 225//5 205//46 219//46
f 220//1 224//1 205//1
f 207//40 222//44 231//44
f 208//39 223//43 232//43
f 209//1 224//1 220//1
f 210//43 193//48 201//48
f 205//46 225//5 211//5
f 226//1 177//1 204//1
f 213//37 212//1 227//37
f 212//1 213//37 228//1
f 218//45 229//47 215//47
f 217//44 201//48 193//48
f 221//48 231//44 222//44
f 230//48 232//43 223//43
f 231//44 221//48 230//48
f 232//43 230//48 221//48
usemtl material_1_0
f 3//48 2//48 1//48
f 4//48 1//48 2//48
f 5//48 2//48 3//48
f 6//48 1//48 4//48
f 7//48 5//48 3//48
f 6//48 8//48 1//48
f 6//7 4//6 9//7
f 10//48 5//48 7//48
f 1//48 8//48 11//48
f 12//48 8//48 6//48
f 13//6 9//7 4//6
f 6//7 9//7 14//9
f 15//48 10//48 7//48
f 16//48 11//48 8//48
f 17//48 8//48 12//48
f 13//6 4//6 18//13
f 19//9 14//9 9//7
f 20//48 10//48 15//48
f 16//2 21//2 11//3
f 22//48 17//48 12//48
f 23//13 18//13 4//6
f 14//9 19//9 22//21
f 24//48 20//48 15//48
f 25//3 11//3 21//2
f 21//2 16//2 26//4
f 27//48 17//48 22//48
f 18//13 23//13 28//23
f 29//21 22//21 19//9
f 20//20 24//18 30//20
f 31//48 24//48 15//48
f 25//3 32//5 11//3
f 21//48 25//48 33//48
f 34//4 26//4 16//2
f 35//48 27//48 22//48
f 5//23 28//23 23//13
f 29//21 36//26 22//21
f 37//18 30//20 24//18
f 30//20 38//25 20//20
f 31//32 39//33 24//32
f 15//11 40//22 31//12
f 41//5 11//3 32//5
f 42//48 33//48 25//48
f 26//4 34//4 43//8
f 44//48 27//48 35//48
f 5//23 45//25 28//23
f 46//26 22//21 36//26
f 47//19 30//20 37//18
f 37//18 24//18 48//18
f 45//25 20//20 38//25
f 24//32 39//33 49//32
f 50//32 39//33 31//32
f 31//12 40//22 51//12
f 52//11 40//22 15//11
f 41//5 32//5 3//10
f 53//48 33//48 42//48
f 17//8 43//8 34//4
f 54//48 44//48 35//48
f 38//25 28//23 45//25
f 36//26 55//22 46//26
f 56//19 30//20 47//19
f 37//48 51//48 47//48
f 24//18 49//18 48//18
f 37//34 48//34 51//34
f 57//33 49//32 39//33
f 31//12 51//12 50//12
f 58//22 51//12 40//22
f 59//12 40//22 52//11
f 15//11 60//15 52//11
f 61//10 3//10 32//5
f 62//48 53//48 42//48
f 17//8 63//14 43//8
f 64//48 44//48 54//48
f 54//22 46//26 55//22
f 65//18 30//20 56//19
f 47//19 66//49 56//19
f 58//48 47//48 51//48
f 48//18 49//18 67//18
f 68//35 51//34 48//34
f 57//33 39//33 69//40
f 51//12 70//12 50//12
f 40//22 71//26 58//22
f 40//48 72//48 59//48
f 73//12 59//12 52//11
f 74//15 52//11 60//15
f 61//10 74//15 3//10
f 43//48 53//48 62//48
f 75//14 43//8 63//14
f 44//19 64//18 76//19
f 77//48 64//48 54//48
f 55//22 78//11 54//22
f 79//18 65//18 56//19
f 80//49 56//19 66//49
f 81//48 47//48 58//48
f 49//18 82//18 67//18
f 83//35 51//34 68//35
f 84//40 69//40 39//33
f 50//12 70//12 85//12
f 70//34 51//34 83//35
f 86//26 58//22 71//26
f 72//48 87//48 59//48
f 88//48 72//48 40//48
f 59//12 73//12 89//12
f 59//48 87//48 73//48
f 73//48 90//48 52//48
f 60//15 3//10 74//15
f 61//48 43//48 62//48
f 63//14 44//19 75//14
f 91//18 76//19 64//18
f 76//19 75//14 44//19
f 77//32 92//33 64//32
f 54//22 78//11 77//12
f 93//12 78//11 55//22
f 65//18 79//18 94//18
f 66//49 95//8 80//49
f 96//48 81//48 58//48
f 67//18 82//18 97//18
f 83//35 68//35 98//39
f 69//40 84//40 99//44
f 70//12 100//12 85//12
f 71//26 101//21 86//26
f 87//18 90//18 72//20
f 102//48 88//48 40//48
f 103//12 89//12 73//12
f 89//16 104//17 59//16
f 87//48 90//48 73//48
f 90//48 76//48 52//48
f 105//48 43//48 61//48
f 106//20 76//19 91//18
f 91//18 64//18 107//18
f 64//32 92//33 108//32
f 109//32 92//33 77//32
f 77//12 78//11 110//12
f 111//12 93//12 55//22
f 112//18 94//18 79//18
f 65//24 94//24 73//24
f 113//8 80//49 95//8
f 95//48 81//48 96//48
f 82//18 114//18 97//18
f 115//39 98//39 68//35
f 116//44 99//44 84//40
f 85//12 100//12 117//12
f 118//21 86//26 101//21
f 90//18 76//19 72//20
f 90//18 87//18 119//18
f 120//48 88//48 102//48
f 121//12 89//12 103//12
f 103//24 73//24 122//28
f 59//16 104//17 79//16
f 52//48 76//48 123//48
f 124//48 105//48 61//48
f 72//20 76//19 106//20
f 91//48 110//48 106//48
f 64//18 108//18 107//18
f 91//34 107//34 110//34
f 125//33 108//32 92//33
f 77//12 110//12 109//12
f 126//11 110//12 78//11
f 93//12 111//12 127//12
f 128//18 94//18 112//18
f 79//16 104//17 112//16
f 129//28 73//24 94//24
f 113//8 95//8 130//50
f 118//48 95//48 96//48
f 131//18 97//18 114//18
f 98//39 115//39 132//43
f 99//44 116//44 131//48
f 100//12 133//12 117//12
f 118//21 101//21 134//9
f 135//18 119//18 87//18
f 90//24 119//24 111//24
f 136//48 120//48 102//48
f 137//12 121//12 103//12
f 122//28 73//24 129//28
f 76//48 138//48 123//48
f 138//48 105//48 124//48
f 106//20 139//25 72//20
f 126//48 106//48 110//48
f 107//18 108//18 140//18
f 141//35 110//34 107//34
f 125//33 92//33 142//40
f 110//12 143//12 109//12
f 78//11 144//51 126//11
f 145//12 127//12 111//12
f 127//16 146//17 93//16
f 147//18 128//18 112//18
f 148//17 112//16 104//17
f 149//50 130//50 95//8
f 150//48 95//48 118//48
f 151//43 132//43 115//39
f 152//48 131//48 116//44
f 152//12 117//12 133//12
f 153//9 134//9 101//21
f 154//18 119//18 135//18
f 87//16 146//17 135//16
f 155//28 111//24 119//24
f 156//48 120//48 136//48
f 157//12 121//12 137//12
f 122//28 129//28 158//30
f 123//48 138//48 124//48
f 159//25 72//20 139//25
f 160//48 106//48 126//48
f 108//18 161//18 140//18
f 162//35 110//34 141//35
f 163//40 142//40 92//33
f 109//12 143//12 164//12
f 143//34 110//34 162//35
f 165//51 126//11 144//51
f 166//12 127//12 145//12
f 145//24 111//24 167//28
f 93//16 146//17 87//16
f 168//18 128//18 147//18
f 148//17 104//17 169//29
f 130//50 149//50 170//42
f 171//48 150//48 118//48
f 132//43 151//43 152//48
f 131//48 152//48 151//43
f 153//9 172//41 134//9
f 173//18 154//18 135//18
f 174//17 135//16 146//17
f 167//28 111//24 155//28
f 101//48 156//48 136//48
f 175//12 157//12 137//12
f 176//30 158//30 129//28
f 139//25 177//23 159//25
f 178//48 160//48 126//48
f 140//18 161//18 179//18
f 162//35 141//35 180//39
f 142//40 163//40 181//44
f 143//12 182//12 164//12
f 144//51 183//10 165//51
f 184//12 166//12 145//12
f 185//18 168//18 147//18
f 186//29 169//29 104//17
f 187//42 170//42 149//50
f 187//48 150//48 171//48
f 188//41 134//9 172//41
f 189//18 154//18 173//18
f 174//17 146//17 190//29
f 167//28 155//28 191//30
f 192//48 156//48 101//48
f 193//12 157//12 175//12
f 158//30 176//30 194//37
f 156//23 159//25 177//23
f 195//48 160//48 178//48
f 161//18 196//18 179//18
f 197//39 180//39 141//35
f 198//44 181//44 163//40
f 164//12 182//12 199//12
f 195//10 165//51 183//10
f 200//12 166//12 184//12
f 201//18 168//18 185//18
f 169//29 186//29 202//31
f 170//42 187//42 203//46
f 204//48 187//48 171//48
f 172//41 205//45 188//41
f 206//18 189//18 173//18
f 207//29 190//29 146//17
f 208//30 191//30 155//28
f 209//48 192//48 101//48
f 210//37 194//37 176//30
f 156//23 177//23 211//13
f 177//48 160//48 195//48
f 212//18 179//18 196//18
f 180//39 197//39 213//43
f 181//44 198//44 212//48
f 182//12 214//12 199//12
f 195//10 183//10 215//52
f 216//12 200//12 184//12
f 217//31 202//31 186//29
f 218//46 203//46 187//42
f 187//48 204//48 218//48
f 219//48 204//48 171//48
f 219//45 188//41 205//45
f 172//48 205//48 220//48
f 221//18 189//18 206//18
f 190//29 207//29 222//31
f 191//30 208//30 223//37
f 224//48 192//48 209//48
f 194//37 210//37 193//1
f 225//13 211//13 177//23
f 226//48 177//48 195//48
f 227//43 213//43 197//39
f 228//48 212//48 198//44
f 228//12 199//12 214//12
f 229//52 215//52 183//10
f 230//12 200//12 216//12
f 202//31 217//31 201//1
f 203//46 218//46 229//52
f 218//48 204//48 226//48
f 188//48 219//48 171//48
f 219//45 205//45 225//13
f 205//48 224//48 220//48
f 231//31 222//31 207//29
f 232//37 223//37 208//30
f 220//48 224//48 209//48
f 201//1 193//1 210//37
f 211//13 225//13 205//45
f 204//48 177//48 226//48
f 227//43 212//48 213//43
f 228//48 213//43 212//48
f 215//52 229//52 218//46
f 193//1 201//1 217//31
f 222//31 231//31 221//1
f 223//37 232//37 230//1
f 230//1 221//1 231//31
f 221//1 230//1 232//37
