# SSTK version 0.8.0
# 2
mtllib original-2.mtl
o mesh2/mesh2-geometry#mesh2-geometry
v -0.235208 -0.767199 -0.363397
v 0.265439 -0.747135 -0.401133
v -0.235208 -0.747135 -0.401133
v 0.265439 -0.767199 -0.363397
v -0.235208 -0.725572 -0.389668
v -0.303107 -0.734719 -0.394531
v 0.265439 -0.745636 -0.351932
v 0.333338 -0.734719 -0.394531
v -0.291283 -0.715724 -0.384431
v 0.265439 -0.725572 -0.389668
v -0.303107 -0.754783 -0.356796
v -0.235208 -0.745636 -0.351932
v 0.321514 -0.735788 -0.346696
v 0.333338 -0.754783 -0.356796
v -0.300629 -0.735645 -0.395024
v 0.330860 -0.735645 -0.395024
v -0.356090 -0.702925 -0.377626
v -0.291283 -0.735788 -0.346696
v 0.330860 -0.755710 -0.357288
v 0.386321 -0.702925 -0.377626
v -0.338821 -0.687678 -0.369519
v 0.321514 -0.715724 -0.384431
v -0.293407 -0.714929 -0.384009
v -0.356090 -0.722989 -0.339891
v -0.300629 -0.755710 -0.357288
v 0.323638 -0.714929 -0.384009
v 0.369052 -0.707742 -0.331783
v 0.386321 -0.722989 -0.339891
v 0.369052 -0.687678 -0.369519
v -0.293407 -0.734994 -0.346273
v -0.392099 -0.676208 -0.315016
v -0.338821 -0.707742 -0.331783
v 0.323638 -0.734994 -0.346273
v 0.422329 -0.676208 -0.315016
v -0.370585 -0.645704 -0.347201
v -0.392099 -0.656144 -0.352752
v 0.400816 -0.665768 -0.309466
v 0.422329 -0.656144 -0.352752
v -0.393148 -0.653956 -0.351589
v 0.400816 -0.645704 -0.347201
v -0.406161 -0.616257 -0.283140
v -0.370585 -0.665768 -0.309466
v 0.423379 -0.674020 -0.313853
v 0.436392 -0.616257 -0.283140
v -0.381739 -0.596193 -0.320876
v 0.423379 -0.653956 -0.351589
v -0.369686 -0.667644 -0.310463
v -0.406161 -0.596193 -0.320876
v -0.393148 -0.674020 -0.313853
v 0.399917 -0.667644 -0.310463
v 0.411970 -0.616257 -0.283140
v 0.436392 -0.596193 -0.320876
v -0.381739 -0.009641 -0.009000
v 0.411970 -0.596193 -0.320876
v -0.369686 -0.647579 -0.348198
v -0.406161 -0.029705 0.028735
v -0.381739 -0.616257 -0.283140
v 0.399917 -0.647579 -0.348198
v 0.436392 -0.029705 0.028735
v -0.381739 -0.029705 0.028735
v 0.436392 -0.009641 -0.009000
v -0.406161 -0.009641 -0.009000
v 0.411970 -0.029705 0.028735
v -0.381739 -0.027560 0.044934
v 0.411970 -0.009641 -0.009000
v -0.406161 -0.027560 0.044934
v -0.406161 -0.027353 0.045557
v 0.411970 -0.027353 0.045557
v 0.436392 -0.027560 0.044934
v -0.406161 0.005620 -0.016457
v -0.381739 -0.020190 0.059521
v 0.411970 0.005620 -0.016457
v -0.406161 -0.020190 0.059521
v -0.381739 -0.027353 0.045557
v 0.436392 -0.027353 0.045557
v 0.436392 -0.020190 0.059521
v -0.381739 0.005620 -0.016457
v -0.381739 -0.008386 0.070823
v 0.436392 0.005620 -0.016457
v 0.411970 -0.027560 0.044934
v -0.406161 -0.008386 0.070823
v -0.406161 -0.019414 0.060517
v 0.411970 -0.019414 0.060517
v 0.436392 -0.008386 0.070823
v -0.406161 0.022462 -0.018241
v -0.381739 0.004988 -0.016280
v 0.411970 0.022462 -0.018241
v 0.411970 -0.020190 0.059521
v -0.406161 0.004988 -0.016280
v -0.381739 -0.019414 0.060517
v 0.436392 -0.019414 0.060517
v 0.436392 0.004988 -0.016280
v -0.381739 0.022462 -0.018241
v -0.381739 0.006443 0.077661
v 0.436392 0.022462 -0.018241
v 0.411970 -0.008386 0.070823
v -0.406161 0.006443 0.077661
v -0.381739 -0.007703 0.071315
v 0.436392 -0.007703 0.071315
v 0.436392 0.006443 0.077661
v -0.406161 0.037963 -0.014570
v -0.381739 0.021203 -0.018327
v 0.411970 0.037963 -0.014570
v 0.411970 0.004988 -0.016280
v -0.406161 0.021203 -0.018327
v -0.406161 -0.007703 0.071315
v 0.411970 -0.007703 0.071315
v 0.436392 0.021203 -0.018327
v -0.381739 0.037963 -0.014570
v -0.381739 0.022703 0.079169
v 0.436392 0.037963 -0.014570
v 0.411970 0.006443 0.077661
v -0.406161 0.022703 0.079169
v -0.381739 0.006093 0.077565
v 0.436392 0.006093 0.077565
v 0.436392 0.022703 0.079169
v -0.406161 0.050859 -0.006628
v -0.381739 0.037173 -0.014861
v 0.411970 0.050859 -0.006628
v 0.411970 0.021203 -0.018327
v -0.406161 0.037173 -0.014861
v -0.406161 0.006093 0.077565
v 0.411970 0.006093 0.077565
v 0.436392 0.037173 -0.014861
v -0.381739 0.050859 -0.006628
v -0.381739 0.038579 0.075299
v 0.436392 0.050859 -0.006628
v 0.411970 0.022703 0.079169
v -0.406161 0.038579 0.075299
v -0.381739 0.022439 0.079217
v 0.436392 0.022439 0.079217
v 0.436392 0.038579 0.075299
v -0.381739 0.061369 0.006000
v -0.381739 0.051134 -0.006391
v 0.436392 0.061369 0.006000
v 0.411970 0.037173 -0.014861
v -0.406161 0.051134 -0.006391
v -0.406161 0.022439 0.079217
v 0.411970 0.022439 0.079217
v 0.436392 0.051134 -0.006391
v -0.406161 0.061369 0.006000
v -0.381739 0.052264 0.066364
v 0.411970 0.061369 0.006000
v 0.411970 0.038579 0.075299
v -0.406161 0.052264 0.066364
v -0.381739 0.039012 0.075091
v 0.436392 0.039012 0.075091
v 0.436392 0.052264 0.066364
v -0.381739 0.061477 0.006245
v 0.436392 0.061477 0.006245
v 0.411970 0.051134 -0.006391
v -0.406161 0.061477 0.006245
v -0.381739 0.062234 0.053418
v 0.411970 0.061477 0.006245
v 0.411970 0.052264 0.066364
v -0.406161 0.062234 0.053418
v -0.406161 0.039012 0.075091
v 0.411970 0.039012 0.075091
v 0.436392 0.062234 0.053418
v -0.381739 0.067216 0.022047
v -0.381739 0.067146 0.021572
v 0.436392 0.067216 0.022047
v -0.406161 0.067146 0.021572
v -0.381739 0.052892 0.065762
v 0.436392 0.052892 0.065762
v 0.436392 0.067146 0.021572
v -0.406161 0.067216 0.022047
v -0.381739 0.067392 0.037914
v 0.411970 0.067216 0.022047
v 0.411970 0.062234 0.053418
v -0.406161 0.067392 0.037914
v -0.406161 0.052892 0.065762
v 0.411970 0.052892 0.065762
v 0.436392 0.067392 0.037914
v -0.381739 0.067243 0.038771
v 0.436392 0.067243 0.038771
v 0.411970 0.067146 0.021572
v -0.406161 0.067243 0.038771
v 0.411970 0.067243 0.038771
v 0.411970 0.067392 0.037914
vn 0.10193198047488003 0.8783488317518582 0.4670259105409618
vn -0.10193198047488003 0.8783488317518582 0.4670259105409618
vn 0 -0.4694717348687294 0.882947501360837
vn 0.3899419705521684 0.8130529385994639 0.43230796735275195
vn 0 0.4694717348687294 -0.882947501360837
vn -0.3899419705521684 0.8130529385994639 0.43230796735275195
vn 0.10193297008441052 -0.8783487422196139 -0.46702586293586873
vn -0.10193297008441052 -0.8783487422196139 -0.46702586293586873
vn 0.7071068809295753 0.6243378948671263 0.331966944099759
vn -0.7071068809295753 0.6243378948671263 0.331966944099759
vn -0.389942818496868 -0.8130526215558018 -0.43230779877762654
vn 0.389942818496868 -0.8130526215558018 -0.43230779877762654
vn 0.9208390958542902 0.3442990358396379 0.18306701905627082
vn -0.9208390958542902 0.3442990358396379 0.18306701905627082
vn -0.7071068809295753 -0.6243378948671263 -0.331966944099759
vn 0.7071068809295753 -0.6243378948671263 -0.331966944099759
vn 0.9947913387275032 0.09000103064544615 0.04785401629434318
vn -0.9947913387275032 0.09000103064544615 0.04785401629434318
vn -0.9208390958542902 -0.3442990358396379 -0.18306701905627082
vn 0.9208390958542902 -0.3442990358396379 -0.18306701905627082
vn 1 0 0
vn -1 0 0
vn -0.9947913387275032 -0.09000103064544615 -0.04785401629434318
vn 0.9947913387275032 -0.09000103064544615 -0.04785401629434318
vn 0 0.9512940401155949 -0.30828501300022515
vn 0 0.9903709631770178 -0.1384389948526998
vn 0 0.4390378003684599 0.8984685914641781
vn 0 0.2763780028625851 0.9610490099540651
vn 0 0.791877298724285 -0.6106802303703054
vn 0 -0.06346500410996206 0.9979840646289511
vn 0 0.5522948834033825 -0.8336488240059143
vn 0 -0.3822868730224805 0.9240436930766281
vn 0 0.26002403861617285 -0.965602143401585
vn 0 -0.6551172189998268 0.755527252566003
vn 0 -0.07182402302445119 -0.997417319739628
vn 0 -0.867059883286811 0.49820393293776943
vn 0 -0.40605690775342335 -0.9138477923952805
vn 0 -0.9397410620933928 0.3418870225901858
vn 0 -0.24205912495071047 -0.9702615008481458
vn 0 -0.9846784194317396 0.17438007427860353
vn 0 -0.6870161441291319 -0.7266421524422731
vn 0 -0.9865882031459312 -0.1632290336100857
vn 0 -0.882947501360837 -0.4694717348687294
vn -0.10193198047488003 -0.8783488317518582 -0.4670259105409618
vn 0.10193198047488003 -0.8783488317518582 -0.4670259105409618
vn -0.3899419705521684 -0.8130529385994639 -0.43230796735275195
vn 0.3899419705521684 -0.8130529385994639 -0.43230796735275195
vn 0.10193297008441052 0.8783487422196139 0.46702586293586873
vn -0.10193297008441052 0.8783487422196139 0.46702586293586873
vn 0.389942818496868 0.8130526215558018 0.43230779877762654
vn -0.389942818496868 0.8130526215558018 0.43230779877762654
vn 0 -0.9903709631770178 0.1384389948526998
vn 0 -0.9512940401155949 0.30828501300022515
vn 0 -0.4390378003684599 -0.8984685914641781
vn 0 -0.2763780028625851 -0.9610490099540651
vn 0 -0.791877298724285 0.6106802303703054
vn 0 0.06346500410996206 -0.9979840646289511
vn 0 -0.5522948834033825 0.8336488240059143
vn 0 0.3822868730224805 -0.9240436930766281
vn 0 -0.26002403861617285 0.965602143401585
vn 0 0.6551172189998268 -0.755527252566003
vn 0 0.07182402302445119 0.997417319739628
vn 0 0.867059883286811 -0.49820393293776943
vn 0 0.40605690775342335 0.9138477923952805
vn 0 0.9397410620933928 -0.3418870225901858
vn 0 0.24205912495071047 0.9702615008481458
vn 0 0.9846784194317396 -0.17438007427860353
vn 0 0.6870161441291319 0.7266421524422731
vn 0 0.9865882031459312 0.1632290336100857
vn 0 0.882947501360837 0.4694717348687294
usemtl material_0_0
f 1//1 2//2 3//1
f 2//2 1//1 4//2
f 5//3 3//3 2//3
f 6//4 1//1 3//1
f 1//5 7//5 4//5
f 4//2 8//6 2//2
f 9//3 3//3 5//3
f 5//3 2//3 10//3
f 1//1 6//4 11//4
f 1//5 12//5 7//5
f 4//5 7//5 13//5
f 8//6 4//2 14//6
f 9//3 15//3 3//3
f 10//3 2//3 16//3
f 10//7 12//8 5//8
f 17//9 11//4 6//4
f 1//5 18//5 12//5
f 12//8 10//7 7//7
f 4//5 13//5 19//5
f 14//6 20//10 8//6
f 21//3 15//3 9//3
f 10//3 16//3 22//3
f 12//8 23//11 5//8
f 11//4 17//9 24//9
f 25//5 18//5 1//5
f 26//12 7//7 10//7
f 19//5 13//5 27//5
f 20//10 14//6 28//10
f 21//3 17//3 15//3
f 22//3 16//3 29//3
f 23//11 12//8 30//11
f 17//9 31//13 24//9
f 25//5 32//5 18//5
f 7//7 26//12 33//12
f 19//5 27//5 28//5
f 34//14 20//10 28//10
f 35//3 17//3 21//3
f 29//3 16//3 20//3
f 30//11 21//15 23//11
f 31//13 17//9 36//13
f 24//5 32//5 25//5
f 29//16 33//12 26//12
f 28//5 27//5 37//5
f 20//10 34//14 38//14
f 35//3 39//3 17//3
f 29//3 20//3 40//3
f 21//15 30//11 32//15
f 36//13 41//17 31//13
f 24//5 42//5 32//5
f 33//12 29//16 27//16
f 28//5 37//5 43//5
f 44//18 38//14 34//14
f 45//3 39//3 35//3
f 40//3 20//3 46//3
f 47//19 21//15 32//15
f 41//17 36//13 48//17
f 49//5 42//5 24//5
f 29//16 50//20 27//16
f 43//5 37//5 51//5
f 38//14 44//18 52//18
f 53//3 39//3 45//3
f 40//3 46//3 54//3
f 21//15 47//19 55//19
f 48//17 56//21 41//17
f 49//5 57//5 42//5
f 50//20 29//16 58//20
f 51//5 59//5 43//5
f 59//22 52//18 44//18
f 53//3 48//3 39//3
f 45//23 60//22 53//22
f 61//3 54//3 46//3
f 57//23 55//19 47//19
f 56//21 48//17 62//21
f 60//5 41//5 56//5
f 49//5 60//5 57//5
f 58//20 51//24 50//20
f 59//5 51//5 63//5
f 43//5 59//5 44//5
f 52//18 59//22 61//22
f 48//3 53//3 62//3
f 60//22 45//23 57//23
f 53//22 60//22 64//22
f 54//3 61//3 65//3
f 61//3 46//3 52//3
f 55//19 57//23 45//23
f 56//21 62//21 66//21
f 41//5 60//5 49//5
f 67//25 60//26 56//26
f 51//24 58//20 54//24
f 54//24 63//21 51//24
f 68//25 59//26 63//26
f 61//22 59//22 69//22
f 53//27 70//28 62//27
f 53//22 64//22 71//22
f 61//27 72//28 65//27
f 63//21 54//24 65//21
f 66//21 62//21 73//21
f 60//26 67//25 74//25
f 59//26 68//25 75//25
f 61//22 69//22 76//22
f 70//28 53//27 77//28
f 53//22 71//22 78//22
f 72//28 61//27 79//28
f 63//21 65//21 80//21
f 73//21 62//21 81//21
f 82//29 74//25 67//25
f 83//29 75//25 68//25
f 61//22 76//22 84//22
f 77//28 85//30 70//28
f 53//22 78//22 86//22
f 79//28 87//30 72//28
f 80//21 65//21 88//21
f 81//21 62//21 89//21
f 74//25 82//29 90//29
f 75//25 83//29 91//29
f 61//22 84//22 92//22
f 85//30 77//28 93//30
f 86//22 78//22 94//22
f 87//30 79//28 95//30
f 88//21 65//21 96//21
f 81//21 89//21 97//21
f 82//29 98//31 90//29
f 83//29 99//31 91//29
f 92//22 84//22 100//22
f 93//30 101//32 85//30
f 86//22 94//22 102//22
f 95//30 103//32 87//30
f 96//21 65//21 104//21
f 97//21 89//21 105//21
f 98//31 82//29 106//31
f 99//31 83//29 107//31
f 92//22 100//22 108//22
f 101//32 93//30 109//32
f 102//22 94//22 110//22
f 103//32 95//30 111//32
f 96//21 104//21 112//21
f 97//21 105//21 113//21
f 106//31 114//33 98//31
f 107//31 115//33 99//31
f 108//22 100//22 116//22
f 109//32 117//34 101//32
f 102//22 110//22 118//22
f 111//32 119//34 103//32
f 112//21 104//21 120//21
f 113//21 105//21 121//21
f 114//33 106//31 122//33
f 115//33 107//31 123//33
f 108//22 116//22 124//22
f 117//34 109//32 125//34
f 118//22 110//22 126//22
f 119//34 111//32 127//34
f 112//21 120//21 128//21
f 113//21 121//21 129//21
f 122//33 130//35 114//33
f 123//33 131//35 115//33
f 124//22 116//22 132//22
f 133//36 117//34 125//34
f 118//22 126//22 134//22
f 135//36 119//34 127//34
f 128//21 120//21 136//21
f 129//21 121//21 137//21
f 130//35 122//33 138//35
f 131//35 123//33 139//35
f 124//22 132//22 140//22
f 117//34 133//36 141//36
f 134//22 126//22 142//22
f 119//34 135//36 143//36
f 128//21 136//21 144//21
f 129//21 137//21 145//21
f 138//35 146//37 130//35
f 139//35 147//37 131//35
f 140//22 132//22 148//22
f 149//38 141//36 133//36
f 134//22 142//22 149//22
f 150//38 143//36 135//36
f 144//21 136//21 151//21
f 145//21 137//21 152//21
f 113//39 146//37 138//35
f 130//35 146//37 110//39
f 128//39 147//37 139//35
f 131//35 147//37 116//39
f 140//22 148//22 150//22
f 141//36 149//38 152//38
f 149//22 142//22 153//22
f 143//36 150//38 154//38
f 144//21 151//21 155//21
f 145//21 152//21 156//21
f 146//37 113//39 157//37
f 147//37 128//39 158//37
f 150//22 148//22 159//22
f 152//38 149//38 160//40
f 149//22 153//22 161//22
f 154//38 150//38 162//40
f 155//21 151//21 154//21
f 156//21 152//21 163//21
f 157//37 164//41 146//37
f 158//37 165//41 147//37
f 150//22 159//22 166//22
f 152//38 160//40 167//40
f 161//22 153//22 168//22
f 154//38 162//40 169//40
f 155//21 154//21 170//21
f 156//21 163//21 171//21
f 164//41 157//37 172//41
f 165//41 158//37 173//41
f 166//22 159//22 174//22
f 175//42 167//40 160//40
f 176//42 169//40 162//40
f 170//21 154//21 177//21
f 156//43 164//41 172//41
f 170//43 165//41 173//41
f 167//40 175//42 178//42
f 169//40 176//42 179//42
f 170//21 177//21 180//21
f 164//41 156//43 153//43
f 165//41 170//43 159//43
f 153//43 178//42 175//42
f 159//43 179//42 176//42
f 178//42 153//43 156//43
f 179//42 159//43 170//43
usemtl material_1_0
f 3//44 2//45 1//44
f 4//45 1//44 2//45
f 2//5 3//5 5//5
f 3//44 1//44 6//46
f 4//3 7//3 1//3
f 2//45 8//47 4//45
f 5//5 3//5 9//5
f 10//5 2//5 5//5
f 11//46 6//46 1//44
f 7//3 12//3 1//3
f 13//3 7//3 4//3
f 14//47 4//45 8//47
f 3//5 15//5 9//5
f 16//5 2//5 10//5
f 5//48 12//48 10//49
f 6//46 11//46 17//15
f 12//3 18//3 1//3
f 7//49 10//49 12//48
f 19//3 13//3 4//3
f 8//47 20//16 14//47
f 9//5 15//5 21//5
f 22//5 16//5 10//5
f 5//48 23//50 12//48
f 24//15 17//15 11//46
f 1//3 18//3 25//3
f 10//49 7//49 26//51
f 27//3 13//3 19//3
f 28//16 14//47 20//16
f 15//5 17//5 21//5
f 29//5 16//5 22//5
f 30//50 12//48 23//50
f 24//15 31//19 17//15
f 18//3 32//3 25//3
f 33//51 26//51 7//49
f 28//3 27//3 19//3
f 28//16 20//16 34//20
f 21//5 17//5 35//5
f 20//5 16//5 29//5
f 23//50 21//9 30//50
f 36//19 17//15 31//19
f 25//3 32//3 24//3
f 26//51 33//51 29//10
f 37//3 27//3 28//3
f 38//20 34//20 20//16
f 17//5 39//5 35//5
f 40//5 20//5 29//5
f 32//9 30//50 21//9
f 31//19 41//23 36//19
f 32//3 42//3 24//3
f 27//10 29//10 33//51
f 43//3 37//3 28//3
f 34//20 38//20 44//24
f 35//5 39//5 45//5
f 46//5 20//5 40//5
f 32//9 21//9 47//13
f 48//23 36//19 41//23
f 24//3 42//3 49//3
f 27//10 50//14 29//10
f 51//3 37//3 43//3
f 52//24 44//24 38//20
f 45//5 39//5 53//5
f 54//5 46//5 40//5
f 55//13 47//13 21//9
f 41//23 56//22 48//23
f 42//3 57//3 49//3
f 58//14 29//10 50//14
f 43//3 59//3 51//3
f 44//24 52//24 59//21
f 39//5 48//5 53//5
f 53//21 60//21 45//17
f 46//5 54//5 61//5
f 47//13 55//13 57//17
f 62//22 48//23 56//22
f 56//3 41//3 60//3
f 57//3 60//3 49//3
f 50//14 51//18 58//14
f 63//3 51//3 59//3
f 44//3 59//3 43//3
f 61//21 59//21 52//24
f 62//5 53//5 48//5
f 57//17 45//17 60//21
f 64//21 60//21 53//21
f 65//5 61//5 54//5
f 52//5 46//5 61//5
f 45//17 57//17 55//13
f 66//22 62//22 56//22
f 49//3 60//3 41//3
f 56//52 60//52 67//53
f 54//18 58//14 51//18
f 51//18 63//22 54//18
f 63//52 59//52 68//53
f 69//21 59//21 61//21
f 62//54 70//55 53//54
f 71//21 64//21 53//21
f 65//54 72//55 61//54
f 65//22 54//18 63//22
f 73//22 62//22 66//22
f 74//53 67//53 60//52
f 75//53 68//53 59//52
f 76//21 69//21 61//21
f 77//55 53//54 70//55
f 78//21 71//21 53//21
f 79//55 61//54 72//55
f 80//22 65//22 63//22
f 81//22 62//22 73//22
f 67//53 74//53 82//56
f 68//53 75//53 83//56
f 84//21 76//21 61//21
f 70//55 85//57 77//55
f 86//21 78//21 53//21
f 72//55 87//57 79//55
f 88//22 65//22 80//22
f 89//22 62//22 81//22
f 90//56 82//56 74//53
f 91//56 83//56 75//53
f 92//21 84//21 61//21
f 93//57 77//55 85//57
f 94//21 78//21 86//21
f 95//57 79//55 87//57
f 96//22 65//22 88//22
f 97//22 89//22 81//22
f 90//56 98//58 82//56
f 91//56 99//58 83//56
f 100//21 84//21 92//21
f 85//57 101//59 93//57
f 102//21 94//21 86//21
f 87//57 103//59 95//57
f 104//22 65//22 96//22
f 105//22 89//22 97//22
f 106//58 82//56 98//58
f 107//58 83//56 99//58
f 108//21 100//21 92//21
f 109//59 93//57 101//59
f 110//21 94//21 102//21
f 111//59 95//57 103//59
f 112//22 104//22 96//22
f 113//22 105//22 97//22
f 98//58 114//60 106//58
f 99//58 115//60 107//58
f 116//21 100//21 108//21
f 101//59 117//61 109//59
f 118//21 110//21 102//21
f 103//59 119//61 111//59
f 120//22 104//22 112//22
f 121//22 105//22 113//22
f 122//60 106//58 114//60
f 123//60 107//58 115//60
f 124//21 116//21 108//21
f 125//61 109//59 117//61
f 126//21 110//21 118//21
f 127//61 111//59 119//61
f 128//22 120//22 112//22
f 129//22 121//22 113//22
f 114//60 130//62 122//60
f 115//60 131//62 123//60
f 132//21 116//21 124//21
f 125//61 117//61 133//63
f 134//21 126//21 118//21
f 127//61 119//61 135//63
f 136//22 120//22 128//22
f 137//22 121//22 129//22
f 138//62 122//60 130//62
f 139//62 123//60 131//62
f 140//21 132//21 124//21
f 141//63 133//63 117//61
f 142//21 126//21 134//21
f 143//63 135//63 119//61
f 144//22 136//22 128//22
f 145//22 137//22 129//22
f 130//62 146//64 138//62
f 131//62 147//64 139//62
f 148//21 132//21 140//21
f 133//63 141//63 149//65
f 149//21 142//21 134//21
f 135//63 143//63 150//65
f 151//22 136//22 144//22
f 152//22 137//22 145//22
f 138//62 146//64 113//66
f 110//66 146//64 130//62
f 139//62 147//64 128//66
f 116//66 147//64 131//62
f 150//21 148//21 140//21
f 152//65 149//65 141//63
f 153//21 142//21 149//21
f 154//65 150//65 143//63
f 155//22 151//22 144//22
f 156//22 152//22 145//22
f 157//64 113//66 146//64
f 158//64 128//66 147//64
f 159//21 148//21 150//21
f 160//67 149//65 152//65
f 161//21 153//21 149//21
f 162//67 150//65 154//65
f 154//22 151//22 155//22
f 163//22 152//22 156//22
f 146//64 164//68 157//64
f 147//64 165//68 158//64
f 166//21 159//21 150//21
f 167//67 160//67 152//65
f 168//21 153//21 161//21
f 169//67 162//67 154//65
f 170//22 154//22 155//22
f 171//22 163//22 156//22
f 172//68 157//64 164//68
f 173//68 158//64 165//68
f 174//21 159//21 166//21
f 160//67 167//67 175//69
f 162//67 169//67 176//69
f 177//22 154//22 170//22
f 172//68 164//68 156//70
f 173//68 165//68 170//70
f 178//69 175//69 167//67
f 179//69 176//69 169//67
f 180//22 177//22 170//22
f 153//70 156//70 164//68
f 159//70 170//70 165//68
f 175//69 178//69 153//70
f 176//69 179//69 159//70
f 156//70 153//70 178//69
f 170//70 159//70 179//69
