# SSTK version 0.8.0
# 47
mtllib original-47.mtl
o Hinge_-_4in_x_3_lug_m1/Hinge_-_4in_x_3_lug_m/Hinge_-_male1/Hinge_-_male/mesh21/mesh21-geometry/material_0/component_0#mesh21-geometry
v 0.454615 -0.356086 0.318756
v 0.454291 -0.324867 0.316450
v 0.454615 -0.324867 0.318756
v 0.454291 -0.324867 0.316450
v 0.454615 -0.356086 0.318756
v 0.454291 -0.356086 0.316450
v 0.454615 -0.324867 0.318756
v 0.454291 -0.324867 0.316450
v 0.454615 -0.356086 0.318756
v 0.454291 -0.356086 0.316450
v 0.454615 -0.356086 0.318756
v 0.454291 -0.324867 0.316450
v 0.454331 -0.324867 0.321067
v 0.454615 -0.356086 0.318756
v 0.454615 -0.324867 0.318756
v 0.454615 -0.324867 0.318756
v 0.454615 -0.356086 0.318756
v 0.454331 -0.324867 0.321067
v 0.454291 -0.356086 0.316450
v 0.453381 -0.324867 0.314306
v 0.454291 -0.324867 0.316450
v 0.454291 -0.324867 0.316450
v 0.453381 -0.324867 0.314306
v 0.454291 -0.356086 0.316450
v 0.454615 -0.356086 0.318756
v 0.454331 -0.324867 0.321067
v 0.454331 -0.356086 0.321067
v 0.454331 -0.356086 0.321067
v 0.454331 -0.324867 0.321067
v 0.454615 -0.356086 0.318756
v 0.453381 -0.324867 0.314306
v 0.454291 -0.356086 0.316450
v 0.453381 -0.356086 0.314306
v 0.453381 -0.356086 0.314306
v 0.454291 -0.356086 0.316450
v 0.453381 -0.324867 0.314306
v 0.454331 -0.324867 0.321067
v 0.453459 -0.356086 0.323226
v 0.454331 -0.356086 0.321067
v 0.454331 -0.356086 0.321067
v 0.453459 -0.356086 0.323226
v 0.454331 -0.324867 0.321067
v 0.448079 -0.356086 0.327429
v 0.445773 -0.324867 0.327753
v 0.445773 -0.356086 0.327753
v 0.445773 -0.356086 0.327753
v 0.445773 -0.324867 0.327753
v 0.448079 -0.356086 0.327429
v 0.453381 -0.356086 0.314306
v 0.451947 -0.324867 0.312471
v 0.453381 -0.324867 0.314306
v 0.453381 -0.324867 0.314306
v 0.451947 -0.324867 0.312471
v 0.453381 -0.356086 0.314306
v 0.443462 -0.356086 0.327469
v 0.445773 -0.324867 0.327753
v 0.443462 -0.324867 0.327469
v 0.443462 -0.324867 0.327469
v 0.445773 -0.324867 0.327753
v 0.443462 -0.356086 0.327469
v 0.453459 -0.356086 0.323226
v 0.454331 -0.324867 0.321067
v 0.453459 -0.324867 0.323226
v 0.453459 -0.324867 0.323226
v 0.454331 -0.324867 0.321067
v 0.453459 -0.356086 0.323226
v 0.445773 -0.324867 0.327753
v 0.448079 -0.356086 0.327429
v 0.448079 -0.324867 0.327429
v 0.448079 -0.324867 0.327429
v 0.448079 -0.356086 0.327429
v 0.445773 -0.324867 0.327753
v 0.445773 -0.324867 0.327753
v 0.443462 -0.356086 0.327469
v 0.445773 -0.356086 0.327753
v 0.445773 -0.356086 0.327753
v 0.443462 -0.356086 0.327469
v 0.445773 -0.324867 0.327753
v 0.451947 -0.324867 0.312471
v 0.453381 -0.356086 0.314306
v 0.451947 -0.356086 0.312471
v 0.451947 -0.356086 0.312471
v 0.453381 -0.356086 0.314306
v 0.451947 -0.324867 0.312471
v 0.443462 -0.324867 0.327469
v 0.441303 -0.356086 0.326597
v 0.443462 -0.356086 0.327469
v 0.443462 -0.356086 0.327469
v 0.441303 -0.356086 0.326597
v 0.443462 -0.324867 0.327469
v 0.441303 -0.356086 0.326597
v 0.443462 -0.324867 0.327469
v 0.441303 -0.324867 0.326597
v 0.441303 -0.324867 0.326597
v 0.443462 -0.324867 0.327469
v 0.441303 -0.356086 0.326597
v 0.452057 -0.324867 0.325085
v 0.453459 -0.356086 0.323226
v 0.453459 -0.324867 0.323226
v 0.453459 -0.324867 0.323226
v 0.453459 -0.356086 0.323226
v 0.452057 -0.324867 0.325085
v 0.448079 -0.324867 0.327429
v 0.450222 -0.356086 0.326519
v 0.450222 -0.324867 0.326519
v 0.450222 -0.324867 0.326519
v 0.450222 -0.356086 0.326519
v 0.448079 -0.324867 0.327429
v 0.450222 -0.356086 0.326519
v 0.448079 -0.324867 0.327429
v 0.448079 -0.356086 0.327429
v 0.448079 -0.356086 0.327429
v 0.448079 -0.324867 0.327429
v 0.450222 -0.356086 0.326519
v 0.451947 -0.356086 0.312471
v 0.450088 -0.324867 0.311070
v 0.451947 -0.324867 0.312471
v 0.451947 -0.324867 0.312471
v 0.450088 -0.324867 0.311070
v 0.451947 -0.356086 0.312471
v 0.441303 -0.324867 0.326597
v 0.439444 -0.356086 0.325195
v 0.441303 -0.356086 0.326597
v 0.441303 -0.356086 0.326597
v 0.439444 -0.356086 0.325195
v 0.441303 -0.324867 0.326597
v 0.453459 -0.356086 0.323226
v 0.452057 -0.324867 0.325085
v 0.452057 -0.356086 0.325085
v 0.452057 -0.356086 0.325085
v 0.452057 -0.324867 0.325085
v 0.453459 -0.356086 0.323226
v 0.450222 -0.324867 0.326519
v 0.452057 -0.356086 0.325085
v 0.452057 -0.324867 0.325085
v 0.452057 -0.324867 0.325085
v 0.452057 -0.356086 0.325085
v 0.450222 -0.324867 0.326519
v 0.452057 -0.356086 0.325085
v 0.450222 -0.324867 0.326519
v 0.450222 -0.356086 0.326519
v 0.450222 -0.356086 0.326519
v 0.450222 -0.324867 0.326519
v 0.452057 -0.356086 0.325085
v 0.450088 -0.324867 0.311070
v 0.451947 -0.356086 0.312471
v 0.450088 -0.356086 0.311070
v 0.450088 -0.356086 0.311070
v 0.451947 -0.356086 0.312471
v 0.450088 -0.324867 0.311070
v 0.439444 -0.356086 0.325195
v 0.441303 -0.324867 0.326597
v 0.439444 -0.324867 0.325195
v 0.439444 -0.324867 0.325195
v 0.441303 -0.324867 0.326597
v 0.439444 -0.356086 0.325195
v 0.450088 -0.356086 0.311070
v 0.447929 -0.324867 0.310198
v 0.450088 -0.324867 0.311070
v 0.450088 -0.324867 0.311070
v 0.447929 -0.324867 0.310198
v 0.450088 -0.356086 0.311070
v 0.447929 -0.324867 0.310198
v 0.450088 -0.356086 0.311070
v 0.447929 -0.356086 0.310198
v 0.447929 -0.356086 0.310198
v 0.450088 -0.356086 0.311070
v 0.447929 -0.324867 0.310198
v 0.447929 -0.356086 0.310198
v 0.445618 -0.324867 0.309914
v 0.447929 -0.324867 0.310198
v 0.447929 -0.324867 0.310198
v 0.445618 -0.324867 0.309914
v 0.447929 -0.356086 0.310198
v 0.445618 -0.324867 0.309914
v 0.447929 -0.356086 0.310198
v 0.445618 -0.356086 0.309914
v 0.445618 -0.356086 0.309914
v 0.447929 -0.356086 0.310198
v 0.445618 -0.324867 0.309914
v 0.443312 -0.356086 0.310238
v 0.445618 -0.324867 0.309914
v 0.445618 -0.356086 0.309914
v 0.445618 -0.356086 0.309914
v 0.445618 -0.324867 0.309914
v 0.443312 -0.356086 0.310238
v 0.445618 -0.324867 0.309914
v 0.443312 -0.356086 0.310238
v 0.443312 -0.324867 0.310238
v 0.443312 -0.324867 0.310238
v 0.443312 -0.356086 0.310238
v 0.445618 -0.324867 0.309914
v 0.441168 -0.356086 0.311148
v 0.443312 -0.324867 0.310238
v 0.443312 -0.356086 0.310238
v 0.443312 -0.356086 0.310238
v 0.443312 -0.324867 0.310238
v 0.441168 -0.356086 0.311148
v 0.437932 -0.356086 0.314441
v 0.437060 -0.324867 0.316600
v 0.437932 -0.324867 0.314441
v 0.437932 -0.324867 0.314441
v 0.437060 -0.324867 0.316600
v 0.437932 -0.356086 0.314441
v 0.443312 -0.324867 0.310238
v 0.441168 -0.356086 0.311148
v 0.441168 -0.324867 0.311148
v 0.441168 -0.324867 0.311148
v 0.441168 -0.356086 0.311148
v 0.443312 -0.324867 0.310238
v 0.437060 -0.324867 0.316600
v 0.437932 -0.356086 0.314441
v 0.437060 -0.356086 0.316600
v 0.437060 -0.356086 0.316600
v 0.437932 -0.356086 0.314441
v 0.437060 -0.324867 0.316600
v 0.439333 -0.324867 0.312582
v 0.437932 -0.356086 0.314441
v 0.437932 -0.324867 0.314441
v 0.437932 -0.324867 0.314441
v 0.437932 -0.356086 0.314441
v 0.439333 -0.324867 0.312582
v 0.439333 -0.356086 0.312582
v 0.441168 -0.324867 0.311148
v 0.441168 -0.356086 0.311148
v 0.441168 -0.356086 0.311148
v 0.441168 -0.324867 0.311148
v 0.439333 -0.356086 0.312582
v 0.437932 -0.356086 0.314441
v 0.439333 -0.324867 0.312582
v 0.439333 -0.356086 0.312582
v 0.439333 -0.356086 0.312582
v 0.439333 -0.324867 0.312582
v 0.437932 -0.356086 0.314441
v 0.441168 -0.324867 0.311148
v 0.439333 -0.356086 0.312582
v 0.439333 -0.324867 0.312582
v 0.439333 -0.324867 0.312582
v 0.439333 -0.356086 0.312582
v 0.441168 -0.324867 0.311148
vt 0 0
vn 0.9999619230857921 0 -0.008726533020862057
vn 0.9636305116979292 0 -0.2672381651725426
vn -0.9999619230857921 0 0.008726533020862057
vn -0.9636305116979292 0 0.2672381651725426
vn 0.9681476939370085 0 0.25037979695744744
vn -0.9681476939370085 0 -0.25037979695744744
vn 0.8616291246629634 0 -0.5075384237006452
vn -0.8616291246629634 0 0.5075384237006452
vn 0.870355658786781 0 0.4924236257713763
vn -0.870355658786781 0 -0.4924236257713763
vn 0.2672381651725426 0 0.9636305116979292
vn 0.008726533020862057 0 0.9999619230857921
vn -0.008726533020862057 0 -0.9999619230857921
vn -0.2672381651725426 0 -0.9636305116979292
vn 0.7009092660670047 0 -0.7132504474176045
vn -0.7009092660670047 0 0.7132504474176045
vn -0.25037979695744744 0 0.9681476939370085
vn 0.25037979695744744 0 -0.9681476939370085
vn -0.4924236257713763 0 0.870355658786781
vn 0.4924236257713763 0 -0.870355658786781
vn 0.7132504474176045 0 0.7009092660670047
vn -0.7132504474176045 0 -0.7009092660670047
vn 0.5075384237006452 0 0.8616291246629634
vn -0.5075384237006452 0 -0.8616291246629634
vn -0.601815187370483 0 0.7986353862997997
vn 0.601815187370483 0 -0.7986353862997997
vn -0.9271836427848459 0 -0.37460711759418464
vn 0.9271836427848459 0 0.37460711759418464
usemtl material_0_0
f 1/1/1 2/1/2 3/1/1
f 4/1/2 5/1/1 6/1/2
f 7/1/3 8/1/4 9/1/3
f 10/1/4 11/1/3 12/1/4
f 13/1/5 14/1/1 15/1/1
f 16/1/3 17/1/3 18/1/6
f 19/1/2 20/1/7 21/1/2
f 22/1/4 23/1/8 24/1/4
f 25/1/1 26/1/5 27/1/5
f 28/1/6 29/1/6 30/1/3
f 31/1/7 32/1/2 33/1/7
f 34/1/8 35/1/4 36/1/8
f 37/1/5 38/1/9 39/1/5
f 40/1/6 41/1/10 42/1/6
f 43/1/11 44/1/12 45/1/12
f 46/1/13 47/1/13 48/1/14
f 49/1/7 50/1/15 51/1/7
f 52/1/8 53/1/16 54/1/8
f 55/1/17 56/1/12 57/1/17
f 58/1/18 59/1/13 60/1/18
f 61/1/9 62/1/5 63/1/9
f 64/1/10 65/1/6 66/1/10
f 67/1/12 68/1/11 69/1/11
f 70/1/14 71/1/14 72/1/13
f 73/1/12 74/1/17 75/1/12
f 76/1/13 77/1/18 78/1/13
f 79/1/15 80/1/7 81/1/15
f 82/1/16 83/1/8 84/1/16
f 85/1/17 86/1/19 87/1/17
f 88/1/18 89/1/20 90/1/18
f 91/1/19 92/1/17 93/1/19
f 94/1/20 95/1/18 96/1/20
f 97/1/21 98/1/9 99/1/9
f 100/1/10 101/1/10 102/1/22
f 103/1/11 104/1/23 105/1/23
f 106/1/24 107/1/24 108/1/14
f 109/1/23 110/1/11 111/1/11
f 112/1/14 113/1/14 114/1/24
f 115/1/15 116/1/20 117/1/15
f 118/1/16 119/1/19 120/1/16
f 121/1/19 122/1/25 123/1/19
f 124/1/20 125/1/26 126/1/20
f 127/1/9 128/1/21 129/1/21
f 130/1/22 131/1/22 132/1/10
f 133/1/23 134/1/21 135/1/21
f 136/1/22 137/1/22 138/1/24
f 139/1/21 140/1/23 141/1/23
f 142/1/24 143/1/24 144/1/22
f 145/1/20 146/1/15 147/1/20
f 148/1/19 149/1/16 150/1/19
f 151/1/25 152/1/19 153/1/25
f 154/1/26 155/1/20 156/1/26
f 157/1/20 158/1/18 159/1/20
f 160/1/19 161/1/17 162/1/19
f 163/1/18 164/1/20 165/1/18
f 166/1/17 167/1/19 168/1/17
f 169/1/18 170/1/13 171/1/18
f 172/1/17 173/1/12 174/1/17
f 175/1/13 176/1/18 177/1/13
f 178/1/12 179/1/17 180/1/12
f 181/1/14 182/1/13 183/1/13
f 184/1/12 185/1/12 186/1/11
f 187/1/13 188/1/14 189/1/14
f 190/1/11 191/1/11 192/1/12
f 193/1/24 194/1/14 195/1/14
f 196/1/11 197/1/11 198/1/23
f 199/1/10 200/1/27 201/1/10
f 202/1/9 203/1/28 204/1/9
f 205/1/14 206/1/24 207/1/24
f 208/1/23 209/1/23 210/1/11
f 211/1/27 212/1/10 213/1/27
f 214/1/28 215/1/9 216/1/28
f 217/1/22 218/1/10 219/1/10
f 220/1/9 221/1/9 222/1/21
f 223/1/22 224/1/24 225/1/24
f 226/1/23 227/1/23 228/1/21
f 229/1/10 230/1/22 231/1/22
f 232/1/21 233/1/21 234/1/9
f 235/1/24 236/1/22 237/1/22
f 238/1/21 239/1/21 240/1/23
