# SSTK version 0.8.0
# 22
mtllib original-22.mtl
o lever1_1/lever1/mesh12/mesh12-geometry#mesh12-geometry
v 0.077634 0.311341 0.529376
v 0.098236 0.311341 0.513015
v 0.096043 0.311341 0.510838
v 0.079826 0.311341 0.531554
v 0.096043 0.185265 0.510838
v 0.085354 0.305161 0.521602
v 0.077634 0.185265 0.529376
v 0.087547 0.305161 0.523780
v 0.098236 0.185265 0.513015
v 0.089808 0.301637 0.517117
v 0.084739 0.304515 0.522221
v 0.086070 0.305568 0.520881
v 0.079826 0.185265 0.531554
v 0.083869 0.301637 0.523097
v 0.086932 0.304515 0.524399
v 0.088263 0.305568 0.523058
v 0.092001 0.301637 0.519294
v 0.096043 0.182145 0.510838
v 0.089707 0.302690 0.517219
v 0.089707 0.300584 0.517219
v 0.084505 0.304097 0.522457
v 0.086838 0.305707 0.520107
v 0.077634 0.182145 0.529376
v 0.086062 0.301637 0.525275
v 0.083970 0.302690 0.522995
v 0.083970 0.300584 0.522995
v 0.086698 0.304097 0.524634
v 0.089031 0.305707 0.522284
v 0.091899 0.302690 0.519396
v 0.091899 0.300584 0.519396
v 0.112788 0.182145 0.527466
v 0.096571 0.185265 0.548182
v 0.089031 0.297568 0.522284
v 0.089410 0.303672 0.517517
v 0.089410 0.299602 0.517517
v 0.084267 0.303672 0.522696
v 0.087607 0.305568 0.519333
v 0.094379 0.182145 0.546005
v 0.086838 0.297568 0.520107
v 0.086163 0.302690 0.525173
v 0.086163 0.300584 0.525173
v 0.084267 0.299602 0.522696
v 0.086460 0.303672 0.524874
v 0.089800 0.305568 0.521511
v 0.091603 0.303672 0.519695
v 0.091603 0.299602 0.519695
v 0.112788 0.185265 0.527466
v 0.094379 0.185265 0.546005
v 0.089800 0.297706 0.521511
v 0.088263 0.297706 0.523058
v 0.088938 0.304515 0.517993
v 0.088938 0.298760 0.517993
v 0.088323 0.305161 0.518612
v 0.086070 0.297706 0.520881
v 0.087607 0.297706 0.519333
v 0.086460 0.299602 0.524874
v 0.084739 0.298760 0.522221
v 0.090516 0.305161 0.520789
v 0.091365 0.304097 0.519935
v 0.091131 0.298760 0.520170
v 0.112788 -0.032279 0.527466
v 0.114981 0.185265 0.529644
v 0.096571 -0.032279 0.548182
v 0.090516 0.298113 0.520789
v 0.087547 0.298113 0.523780
v 0.089172 0.304097 0.517757
v 0.088323 0.298113 0.518612
v 0.094379 -0.032279 0.546005
v 0.085354 0.298113 0.521602
v 0.086932 0.298760 0.524399
v 0.091131 0.304515 0.520170
v 0.114981 -0.032279 0.529644
vn 0 1 0
vn 0 -1 0
vn 0.7046342055428597 0 -0.7095707409265006
vn -0.7046342055428597 0 0.7095707409265006
vn -0.7095707409265006 0 -0.7046342055428597
vn 0.7095707409265006 0 0.7046342055428597
vn 0.34313697228563134 -0.8734177047187818 -0.34554092570117495
vn 0.48948299058032374 -0.719335768920325 -0.492912216813854
vn -0.48948299058032374 0.719335768920325 0.492912216813854
vn -0.34313697228563134 0.8734177047187818 0.34554092570117495
vn 0.17651637759968036 -0.9681145763395453 -0.17775301830908471
vn -0.17651637759968036 0.9681145763395453 0.17775301830908471
vn -0.6789822059487054 -0.26736511606598035 0.6837390282235282
vn 0.6789822059487054 0.26736511606598035 -0.6837390282235282
vn -0.6789822059487053 0.26736511606598007 0.6837390282235283
vn 0.6789822059487053 -0.26736511606598007 -0.6837390282235283
vn 0.5516822026518446 -0.6221045511796492 -0.5555471849256157
vn -0.5516822026518446 0.6221045511796492 0.5555471849256157
vn -0.6047898773632003 -0.5131426823366321 0.6090269220677945
vn 0.6047898773632003 0.5131426823366321 -0.6090269220677945
vn -0.6047898773632004 0.5131426823366317 0.6090269220677947
vn 0.6047898773632004 -0.5131426823366317 -0.6090269220677947
vn -0.17651637759968036 -0.9681145763395453 0.1777530183090843
vn 0.17651637759968036 0.9681145763395453 -0.1777530183090843
vn -0.5516822026518446 -0.6221045511796494 0.5555471849256154
vn 0.5516822026518446 0.6221045511796494 -0.5555471849256154
vn -0.3431369722856314 -0.8734177047187819 0.34554092570117456
vn 0.3431369722856314 0.8734177047187819 -0.34554092570117456
vn 0.48948299058032374 0.7193357689203251 -0.49291221681385367
vn -0.48948299058032374 -0.7193357689203251 0.49291221681385367
usemtl material_0_0
f 1//1 2//1 3//1
f 2//1 1//1 4//1
f 3//2 2//2 1//2
f 4//2 1//2 2//2
f 2//3 5//3 3//3
f 3//4 5//4 2//4
f 6//5 1//5 3//5
f 3//6 1//6 6//6
f 7//4 4//4 1//4
f 1//3 4//3 7//3
f 4//6 8//6 2//6
f 2//5 8//5 4//5
f 5//3 2//3 9//3
f 9//4 2//4 5//4
f 10//5 3//5 5//5
f 5//6 3//6 10//6
f 11//5 1//5 6//5
f 6//6 1//6 11//6
f 6//5 3//5 12//5
f 12//6 3//6 6//6
f 4//4 7//4 13//4
f 13//3 7//3 4//3
f 1//5 14//5 7//5
f 7//6 14//6 1//6
f 8//6 4//6 15//6
f 15//5 4//5 8//5
f 2//6 8//6 16//6
f 16//5 8//5 2//5
f 2//6 17//6 9//6
f 9//5 17//5 2//5
f 18//4 9//4 5//4
f 5//3 9//3 18//3
f 13//2 5//2 9//2
f 9//1 5//1 13//1
f 19//5 3//5 10//5
f 10//6 3//6 19//6
f 10//5 5//5 20//5
f 20//6 5//6 10//6
f 21//5 1//5 11//5
f 11//6 1//6 21//6
f 6//7 15//8 11//8
f 11//9 15//9 6//10
f 12//5 3//5 22//5
f 22//6 3//6 12//6
f 12//11 8//7 6//7
f 6//10 8//10 12//12
f 13//3 23//3 7//3
f 7//4 23//4 13//4
f 5//2 13//2 7//2
f 7//1 13//1 5//1
f 24//6 4//6 13//6
f 13//5 4//5 24//5
f 14//5 1//5 25//5
f 25//6 1//6 14//6
f 7//5 14//5 26//5
f 26//6 14//6 7//6
f 15//6 4//6 27//6
f 27//5 4//5 15//5
f 15//8 6//7 8//7
f 8//10 6//10 15//9
f 8//7 12//11 16//11
f 16//12 12//12 8//10
f 2//6 16//6 28//6
f 28//5 16//5 2//5
f 17//6 2//6 29//6
f 29//5 2//5 17//5
f 9//6 17//6 30//6
f 30//5 17//5 9//5
f 31//4 9//4 18//4
f 18//3 9//3 31//3
f 5//6 23//6 18//6
f 18//5 23//5 5//5
f 9//2 32//2 13//2
f 13//1 32//1 9//1
f 9//6 33//6 13//6
f 13//5 33//5 9//5
f 34//5 3//5 19//5
f 19//6 3//6 34//6
f 17//4 19//13 10//4
f 10//3 19//14 17//3
f 20//5 5//5 35//5
f 35//6 5//6 20//6
f 30//15 10//4 20//15
f 20//16 10//3 30//16
f 36//5 1//5 21//5
f 21//6 1//6 36//6
f 15//8 21//17 11//8
f 11//9 21//18 15//9
f 3//5 37//5 22//5
f 22//6 37//6 3//6
f 22//2 16//11 12//11
f 12//12 16//12 22//1
f 13//3 38//3 23//3
f 23//4 38//4 13//4
f 23//6 5//6 7//6
f 7//5 5//5 23//5
f 7//5 39//5 5//5
f 5//6 39//6 7//6
f 40//6 4//6 24//6
f 24//5 4//5 40//5
f 24//6 13//6 41//6
f 41//5 13//5 24//5
f 25//5 1//5 36//5
f 36//6 1//6 25//6
f 25//16 24//3 14//3
f 14//4 24//4 25//15
f 24//3 26//14 14//3
f 14//4 26//13 24//4
f 7//5 26//5 42//5
f 42//6 26//6 7//6
f 27//6 4//6 43//6
f 43//5 4//5 27//5
f 21//17 15//8 27//17
f 27//18 15//9 21//18
f 16//11 22//2 28//2
f 28//1 22//1 16//12
f 44//6 2//6 28//6
f 28//5 2//5 44//5
f 29//6 2//6 45//6
f 45//5 2//5 29//5
f 19//13 17//4 29//13
f 29//14 17//3 19//14
f 10//4 30//15 17//4
f 17//3 30//16 10//3
f 9//6 30//6 46//6
f 46//5 30//5 9//5
f 9//4 31//4 47//4
f 47//3 31//3 9//3
f 23//1 31//1 18//1
f 18//2 31//2 23//2
f 47//2 32//2 9//2
f 9//1 32//1 47//1
f 13//2 32//2 48//2
f 48//1 32//1 13//1
f 9//6 49//6 33//6
f 33//5 49//5 9//5
f 50//6 13//6 33//6
f 33//5 13//5 50//5
f 51//5 3//5 34//5
f 34//6 3//6 51//6
f 19//13 45//19 34//19
f 34//20 45//20 19//14
f 35//5 5//5 52//5
f 52//6 5//6 35//6
f 46//21 20//15 35//21
f 35//22 20//16 46//22
f 20//15 46//21 30//15
f 30//16 46//22 20//16
f 27//17 36//22 21//17
f 21//18 36//21 27//18
f 37//5 3//5 53//5
f 53//6 3//6 37//6
f 37//23 28//2 22//2
f 22//1 28//1 37//24
f 38//3 13//3 48//3
f 48//4 13//4 38//4
f 31//1 23//1 38//1
f 38//2 23//2 31//2
f 7//5 54//5 39//5
f 39//6 54//6 7//6
f 55//5 5//5 39//5
f 39//6 5//6 55//6
f 43//6 4//6 40//6
f 40//5 4//5 43//5
f 24//3 25//16 40//16
f 40//15 25//15 24//4
f 41//6 13//6 56//6
f 56//5 13//5 41//5
f 26//14 24//3 41//14
f 41//13 24//4 26//13
f 43//22 25//16 36//22
f 36//21 25//15 43//21
f 41//14 42//20 26//14
f 26//13 42//19 41//13
f 7//5 42//5 57//5
f 57//6 42//6 7//6
f 36//22 27//17 43//22
f 43//21 27//18 36//21
f 58//6 2//6 44//6
f 44//5 2//5 58//5
f 28//2 37//23 44//23
f 44//24 37//24 28//1
f 45//6 2//6 59//6
f 59//5 2//5 45//5
f 45//19 19//13 29//13
f 29//14 19//14 45//20
f 9//6 46//6 60//6
f 60//5 46//5 9//5
f 47//3 61//3 31//3
f 31//4 61//4 47//4
f 32//2 47//2 62//2
f 62//1 47//1 32//1
f 48//4 63//4 32//4
f 32//3 63//3 48//3
f 9//6 64//6 49//6
f 49//5 64//5 9//5
f 49//12 39//1 33//1
f 33//2 39//2 49//11
f 65//6 13//6 50//6
f 50//5 13//5 65//5
f 33//1 54//24 50//24
f 50//23 54//23 33//2
f 53//5 3//5 51//5
f 51//6 3//6 53//6
f 51//5 34//5 66//5
f 66//6 34//6 51//6
f 59//25 34//19 45//19
f 45//20 34//20 59//26
f 52//5 5//5 67//5
f 67//6 5//6 52//6
f 60//9 35//21 52//9
f 52//8 35//22 60//8
f 35//21 60//9 46//21
f 46//22 60//8 35//22
f 53//27 44//23 37//23
f 37//24 44//24 53//28
f 68//4 48//4 38//4
f 38//3 48//3 68//3
f 61//5 38//5 31//5
f 31//6 38//6 61//6
f 7//5 69//5 54//5
f 54//6 69//6 7//6
f 54//24 33//1 39//1
f 39//2 33//2 54//23
f 67//5 5//5 55//5
f 55//6 5//6 67//6
f 39//1 49//12 55//12
f 55//11 49//11 39//2
f 25//16 43//22 40//16
f 40//15 43//21 25//15
f 56//6 13//6 70//6
f 70//5 13//5 56//5
f 42//20 41//14 56//20
f 56//19 41//13 42//19
f 56//20 57//29 42//20
f 42//19 57//30 56//19
f 7//5 57//5 69//5
f 69//6 57//6 7//6
f 71//6 2//6 58//6
f 58//5 2//5 71//5
f 44//23 53//27 58//27
f 58//28 53//28 44//24
f 59//6 2//6 71//6
f 71//5 2//5 59//5
f 9//6 60//6 64//6
f 64//5 60//5 9//5
f 47//3 72//3 61//3
f 61//4 72//4 47//4
f 72//3 47//3 62//3
f 62//4 47//4 72//4
f 63//6 62//6 32//6
f 32//5 62//5 63//5
f 63//4 48//4 68//4
f 68//3 48//3 63//3
f 64//10 55//12 49//12
f 49//11 55//11 64//7
f 70//6 13//6 65//6
f 65//5 13//5 70//5
f 50//24 69//28 65//28
f 65//27 69//27 50//23
f 69//28 50//24 54//24
f 54//23 50//23 69//27
f 51//30 58//27 53//27
f 53//28 58//28 51//29
f 34//19 59//25 66//25
f 66//26 59//26 34//20
f 66//25 71//30 51//30
f 51//29 71//29 66//26
f 67//10 60//9 52//9
f 52//8 60//8 67//7
f 38//5 61//5 68//5
f 68//6 61//6 38//6
f 55//12 64//10 67//10
f 67//7 64//7 55//11
f 57//29 56//20 70//29
f 70//30 56//19 57//30
f 57//29 65//28 69//28
f 69//27 65//27 57//30
f 58//27 51//30 71//30
f 71//29 51//29 58//28
f 71//30 66//25 59//25
f 59//26 66//26 71//29
f 60//9 67//10 64//10
f 64//7 67//7 60//8
f 63//2 61//2 72//2
f 72//1 61//1 63//1
f 62//6 63//6 72//6
f 72//5 63//5 62//5
f 61//2 63//2 68//2
f 68//1 63//1 61//1
f 65//28 57//29 70//29
f 70//30 57//30 65//27
