# SSTK version 0.8.0
# 33
mtllib original-33.mtl
o mesh19/mesh19-geometry#mesh19-geometry
v 0.303434 -0.038073 0.599382
v 0.303427 -0.038084 0.599458
v 0.303409 -0.038120 0.599431
v 0.303444 -0.038055 0.599405
v 0.303462 -0.038021 0.599344
v 0.303446 -0.038049 0.599485
v 0.303454 -0.038034 0.599433
v 0.303469 -0.038005 0.599470
v 0.303466 -0.038014 0.599360
v 0.303472 -0.038001 0.599389
v 0.303478 -0.037999 0.599302
v 0.303494 -0.037955 0.599534
v 0.303488 -0.037968 0.599465
vn 0.882856759832305 -0.4694068191495208 0.014872113310918146
vn 0.8836238995333456 -0.4679717868002367 0.014533097827971318
vn -0.882856759832305 0.4694068191495208 -0.014872113310918146
vn -0.8836238995333456 0.4679717868002367 -0.014533097827971318
vn 0.879554561458663 -0.47546913818330283 0.017688189632816903
vn -0.879554561458663 0.47546913818330283 -0.017688189632816903
vn 0.8843887998719995 -0.4665351141967601 0.014192881398099256
vn -0.8843887998719995 0.4665351141967601 -0.014192881398099256
vn 0.8778853635223899 -0.4784899704120354 0.019095463551602705
vn -0.8778853635223899 0.4784899704120354 -0.019095463551602705
vn 0.8712780296850521 -0.490069091814213 0.026587219420732125
vn -0.8712780296850521 0.490069091814213 -0.026587219420732125
vn 0.8713526140255903 -0.48978893056333556 0.029179196842861944
vn -0.8713526140255903 0.48978893056333556 -0.029179196842861944
usemtl material_0_0
f 1//1 2//2 3//1
f 2//2 1//1 4//2
f 3//3 2//4 1//3
f 4//4 1//3 2//4
f 4//2 1//1 5//5
f 5//6 1//3 4//4
f 4//2 6//7 2//2
f 2//4 6//8 4//4
f 6//7 4//2 5//5
f 5//6 4//4 6//8
f 6//7 5//5 7//9
f 7//10 5//6 6//8
f 5//5 8//11 7//9
f 7//10 8//12 5//6
f 8//11 5//5 9//11
f 9//12 5//6 8//12
f 8//11 9//11 10//11
f 10//12 9//12 8//12
f 11//11 9//11 5//5
f 5//6 9//12 11//12
f 11//11 10//11 9//11
f 9//12 10//12 11//12
f 10//11 12//13 8//11
f 8//12 12//14 10//12
f 12//13 10//11 11//11
f 11//12 10//12 12//14
f 12//13 11//11 13//13
f 13//14 11//12 12//14
