# SSTK version 0.8.0
# 24
mtllib original-24.mtl
o deabolt4/deabolt12/mesh13/mesh13-geometry#mesh13-geometry
v -0.055211 0.420496 0.650400
v -0.052544 0.420496 0.646899
v -0.055211 0.316691 0.650400
v -0.032105 0.420496 0.673345
v -0.052544 0.316691 0.646899
v -0.056880 0.316691 0.654471
v -0.036164 0.420496 0.675043
v -0.028623 0.420496 0.670654
v -0.054107 0.316691 0.668607
v -0.049063 0.420496 0.644208
v -0.056880 0.420496 0.654471
v -0.032105 0.316691 0.673345
v -0.028623 0.316691 0.670654
v -0.049063 0.316691 0.644208
v -0.057439 0.316691 0.658835
v -0.036164 0.316691 0.675043
v -0.040525 0.420496 0.675632
v -0.025957 0.316691 0.667154
v -0.025957 0.420496 0.667154
v -0.045003 0.316691 0.642510
v -0.045003 0.420496 0.642510
v -0.056850 0.316691 0.663196
v -0.057439 0.420496 0.658835
v -0.050207 0.316691 0.672454
v -0.024287 0.420496 0.663082
v -0.040642 0.316691 0.641921
v -0.056850 0.420496 0.663196
v -0.055152 0.316691 0.667255
v -0.040525 0.316691 0.675632
v -0.044889 0.420496 0.675073
v -0.024287 0.316691 0.663082
v -0.040642 0.420496 0.641921
v -0.036278 0.316691 0.642480
v -0.055152 0.420496 0.667255
v -0.052461 0.420496 0.670737
v -0.044889 0.316691 0.675073
v -0.023728 0.316691 0.658718
v -0.032207 0.316691 0.644149
v -0.023728 0.420496 0.658718
v -0.048961 0.420496 0.673404
v -0.052461 0.316691 0.670737
v -0.048961 0.316691 0.673404
v -0.024317 0.316691 0.654357
v -0.036278 0.420496 0.642480
v -0.030848 0.316691 0.645185
v -0.026015 0.316691 0.650298
v -0.024317 0.420496 0.654357
v -0.032207 0.420496 0.644149
v -0.054355 0.289441 0.668856
v -0.028706 0.316691 0.646816
v -0.026974 0.316691 0.649058
v -0.026015 0.420496 0.650298
v -0.030600 0.316691 0.644935
v -0.054355 0.316691 0.668856
v -0.028706 0.420496 0.646816
v -0.052461 0.289441 0.670737
v 0.062080 0.289441 0.559380
v 0.058193 0.316691 0.555520
v 0.060087 0.316691 0.557401
v -0.050468 0.316691 0.672717
v -0.026713 0.316691 0.648796
v 0.058193 0.289441 0.555520
v 0.060087 0.289441 0.557401
v -0.050468 0.289441 0.672717
v 0.062080 0.316691 0.559380
vn -0.8677654124703443 0 -0.49697403244050187
vn -0.7095707409265006 0 -0.7046342055428597
vn 0.8677654124703443 0 0.49697403244050187
vn 0.7095707409265006 0 0.7046342055428597
vn 0 1 0
vn 0 -1 0
vn -0.966823441768434 0 -0.2554455567181385
vn 0.966823441768434 0 0.2554455567181385
vn -0.5030200285250475 0 -0.8642747542897806
vn 0.5030200285250475 0 0.8642747542897806
vn 0.2621889898236713 0 0.9650165457727877
vn -0.2621889898236713 0 -0.9650165457727877
vn -0.999993907636043 0 0.0034906576453397676
vn 0.999993907636043 0 -0.0034906576453397676
vn 0.0034906576453397676 0 0.999993907636043
vn -0.0034906576453397676 0 -0.999993907636043
vn -0.9650165457727877 0 0.2621889898236713
vn 0.9650165457727877 0 -0.2621889898236713
vn -0.8642747542897806 0 0.5030200285250475
vn 0.8642747542897806 0 -0.5030200285250475
vn -0.7912234015502732 0 0.611527210219803
vn -0.7046342055428597 0 0.7095707409265006
vn 0.7046342055428597 0 -0.7095707409265006
vn 0.7912234015502732 0 -0.611527210219803
vn -0.2554455567181385 0 0.966823441768434
vn 0.2554455567181385 0 -0.966823441768434
vn -0.49697403244050187 0 0.8677654124703443
vn 0.49697403244050187 0 -0.8677654124703443
vn -0.6059885613011541 0 0.7954733581787372
vn 0.6059885613011541 0 -0.7954733581787372
usemtl material_0_0
f 1//1 2//2 3//1
f 3//3 2//4 1//3
f 1//5 4//5 2//5
f 2//6 4//6 1//6
f 5//2 3//1 2//2
f 2//4 3//3 5//4
f 3//1 6//7 1//1
f 1//3 6//8 3//3
f 7//5 4//5 1//5
f 1//6 4//6 7//6
f 4//5 8//5 2//5
f 2//6 8//6 4//6
f 3//6 5//6 9//6
f 9//5 5//5 3//5
f 2//2 10//9 5//2
f 5//4 10//10 2//4
f 6//6 3//6 9//6
f 9//5 3//5 6//5
f 11//7 1//1 6//7
f 6//8 1//3 11//8
f 4//10 7//11 12//10
f 12//9 7//12 4//9
f 11//5 7//5 1//5
f 1//6 7//6 11//6
f 8//4 4//10 13//4
f 13//2 4//9 8//2
f 2//5 8//5 10//5
f 10//6 8//6 2//6
f 5//6 14//6 9//6
f 9//5 14//5 5//5
f 14//9 5//2 10//9
f 10//10 5//4 14//10
f 15//6 6//6 9//6
f 9//5 6//5 15//5
f 6//7 15//13 11//7
f 11//8 15//14 6//8
f 16//11 12//10 7//11
f 7//12 12//9 16//12
f 12//10 13//4 4//10
f 4//9 13//2 12//9
f 17//5 7//5 11//5
f 11//6 7//6 17//6
f 13//4 18//3 8//4
f 8//2 18//1 13//2
f 8//5 19//5 10//5
f 10//6 19//6 8//6
f 14//6 20//6 9//6
f 9//5 20//5 14//5
f 10//9 21//12 14//9
f 14//10 21//11 10//10
f 22//6 15//6 9//6
f 9//5 15//5 22//5
f 23//13 11//7 15//13
f 15//14 11//8 23//14
f 16//6 24//6 12//6
f 12//5 24//5 16//5
f 7//11 17//15 16//11
f 16//12 17//16 7//12
f 12//6 24//6 13//6
f 13//5 24//5 12//5
f 23//5 17//5 11//5
f 11//6 17//6 23//6
f 13//6 24//6 18//6
f 18//5 24//5 13//5
f 19//3 8//4 18//3
f 18//1 8//2 19//1
f 19//5 25//5 10//5
f 10//6 25//6 19//6
f 20//12 14//9 21//12
f 21//11 14//10 20//11
f 20//6 26//6 9//6
f 9//5 26//5 20//5
f 10//5 25//5 21//5
f 21//6 25//6 10//6
f 22//17 27//17 15//13
f 15//14 27//18 22//18
f 28//6 22//6 9//6
f 9//5 22//5 28//5
f 23//13 15//13 27//17
f 27//18 15//14 23//14
f 29//6 24//6 16//6
f 16//5 24//5 29//5
f 29//15 16//11 17//15
f 17//16 16//12 29//16
f 30//5 17//5 23//5
f 23//6 17//6 30//6
f 18//6 24//6 31//6
f 31//5 24//5 18//5
f 18//3 31//8 19//3
f 19//1 31//7 18//1
f 25//8 19//3 31//8
f 31//7 19//1 25//7
f 21//12 32//16 20//12
f 20//11 32//15 21//11
f 26//16 20//12 32//16
f 32//15 20//11 26//15
f 26//6 33//6 9//6
f 9//5 33//5 26//5
f 21//5 25//5 32//5
f 32//6 25//6 21//6
f 27//17 22//17 34//19
f 34//20 22//18 27//18
f 28//19 34//19 22//17
f 22//18 34//20 28//20
f 9//21 35//22 28//19
f 28//20 35//23 9//24
f 27//5 30//5 23//5
f 23//6 30//6 27//6
f 36//6 24//6 29//6
f 29//5 24//5 36//5
f 29//15 17//15 36//25
f 36//26 17//16 29//16
f 30//25 36//25 17//15
f 17//16 36//26 30//26
f 31//6 24//6 37//6
f 37//5 24//5 31//5
f 31//8 37//14 25//8
f 25//7 37//13 31//7
f 26//16 32//16 33//26
f 33//25 32//15 26//15
f 33//6 38//6 9//6
f 9//5 38//5 33//5
f 25//5 39//5 32//5
f 32//6 39//6 25//6
f 34//5 40//5 27//5
f 27//6 40//6 34//6
f 34//19 28//19 35//22
f 35//23 28//20 34//20
f 41//22 35//22 9//21
f 9//24 35//23 41//23
f 40//5 30//5 27//5
f 27//6 30//6 40//6
f 42//6 24//6 36//6
f 36//5 24//5 42//5
f 36//25 30//25 42//27
f 42//28 30//26 36//26
f 37//6 24//6 43//6
f 43//5 24//5 37//5
f 39//14 25//8 37//14
f 37//13 25//7 39//13
f 44//26 33//26 32//16
f 32//15 33//25 44//25
f 33//26 44//26 38//28
f 38//27 44//25 33//25
f 45//6 9//6 38//6
f 38//5 9//5 45//5
f 32//5 39//5 44//5
f 44//6 39//6 32//6
f 35//5 40//5 34//5
f 34//6 40//6 35//6
f 35//22 41//22 40//27
f 40//28 41//23 35//23
f 9//6 45//6 41//6
f 41//5 45//5 9//5
f 40//27 42//27 30//25
f 30//26 42//28 40//28
f 42//27 40//27 24//29
f 24//30 40//28 42//28
f 43//6 24//6 46//6
f 46//5 24//5 43//5
f 43//18 47//18 37//14
f 37//13 47//17 43//17
f 39//14 37//14 47//18
f 47//17 37//13 39//13
f 48//28 38//28 44//26
f 44//25 38//27 48//27
f 45//2 49//2 9//2
f 9//4 49//4 45//4
f 38//28 48//28 45//30
f 45//29 48//27 38//27
f 39//5 47//5 44//5
f 44//6 47//6 39//6
f 24//29 40//27 41//22
f 41//23 40//28 24//30
f 50//6 41//6 45//6
f 45//5 41//5 50//5
f 51//6 46//6 24//6
f 24//5 46//5 51//5
f 46//20 52//20 43//18
f 43//17 52//19 46//19
f 47//18 43//18 52//20
f 52//19 43//17 47//17
f 44//5 47//5 48//5
f 48//6 47//6 44//6
f 53//2 49//2 45//2
f 45//4 49//4 53//4
f 54//2 9//2 49//2
f 49//4 9//4 54//4
f 55//23 45//30 48//28
f 48//27 45//29 55//22
f 24//6 41//6 51//6
f 51//5 41//5 24//5
f 41//2 50//2 56//2
f 56//4 50//4 41//4
f 50//6 51//6 41//6
f 41//5 51//5 50//5
f 50//23 45//30 55//23
f 55//22 45//29 50//22
f 46//20 51//24 52//20
f 52//19 51//21 46//19
f 24//4 57//4 51//4
f 51//2 57//2 24//2
f 47//5 52//5 48//5
f 48//6 52//6 47//6
f 58//2 49//2 53//2
f 53//4 49//4 58//4
f 54//22 49//22 41//22
f 41//23 49//23 54//23
f 55//5 48//5 52//5
f 52//6 48//6 55//6
f 59//2 56//2 50//2
f 50//4 56//4 59//4
f 41//22 56//22 60//22
f 60//23 56//23 41//23
f 56//22 41//22 49//22
f 49//23 41//23 56//23
f 50//23 55//23 51//24
f 51//21 55//22 50//22
f 52//20 51//24 55//23
f 55//22 51//21 52//19
f 60//4 57//4 24//4
f 24//2 57//2 60//2
f 51//4 57//4 61//4
f 61//2 57//2 51//2
f 62//2 49//2 58//2
f 58//4 49//4 62//4
f 53//5 50//5 58//5
f 58//6 50//6 53//6
f 63//2 56//2 59//2
f 59//4 56//4 63//4
f 50//5 61//5 59//5
f 59//6 61//6 50//6
f 59//5 58//5 50//5
f 50//6 58//6 59//6
f 64//22 60//22 56//22
f 56//23 60//23 64//23
f 56//6 49//6 63//6
f 63//5 49//5 56//5
f 64//4 57//4 60//4
f 60//2 57//2 64//2
f 65//4 61//4 57//4
f 57//2 61//2 65//2
f 62//6 63//6 49//6
f 49//5 63//5 62//5
f 62//23 58//23 63//23
f 63//22 58//22 62//22
f 63//6 57//6 56//6
f 56//5 57//5 63//5
f 63//23 59//23 57//23
f 57//22 59//22 63//22
f 59//23 63//23 58//23
f 58//22 63//22 59//22
f 65//5 59//5 61//5
f 61//6 59//6 65//6
f 64//6 56//6 57//6
f 57//5 56//5 64//5
f 65//23 57//23 59//23
f 59//22 57//22 65//22
